<?xml version="1.0" encoding="UTF-8" standalone="no"?>
<svg xmlns="http://www.w3.org/2000/svg" xmlns:xlink="http://www.w3.org/1999/xlink" version="1.1"
   viewBox="-300 -300 600 600" height="600" width="600">
  <defs>
    <clipPath id="shield-clip">
      <path id="shield" d="m 1.5,1.5 h 597 v 597 h -597 z" transform="translate(-300,-300)"/>
    </clipPath>
    <pattern id="valyrian-steel-pattern" patternUnits="userSpaceOnUse" x="-81.42" y="-61.55" height="122.42" width="161.58">
      <g id="valyrian-steel">
        <rect style="fill:#7777aa;" height="122.42" width="161.58"/>
        <path style="fill:#aaaaaa;" d="m 7.918,121.6 c 9.902,-2 19.202,-6 29.202,-8 -4.9,2 5.6,0 0.1,1 -8,2 -16.3,4 -24,7 -1.8,0 -3.602,0 -5.302,0 z m 21.202,-5 c -2.7,-1 -1.7,1 0,0 z m -12.6,5 c 1.6,-2 8.2,-2 2.6,0 -0.7,0 -1.8,1 -2.6,0 z m 5.2,-1 c 9.1,-3 18.7,-5 28.1,-8 8.5,-1 16.7,3 25.17,2 7.75,-5 18.03,-1 25.91,-6 8.8,-2 14.6,-13.04 7.2,-20.04 -1.7,-2 -6.7,-6 -4.6,-6 -7.08,-7 -17.3,-8 -25.86,-12 -19.12,-6 -39.82,-10 -59.42,-4 -4.6,2 -14.302,4 -16.202,1 15.802,-3 31.802,-7 48.102,-5 14.7,1 28.81,6 42.5,11 7.58,2 13.58,7 18.68,12 6.1,5 14.6,12 9.6,20.04 -4.6,8 -14.1,9 -21.98,10 -5.3,0 -8.53,-3 -11.71,1 -7.75,4 -16.39,3 -23.99,-1 -9.6,-4 -18.6,2 -27.9,3 -4.3,1 -9,4 -13.6,2 z m 60.27,-3 c 6.16,-5 -7.57,-4 -2.74,-1 6.03,0 -13.53,1 -3.24,2 2.01,0 4.05,0 5.98,-1 z m -39.97,-1 c -1.9,-1 -1.9,3 0,0 z m 27.3,0 c -1.9,-3 -3.3,3 0,0 z m 16.51,-2 c -0.82,-2 -1.04,3 0,0 z m 10.49,0 c -2.6,-1 -1.1,1 0,0 z m 3.98,0 c -2.08,-3 -3.78,1 0,0 z m 3.4,-2 c 4.7,-4 -4.68,0 -1,0 z m 7.3,-1 c -1.8,-3 -1.6,3 0,0 z m 3.9,-2 c -1,-3 -1.1,1 -0.1,1 z m -2.3,-3 c -2.9,-1 -1.4,1 0,0 z m 2.5,-6 c -0.7,-5.04 -3.9,1 0,0 z m -1.8,-6.04 c 0.3,-4 -4.2,-5 -1.4,-1 0,2 2.4,3 1.4,1 z m -4.4,-8 c -1.3,-4 -5.1,-1 0,0 z m -75.98,35.04 c 10.2,-3 21.2,-6 31.7,-3 -9.7,0 -19.9,-1 -28.9,3 -0.9,0 -2.2,1 -2.8,0 z m 5.5,0 c 2.4,-2 0.8,1 0,0 z m 3.2,0 c 3.9,-3 3.5,3 0,0 z m 21.4,0 c -0.8,-3 8.57,-2 3.4,-2 4.1,2 -2.4,2 -3.4,2 z m 6.5,0 c 2.35,-2 0.7,1 0,0 z m 3.55,-1 c 4.31,0 9.95,1 13.96,-2 9.69,-3 19.97,-1 29.57,-4 6.6,-5 10.5,-16.04 4.1,-22.04 -3.2,-4 -11,-10 -11.7,-12 6.2,6 16.1,11 18.3,20.04 -0.6,5 -7.9,19 2.6,17 5.7,-6 11.3,-13 20.1,-13 2.4,-1 9.6,-2 3.5,0 -7.3,0 -17.8,11 -19,12 1.7,-2 4.5,-8 1.1,-3 -5.2,6 -13.3,9 -21,8 -10.5,-2 -21.88,-5 -31.96,0 -3.14,1 -6.48,0 -9.57,-1 z m 48.93,-1 c -2.3,-2 -0.4,3 0,0 z m -6.6,-1 c -1.8,-3 -1.5,4 0,0 z m -6.8,-1 c -2.6,-1 -5.2,2 0,0 z m 4.6,0 c -2.7,-1 -1.7,1 0,0 z m 7.4,1 c -3.8,-3 -4.5,1 0,0 z m -32.45,2 c 7.37,-4 -4.1,4 0,0 z m 2.73,1 c 2.34,-2 0.74,1 0,0 z m 4.44,0 c 0.3,-3 14.98,1 4.78,0 -1.58,0 -3.18,0 -4.78,0 z m 35.28,-1 c 2.7,-3 -0.8,3 0,0 z m 21.1,1 c 1.3,-3 11.7,-6 4.1,-2 -1.1,1 -2.4,3 -4.1,2 z m -151.0816,-2 c 16.6016,-1 31.9016,-8 47.7016,-12 9.4,-2 19.5,3 28.23,-2 6.7,-2 19.27,-2 18.17,-12.04 -1.5,-10 -11.73,-12 -18.96,-15 -11.24,-6 -23.64,-9 -36.24,-8 -9.7,0 -19.4,1 -28.8,4 -3.402,1 -12.402,0 -4.502,0 10.402,-2 20.402,-6 31.002,-5 12,-1 24.1,1 35.07,6 7.52,3 15.83,6 22.03,11 6.58,7 1.5,20.04 -8.5,17.04 -8.03,3 -16.1,7 -24.7,5 -8.2,-2 -15.9,1 -23.3,4 -8.6,1 -16.8,4 -25.1,7 -3.902,1 -8.102,1 -12.1016,0 z m 40.7016,-9 c 6.2,-3 -7,3 0,0 z m 4.5,9 c 3.6,0 11.8,-1 12.4,0 -4.1,1 -8.3,1 -12.4,0 z m 90.28,-1 c 4.1,-9 14.5,-12 23.6,-13 -3.9,4 -11.8,8 -17.5,12 -6.1,2 9.4,-11 1.2,-6 -2.9,2 -4.1,6 -7.3,7 z m -135.2816,-3 c 4.3996,0 14.0016,-3 15.1016,-2 -4.8,2 -10.102,2 -15.1016,2 z m 126.5816,-2 c -1.8,-6 10.8,-3 3.3,0 -1,1 -2.3,1 -3.3,0 z m -59.88,-1 c -8.5,-2 -17.5,-2 -26,1 9,-6 19.7,-2 29.3,-1 8.88,-3 18.8,-4 27.2,-7 7.38,-3 10.98,-11.04 4.58,-17.04 0.8,-4 7.2,8 4.4,12.04 -0.7,5 3.2,-5.04 1.9,-7.04 3.7,6 -3.9,12.04 -9.68,14.04 -7.6,2 -15.83,1 -23.18,5 -2.74,1 -5.82,1 -8.52,0 z m -66.6016,-2 c -0.4,-5 16.7016,-1 6.1996,-3 -4.6,0 -5,-2 -0.3,-1 6.402,-1 12.402,1 18.302,0 5.3,-3 9.8,2 3.2,4 5.6,-6 -6.6,1 -9.5,1 -5.1,0 -15.102,5 -17.9016,-1 z m 23.0016,-2 c -2.6,-1 -1.1,2 0,0 z m -6.7,-1 c -2.8,-2 -2.7,3 0,0 z m 47.5,3 c -7.6,-3 4.7,1 6.98,0 7.41,-4 15.99,-4 23.42,-7 6.78,-4.04 5.98,-15.04 -0.9,-19.04 -8.53,-7 -20.55,-8 -30.5,-13 -8.4,-3 -17.4,-2 -26,-4 -11.1,0 -21.6,5 -32.602,6 -6.4,-2 6.602,-2 8.502,-3 11.4,-3 23.5,-5 35.4,-3 9,1 17.7,3 25.93,7 9.43,3 20.47,6 25.55,15 8,7 -2.28,18.04 -10.36,16.04 -8.67,1 -16.57,8 -25.42,5 z m -12.5,-2 c 2.4,-2 0.8,2 0,0 z m 2.7,0 c 2.8,-1 1.8,1 0,0 z m 74.88,-1 c -1.1,-8.04 -2.7,-16.04 -10.9,-20.04 -3.7,-7 -8.3,-12 -15,-16 -11.08,-6 -24.25,-8 -36.78,-10 4.32,2 12.58,2 18.25,4 10.45,3 21.23,7 27.63,16 -4,-2 -9.6,-9 -15.58,-11 -14.6,-6 -30.7,-7 -46.2,-10 -6.4,-2 -14.4,-1 -19.7,1 -2.3,1 -12.2,1 -5.3,0 6.6,-7 17.4,-5 25.9,-4 13.9,3 27.93,5 41.5,8 8.08,3 15.18,7 20.88,13 3,3 9.3,8 6,8 5.9,6 9.1,13 15.5,18.04 7.1,2 13.9,-3 21.2,-4 -0.1,2 -9.2,4 -13,5 -4.8,1 -9.7,2 -14.4,2 z m -71.18,-48.04 c -3.4,-1 -11.1,-1 -12.1,-1 3,0 12.1,3 12.1,1 z m -15.3,-2 c -3.3,-1 -13.8,2 -4.7,1 1.6,0 3.2,0 4.7,-1 z m -9.8,49.04 c -2.8,-8.04 8.7,3 0,0 z m 7.1,-1 c 4.8,-2 -0.9,2 0,0 z m -12,-1 c 3.1,-3 3.9,3 0,0 z m 8.6,-1 c -0.8,-6.04 9.9,-2 1.9,0 2.5,1 4.6,1 -0.2,1 -0.7,0 -1.7,0 -1.7,-1 z m 9.9,0 c 3,-2 13.7,0 4.7,0 -0.6,0 -9.1,2 -4.7,0 z m 89.78,0 c -4,-3 -11.8,-13.04 -10.8,-14.04 5.9,6 11,17.04 20.9,12.04 2.8,-1 12.5,-3.04 10.9,-2.04 -6.9,2.04 -13.7,5.04 -21,4.04 z m -92.48,-2 c 3.2,-6.04 15.6,-4.04 17.6,-5.04 6,-1 5.7,-10 1,-13 -9.8,-6 -21.5,-4 -32.3,-3 -8.3,2 -15.8,7 -24.202,8 -8.5,0 -6.4996,-14 2.1,-11 9.502,0 18.602,-4 28.302,-4 8.5,0 17.3,0 25.4,3 5.4,2 5.4,7 6.1,10 -2.5,3 -3.4,14.04 2.3,7 1.82,-1 3.59,0 3.33,-3 8,4 -6.63,7 -9.63,10.04 -6.1,2 -12,-1.04 -17.4,2 -0.9,0 -3.5,1 -2.6,-1 z m 3.8,-1 c -2.4,-3.04 -1.1,3 0,0 z m 2.8,0 c -1.8,-3.04 -1.6,3 0,0 z m 7.6,-1.04 c -1.3,-2 -0.5,3.04 0,0 z m 6,-1 c -0.6,-4 -7.2,5.04 -1.2,0 0.4,0 0.8,0 1.2,0 z m -53.8,-13 c -1.902,-2 -0.5,4 0,0 z m 55.4,-4 c -4.4,-5 -3.4,3 0,0 z m -55.6,-2 c 5,-3 -9.402,2 -1.102,0 0.4,0 0.802,0 1.102,0 z m 49.7,0 c -4.2,-4 -2.6,0 0,0 z m 1,-2 c -1.5,-3 -0.9,2 0,0 z m -31.1,-2 c -4.7,-2 -4.1,2 0,0 z m 30.3,27.04 c 4.7,-3.04 0.2,3 0,0 z m -58.302,0 c -7.6,-7.04 6.7,-13.04 7.2,-5.04 0.4,5.04 5.402,-5 8.402,-6 7.1,-6 16.7,-4 25.3,-6 4.4,-3 11.8,1 7,6 -7.8,4 -16.4,6 -24.7,9.04 -6.9,1 -13.7,2 -20.602,2 -0.9,0 -1.7,0 -2.6,0 z m 3.4,-5.04 c -5.7996,-5 2.1,8.04 0,0 z m 8.102,2 c -1.7,-3 -1.5,3.04 0,0 z m 8.2,-2 c -3.3,1 1.7,3.04 0,0 z m 4.2,2 c -2.5,-2 -2.9,2.04 0,0 z m -9.2,-2 c -1.9,-2 0,3.04 0,0 z m 13.5,-1 c 8.9,1 6.9,-11 -1.4,-7 -6,1 -7.2,8 0.1,8 l 0.7,-1 z m 1.6,-3 c -6.8,-3 7.8,-1 0,0 z m 8.4,-3 c -2,-4 -1.4,3 0,0 z m -2.8,-2 c -1.9,-4 -0.1,4 0,0 z m 26.8,14.04 c 1.5,-3.04 3.1,2 0,0 z m 4.9,0 c -0.2,-4.04 2.79,-2 0,0 z m 68.78,-2 c -2.7,-5.04 -12.5,-12.04 -12.2,-14.04 4.2,4 11,9 12.2,14.04 z m 3.6,0 c 3.2,-1.04 15.9,-3.04 6.5,0 -2,1 -4.4,1 -6.5,0 z m -66.74,-2.04 c 3.3,-3 -0.59,2.04 0,0 z m 63.94,-1 c -5.7,-8 -15.6,-13 -21,-22 -3,0 -3.9,-4 -0.1,-3 -1.8,-4 -7.4,2 -5.2,-3 -5.5,-3 -10.2,-4 -14.38,-5 -13.6,-5 -28.2,-5 -42.1,-9 -10.9,-2 -22.3,-2 -33,1 -6.9,1 -14.702,5 -21.002,3 1.2,-6 10.702,-4 15.602,-7 9.4,-2 18.8,-6 28.7,-4 16.7,1 32.32,8 48.9,10 8.08,2 16.48,5 22.18,11 3.5,3 -4.3,-5 0.8,-1 4.4,6 9.3,11 15.7,15 5.3,6 14.3,8 22.3,6 7.2,0 4.4,10 -2.1,8 -5,1 -10.4,3.04 -15.3,0 z m -3.1,-10 c -2.3,-3 -4.6,2 -0.7,1 1.1,2 2.7,0 0.7,-1 z m -6.9,-5 c -1.7,-3 -4.9,0 0,0 z m -3.8,-2 c -2.4,-4 -0.3,2 0,0 z m -3.8,-5 c -3.3,-2 2,3 0,0 z m -35.81,-16 c -4.09,-4 -5.09,2 0,0 z m -32.77,-6 c -3.5,-2 -2.9,2 0,0 z m -22.6,-3 c -2.6,-1 -1.1,2 0,0 z m 55.93,45 c 2.37,-1 0.76,2 0,0 z m -22.33,-3 c 1.2,-6 0.2,4 0,0 z m 21.77,1 c 1.51,-1 0.44,2 0,0 z m -16.67,0 c -3.6,-3 4.77,-8 0.8,-3 -0.1,1 -0.1,2 -0.8,3 z m 10.51,-2 c 0.65,-2 0.29,4 0,0 z m -8.81,-1 c 1.97,-2 0,3 0,0 z m 3.8,-2 c 2.38,-1 0.76,2 0,0 z m 74.58,0 c -9.2,1 -14.5,-8 -21.4,-13 8.3,2 12.7,13 22.1,12 4,1 6.7,-2 1.2,-1 -10.3,0 -16.5,-9 -24.2,-14 -9.1,-8 -19.7,-14 -31.48,-15 -1.6,-1 -6.92,-2 -2.2,-3 -10.67,1 -21.42,-2 -30.9,-7 -4.9,2 -13,-2 -19.5,-2 -12.2,-2 -23.1,5 -34.802,7 -3.5,1 -7.8996,0 -2.5,-2 7.702,-3 16.002,-5 23.902,-7 8.4,-2 -5.7,-1 -8.4,1 -5.9,1 -11.702,4 -17.602,5 4.4,-4 12.502,-5 18.502,-7 8.1,-2 16.4,-2 24.2,1 7.5,2 15.1,1 22.5,3 3.64,1 11.14,3 3.41,0 -8.91,-2 -18.21,-4 -27.41,-6 2.7,2 10.8,2 10.6,4 -10.5,-2 -21.4,-7 -32.2,-3 -7.7,1 -15.102,4 -22.1016,8 2.2996,-10 16.1016,-6 20.2016,-11 -6.3,0 -12.202,4 -18.502,3 2.2,-4 9.302,-4 13.802,-4 9.2,-1 18.3,1 27.5,2 -5.5,-3 -13.6,-4 -20.3,-4 -7.3,-1 -15.002,3 -21.502,2 5.6,-4 14.102,-2 20.902,-3 12.1,0 24.4,1 35.8,5 8.6,4 17.2,7 25.51,11 7.31,0 11.09,3 18.27,3 7.9,-1 15.2,2 22.6,4 10.9,3 20.6,10 32,11 7.6,4 -5.9,1 -8.4,0 -11.6,-4 -22.3,-11 -34.5,-12 9.8,4 20.2,7 29.9,11 4.1,2 15.5,3 14.7,6 -9.7,-1 -18.2,-7 -27.8,-8 8.4,5 17.8,7 27,9 6.4,5 -10.2,-2 -7.7,1 2.7,-1 14.6,5 6.5,4 -13,-3 -24.3,-10 -35.2,-17 -2.2,-2 -13.5,-7 -6.1,-3 3.7,3 12.7,8 13.1,9 0.3,3 10.2,8 14.6,11 3.6,3 15.5,2 15.3,5 -8.3,0 -16.7,-2 -22.8,-8 -2.2,-1 -9.9,-9 -9.8,-6 7.6,4 13.4,12 22.2,14 4,0 14.1,2 11.3,4 -3.4,1 -6.9,0 -10.3,0 z m -4.8,-15 c -1.7,-4 -1.5,3 0,0 z m -4.1,-3 c -1.6,-3 -1,2 0,0 z m -17.1,-4 c -2.3,-6 -14.1,-9 -16.7,-9 0.5,1 -3.3,0 0.6,2 5.4,3 9,0 12.7,6 0.8,1 2.4,2 3.4,1 z m -2.9,-2 c -2.4,-4 3.8,4 0,0 z m -11.4,-6 c 1.7,-1 0.9,3 0,0 z m 18.9,4 c -6.4,-3 4,4 0,0 z m -25.5,-7 c -3.88,-1 -4.58,3 0,0 z m 8,-1 c -5.3,-1 -1.3,2 1.1,1 z m -12.58,0 c -2.7,0 -1.7,1 0,0 z m -12.97,-1 c -3.69,-1 4.04,-1 -2.22,-2 -7,-2 -13.91,-4 -21.11,-5 6.3,3 17.35,3 20.06,7 0.29,0 6.2,2 3.27,0 z m 15.55,0 c -4.68,-2 2.5,2 0,0 z m -92.882,-2 c 11.702,-2 23.002,-9 35.302,-7 3.9,1 7.2,0 1.5,-1 -10.2,-1 -20.1,2 -29.7,5 -1.6,0 -13.8016,5 -7.102,3 z m 64.002,-1 c -4.7,-3 1.5,2 0,0 z m -13.4,-4 c -2.6,-1 -1.1,1 0,0 z m -44.3,-8 c -3.902,-3 -3.4,3 0,0 z m 59.63,48 c -4.83,-2 1.74,-5 1.6,0 0.31,2 -1.72,1 -1.6,0 z m 10.46,-2 c -2.28,-4 3.8,4 0,0 z m 13.71,-2 c -2.8,-5 6.38,5 0.6,1 z m 61.28,0 c -8.6,-3 -18,-5 -25.1,-11 7.6,3 14.3,8 22.4,8 1.1,1 7.8,5 2.7,3 z m -66.98,-4 c 3.3,-2 4,3 0,0 z m 12.58,-2 c -0.6,-2 2.4,3 0,0 z m 7.7,-2 c -3.9,-1 -2,-5 0.4,-1 2.1,1 3.4,5 0.3,2 z m -34.93,-1 c -4.05,0 -6.75,-5 -1.18,-2 3.17,0 8.83,6 2.21,2 -0.34,0 -0.69,0 -1.03,0 z m 23.13,1 c -5.08,-4 -17.96,-6 -18.86,-8 7.01,2 14.18,4 19.96,8 -0.4,0 -0.8,0 -1.1,0 z m -80.38,-1 c 1.5,-2 1.4,2 0,0 z m 102.18,-1 c 1.8,-3 0.8,4 0,0 z m -121.0816,-2 c 2.7996,-1 13.4016,0 4.5996,0 -1.5,0 -3.1,1 -4.5996,0 z m 66.1016,-1 c -11.1,-3 -22.6,-4 -34,-4 10.5,-2 21.1,1 31.5,2 1.5,0 6.3,4 2.5,2 z m 42.18,-1 c -0.2,-3 2.4,4 0,0 z m -93.88,1 c 2.7,-3 11.4,-3 3.4,-1 -1.1,0 -2.3,1 -3.4,1 z m 141.08,-2 c -2.7,0 -10.2,-5 -3.3,-2 5.1,2 4.6,-3 0,-2 -13.2,-4 -26.5,-8 -40,-11 -2.4,-2 8.3,1 11.1,2 8.1,1 15.8,3 23.6,5 4.8,0 16.1,3 12.4,8 -1.3,0 -2.5,0 -3.8,0 z m -129.88,-1 c 3,-2 1.4,1 0,0 z m 48.48,-1 c -1.19,-2 3.06,3 0,0 z m -73.282,0 c 3,-1 1.3,1 0,0 z m 1.4,-1 c 2.5,-5 11.802,-2 16.802,-4 3.5,-1 7.8,0 1.6,0 -3.7,2 -15.502,2 -14.202,4 3.202,0 13.502,-2 5.002,0 -3.002,1 -6.202,1 -9.202,0 z m 68.642,0 c 2.38,-1 0.76,2 0,0 z m -2.74,0 c 2.4,-2 0.7,1 0,0 z m -4.2,-1 c 2.7,-1 1.7,1 0,0 z m -3.4,-1 c 2.7,-1 1.7,1 0,0 z m -11.6,-1 c 1.4,-2 5.6,1 0,0 z m 110.18,-1 c 2.4,-2 0.8,2 0,0 z m -2.7,-1 c 2.4,-1 0.7,2 0,0 z m 1.7,-1 c -11.9,-4 -24.8,-4 -36.9,-7 -14.3,-2 -28.88,-4 -41.56,-12 -10.62,-4 -21.62,-8 -32.22,-13 -13.5,-5 -28,-2 -41.902,-3 -4,0 -5.4996,-1 -0.7,-1 13.302,-1 26.702,0 39.902,2 13.7,2 25.9,9 38.79,14 4.59,4 7.91,1 13.11,5 9.88,4 20.98,3 31.48,4 9.9,1 19.8,2 29.6,3 4.5,7 -8.7,-1 -12.4,0 -3,0 -12.1,1 -4.4,2 6.9,1 14.9,1 19.5,7 h -1.2 z m -0.2,-6 c -4.4,-3 1.6,2 0,0 z m -20,-3 c -3.2,-2 -7.5,1 -1.8,1 0.4,0 3.8,0 1.8,-1 z m -12.6,0 c -2.6,-1 -3.4,1 0,0 z m -6.5,-1 c -2.9,-1 -1.4,1 0,0 z m -10.8,-1 c -2.6,-1 -1.1,2 0,0 z m 15.9,0 c -2.6,-1 -1.1,2 0,0 z m -31.48,-3 c -3.17,-3 -0.3,2 0,0 z m 3.4,-1 c -4.4,-3 1.8,3 0,0 z m 53.28,15 c -5.3,-3 5.3,0 1.3,0 z m -44,-7 c -3.6,-1 -13.08,-1 -12.78,-4 4.1,2 9.68,0 12.78,4 z m -21.69,-3 c -17.69,-6 -34.99,-15 -54.09,-15 -9,-1 -18.1,-1 -27.002,1 4.9,-5 13.402,-2 19.802,-3 22.1,0 43.2,8 63.1,17 2.57,1 1.41,2 -0.57,1 z m 70.69,0 c -18.2,-2 -36.7,-2 -54.7,-6 -10.25,-4 -18.12,-12 -28.42,-16 -8.66,-6 -17.26,-12 -27.66,-14 -7.8,-2 -15.8,-3.004 -23.8,-3.004 -1.4,4.004 -11.102,0 -3.8,0 -4.3,-4 7.7,-5 10.9,-5 9.4,1 18.4,4 27.3,7.004 6.4,2 12.1,6 16.4,11 7.15,5 15.33,9 22.1,15 8.08,5 18.18,7 27.78,7 13.1,1 26.3,2 39.4,4 3.4,2 -4.8,1 -5.5,0 z m -124.98,-42.004 c -2.8,-1 -1.4,2 0,0 z m 57.05,41.004 c 1.82,-3 3.37,1 0,0 z m -3.2,-2 c -13.85,-6 -27.75,-12 -42.15,-16 -13,-3 -26.3,-1 -39.402,-1 4.9,-5 13.602,-1 20.002,-2 11,-1 22.4,0 32.3,5 9.4,4 18.94,8 28.24,12 1.05,0 4.32,4 1.01,2 z m 73.53,1 c 1.9,-3 4.4,3 0,0 z m -4.5,-1 c -4.3,0 -13.6,-4 -14.4,-1 -8.7,1 -17.2,-2 -25.9,-3 -6.3,0 -12.48,-2 -17.98,-6 -5.25,-6 8.58,4 3.8,-1 -6.85,-7 -18.22,-5 -24.19,-12 -5.91,-8 -14.11,-12 -23.21,-14.004 -5.6,-1 -11.4,-6.001 -13.7,-6.001 2.6,1.001 -7.8,2.001 -9.9,0 5,-3.999 13.8,-1.999 19.9,0 7.1,2.001 14.5,4.001 21.9,6.001 7.51,5.004 11.92,14.004 20.48,18.004 7.82,4 -4.11,-7 -1.84,-11 3.66,-10.004 -9.62,-11.004 -16.84,-12.004 -2.5,-1.001 -13.3,-2.001 -11.5,-3 7.7,0.999 15.53,0.999 23.18,1.999 10.02,2.001 16.22,13.005 13.12,23.005 -0.4,9 11.58,15 19.88,15 4.6,0 13.6,2 15.5,1 -8.3,-3 -17.9,0 -25.5,-5 4.5,2 4.3,0 0.1,-1 -6.98,-6 -1.9,-17 -7.38,-24 -0.5,-3.004 -6.5,-10.005 -6.7,-7.004 6.4,5 9.98,13.004 8,21.004 1.08,3 6.58,14 0.2,8 -4.8,-8 0.38,-18 -5.8,-25.004 -3.59,-4 -9.51,-7.001 -15.11,-8 7.02,-1 15.81,0.999 19.41,8 4.68,5.004 4.38,12.004 4.98,19.004 1.3,9 10.3,11 17.7,11 10.1,0 20.1,0 30.2,0 2.6,-2 13.3,1 6.2,2 -3.5,-1 -14.7,1 -5.3,0 3.8,0 10.7,2 2.7,2 -4.2,-1 -6.8,1 -1.1,0 2.9,-1 9,3 2.5,1 -3.6,-2 -1.6,4 -3.4,2 z m -18.8,-2 c -2.8,-1 -1.3,1 0,0 z m 9.5,-3 c -3.2,-2 -13.6,1 -4.7,1 1.6,0 3.2,0 4.7,-1 z m -10.5,-1 c -2.4,-1 -3.8,1 0,0 z m 5.5,0 c -2.6,-1 -3.4,1 0,0 z m -50.43,-12 c -2.75,-3 -10.95,-6 -3.57,-1 0.47,0 5.66,4 3.57,1 z m -5.24,-1 c -8,-3 -10.5,-14 -19.61,-16 7.7,4 11.53,14 19.61,16 z m 11.69,-4 c -4.22,-7 -1.6,4 0,0 z m -17.01,-2 c -1.33,-7 -13.79,-14.004 -15.39,-12.004 7.3,1 11.63,8.004 15.38,12.004 z m 17.71,-1 c -1.9,-3 -3.1,2 0,0 z m -0.9,-3 c -1.9,0 1.9,2 0,0 z m -35.6,-7.004 c -5.3,-3 1.3,2.004 0,0 z m -15.4,-5 c -2.6,-2.001 -1.1,1 0,0 z m 2.9,-1 c -3.5,-3 -6.8,-1.001 -1.1,0 h 0.6 z m 41.94,-2.001 c -2.59,-1.999 -1.13,1 0,0 z m -3.93,36.005 c -11.9,-4 -22.21,-11 -33.51,-16 -15.5,-6 -32.2,-3 -48.102,-5 5.8,-1 15.902,1 23.402,0 3.2,0 10.7,0 11.1,0 -11,-1 -22.2,-1 -33.202,-2 8.702,-3 17.702,1 26.502,0 3,1 15.6,1 6.9,0 -9.2,-2 -18.7,-1 -27.902,-2 7.002,-2 14.502,1 21.702,0 14.7,0 27.7,7 39.7,15 5.58,3 12.15,6 16.58,11 1.56,2 -2.73,-1 -3.17,-1 z m -4.91,-3 c -3.01,-3 -3.48,0 0,0 z m 2.47,0 c -2.42,-4 -0.32,2 0,0 z m -3.12,-2 c -3.32,-3 1.76,2 0,0 z m -4.12,-1 c -2.43,-2 -7.53,-2 -1.87,0 -0.11,0 3.39,2 1.87,0 z m 1.38,-1 c -4.31,-3 -3.96,0 0,0 z m -11.71,-4 c -1.4,-2 -3.9,0 0,0 z m -3.9,-2 c 4,-1 -6.7,-4 0,0 z m -10.5,-6 c -5.3,-2 3,3 0,0 z m 2.3,0 c -10.2,-4 6.1,4 0,0 z m -7.7,-1 c -2.8,-1 -1.8,1 0,0 z m 1.7,-1 c -2.6,-2 -1.2,1 0,0 z m 99.98,21 c 2.4,-1 0.8,2 0,0 z m 13.8,0 c 2.4,-2 0.8,1 0,0 z m -10.5,-1 c -12.8,-1 -26.3,2 -38.8,-2 -7.5,-6 0.1,-18 -6.8,-24 -2.9,-2.004 -9.48,-12.004 -1.4,-10.004 8.7,4 11.7,13.004 16.6,20.004 8.8,10 23.1,9 35.1,10 5.2,-2 11.2,2 4.7,6 -3,1 -6.3,0 -9.4,0 z m -32.5,-2 c -4.1,1 -9.6,-12 -6.3,-3 1.4,2 3.8,4 6.3,3 z m 4.9,0 c -1.5,-2 -1.4,2 0,0 z m 33.3,1 c -2.6,-2 -1.2,1 0,0 z m 3.4,0 c -2.6,-2 -1.1,1 0,0 z m -31.7,-1 c -2.6,-1 -3.4,1 0,0 z m 22.1,-1 c -1.9,0 0.2,2 0,0 z m -33.7,-5 c -2.5,1 0.2,3 0,0 z m 16.8,2 c -2.8,-1 -1.7,1 0,0 z m -3.6,-1 c -3,-2 -8,-2 -2.4,0 0.8,1 2,1 2.4,0 z m -8.2,-5 c -2.7,-5 -1.4,4 0.6,1 z m -6.4,0 c -1.5,-3 -0.9,2 0,0 z m -3.4,-6 c -2.2,-3 0.3,3 0,0 z m -20.51,14 c -4.84,-2 2.13,-1 0.75,-2 1.58,1 1.98,6 -0.75,2 z m 15.11,-4 c -3.7,-2 1.7,-10 0.3,-3 1,2 1.2,8 -0.3,3 z m -68.38,2 c -3.2,-2 5.9,2 0,0 z m -13.5,-1 c 4.4,-2 6.2,2 0,0 z m 7.5,0 c 2.5,-1 3.4,1 0,0 z m 119.28,-1 c 3,-1 1.3,2 0,0 z m -1.9,-1 c -10.1,0 -20.9,-3 -27.6,-11 -0.9,-6 -11.2,-11.004 -10.7,-16.004 7.4,-3 11.7,7 17.4,9 -2.1,-4 -0.6,-12 1.9,-5 3.4,7.004 14.8,10.004 19.8,3 -4.5,-10 10.4,-9 10.6,-1 2.4,7.004 -7.7,2 -10.6,5.004 -3.2,2 -15.6,1 -6.3,2 5.5,1 16.9,-6.004 17.8,1 -1.5,-3 -9.6,3 -14,1 -4.1,-1 -14,0 -5.2,2 3.6,2 13.4,1 13.7,0 -5,0 -11.7,2 -15.4,-2 5.6,5 18.9,-4 20.7,3 -6.6,6 -16.7,2 -24.3,1 -6.1,-5 -12.9,-8 -18.3,-14.004 2,5.004 6.2,9.004 10.2,12.004 3,3 12.7,7 13.1,6 -5.8,-3 -12.6,-5 -16.1,-10 8.3,5 17.7,11 28.2,9 4.7,-2 11.1,2 3,3 -9.7,2 -19.5,-2 -28.1,-6 -3.8,-2 -8.6,-9 -9.7,-10.004 3.3,10.004 13.5,14.004 22.1,16.004 6.2,2 13.2,0 19.1,2 -3.7,1 -7.5,0 -11.3,0 z m 9.1,-3 c -6,-1 -3.3,1 0,0 z m -8.9,-1 c -2.6,-1 -3.5,2 0,0 z m -15.5,-10 c -4.3,-5.004 -3,0 0,0 z m 3.2,-2 c -4,-3.004 -5.7,0 0,0 z m -21.3,-7.004 c 1.5,-2.001 -4.1,-3.001 -0.9,0 -3.2,-1 0.1,2 0.9,0 z m 13,-1 c -1.9,1 2.4,2 0,0 z m -15.8,-1.001 c -1.2,-1.999 -2.1,2.001 0,0 z m -68.98,23.005 c -4.7,-2 7.9,3 0,0 z m 85.88,0 c 0.1,-3 1.8,3 0,0 z m -78.98,-2 c -14.2,-3 -29,-2 -43.502,-2 -4.7,4 -6.5996,-6 -0.2,-3 15.702,1 32.102,-1 47.102,5 4.7,3 -1.5,2 -3.2,0 z m 75.18,0 c -0.7,-5 3.7,3 0,0 z m -3.1,-3 c 0.8,-3 1,3 0,0 z m -16.6,-2 c -3.9,-8 3.3,-1 0,0 z m -25.11,-2 c -4.76,-9.004 -14.97,-11.004 -23.97,-12.004 -3.6,0 -13.6,-5 -4.5,-4 9.1,1.999 18.1,4 27.2,6 6.15,0 8.91,13.004 1.27,10.004 z m 37.91,1 c -2.1,-4 3,3 0,0 z m -57.58,-5 c -3.5,-2 6.5,3 0.2,0 z m 40.58,-1 c -4.08,-4.004 4.2,1 0,0 z m 13.5,-2.004 c -1.3,-3 2.8,3.004 0,0 z m 18.5,-1 c -4.5,-1 -2.4,-11 -1.2,-3 0.5,1 5.6,6.004 1.2,3 z m 3.3,0 c -7.3,-6.001 11.9,-12 8.1,-2 -1.2,3 -5.8,3 -8.1,2 z m 9.3,0 c -0.3,-2 1.8,-7.001 2,-2 -0.2,1 -0.9,2 -2,2 z m -20,-1 c -5,0 -7.2,-11 -0.9,-6.001 0.2,2.001 2.9,5.001 0.9,6.001 z m 34.7,-1 c -2.3,-4.001 1.8,-7 1.3,-1 0.3,1 -0.5,2 -1.3,1 z m -64.28,-3 c -4.69,-7 4.08,3 1,1 z"/>
      </g>
    </pattern>
    <radialGradient id="rg" gradientUnits="userSpaceOnUse" cx="220" cy="220" r="405">
      <stop style="stop-color:#fff;stop-opacity:.3" offset="0"/>
      <stop style="stop-color:#fff;stop-opacity:.2" offset=".2"/>
      <stop style="stop-color:#666;stop-opacity:.1" offset=".6"/>
      <stop style="stop-color:#000;stop-opacity:.13" offset="1"/>
    </radialGradient>
    <path id="high-half-path" d="m 70,0 v 5 a 30,30 0,0,1 -30,30 h -80 a 30,30 0,0,1 -30,-30 v -5"/>
    <use id="low-half-path" xlink:href="#high-half-path" transform="rotate(180)"/>
    <!-- <path id="low-half-path" d="m 80,6 v -6 a 30,30 0,0,0 -30,-30 h -80 a 30,30 0,0,0 -30,30 v 6"/> -->
    <g id="high-half" transform="translate(0,-240)" style="fill:none;">
      <use xlink:href="#high-half-path" style="stroke-width:24;"/>
      <use xlink:href="#high-half-path" style="stroke-width:24;stroke:#000000;opacity:0.5;"/>
      <use xlink:href="#high-half-path" style="stroke-width:22;stroke-linecap:round;"/>
    </g>
    <g id="low-half" transform="translate(0,-240)" style="fill:none;">
      <use xlink:href="#low-half-path" style="stroke-width:24;"/>
      <use xlink:href="#low-half-path" style="stroke-width:24;stroke:#000000;opacity:0.5;"/>
      <use xlink:href="#low-half-path" style="stroke-width:22;stroke-linecap:round;"/>
    </g>
  </defs>
  <use id="field" xlink:href="#shield" style="fill:#ffffff" />
  <use id="iron-high" xlink:href="#high-half" style="stroke:#444444;"/>
  <use id="lead-low" xlink:href="#low-half" transform="rotate(24)" style="stroke:deepskyblue;"/>
  <use id="platinum-high" xlink:href="#high-half" transform="rotate(48)" style="stroke:#f0f0f0;"/>
  <use id="red-gold-low" xlink:href="#low-half" transform="rotate(72)" style="stroke:orangered;"/>
  <use id="steel-high" xlink:href="#high-half" transform="rotate(96)" style="stroke:#aaaaaa;"/>
  <use id="copper-low" xlink:href="#low-half" transform="rotate(120)" style="stroke:orange;"/>
  <use id="valyrian-steel-high" xlink:href="#high-half" transform="rotate(144)" style="stroke:url(#valyrian-steel-pattern);"/>
  <use id="yellow-gold-low" xlink:href="#low-half" transform="rotate(168)" style="stroke:yellow;"/>
  <use id="black-iron-high" xlink:href="#high-half" transform="rotate(-168)" style="stroke:#111111;"/>
  <use id="pewter-low" xlink:href="#low-half" transform="rotate(-144)" style="stroke:skyblue;"/>
  <use id="silver-high" xlink:href="#high-half" transform="rotate(-120)" style="stroke:#dddddd;"/>
  <use id="electrum-low" xlink:href="#low-half" transform="rotate(-72)" style="stroke:lightgreen;"/>
  <use id="bronze-low" xlink:href="#low-half" transform="rotate(-96)" style="stroke:sienna;"/>
  <use id="tin-high" xlink:href="#high-half" transform="rotate(-48)" style="stroke:#cccccc;"/>
  <use id="brass-low" xlink:href="#low-half" transform="rotate(-24)" style="stroke:gold;"/>

  <use id="iron-low" xlink:href="#low-half" style="stroke:#444444;"/>
  <use id="lead-high" xlink:href="#high-half" transform="rotate(24)" style="stroke:deepskyblue;"/>
  <use id="platinum-low" xlink:href="#low-half" transform="rotate(48)" style="stroke:#f0f0f0;"/>
  <use id="red-gold-high" xlink:href="#high-half" transform="rotate(72)" style="stroke:orangered;"/>
  <use id="steel-low" xlink:href="#low-half" transform="rotate(96)" style="stroke:#aaaaaa;"/>
  <use id="copper-high" xlink:href="#high-half" transform="rotate(120)" style="stroke:orange;"/>
  <use id="valyrian-steel-low" xlink:href="#low-half" transform="rotate(144)" style="stroke:url(#valyrian-steel-pattern);"/>
  <use id="yellow-gold-high" xlink:href="#high-half" transform="rotate(168)" style="stroke:yellow;"/>
  <use id="black-iron-low" xlink:href="#low-half" transform="rotate(-168)" style="stroke:#111111;"/>
  <use id="pewter-high" xlink:href="#high-half" transform="rotate(-144)" style="stroke:skyblue;"/>
  <use id="silver-low" xlink:href="#low-half" transform="rotate(-120)" style="stroke:#dddddd;"/>
  <use id="bronze-high" xlink:href="#high-half" transform="rotate(-96)" style="stroke:sienna;"/>
  <use id="electrum-high" xlink:href="#high-half" transform="rotate(-72)" style="stroke:lightgreen;"/>
  <use id="tin-low" xlink:href="#low-half" transform="rotate(-48)" style="stroke:#cccccc;"/>
  <use id="brass-high" xlink:href="#high-half" transform="rotate(-24)" style="stroke:gold;"/>
  <use id="shine" xlink:href="#shield" style="fill:url(#rg);stroke:#000000;stroke-width:3;" />
</svg>
