<?xml version="1.0" encoding="UTF-8"?>
<svg xmlns="http://www.w3.org/2000/svg" xmlns:xlink="http://www.w3.org/1999/xlink" width="600" height="600">
<defs>
  <radialGradient id="rg" gradientUnits="userSpaceOnUse" cx="220" cy="220" r="405">
    <stop style="stop-color:#fff;stop-opacity:.3" offset="0"/>
    <stop style="stop-color:#fff;stop-opacity:.2" offset=".2"/>
    <stop style="stop-color:#666;stop-opacity:.1" offset=".6"/>
    <stop style="stop-color:#000;stop-opacity:.13" offset="1"/>
  </radialGradient>
  <circle id="shield" cx="300" cy="300" r="298"/>
</defs>
<g id="moon">
  <circle style="fill:#dddddd" cx="300" cy="300" r="297" />
  <path style="fill:#eeeeee" d="m 338.05097,592.31264 c 56.53522,-9.59615 91.39367,-22.9068 129.84198,-49.57909 20.97181,-14.54833 68.43711,-64.54689 81.36684,-85.70821 21.55521,-35.27921 28.06789,-51.82983 40.91369,-103.96117 5.54539,-22.50315 6.60711,-74.20229 2.05192,-99.90666 -5.1724,-29.18451 -19.65439,-72.45317 -28.94311,-86.47233 -4.93502,-7.44829 -8.97272,-14.12626 -8.97272,-14.83993 0,-5.5375 -23.81037,-37.44162 -42.32317,-56.710836 -28.72174,-29.894019 -42.02804,-40.672212 -68.21831,-55.25536 -70.64803,-39.3388894 -164.2119,-48.1262207 -238.47781,-22.398424 -58.63167,20.312188 -105.628616,55.411301 -147.071461,109.83759 -20.761638,27.26378 -34.466628,55.14617 -43.997297,89.50277 -11.241158,40.52407 -12.73284,52.84604 -11.3653009,93.86911 1.1062254,33.17924 2.4017582,42.41101 9.4133819,67.06536 8.476335,29.80567 32.713642,79.5381 49.050105,100.65262 15.787674,20.40238 39.443112,43.59352 44.465422,43.59352 2.84037,0 6.23333,2.74301 7.83519,6.3346 5.93339,13.30315 68.38367,47.6922 104.85004,57.73486 18.0701,4.97715 31.38556,6.79697 52.75704,7.2105 15.72283,0.30424 29.36546,1.34908 30.31954,2.32208 2.37357,2.42471 3.33599,2.33793 36.50199,-3.29192 z m -48.97633,-12.50292 c -7.71231,-1.75019 -5.19278,-8.42632 3.18029,-8.42632 4.82792,0 7.63267,1.33042 7.63267,3.62046 0,4.23124 -4.51093,6.23611 -10.81296,4.80586 z m -107.34596,-18.57787 c -0.94625,-1.56405 -4.88793,-2.84383 -8.7595,-2.84383 -4.14327,0 -9.40241,-2.56977 -12.78369,-6.24678 -5.12229,-5.56999 -5.2971,-6.50275 -1.61236,-8.60925 2.4234,-1.38543 3.49093,-4.07036 2.58113,-6.49241 -2.05633,-5.47407 -10.68473,-7.63281 -12.38785,-3.09908 -1.77234,4.71802 -8.14584,2.06513 -18.98399,-7.90184 -27.3555,-25.15651 -29.23568,-31.49502 -9.21237,-31.03758 6.96863,0.15843 17.40706,1.59659 23.19621,3.19603 8.61373,2.37968 11.97923,2.1672 18.52729,-1.16985 7.05819,-3.59704 7.91711,-5.19962 7.28384,-13.59212 -0.55874,-7.40594 0.12793,-9.28271 3.09863,-8.46894 2.09899,0.57501 5.53371,0.86405 7.63268,0.64236 24.40676,-2.57794 26.57188,-2.1776 36.43837,6.74162 6.54683,5.91721 10.70356,8.00163 12.72114,6.3788 1.64822,-1.32583 7.95708,-3.0549 14.01969,-3.84266 6.06264,-0.7876 11.37143,-1.82272 11.79733,-2.30029 0.42586,-0.47753 1.60741,-7.18499 2.62565,-14.90541 1.67845,-12.7264 1.43424,-13.87362 -2.61498,-12.28639 -2.5043,0.98171 -7.10321,-0.0119 -10.46844,-2.26657 -7.56678,-5.06474 -8.1708,-10.46423 -0.71483,-6.38792 5.92524,3.23942 12.52241,1.65189 12.52241,-3.01333 0,-1.68727 4.26665,-7.27934 9.48181,-12.42697 7.8225,-7.72147 9.63599,-8.56328 10.36339,-4.81081 0.48494,2.50156 2.6582,4.5483 4.82947,4.5483 5.59243,0 2.35188,-15.77014 -4.18399,-20.36157 -3.84128,-2.69831 -4.44095,-4.79885 -2.70348,-9.4675 1.22814,-3.29973 1.64328,-8.30285 0.92265,-11.1181 -0.81836,-3.19683 0.19943,-5.71033 2.71111,-6.69484 6.41476,-2.5146 11.93827,0.97448 11.12488,7.02724 -0.60881,4.53012 0.7496,5.67471 7.52583,6.34212 5.52045,0.54375 8.28399,-0.32011 8.31453,-2.59902 0.0554,-4.15191 20.60034,-18.19889 33.68808,-23.03336 11.02692,-4.07319 12.2227,-9.12181 3.15966,-13.34032 -4.7704,-2.22035 -8.74298,-2.20719 -15.90141,0.0526 -12.83253,4.0511 -27.35294,0.76809 -27.35294,-6.18464 0,-3.46428 2.03285,-5.37196 6.36057,-5.96919 3.4983,-0.48273 8.65034,-3.01619 11.44902,-5.63005 5.9265,-5.53541 28.55127,-5.3641 31.94271,0.2418 1.63583,2.70376 2.77321,2.69129 6.02651,-0.067 2.20565,-1.86994 4.01019,-5.01092 4.01019,-6.98024 0,-4.61977 5.0325,-4.44122 11.2992,0.40087 2.7162,2.09877 7.35305,3.8159 10.3041,3.8159 2.95103,0 6.71216,1.37587 8.35828,3.05751 2.29445,2.34391 4.1705,1.96872 8.039,-1.60754 3.40849,-3.15108 7.10726,-4.13636 11.3976,-3.03646 6.95135,1.78226 7.83521,4.9028 10.13951,35.80423 1.2856,17.23702 1.24819,17.35918 -7.32712,24.04104 -9.94079,7.74563 -13.2834,8.16092 -23.23285,2.88801 -6.16539,-3.26747 -7.97715,-3.30387 -12.37588,-0.24886 -3.25253,2.25932 -4.97648,6.06742 -4.67397,10.32542 0.54118,7.62191 -0.85615,8.29872 -6.63916,3.21576 -6.0143,-5.28641 -19.36817,-9.22055 -23.16364,-6.82449 -2.50672,1.5826 -2.73553,4.27461 -0.9162,10.7805 1.86022,6.6522 4.46921,9.35259 11.20529,11.59844 6.70862,2.23656 9.14419,4.74321 10.32142,10.62299 2.28842,11.43027 4.42236,13.73952 12.69671,13.73952 4.82841,0 9.46907,-2.31419 13.02971,-6.49758 6.68343,-7.85218 17.33381,-8.83697 17.33381,-1.60266 0,2.6921 2.04935,5.44239 4.55416,6.11137 2.50465,0.66913 6.38067,5.96687 8.61323,11.7731 l 4.05929,10.55647 -8.28855,8.97655 c -4.55875,4.93709 -8.76918,10.45016 -9.35716,12.25154 -0.58774,1.80123 -6.74475,4.18857 -13.68208,5.30541 -16.87941,2.71701 -27.32496,-2.95148 -29.15172,-15.82109 -1.12265,-7.90857 -2.31823,-9.12389 -10.17688,-10.34516 -5.46731,-0.84966 -12.65856,0.27594 -18.62883,2.91609 -14.20595,6.28187 -15.77013,8.70105 -9.491,14.67698 4.34607,4.13637 4.91597,6.36556 2.96608,11.60467 -1.95589,5.25526 -1.40279,7.36879 2.91669,11.147 l 5.33042,4.66239 -8.5293,2.8792 c -10.84905,3.66231 -12.40867,8.45258 -4.02289,12.35577 11.26812,5.2446 6.67044,10.30127 -12.52116,13.77096 -5.59729,1.01197 -18.76364,4.76483 -29.25859,8.33978 -16.20796,5.52111 -20.42274,6.06587 -27.98647,3.61733 -8.52517,-2.75964 -43.09155,-0.54638 -61.39979,3.93129 -3.83667,0.93836 -7.43344,0.42339 -8.41885,-1.20542 z m 44.3764,-19.58418 c 0,-5.08137 -4.93173,-7.85062 -8.14152,-4.57169 -1.43532,1.46623 -1.84047,3.93725 -0.90026,5.49148 2.49386,4.12205 9.04165,3.45618 9.04165,-0.91967 z m -27.98647,-48.23539 c 0,-1.42947 -1.64978,-2.59904 -3.66622,-2.59904 -2.01645,0 -4.37378,1.16957 -5.23858,2.59904 -0.86478,1.42948 0.78497,2.59903 3.66624,2.59903 2.88128,0 5.23856,-1.16955 5.23856,-2.59903 z m 148.62854,-27.56792 c 5.68479,-2.22846 5.00195,-6.21946 -1.06402,-6.21946 -2.82688,0 -5.08845,1.73272 -5.08845,3.89853 0,4.37419 0.46596,4.55012 6.15244,2.32098 z m -31.34998,-23.67351 c 9.96525,-6.01339 9.30198,-10.03279 -2.6864,-16.28057 -13.39002,-6.97815 -17.4768,-6.62309 -19.52083,1.69649 -1.3931,5.67003 -0.34961,8.05674 5.67613,12.98215 8.82697,7.21517 7.45001,7.08183 16.53138,1.60177 z m -33.31914,-0.73913 c 0,-1.42946 -1.1449,-2.59902 -2.54423,-2.59902 -1.39934,0 -2.54422,1.16956 -2.54422,2.59902 0,1.42945 1.14488,2.59903 2.54422,2.59903 1.39933,0 2.54423,-1.16958 2.54423,-2.59903 z m 66.99963,-53.09036 c 1.44521,-3.84737 -4.961,-11.15037 -7.50295,-8.55341 -1.96355,2.00582 1.38997,12.26194 4.00946,12.26194 1.1553,0 2.7274,-1.66883 3.49372,-3.70853 z m -10.62417,136.51141 c -2.65008,-1.67302 -2.43115,-2.49807 1.02148,-3.85153 5.24008,-2.05407 8.11861,0.0885 4.74674,3.53314 -1.31771,1.34613 -3.91353,1.48936 -5.76827,0.31836 z m 128.01266,-21.15948 c -2.2987,-3.79954 3.5553,-10.2823 9.28514,-10.2823 5.82526,0 6.12677,3.44815 0.77904,8.91107 -4.65236,4.75255 -7.76217,5.1762 -10.06418,1.37133 z m -371.100647,-25.22669 c -2.010016,-3.93104 -7.191514,-10.58249 -11.514407,-14.78096 -4.322893,-4.19846 -7.859863,-8.70829 -7.859863,-10.02212 0,-1.3138 -2.862255,-4.68838 -6.360568,-7.49949 -3.498312,-2.81112 -6.360552,-7.36515 -6.360552,-10.12036 0,-5.41223 3.753253,-6.72007 6.457482,-2.25007 0.918231,1.51763 4.420602,3.82783 7.782799,5.13361 4.183982,1.62493 6.113522,4.40611 6.113522,8.81146 0,4.67801 3.044925,8.57706 11.142922,14.26869 11.807252,8.29868 15.060802,13.3572 12.675332,19.70793 -2.30166,6.12719 -8.076883,4.57349 -12.076667,-3.24883 z m 344.411717,-0.59019 c 3.63979,-6.94747 12.75242,-11.98622 12.75242,-7.05143 0,4.27514 -8.0349,12.18997 -12.37485,12.18997 -2.26921,0 -2.36765,-1.33969 -0.37757,-5.13854 z m 54.04443,-13.542 c 1.57235,-4.81911 7.04955,-5.61856 7.04955,-1.02875 0,2.26331 -1.81276,4.11503 -4.02827,4.11503 -2.21577,0 -3.57514,-1.38886 -3.02128,-3.08635 z m 14.68221,-10.85044 c 0,-4.53219 14.73895,-16.05627 17.25214,-13.48895 0.9317,0.95172 -0.0304,4.88047 -2.13971,8.73042 -4.25266,7.76536 -15.11243,11.18492 -15.11243,4.75882 z m -405.44767,-0.86159 c -2.46344,-2.51647 -1.94721,-18.47983 0.65065,-20.1201 2.75641,-1.7403 5.3551,4.51271 5.3551,12.886 0,6.34136 -3.15715,10.144 -6.00566,7.2341 z m 43.91331,-2.68294 c -5.20447,-3.30494 -7.2953,-7.68975 -9.7973,-20.54899 -1.74948,-8.99106 -4.72767,-17.65909 -6.61855,-19.2619 -5.71967,-4.849 -12.51073,-1.81405 -13.39201,5.98478 -0.44283,3.91933 -2.86151,8.25035 -5.37467,9.6242 -3.73852,2.0439 -6.94651,-0.12895 -17.640413,-11.94798 -7.188956,-7.9455 -13.070961,-16.07163 -13.070961,-18.05859 0,-1.98679 -4.007151,-5.32281 -8.904771,-7.4132 -8.783696,-3.74912 -12.366735,-11.86302 -5.238566,-11.86302 6.02293,0 7.625538,-5.73451 2.642942,-9.45632 -2.554923,-1.90838 -4.872696,-6.11679 -5.150546,-9.35207 -0.277997,-3.23527 -1.340521,-9.54338 -2.361284,-14.01838 -1.797232,-7.87871 -1.415585,-8.34185 12.06777,-14.64787 8.011007,-3.74651 16.592918,-5.99052 20.20929,-5.28435 3.85833,0.75345 7.955019,-0.47785 10.608409,-3.18849 3.99951,-4.08568 4.01503,-4.89553 0.20827,-10.83067 -4.56789,-7.12135 -3.381,-13.79201 2.45363,-13.79201 2.0884,0 6.04075,-2.46023 8.78316,-5.46706 l 4.98595,-5.46707 3.85016,7.60579 c 2.11757,4.18315 5.64309,9.12573 7.83416,10.98352 4.54935,3.85696 5.27012,13.38317 1.31809,17.42023 -3.85397,3.93703 2.31778,16.5093 8.10412,16.5093 2.54179,0 6.50052,-2.92961 8.79743,-6.51057 3.43623,-5.3571 3.59703,-7.22319 0.90751,-10.53359 -2.76559,-3.40396 -1.83314,-5.44732 6.05957,-13.27845 5.13043,-5.09045 9.32815,-10.87642 9.32815,-12.85768 0,-5.64508 7.12485,-4.21897 11.218,2.24573 2.0365,3.21628 4.50811,9.19198 5.49273,13.27921 1.73907,7.21985 1.56301,7.38047 -6.18831,5.64145 -6.1199,-1.37314 -7.97819,-0.89957 -7.97819,2.03323 0,2.10279 -2.86227,4.55713 -6.36056,5.45405 -7.3294,1.87919 -8.67124,9.32896 -1.68053,9.32896 2.57399,0 5.953,2.85399 7.50905,6.34243 2.65284,5.9476 2.32205,6.39229 -5.31619,7.1473 -6.66863,0.65911 -8.03975,1.83876 -7.56397,6.50851 0.35799,3.51415 -1.92119,7.71391 -5.93772,10.94165 -3.58532,2.88103 -5.74842,6.51133 -4.80679,8.06763 1.21539,2.00888 2.77093,1.93172 5.36323,-0.2661 2.00822,-1.70254 4.47276,-2.25641 5.4767,-1.2308 1.00401,1.02567 -0.16869,3.00474 -2.6058,4.39809 -6.00743,3.43435 -5.60748,11.93942 0.65726,13.97056 6.99305,2.26731 6.38167,7.66039 -1.27212,11.22261 -7.18744,3.3452 -8.1947,8.67766 -2.54422,13.46818 2.09897,1.77954 3.81634,5.20794 3.81634,7.61852 0,2.4107 1.68092,6.65327 3.73543,9.42823 3.26755,4.41344 3.74561,4.49479 3.81634,0.65017 0.0444,-2.41721 1.28335,-5.15413 2.7531,-6.08199 3.19782,-2.01892 18.21614,4.87136 22.73112,10.42885 4.36183,5.36883 8.37456,4.95611 12.16952,-1.25154 3.92322,-6.41754 5.34745,-6.38868 13.17579,0.26702 5.1541,4.38198 5.59168,5.71267 2.54423,7.73655 -2.02424,1.34439 -6.39111,1.7911 -9.70416,0.99272 -3.45482,-0.83256 -7.79477,0.11632 -10.17691,2.22502 -2.28432,2.02213 -9.87771,4.42536 -16.87432,5.34021 -6.99663,0.91487 -15.58339,2.17712 -19.08169,2.80463 -3.49833,0.62752 -9.33809,-0.74961 -12.97709,-3.06036 z m 16.79343,-5.47667 c 0,-8.03259 -4.92462,-7.14371 -5.92015,1.06878 -0.58113,4.79335 0.18573,6.51523 2.54422,5.71213 1.85679,-0.6323 3.37593,-3.68361 3.37593,-6.78085 z m -47.54395,-38.76973 c -0.46672,-2.50159 -3.50213,-4.93399 -6.74525,-5.40547 -5.25382,-0.76363 -5.5879,-0.26795 -3.06476,4.54831 3.47566,6.63427 11.01064,7.29261 9.81001,0.85704 z m 24.48078,-18.57058 c 0.77422,-1.27965 -0.20827,-2.96031 -2.18348,-3.73428 -1.97517,-0.77428 -4.2224,0.27287 -4.99406,2.32669 -1.52381,4.05655 4.82205,5.30094 7.17751,1.40771 z m -6.19567,-41.85737 c 0,-1.42948 -1.71738,-2.59902 -3.81634,-2.59902 -2.09899,0 -3.81635,1.16954 -3.81635,2.59902 0,1.42946 1.71736,2.59903 3.81635,2.59903 2.09896,0 3.81634,-1.16957 3.81634,-2.59903 z m -12.72112,93.48449 c 0,-6.35879 6.79459,-9.6289 10.98392,-5.2867 2.32173,2.40645 1.88092,3.96975 -1.92943,6.84273 -6.73456,5.07771 -9.05465,4.67902 -9.05465,-1.55603 z m 299.58247,-1.40501 c -3.84816,-2.13263 -6.99661,-5.59442 -6.99661,-7.69312 0,-6.82688 -11.54444,-5.68538 -19.58825,1.93652 -3.12764,2.96369 -7.33528,4.61952 -9.54084,3.75482 -5.47647,-2.14681 -5.09229,-14.50207 0.50658,-16.28994 2.44884,-0.78199 7.49125,-3.08453 11.20554,-5.11645 11.33962,-6.20389 17.41699,-4.86953 17.41699,3.82422 0,8.45489 5.50575,12.01999 12.58527,8.1495 3.4024,-1.86013 5.64996,-1.30252 8.72035,2.16327 5.22023,5.89251 5.25711,9.76222 0.11205,11.77905 -5.4276,2.12761 -6.34428,1.96819 -14.42119,-2.50801 z m -199.87941,-1.27491 c 0.61221,-1.87614 2.61571,-3.92297 4.4524,-4.5483 1.90816,-0.64975 2.86227,0.32489 2.22621,2.27414 -0.61221,1.87619 -2.61571,3.92299 -4.45239,4.54831 -1.90818,0.64976 -2.86227,-0.3249 -2.22622,-2.27415 z m 26.23606,-7.63464 c -1.85525,-3.06661 0.55126,-7.79709 3.96642,-7.79709 1.31676,0 2.39409,2.33914 2.39409,5.19806 0,5.48159 -3.7016,6.99398 -6.36057,2.59903 z m -201.629813,-5.55363 c -1.749163,-1.8057 -3.180291,-6.80839 -3.180291,-11.11732 0,-7.13877 0.356694,-7.46988 4.018355,-3.7291 2.261295,2.30986 3.651957,7.17151 3.180262,11.11734 -0.672966,5.63056 -1.464697,6.36529 -4.018326,3.72908 z m 386.086133,-8.74102 c 0,-2.14423 1.14488,-3.89856 2.54422,-3.89856 1.39929,0 2.54422,1.75433 2.54422,3.89856 0,2.1442 -1.14493,3.89853 -2.54422,3.89853 -1.39934,0 -2.54422,-1.75433 -2.54422,-3.89853 z m -259.30743,-5.41458 c 0.12205,-3.02786 0.72498,-3.64359 1.53712,-1.57023 0.73495,1.87614 0.64458,4.11789 -0.20066,4.98154 -0.84543,0.86364 -1.44677,-0.67143 -1.3363,-3.41125 z m -12.92212,-26.48152 c 0,-3.32544 17.16616,-11.70029 20.13731,-9.8243 4.83604,3.05307 2.97393,6.63424 -3.4495,6.63424 -3.41561,0 -6.91798,1.16959 -7.78275,2.59904 -1.8453,3.04999 -8.90478,3.51858 -8.90478,0.59102 z m 80.17871,-19.73521 c -4.23077,-3.16039 -4.39007,-4.44433 -1.44972,-11.69562 2.35882,-5.8174 4.98973,-8.14564 9.2045,-8.14564 3.24593,0 6.62083,1.18867 7.49985,2.6414 0.87906,1.45276 2.83733,1.85906 4.3519,0.90281 3.48433,-2.19985 -4.81749,-8.74235 -11.09332,-8.74235 -2.4591,0 -7.51998,-2.88647 -11.24648,-6.41441 -3.72655,-3.52791 -8.83178,-7.08104 -11.34499,-7.8961 -2.51334,-0.81487 -5.21207,-3.19136 -5.99695,-5.28123 -1.72268,-4.58598 -12.09781,-5.01796 -16.34359,-0.68078 -2.37462,2.42578 -3.0531,1.55941 -3.0531,-3.89852 0,-3.85956 1.14492,-7.0174 2.54423,-7.0174 1.39932,0 2.55134,-2.63152 2.55998,-5.8478 0.009,-3.2163 1.72601,-9.19772 3.81635,-13.2922 4.66944,-9.14601 4.67477,-9.44932 0.16625,-9.44932 -8.02298,0 -12.16701,-8.08012 -10.38145,-20.24306 2.27813,-15.51881 3.68351,-18.74238 8.17101,-18.74238 6.32494,0 18.17366,-10.13595 19.05091,-16.29721 0.80378,-5.64561 1.01106,-5.59389 8.05657,2.0025 6.41319,6.91473 7.05689,9.10387 5.68682,19.34563 -0.84958,6.35176 -3.68303,13.9539 -6.29643,16.89367 -10.51783,11.8316 -11.30273,16.44769 -5.34492,31.44307 5.33016,13.4154 5.85477,13.89805 13.56377,12.48107 13.82023,-2.54035 26.76016,-9.66371 27.59214,-15.18771 0.54099,-3.59914 2.73809,-5.19806 7.14188,-5.19806 8.50485,0 9.07143,10.0029 0.63606,11.22679 -3.92217,0.56902 -5.73673,2.61488 -5.76346,6.49756 -0.0213,3.11676 -1.06661,7.32564 -2.32264,9.35287 -2.399,3.87176 1.49818,12.08343 10.88013,22.92475 4.97651,5.75058 4.97852,5.92837 0.16625,15.28697 -7.46477,14.51765 -29.1212,21.49397 -40.45063,13.03073 z m -68.83401,-33.01027 c -2.73835,-4.52594 0.38043,-5.48447 3.87001,-1.1894 2.00678,2.47008 2.19981,3.96143 0.51275,3.96143 -1.4881,0 -3.46014,-1.24737 -4.3827,-2.77187 z m 174.38372,-3.50894 c 0,-2.2633 1.81277,-4.11504 4.02826,-4.11504 4.49287,0 3.71052,5.59519 -1.00707,7.20139 -1.66168,0.56583 -3.02125,-0.82301 -3.02125,-3.08635 z m -291.288294,-6.75644 c 0.878766,-1.45278 2.663793,-1.96856 3.96645,-1.1461 3.528838,2.22796 2.8709,3.78756 -1.598049,3.78756 -2.181658,0 -3.247445,-1.18867 -2.368401,-2.6414 z m 30.505238,-18.15082 c 0.864855,-1.4295 2.077317,-2.59904 2.694348,-2.59904 0.617031,0 1.121972,1.16954 1.121972,2.59904 0,1.42946 -1.212506,2.59902 -2.694348,2.59902 -1.481886,0 -1.986798,-1.16956 -1.121972,-2.59902 z m 66.149846,-38.98545 c 0.86487,-1.42948 2.07732,-2.59903 2.69435,-2.59903 0.61703,0 1.12197,1.16955 1.12197,2.59903 0,1.42946 -1.21251,2.59903 -2.69435,2.59903 -1.48188,0 -1.9868,-1.16957 -1.12197,-2.59903 z m 13.99324,-27.28981 c -3.4983,-2.04287 -10.28094,-3.75587 -15.07275,-3.80654 l -8.71217,-0.092 5.53188,-6.01519 c 5.38104,-5.85147 7.33603,-12.17801 3.76293,-12.17801 -0.97294,0 -4.70479,2.87321 -8.29266,6.38478 l -6.52389,6.38477 -10.15301,-5.80544 c -11.69985,-6.68993 -13.97997,-14.1928 -6.43281,-21.16989 5.52836,-5.11071 10.77785,-3.46347 5.65126,1.77354 -3.62096,3.69893 -3.97563,9.83291 -0.56857,9.83291 2.27631,0 5.54182,-9.7313 8.93966,-26.64007 1.77189,-8.81746 3.8316,-8.84657 25.77298,-0.36114 24.35994,9.42097 31.093,10.42393 33.1538,4.93763 1.93035,-5.13879 -2.78034,-9.0264 -11.00888,-9.08516 -6.36717,-0.0455 -23.67959,-9.76298 -23.67959,-13.29168 0,-1.28827 -4.00716,-2.3423 -8.90478,-2.3423 -10.62521,0 -11.91563,-5.27266 -2.54422,-10.39612 3.49828,-1.91259 6.36055,-4.41939 6.36055,-5.57052 0,-3.5638 15.27423,-10.37116 19.90321,-8.87022 2.41095,0.78171 8.22447,0.29594 12.91907,-1.07936 5.63368,-1.65055 10.19116,-1.59539 13.40627,0.16242 4.00208,2.18801 7.12079,0.7387 17.48467,-8.12533 6.93762,-5.93361 12.61378,-12.34877 12.61378,-14.25618 0,-1.90735 -2.90068,-5.79872 -6.44579,-8.64752 -7.22281,-5.80388 -6.49388,-6.76658 7.00705,-9.254603 5.20624,-0.959354 13.08343,-4.853696 17.50451,-8.654001 l 8.03874,-6.909789 4.52922,5.713709 c 4.70987,5.941908 16.18003,7.7407 19.05522,2.98838 1.05722,-1.747451 2.7086,-1.836793 4.60251,-0.248879 1.62456,1.361915 5.8044,2.880795 9.28846,3.37512 7.85556,1.114581 9.65025,8.637603 3.67105,15.386773 -5.86339,6.61842 -7.86013,6.31355 -9.77822,-1.4929 -1.5825,-6.44142 -11.67643,-9.663717 -11.67643,-3.72778 0,5.28564 5.28712,12.82438 8.99433,12.82438 4.35036,0 4.58722,1.29861 1.36014,7.45818 -3.6062,6.88354 0.48159,11.98153 6.51881,8.13004 4.02802,-2.56979 6.63024,-1.88271 15.60626,4.12076 5.92473,3.96244 10.77227,8.22721 10.77227,9.4771 0,1.24987 -3.37493,3.47436 -7.49964,4.94334 -5.54232,1.97367 -8.62464,5.67992 -11.81026,14.20108 -3.54411,9.48025 -6.31376,12.43561 -15.57755,16.62158 -6.19672,2.80019 -17.19689,5.76361 -24.4449,6.58543 -7.24798,0.82181 -16.82726,2.05993 -21.28701,2.75133 -7.25234,1.12449 -8.55368,0.29995 -12.31941,-7.80696 -8.8684,-19.09143 -12.5382,-17.72173 -20.33802,7.59045 -2.64294,8.57681 -7.00424,18.16619 -9.6917,21.30969 -5.66066,6.62105 -4.06976,16.42409 1.85086,11.40459 2.68542,-2.27667 3.85068,-1.9958 5.05844,1.21934 2.84851,7.5832 1.63999,11.54931 -3.51919,11.54931 -2.82688,0 -5.08845,-1.7327 -5.08845,-3.89856 0,-4.04617 -3.00675,-5.15855 -5.91455,-2.1884 -0.92074,0.94059 -0.39891,3.27973 1.1596,5.19805 2.28916,2.81762 0.94047,3.47023 -7.01874,3.39591 -5.41872,-0.0508 -12.71453,-1.76354 -16.21281,-3.80656 z m -5.08845,-42.88398 c 0,-1.42949 -1.1449,-2.59904 -2.54422,-2.59904 -1.39934,0 -2.54422,1.16955 -2.54422,2.59904 0,1.42947 1.14488,2.59903 2.54422,2.59903 1.39932,0 2.54422,-1.16956 2.54422,-2.59903 z m 61.06141,-31.18835 c 0,-1.4295 -1.1449,-2.59903 -2.54422,-2.59903 -1.39934,0 -2.54425,1.16953 -2.54425,2.59903 0,1.42946 1.14491,2.59902 2.54425,2.59902 1.39932,0 2.54422,-1.16956 2.54422,-2.59902 z m -22.89804,-2.59903 c 0,-1.42949 -1.21246,-2.59904 -2.69433,-2.59904 -1.48186,0 -1.98677,1.16955 -1.12193,2.59904 0.86481,1.42946 2.0773,2.59903 2.69433,2.59903 0.61703,0 1.12193,-1.16957 1.12193,-2.59903 z m -17.12517,-4.30375 c -1.72252,-0.71193 -5.15713,-0.75524 -7.63266,-0.0963 -2.47547,0.65896 -1.06613,1.24145 3.13192,1.29443 4.198,0.0529 6.22346,-0.48618 4.50074,-1.19813 z m 64.97694,-8.88632 c -0.50139,-1.53669 -1.99929,-2.79397 -3.32859,-2.79397 -1.32926,0 -2.82713,1.25728 -3.3286,2.79397 -0.50143,1.53665 0.99646,2.79395 3.3286,2.79395 2.33214,0 3.83006,-1.2573 3.32859,-2.79395 z m -42.76332,67.86065 c 0,-3.47933 9.73395,-8.47494 12.77381,-6.55579 5.53472,3.49439 2.37581,9.06332 -5.14113,9.06332 -4.19795,0 -7.63268,-1.12843 -7.63268,-2.5076 z m 193.69696,-84.14617 c -2.3629,-2.90832 -2.19308,-4.0254 0.78962,-5.1947 4.60199,-1.804 8.04635,2.94833 4.65082,6.41701 -1.54433,1.57759 -3.52779,1.13197 -5.44057,-1.22247 z m -82.39729,-44.921623 c -7.00549,-3.749647 -9.41465,-8.771732 -4.20788,-8.771732 4.08347,0 15.54341,9.765596 13.19791,11.24652 -1.10182,0.69559 -5.14723,-0.41807 -8.99003,-2.474832 z m 32.44904,-8.161741 c -1.39932,-1.050226 -3.84764,-4.248637 -5.44057,-7.107563 -2.935,-5.267443 -6.37914,-5.924735 -14.08049,-2.686883 -2.69764,1.134146 -6.17687,-0.1735 -9.50345,-3.571572 -4.40149,-4.496326 -6.25321,-4.892677 -11.48362,-2.458327 -6.21095,2.890897 -14.23441,1.616081 -14.14714,-2.247673 0.0243,-1.116943 4.65923,-5.944745 10.29799,-10.728263 12.6682,-10.747263 20.88428,-9.729214 26.9866,3.343403 3.6133,7.740655 5.06453,8.663315 12.01206,7.639057 9.50698,-1.401906 20.23498,3.822618 21.48724,10.463949 1.39185,7.383049 -9.4836,12.34121 -16.1291,7.353694 z m -94.13632,-42.195237 c -0.86482,-1.429479 0.21254,-2.599026 2.39408,-2.599026 2.18157,0 3.96646,1.169547 3.96646,2.599026 0,1.429448 -1.07733,2.599041 -2.39409,2.599041 -1.31674,0 -3.10167,-1.169593 -3.96645,-2.599041 z" />
  <path style="fill:#f5f5f5" d="m 268.51732,583.8398 c 4.99531,-1.8452 8.44935,-4.90255 8.44935,-7.47895 0,-10.20304 17.2033,-12.70903 27.76514,-4.04439 2.71036,2.22368 3.85729,2.14991 4.66431,-0.30025 1.48609,-4.51035 8.12856,-4.0745 9.90314,0.64975 2.19692,5.84833 8.55267,4.69178 8.55267,-1.55629 0,-3.00004 3.43473,-8.73247 7.63268,-12.73833 14.75066,-14.07581 5.76546,-20.39978 -13.42945,-9.45214 -10.82491,6.17398 -25.78315,10.89513 -40.52949,12.7916 -2.39058,0.30765 -5.92293,2.76385 -7.84968,5.45851 -3.38384,4.73207 -3.95781,4.74505 -16.81937,0.38113 -7.32383,-2.48496 -16.38534,-3.88346 -20.13679,-3.10739 -30.38057,6.28342 -36.84798,12.1606 -18.90563,17.18246 20.4912,5.73552 38.98517,6.54305 50.70388,2.21414 z m 105.77612,-12.12085 c 0.78936,-3.08349 4.50764,-5.47198 10.22398,-6.56748 6.05197,-1.15984 11.14041,-4.61042 15.5938,-10.57493 7.58841,-10.16325 8.14866,-13.23894 2.79407,-15.33819 -5.26576,-2.06414 -4.80423,-6.85726 0.66012,-6.85726 2.46203,0 5.90666,-2.33912 7.65405,-5.19806 1.74788,-2.85892 4.59918,-5.2347 6.33663,-5.27967 9.85708,-0.25503 17.91822,-28.65951 8.68193,-30.59319 -7.85759,-1.64468 -16.54968,1.82901 -18.2472,7.29211 -2.15896,6.94876 -11.39329,12.08107 -13.99628,7.7789 -1.21146,-2.00238 -4.66256,-2.52598 -9.49757,-1.44113 -9.3246,2.09212 -25.95621,-6.96774 -26.43452,-14.40018 -0.17508,-2.71781 -0.60425,-6.11085 -0.95408,-7.54031 -0.34984,-1.42948 -0.77919,-3.41773 -0.95408,-4.41834 -0.17508,-1.00063 -1.63832,-0.47058 -3.25205,1.17787 -1.9679,2.01031 -4.42617,2.18134 -7.46602,0.5194 -2.94775,-1.61159 -7.03607,-1.49285 -11.69529,0.33968 l -7.16328,2.81736 7.63268,3.31895 c 4.198,1.8254 8.56745,2.77967 9.71005,2.12076 3.08742,-1.78058 9.19787,7.56316 9.29074,14.20681 0.0804,5.74463 11.51517,15.88578 14.48809,12.84881 2.49527,-2.54899 11.03505,3.31246 11.03505,7.57411 0,2.16491 -1.80017,7.49247 -4.00052,11.83882 -3.1635,6.24964 -5.20013,7.59489 -9.73547,6.4321 -4.70683,-1.20679 -6.52672,0.22579 -10.15148,7.99019 -4.39082,9.40588 -4.3786,9.49632 2.10274,15.63576 3.58557,3.39613 6.51907,7.29729 6.51907,8.6688 0,4.62107 9.57138,2.54112 10.82391,-2.35203 z m 69.78557,-76.21132 c -0.81211,-2.07336 -1.4151,-1.4575 -1.53723,1.57025 -0.1094,2.7399 0.49104,4.27488 1.33647,3.41123 0.84546,-0.86367 0.93578,-3.10532 0.20096,-4.98157 z m -291.7717,-11.98802 c 0,-9.56965 -4.23335,-13.51494 -14.50209,-13.51494 -10.64531,0 -10.68449,4.1176 -0.12719,13.34989 10.60688,9.27566 14.6293,9.32116 14.6293,0.16489 z m 83.75585,-13.94823 8.69998,-8.07804 -8.69998,-7.32355 c -7.37899,-6.21168 -10.24559,-7.09354 -18.87685,-5.80831 -9.74896,1.45177 -18.70667,6.049 -11.7864,6.049 1.97386,0 2.64803,1.85579 1.73793,4.78481 -1.03582,3.33403 0.98952,6.88012 6.67962,11.69561 4.49134,3.80108 9.37651,6.87651 10.85594,6.83466 1.47943,-0.0419 6.60483,-3.71139 11.39001,-8.15418 z m 222.93265,-12.73913 c 0.92379,-1.52693 3.36423,-2.11589 5.42299,-1.30885 5.86977,2.30099 12.95367,-2.939 17.6549,-13.05959 2.37044,-5.10243 6.99637,-10.32076 10.28017,-11.59634 6.77072,-2.62971 7.74364,-8.10482 2.26541,-12.74906 -4.9236,-4.17429 -9.61591,-0.92092 -7.6762,5.32232 1.05535,3.39641 0.33332,4.97921 -2.27044,4.97921 -2.64473,0 -3.76698,-2.59516 -3.65301,-8.44685 0.18817,-9.69957 3.28969,-14.57067 11.23988,-17.65832 3.36547,-1.30711 6.27431,-5.34023 7.30319,-10.1253 1.98042,-9.21017 8.93558,-10.8473 8.94397,-2.10513 0,5.3818 1.22199,5.87071 15.26534,6.135 8.39288,0.15813 15.25977,-0.49922 15.25977,-1.46049 0,-0.9613 -3.43474,-4.34193 -7.63269,-7.5125 -9.45282,-7.13928 -10.36745,-14.20631 -1.54611,-11.94462 3.46829,0.88927 9.42558,-0.20335 13.84871,-2.53996 4.8694,-2.57227 8.34632,-3.13549 9.32916,-1.51101 2.87319,4.74896 5.81153,2.68739 13.8584,-9.72246 4.85208,-7.48313 7.69018,-14.87344 7.2363,-18.84295 -0.66508,-5.81742 -2.06542,-6.61739 -12.81808,-7.3225 -13.04323,-0.85532 -13.43021,-1.39893 -15.21496,-21.37601 -0.65895,-7.37707 0.52919,-10.31344 6.07078,-15.00157 l 6.89025,-5.82911 10.3428,10.05095 c 7.42175,7.21232 10.35397,12.18321 10.38194,17.60064 0.0243,4.15249 1.11872,9.29439 2.43837,11.42663 4.88342,7.89067 8.94223,-2.11455 9.84797,-24.27598 0.72509,-17.74798 0.12969,-22.07381 -3.45557,-25.11365 -3.74432,-3.17417 -4.7259,-3.14402 -7.23681,0.22243 -1.59776,2.14226 -4.96351,3.46347 -7.47951,2.93614 -2.51625,-0.52746 -6.20841,0.42618 -8.20537,2.11915 -2.95002,2.50107 -4.1705,1.68868 -6.51017,-4.33365 -4.78491,-12.31654 -6.60074,-15.24356 -8.97375,-14.46514 -1.24666,0.4091 -1.90817,4.64134 -1.47003,9.40536 0.58337,6.34086 -0.39257,9.12778 -3.64283,10.40184 -6.06263,2.37655 -16.02505,-10.36858 -16.14413,-20.65345 -0.0813,-6.93188 0.76557,-7.88702 6.90504,-7.7971 6.09315,0.0893 6.99662,-0.89979 6.99662,-7.65908 0,-10.71058 -7.81331,-12.13825 -11.89577,-2.17399 -2.86507,6.99295 -3.05257,7.06263 -4.0008,1.48865 -0.54701,-3.2163 -1.9199,-5.84786 -3.05053,-5.84786 -2.47477,0 -7.8581,6.38923 -11.48437,13.63039 -3.80413,7.59696 -7.69885,4.73436 -7.9367,-5.83329 -0.11205,-5.00312 -1.09379,-11.14332 -2.18043,-13.64489 -1.52371,-3.50818 -0.78385,-4.54832 3.23501,-4.54832 8.76739,0 8.62973,-4.53139 -0.45111,-14.83913 -5.72119,-6.49393 -9.31566,-13.73845 -10.54631,-21.25563 -1.85349,-11.32034 -1.8171,-11.39441 4.95995,-10.07099 5.5683,1.08738 7.28005,0.11692 9.28236,-5.26301 1.87763,-5.045 3.15661,-5.87953 5.43852,-3.54849 2.28165,2.33098 1.93159,4.86666 -1.48888,10.78183 -3.18332,5.50502 -3.98883,10.36648 -2.79482,16.8682 2.32033,12.63494 9.04446,12.06158 14.79874,-1.26202 6.43486,-14.89922 11.75457,-13.72289 11.75457,2.59902 0,12.7064 0.17053,12.99515 7.63267,12.99515 8.43334,0 9.72124,-2.79083 3.65937,-7.93014 -2.50862,-2.12696 -3.70083,-6.59687 -3.23448,-12.1276 0.58672,-6.95657 -0.47576,-9.40434 -5.16325,-11.89423 -3.65834,-1.94306 -7.54413,-8.07567 -10.22066,-16.13006 -2.37503,-7.14734 -9.1648,-19.42776 -15.08825,-27.28983 -11.90241,-15.79714 -15.31623,-24.87269 -11.01066,-29.27025 2.08881,-2.13408 0.49409,-5.0941 -6.03821,-11.20625 -5.80388,-5.43066 -8.8768,-10.658858 -8.8768,-15.102951 0,-3.738179 -1.12303,-6.796722 -2.49562,-6.796722 -1.37287,0 -3.21439,-2.923921 -4.09239,-6.497572 -0.87802,-3.573666 -2.4572,-6.497572 -3.50976,-6.497572 -1.05229,0 -6.31019,-3.048145 -11.6841,-6.773607 -8.616,-5.972838 -10.80711,-6.448414 -18.54027,-4.024077 -6.76536,2.121057 -10.78981,1.887124 -17.60934,-1.023605 -11.92098,-5.088149 -15.85105,-4.749735 -15.85105,1.365079 0,6.168027 11.01854,14.107259 20.14212,14.513222 9.449,0.420477 9.73244,7.648431 0.46458,11.83913 -5.70975,2.581823 -7.83925,5.451699 -8.40282,11.324201 -0.59357,6.186214 -1.8415,7.706414 -5.8433,7.118484 -4.90019,-0.71997 -4.88671,-0.57578 0.36507,3.89857 2.99939,2.55537 6.18171,7.13847 7.07196,10.18456 1.02404,3.50503 4.47324,6.12147 9.39429,7.12704 8.8516,1.80843 8.83989,7.65154 -0.0243,8.97888 -3.63134,0.54414 -7.94711,-1.64023 -11.94307,-6.04484 -3.4416,-3.79326 -7.66245,-6.42429 -9.38009,-5.84654 -4.13943,1.39233 -5.5558,12.19286 -2.06639,15.75742 1.51788,1.55047 2.75971,4.63199 2.75971,6.84768 0,3.26204 -4.02113,4.15478 -21.13742,4.69228 -20.72548,0.65085 -21.24429,0.51589 -26.63041,-6.92643 -4.01529,-5.54786 -6.93581,-7.20474 -10.85442,-6.15812 -4.07535,1.08872 -5.01668,2.83449 -3.92446,7.27962 1.07129,4.36038 0.15681,6.18932 -3.59677,7.19203 -2.76837,0.73954 -6.15983,4.37131 -7.53677,8.07049 -3.03981,8.16796 -13.61747,8.58826 -22.13727,0.87964 -3.02357,-2.73573 -7.48055,-4.57584 -9.90417,-4.08903 -4.72032,0.94793 -5.47111,2.08334 -13.90369,21.02743 -4.99328,11.21769 -6.28829,12.3454 -14.17336,12.3454 -6.91188,0 -8.67785,1.03288 -8.67785,5.07563 0,4.5608 -1.2856,4.91998 -12.67582,3.54197 -8.41201,-1.01775 -13.96477,-0.44097 -16.50744,1.71468 -3.12408,2.64866 -4.12217,2.4746 -5.40598,-0.94298 -0.93867,-2.51907 -4.50328,-4.1912 -8.92721,-4.1912 -8.50455,0 -9.79703,4.44488 -2.13425,7.34044 2.87445,1.08621 6.62389,4.84953 8.33236,8.36315 1.70841,3.51337 5.65351,6.76192 8.76712,7.21857 4.12268,0.60484 5.66088,2.5934 5.66088,7.31805 0,3.56825 1.11973,8.62492 2.48823,11.23721 1.85866,3.54767 1.21496,6.40294 -2.54422,11.28495 -2.76784,3.59445 -5.03244,8.21008 -5.03244,10.25682 0,2.04664 -2.9437,5.09124 -6.54174,6.76606 -9.11697,4.24343 -7.32607,12.08419 2.76024,12.08419 6.54069,0 7.47949,-0.85904 6.74753,-6.17452 -0.83602,-6.07185 -0.60304,-6.14307 13.99324,-4.28527 8.16393,1.03908 16.7718,2.94051 19.12851,4.22522 2.35681,1.28486 6.79335,2.33611 9.85886,2.33611 4.82132,0 5.3701,1.0401 4.06517,7.70506 -0.82968,4.23773 -5.63596,13.7039 -10.68066,21.03552 -8.92283,12.9681 -10.22549,19.44437 -2.61292,12.99046 5.49705,-4.66059 9.81615,-0.66907 8.20106,7.57929 -0.76404,3.90243 -0.72361,9.69542 0.0898,12.87299 1.97227,7.70458 11.66579,5.35661 21.2766,-5.15362 4.78313,-5.23053 9.44619,-7.64816 14.75141,-7.64816 4.26668,0 8.67327,-1.56568 9.79222,-3.47932 4.32566,-7.3971 11.25538,-8.97107 21.46306,-4.87473 5.40647,2.16951 9.83012,5.37843 9.83012,7.13069 0,1.75231 1.73003,4.65279 3.8446,6.44533 3.11259,2.63881 6.04251,2.40186 15.38873,-1.24438 9.91104,-3.86659 12.6967,-4.02411 19.68951,-1.11302 9.69096,4.03421 14.31457,9.44306 14.42498,16.87497 0.0432,2.99487 2.37073,7.5619 5.16936,10.14923 2.79866,2.58734 5.08845,6.23638 5.08845,8.10896 0,6.39725 -8.22623,28.26444 -13.47903,35.83022 l -5.24419,7.55409 9.99781,-1.63304 c 14.32678,-2.34016 21.44653,0.14678 21.44653,7.49094 0,3.33585 1.96542,7.18892 4.36744,8.56222 3.84889,2.20034 3.95448,3.28518 0.88869,9.13717 -2.92892,5.59051 -2.93349,7.31157 -0.0304,10.88629 1.89723,2.3353 3.19658,7.6383 2.88717,11.78426 -0.55715,7.47169 2.75363,10.10529 5.98631,4.76194 z m -3.92347,-24.64843 c 0,-6.92744 9.9894,-27.10009 13.43708,-27.13385 3.54841,-0.0357 5.12916,8.04374 2.16613,11.07056 -1.58503,1.61928 -2.88209,5.53852 -2.88209,8.70934 0,9.18263 -2.71543,13.98744 -7.90491,13.98744 -3.46726,0 -4.81621,-1.8576 -4.81621,-6.63244 z m -132.26407,-129.16656 c 0.0884,-8.24567 3.44512,-14.58808 8.42545,-15.91853 8.14178,-2.17496 10.28072,1.99145 5.68433,11.07161 -4.06774,8.03541 -14.18103,11.50953 -14.10978,4.84692 z m 62.19357,-4.72113 c -0.92234,-1.52456 -1.0661,-3.39589 -0.31941,-4.15872 1.82248,-1.8617 6.78468,1.41864 6.78468,4.48516 0,3.32156 -4.39237,3.09984 -6.46514,-0.32631 z m -45.69172,-25.81746 c -1.01553,-1.67859 -0.70156,-4.22161 0.69777,-5.65108 1.69616,-1.73267 3.15966,-1.58172 4.39058,0.45292 1.01551,1.67858 0.70152,4.22162 -0.69777,5.65105 -1.69619,1.73272 -3.15971,1.58172 -4.39058,-0.45289 z m 47.06815,-14.29465 c -3.438,-4.23175 -2.61571,-4.76067 3.60822,-2.32096 2.21345,0.86765 4.02446,2.62189 4.02446,3.89854 0,3.59498 -4.12265,2.74303 -7.63268,-1.57758 z m 88.04036,-62.61063 c -1.86516,-4.96571 0.42285,-9.53844 3.72832,-7.45143 3.02712,1.9111 3.1075,11.58467 0.0966,11.58467 -1.24972,0 -2.97063,-1.85989 -3.82474,-4.133 z m -4.0532,-23.12355 c -3.27571,-4.03162 -1.88041,-11.72866 2.12594,-11.72866 4.12267,0 8.15449,7.02465 6.52367,11.36608 -1.97407,5.25496 -4.58598,5.36439 -8.64961,0.36251 z m 16.64559,-1.98236 c -2.0827,-6.92304 -3.65733,-30.89727 -2.27174,-34.5853 2.12495,-5.65679 8.4972,0.41314 8.4972,8.0939 0,3.30544 1.14518,9.08672 2.54447,12.847 1.71761,4.61485 1.68863,8.47129 -0.089,11.86485 -2.99762,5.72173 -7.23348,6.58981 -8.68065,1.77909 z m -20.48891,-38.33569 c 0.8648,-1.42948 2.64984,-2.59904 3.96647,-2.59904 1.31686,0 2.3941,1.16956 2.3941,2.59904 0,1.42948 -1.78504,2.59903 -3.96645,2.59903 -2.18167,0 -3.2589,-1.16955 -2.39412,-2.59903 z m -44.52392,311.88352 c 0,-1.42946 -1.78505,-2.59902 -3.96647,-2.59902 -2.18166,0 -3.2589,1.16956 -2.3941,2.59902 0.86479,1.42948 2.64982,2.59903 3.96645,2.59903 1.31689,0 2.39412,-1.16955 2.39412,-2.59903 z m -112.09346,-8.91544 c 2.41198,-2.96888 1.99351,-4.27852 -2.07829,-6.5046 -5.77462,-3.15705 -9.35206,0.14529 -6.98466,6.44792 1.79938,4.79003 5.20015,4.81134 9.0628,0.0566 z m -226.28846,-7.45846 c 0,-3.28775 1.241399,-7.24581 2.758708,-8.79587 1.982004,-2.02475 1.368546,-3.81748 -2.179231,-6.36762 -2.715699,-1.95225 -5.725171,-6.09627 -6.687647,-9.20862 -0.962462,-3.11259 -5.419986,-7.87326 -9.905684,-10.57962 -10.110247,-6.09939 -16.632619,-25.85358 -11.375482,-34.45274 2.639104,-4.31724 2.140206,-7.00699 -3.127635,-16.85783 -3.447172,-6.44661 -6.929972,-11.7211 -7.739525,-11.7211 -0.809302,0 -3.571818,4.86277 -6.138696,10.80626 -3.52503,8.16146 -3.995196,11.90589 -1.920893,15.29867 1.510485,2.47084 3.559129,11.83075 4.552381,20.7995 0.993531,8.969 3.641046,18.46739 5.883505,21.10749 2.242753,2.64037 5.318953,9.17743 6.835821,14.52703 2.149117,7.57773 4.19851,9.90231 9.276506,10.52269 3.584803,0.438 8.531814,3.06946 10.993101,5.84781 5.91928,6.68157 8.774933,6.38009 8.774933,-0.92626 z m -50.668254,-23.30183 c -2.893281,-8.91182 -6.001565,-22.05123 -6.907298,-29.19751 -0.905483,-7.14735 -2.706287,-15.10504 -4.001283,-17.68352 -4.219376,-8.40165 -3.158956,-58.75367 1.707653,-81.07931 2.492857,-11.43574 5.897004,-22.5466 7.565015,-24.6908 1.771544,-2.27728 2.908558,-11.46431 2.734255,-22.09174 -0.221371,-13.55707 0.788467,-19.51769 3.966464,-23.39127 2.345536,-2.85894 5.64868,-11.26575 7.34035,-18.68209 5.32835,-23.35878 21.213468,-43.85602 26.813565,-34.59827 0.864796,1.42945 3.508503,2.60629 5.874624,2.61513 2.366283,0.009 7.581543,1.76315 11.589708,3.89855 10.696431,5.69863 14.284321,4.809 16.002661,-3.96873 0.84543,-4.31801 2.42607,-8.41254 3.51258,-9.09841 2.27342,-1.43533 -2.94013,-14.1881 -5.81306,-14.2185 -1.04949,-0.009 -1.90817,2.13758 -1.90817,4.77495 0,5.72721 -9.016482,14.81963 -11.168393,11.26262 -0.823169,-1.36064 0.20827,-3.91908 2.291645,-5.68566 2.083565,-1.76645 3.788367,-4.76789 3.788367,-6.66962 0,-5.11749 5.576671,-16.69771 8.041001,-16.69771 1.17469,0 2.13584,2.33912 2.13584,5.19805 0,6.12774 2.03325,6.41052 8.75494,1.21688 2.71621,-2.09876 6.64956,-3.81591 8.74093,-3.81591 2.09135,0 6.29389,-2.39128 9.33934,-5.31397 l 5.53724,-5.31397 1.55238,9.77209 c 1.24857,7.85996 0.45913,10.96062 -4.03439,15.84704 -4.74194,5.15624 -5.01976,6.44145 -1.83711,8.49728 5.68761,3.67425 7.46222,3.13365 16.59344,-5.0564 7.03807,-6.31252 11.49633,-7.84985 27.05018,-9.32794 10.24282,-0.97318 19.76814,-1.52693 21.16747,-1.23047 11.10578,2.35268 11.77057,-4.94829 1.27211,-13.9724 -9.46886,-8.13911 -9.62379,-11.49186 -0.63606,-13.76444 3.84812,-0.97304 8.49263,-3.919363 10.32113,-6.546957 2.3813,-3.422405 6.56056,-4.77805 14.73006,-4.77805 9.94768,0 12.68041,-1.328786 21.38091,-10.396119 5.48636,-5.717854 11.75431,-10.396118 13.92835,-10.396118 2.17407,0 9.98279,-5.017168 17.35263,-11.149319 7.36987,-6.132151 15.8864,-12.928605 18.92599,-15.103485 4.65669,-3.331948 10.85416,-14.592522 10.85416,-19.72142 0,-0.798704 -6.21553,-0.925632 -13.81207,-0.282111 -12.23875,1.036797 -13.96553,0.570817 -15.15901,-4.091091 -0.74078,-2.893779 0.0363,-6.967222 1.72693,-9.052447 2.67121,-3.2945268 0.17022,-3.5507734 -19.09337,-1.9567826 -58.32637,4.8264056 -127.44023,40.1186426 -173.737468,88.7204606 -12.306816,12.918489 -32.812998,38.473449 -43.74046,54.509459 -10.552946,15.48526 -28.413922,65.40456 -35.079792,98.04057 -4.5431953,22.24666 -5.0406152,67.35646 -1.0336883,93.78859 4.9767583,32.83352 27.1137803,93.78338 29.6631003,81.6771 0.531732,-2.52391 -1.400616,-11.88044 -4.293882,-20.79223 z m 58.300923,-299.66811 c 0,-2.04626 10.835101,-11.32839 13.357191,-11.442735 4.73201,-0.214413 1.19282,5.356102 -5.724507,9.010045 -4.197967,2.21762 -7.632684,3.31221 -7.632684,2.43265 z m 99.224771,-22.078744 c 0,-1.513829 1.14491,-2.029575 2.54423,-1.14612 1.39934,0.883471 2.54422,2.122053 2.54422,2.752382 0,0.630314 -1.14488,1.14612 -2.54422,1.14612 -1.39932,0 -2.54423,-1.238582 -2.54423,-2.752382 z m 10.47078,-28.919379 c -9.42459,-10.272667 -9.92683,-14.463633 -2.09754,-17.504484 3.20598,-1.245163 7.36298,-4.151955 9.23756,-6.459378 1.87459,-2.307407 9.75201,-6.079368 17.50502,-8.381858 11.81106,-3.507662 16.29399,-3.683866 27.65065,-1.087559 11.28898,2.580798 13.83016,4.220856 15.20403,9.812927 0.90727,3.69269 0.52321,8.538319 -0.85346,10.767764 -4.05269,6.563071 -23.30483,15.163279 -37.3594,16.688874 -7.17371,0.778812 -14.9196,2.172414 -17.21323,3.097035 -2.79098,1.124995 -6.78416,-1.168211 -12.07334,-6.933172 z m 17.51569,361.758893 c 2.98921,-4.28842 7.50651,-7.79709 10.03851,-7.79709 6.31526,0 10.75496,6.122 8.71397,12.01582 -0.92901,2.68272 1.34105,0.43992 5.04442,-4.98414 3.70338,-5.42394 6.73357,-11.56414 6.73357,-13.64491 0,-2.23062 2.43625,-3.78316 5.93643,-3.78316 7.23045,0 9.41668,-1.93983 7.60926,-6.75177 -2.10542,-5.6048 -8.73482,-4.34529 -16.34792,3.10588 -4.91875,4.81391 -8.42597,6.25426 -12.22678,5.02207 -4.55719,-1.47757 -5.10955,-3.13467 -3.81048,-11.43363 1.87465,-11.97609 -4.50404,-29.58738 -9.94409,-27.45617 -4.35472,1.70712 -7.89576,-9.22679 -4.20816,-12.99385 4.28753,-4.37987 2.68542,-6.67223 -4.66303,-6.67223 -3.91815,0 -8.46009,-1.36512 -10.09349,-3.03355 -3.70056,-3.78031 -5.16322,-0.32432 -6.78365,16.0287 -1.55002,15.64148 -5.3663,30.52301 -8.9623,34.94915 -1.66087,2.04436 -2.59891,9.62524 -2.15981,17.45536 0.73103,13.03674 1.22002,13.93782 8.40893,15.49776 16.309,3.53857 21.08448,2.55083 26.71436,-5.52605 z m 351.10305,-5.83459 c 0,-1.4498 -1.6876,-1.16836 -3.81633,0.63651 -2.09901,1.77952 -3.81635,4.40506 -3.81635,5.83454 0,1.4498 1.6876,1.16838 3.81635,-0.63646 2.09899,-1.77953 3.81633,-4.40511 3.81633,-5.83459 z m -216.25912,3.23556 c 0,-1.42948 -2.35739,-2.59902 -5.23855,-2.59902 -2.8812,0 -4.53102,1.16954 -3.66624,2.59902 0.8648,1.42944 3.22227,2.59903 5.23858,2.59903 2.01628,0 3.66621,-1.16959 3.66621,-2.59903 z m -84.14769,-32.25658 c 2.03666,-2.50692 2.13523,-4.2 0.31152,-5.35138 -3.55273,-2.24298 -7.75629,0.61506 -7.75629,5.27343 0,4.77209 3.60057,4.80977 7.44465,0.0778 z m 50.43671,-9.97768 c -0.58305,-1.78682 -2.5867,-3.24877 -4.45238,-3.24877 -1.8657,0 -3.86927,1.46195 -4.45241,3.24877 -0.6306,1.93266 1.17319,3.24881 4.45241,3.24881 3.27923,0 5.08311,-1.31615 4.45238,-3.24881 z m -270.196679,-70.41029 c -6.763079,-5.05171 -4.224449,-15.67109 4.132827,-17.28927 3.73924,-0.72391 9.369863,-4.67433 12.512232,-8.77846 3.142384,-4.10414 9.254377,-8.9734 13.581858,-10.82056 4.327481,-1.84708 11.290757,-6.64701 15.474225,-10.66668 4.183218,-4.01965 8.608157,-6.99604 9.832667,-6.61451 1.22465,0.38167 4.33509,-1.25536 6.9124,-3.63787 2.57705,-2.38252 7.58586,-4.3318 11.13048,-4.3318 9.31491,0 7.94154,-5.49954 -3.73213,-14.94443 -12.17969,-9.85448 -12.56031,-14.26659 -2.96174,-34.35395 3.90565,-8.17318 5.88354,-13.97265 4.39543,-12.88756 -6.63765,4.83966 -22.83722,8.93625 -23.790286,6.01598 -0.531011,-1.62737 -4.182218,-2.95874 -8.114039,-2.95874 -4.007165,0 -7.791959,-1.71318 -8.612966,-3.89853 -2.724609,-7.25285 -6.712688,-3.95548 -6.712688,5.54969 0,6.73981 -1.82345,11.17454 -6.360553,15.46996 -7.680516,7.27131 -8.111525,14.24163 -1.272102,20.56454 7.414856,6.85494 6.41015,15.57835 -2.544247,22.09177 -4.197981,3.05358 -7.632669,7.44362 -7.632669,9.75572 0,2.31207 -2.095182,6.61842 -4.656192,9.56935 -2.561025,2.95094 -5.995713,10.17961 -7.632669,16.0633 -3.194054,11.47992 -4.098758,48.36793 -1.257369,51.26847 0.945434,0.96581 3.971052,-3.55887 6.723878,-10.05488 4.733287,-11.17011 4.764842,-11.9901 0.583373,-15.11335 z m 515.078329,21.67954 c 0,-1.42945 -1.71734,-2.59903 -3.81635,-2.59903 -2.09897,0 -3.81633,1.16958 -3.81633,2.59903 0,1.42946 1.71736,2.59902 3.81633,2.59902 2.09901,0 3.81635,-1.16956 3.81635,-2.59902 z m -8.43894,-16.08147 c -0.81211,-2.07336 -1.4151,-1.4575 -1.53721,1.57025 -0.10939,2.73989 0.49104,4.27489 1.33648,3.41121 0.84543,-0.86364 0.93575,-3.1053 0.20098,-4.98156 z m -402.03842,-3.35071 c 2.95002,-2.11084 6.06797,-6.70338 6.92844,-10.20583 1.92254,-7.82517 8.19468,-9.5686 17.54801,-4.87812 4.58062,2.29702 7.62072,6.30186 8.6066,11.33827 1.77368,9.05917 7.12791,8.73167 7.38388,-0.4516 0.0959,-3.44265 1.05561,-8.2488 2.13259,-10.68044 1.32428,-2.98993 -0.17357,-7.276 -4.62694,-13.24052 -3.62171,-4.85055 -6.61853,-9.87837 -6.65951,-11.17294 -0.0409,-1.29456 -3.62248,-6.34086 -7.95859,-11.21404 -6.3542,-7.14135 -10.23719,-9.0914 -20.01312,-10.05097 -10.65367,-1.04573 -12.3372,-0.52122 -13.8388,4.31205 -0.9403,3.0263 -3.6932,5.50268 -6.11785,5.50268 -2.42448,0 -5.80617,1.42819 -7.51515,3.17364 -1.70893,1.74551 -5.63824,3.20748 -8.73201,3.24882 -3.44616,0.0458 -5.98683,1.9711 -6.55852,4.96957 -0.78248,4.10336 0.13999,4.61929 5.70822,3.19187 5.42403,-1.39067 7.16174,-0.5365 9.47928,4.65955 l 2.83784,6.36218 5.65986,-6.95501 c 3.11287,-3.82525 7.0152,-9.58653 8.67177,-12.80282 6.04226,-11.73228 13.00963,-5.77868 13.00963,11.11656 0,6.95578 -1.41768,9.4363 -6.93733,12.13877 -7.48945,3.66697 -12.61301,14.49455 -10.06625,21.27358 1.95329,5.19988 4.1977,5.27396 11.05849,0.36475 z m 99.2604,-10.7189 c 1.74148,-4.63614 -3.48332,-9.19042 -9.35538,-8.1547 -2.099,0.37016 -4.18219,3.2927 -4.62945,6.49443 -0.66338,4.74975 0.405,5.82133 5.80437,5.82133 3.72042,0 7.30169,-1.82151 8.18046,-4.16078 z m 8.45419,-15.48528 c 0,-4.28865 -4.02089,-5.01298 -6.36056,-1.14611 -2.07484,3.42942 0.96735,8.29637 3.99216,6.38659 1.30261,-0.82239 2.3684,-3.1807 2.3684,-5.24042 z m 327.06013,-1.37257 c 0.94008,-1.55403 0.38745,-4.17586 -1.22812,-5.82599 -2.22033,-2.2681 -3.52299,-2.0542 -5.33648,0.87622 -1.31972,2.13225 -2.41705,4.75388 -2.4384,5.82598 -0.0612,3.00215 7.07677,2.30748 9.003,-0.87621 z m -7.59301,-48.06126 c -1.91731,-7.80409 -4.29615,-7.95587 -8.81624,-0.56219 -2.6208,4.2871 -2.73911,5.98972 -0.46993,6.76241 1.66803,0.56798 4.4,2.55275 6.07106,4.41053 2.47909,2.75628 3.1968,2.66974 3.89976,-0.47045 0.47374,-2.11664 0.16535,-6.67976 -0.68465,-10.14037 z m -366.54647,0.63875 c 0,-6.77462 -4.98898,-6.34941 -5.93874,0.50605 -0.58281,4.20757 0.21711,5.77401 2.54424,4.98157 1.8669,-0.63569 3.3945,-3.10504 3.3945,-5.48759 z m 3.81633,-37.2233 c 0,-5.36959 -7.11311,-4.1457 -10.20513,1.75606 -3.99852,7.63232 -0.52041,11.65509 5.36906,6.21038 2.65977,-2.45887 4.83582,-6.04377 4.83582,-7.96653 z m 136.35265,-60.52101 c 5.73851,-14.65096 14.35224,-19.83682 26.27421,-15.81766 17.50021,5.90003 34.43864,-1.14809 19.48622,-8.10796 -7.77288,-3.61783 -8.71321,-10.01614 -1.47196,-10.01614 5.97539,0 6.58623,-3.291928 1.42314,-7.668947 -2.01593,-1.709108 -4.01937,-6.238191 -4.45239,-10.064494 -1.14574,-10.127363 -9.24165,-9.087477 -15.02569,1.930146 -5.87282,11.186236 -9.27574,13.330438 -16.62548,10.475924 -3.57106,-1.386962 -6.44479,-1.282585 -7.38309,0.26825 -1.5802,2.612009 -17.86833,10.257321 -21.8526,10.257321 -1.22845,0 -2.23383,-1.461938 -2.23417,-3.248786 -4.2e-4,-2.074544 -4.08602,-3.337683 -11.30425,-3.494381 -10.05656,-0.218736 -11.62584,0.549201 -14.22501,6.959397 -1.60682,3.96276 -5.10677,9.22526 -7.77744,11.69436 -6.94574,6.42114 -6.03236,10.69136 3.41284,15.95619 14.3937,8.02324 23.18676,10.71762 35.63947,10.92088 11.77875,0.19226 12.21408,-0.079 16.11718,-10.04394 z m 24.59884,-85.237755 c 2.68517,-2.482319 6.7824,-4.529054 9.10502,-4.548292 5.81584,-0.04798 6.01889,-16.459665 0.24237,-19.61746 -4.08451,-2.233025 -27.58703,-7.101339 -46.26674,-9.584193 -9.8904,-1.3145095 -11.6454,1.047137 -7.99648,10.761035 1.90438,5.069654 11.17677,5.476671 11.17677,0.49064 0,-5.296322 7.97081,-7.544218 12.03394,-3.393555 2.79635,2.85658 2.89379,4.927484 0.48594,10.325955 -3.71686,8.333251 -1.71259,14.267092 5.86926,17.378121 8.31072,3.409674 9.90621,3.221496 15.35086,-1.812014 z m 40.04355,-12.124732 c -9.49225,-5.126061 -22.40573,-7.931953 -18.68121,-4.058899 1.61951,1.684061 6.77145,3.986136 11.44901,5.115959 12.56337,3.034343 14.33009,2.776255 7.2322,-1.056956 z m -101.769,-23.6467218 c -10.51476,-4.1363717 -20.35379,-4.8692943 -20.35379,-1.516117 0,3.5702938 5.09277,5.0033968 17.80957,5.0117018 l 11.44902,0.0089 z" />
</g>
<use id="shine" xlink:href="#shield" style="fill:url(#rg);stroke:#000;stroke-width:3;"/>
</svg>
