<?xml version="1.0" encoding="UTF-8"?>
<svg xmlns="http://www.w3.org/2000/svg" xmlns:xlink="http://www.w3.org/1999/xlink" width="600" height="600">
<defs>
  <radialGradient id="rg" gradientUnits="userSpaceOnUse" cx="220" cy="220" r="405">
    <stop style="stop-color:#fff;stop-opacity:.3" offset="0"/>
    <stop style="stop-color:#fff;stop-opacity:.2" offset=".2"/>
    <stop style="stop-color:#666;stop-opacity:.1" offset=".6"/>
    <stop style="stop-color:#000;stop-opacity:.13" offset="1"/>
  </radialGradient>
  <path id="outline" d="m 213.3,10.83 c -4,0.12 -7.6,0.67 -10.4,1.92 -9.5,3.88 -21.5,16.64 -34.6,24.51 -14.9,8.65 -29.2,15.15 -37.6,22.3 -21.4,17.59 -15.5,22.54 -30.4,48.24 -1.16,36.4 -23.82,66.8 -26.21,100.4 -12.52,38.7 -22.06,67 -43.53,102.1 17.89,2.6 41.15,-33.2 19.68,11.9 1.79,31.3 -23.85,68.1 -19.68,89.6 21.47,6.6 7.76,23.3 -6.55,41.7 0,1.8 -0.6,4.2 -0.6,6 -0.6,4.2 -1.79,8.3 -1.79,12.5 v 4.8 c 0.6,1.8 0.6,3 1.19,4.2 3.58,-2.4 10.14,-7.8 14.91,-12 2.98,-2.3 5.37,-4.1 7.16,-5.9 1.79,-1.2 2.38,-2.4 2.38,-2.4 0,1.8 -0.59,3 -0.59,4.8 0,1.8 0,3.5 0.59,5.3 0,1.8 0,3.6 0.6,4.8 0,1.8 0.59,3 1.19,4.2 0.6,1.2 1.19,1.8 2.39,2.4 0,0 0.59,0.6 1.19,0.6 h 1.19 c 0.6,-0.6 1.19,-0.6 1.79,-1.2 0.6,0 1.19,-0.6 1.79,-1.2 1.79,-1.2 2.98,-3 4.77,-5.4 1.19,-1.2 2.98,-1.8 4.17,-2.4 1.2,-0.6 2.39,-1.2 3.58,-1.2 1.19,0 2.39,0 3.58,0.6 0.59,0 1.79,0.6 2.98,1.2 0.6,1.2 1.79,1.8 2.39,3 0.59,0.6 1.78,1.8 2.38,3 1.19,2.4 2.98,4.7 4.17,7.1 1.2,2.4 2.39,4.8 3.58,6.6 0.6,0.6 1.19,1.8 1.79,2.4 0.6,0.6 1.19,1.2 1.79,1.2 0.6,0.6 1.19,0.6 1.79,0.6 0.6,0 1.19,-0.6 1.79,-1.2 1.19,-0.6 1.79,-1.8 2.38,-3 0.6,-1.2 1.76,-3 2.36,-4.8 1.8,0.6 3.6,0.6 5.4,0 1.2,0 3,0 4.2,-0.6 3,-1.2 5.3,-2.4 7.7,-3.6 1.2,-0.5 2.4,-1.1 3.6,-1.1 1.2,-0.6 2.4,-0.6 3.6,-0.6 1.2,0 2.4,0.6 3.6,1.7 1.1,0.6 2.3,1.8 3.5,3.6 0.1,-0.1 0.3,-0.2 0.4,-0.3 0.3,0.1 0.5,0.2 0.8,0.3 0.4,-0.7 0.8,-1.3 1.2,-1.9 0.6,-0.4 1.3,-0.8 1.8,-1.1 1.2,-0.6 1.8,-0.6 3,-0.6 0.6,0 1.8,0.6 2.4,1.2 0.2,0 0.3,0.1 0.4,0.1 2,3.9 3.1,10.4 4.3,13.1 3,10.1 9,22.6 13.2,31 7.7,-2.4 13.1,-14.9 15.5,-4.2 5.9,5.4 1.8,25 16.1,13.1 7.1,-3 11.9,-3.6 17.9,1.2 0,10.1 -3,1.2 -2.4,11.9 5.9,-7.7 25.6,1.2 25,15.5 3.6,-6.5 14.3,-10.7 13.1,-1.2 2.4,6.6 11.4,22.7 21.5,9.6 13.7,-13.1 16.7,7.1 35.8,13.1 1.8,-17.3 22.6,-26.2 36.4,-13.1 10.1,13.1 19,-3 21.4,-9.6 -1.8,-9.5 9.6,-5.3 13.1,1.2 9.6,13.2 10.8,-6.5 12,-11.3 0,-10.7 19,6.6 19,-4.2 5.4,-4.1 2.4,-16.1 9.6,-13.1 14.3,11.9 10.1,-7.7 16.1,-13.1 2.4,-10.7 7.7,1.8 15.5,4.2 4.2,-8.4 10.1,-20.9 13.1,-31 2.4,-5.4 4.8,-25.7 13.1,-10.8 6,-1.2 11.4,-24.4 6,-30.4 1.5,0 4.4,11 10.1,26.3 2.4,-1.8 4.2,-3.6 6.6,-5.4 2.4,-2.4 4.8,-3.6 6.5,-5.4 l 3.6,-1.8 c 0.6,-0.6 1.8,-0.6 3,-1.2 1.2,0 1.8,0 3,-0.6 1.2,0 1.8,0.6 3,0.6 0.6,0.6 1.2,1.2 2.4,1.8 0.5,0.6 1.1,1.2 1.7,2.4 1.2,1.2 1.8,2.4 2.4,3.6 0,1.8 0.6,3.6 1.2,5.4 0.6,0.6 1.8,1.1 2.4,1.7 1.2,0.6 1.8,0.6 3,0.6 0.6,0.6 1.8,0 2.4,0 1.2,0 2.4,-0.6 3,-1.2 1.7,-0.5 4.1,-2.3 5.9,-4.1 1.8,-1.8 3.6,-4.2 6,-6 3.6,-4.8 7.1,-10.1 11.3,-14.9 1.8,-2.4 3.6,-4.2 5.4,-6.6 1.8,-1.7 3.6,-2.9 5.3,-4.1 1.2,-0.6 3,-1.2 4.8,-1.2 1.8,-0.6 3,-0.6 4.8,-0.6 -11.3,-15.5 -19.1,-29.2 -0.6,-34.6 4.2,-21.5 -21.5,-58.3 -20.3,-89.6 -20.9,-45.1 2.4,-9.3 20.3,-11.9 -21.5,-35.1 -31,-63.4 -43.5,-102.1 -2.4,-33.6 -25.7,-64 -26.3,-100.4 -14.9,-25.7 -8.9,-30.65 -30.4,-48.24 -8.3,-7.15 -22.7,-13.65 -37.6,-22.3 -13.1,-7.87 -25,-20.63 -34.5,-24.51 -3,-1.25 -6.6,-1.79 -10.2,-1.91 -12.5,-0.59 -28.6,3.05 -42.3,2.51 -25.7,-1.37 -47.7,5.25 -47.7,19.44 0,-14.19 -21.5,-20.81 -47.1,-19.44 -13.9,0.53 -30.1,-2.89 -42.1,-2.52 z" />
</defs>
<g id="face" style="stroke:#003000;stroke-width:1;stroke-linecap:round;stroke-linejoin:round">
  <path id="skin" style="fill:#f4e3d7;" d="m 477.8,143.5 c 39.9,84.9 0,264.1 -7.8,299.9 -11.9,57.8 -110.3,73.9 -167.5,73.9 -57.3,0 -155.1,-16.1 -167,-73.9 -7.7,-35.8 -47.69,-215 -7.7,-299.9 25.6,-53.88 104.3,-105.17 174.7,-105.17 70.9,0 149.6,51.29 175.3,105.17 z"/>
  <path id="burnt-skin" style="fill:#ff8080;stroke:none;" d="m 323.9,39.94 c -5.9,26.06 -13.7,51.4 -23.8,76.26 -5.4,10.4 -7.2,21.8 -8.4,33.3 0.6,12.3 -8.3,28.5 4.2,37.3 14.3,9.7 20.9,28.3 15.5,44.7 -3,11.8 -6.5,25.6 -0.6,36.6 -4.7,16.7 22.1,16.6 19.7,33.1 0.6,11.6 7.8,19.7 16.1,27.7 7.2,11.8 23.3,-2.1 35.2,1.3 9.5,8.2 25,17.3 25.6,30.5 1.2,22.5 13.1,39.2 39.4,20.7 9.5,-6.6 16.1,54.2 24.4,53.1 11.4,-63.8 29.2,-177.2 20.3,-242 -4.2,-30.2 -14.9,-60.1 -36.4,-82.3 -34.6,-36.98 -81.1,-62.86 -131.2,-70.26 z" />
  <path id="burnt-marks" style="fill:none;stroke:#ff4242;stroke-width:3;" d="m 430.7,182.1 c 16.7,1.7 33.4,11.6 50.7,7 10.7,5.2 20.8,13.2 29.2,21.3 m -99,117.2 c 13.7,7 20.3,21.1 26.8,34 -1.2,13.8 4.8,25.7 4.2,39.5 l -0.6,1.8 -1.8,1.1 m -78.1,-108.2 c 24.5,2.1 48.9,1.4 72.8,4.8 8.9,4.8 7.7,31.8 22.6,20.7 m -51.9,-81.5 c 14.3,-0.6 35.2,0.8 37.6,18.4 8.4,11.2 16.7,23.1 26.2,32.5 l 1.8,0.8 1.8,0.7 m -125.8,-98.2 c 17.9,-10.1 38.2,-14.8 55.5,-26.3 7.1,-9.2 17.8,-13.6 28,-7.3 7.7,-0.6 15.5,-2.2 22.6,-4.6 m -104.3,16.6 c 7.7,-12.3 14.3,-31 29.2,-34.7 14.9,3.4 28,-2.3 42.3,-1.1 6.6,1.3 13.2,3.6 19.7,1.4 m -103.1,-13 c -4.2,15.1 -26.3,23.1 -24.5,39.3 3,5.5 18.5,8.9 10.2,16.6 m 36.3,-64.7 c 14.3,-2.3 27.5,0 43.6,-3.6 10.7,-6.9 22,-8 32.8,0.9 2.9,1.6 7.1,2.9 10.7,1.6 m -125.2,1.8 c 11.9,-10.7 29.2,-13.6 44.7,-13.3 16.1,1.5 26.2,-16.13 41.1,-16.19 2.4,0.66 5.4,2.09 7.2,4.05 m -87.1,139.94 c 7.2,1.6 15.5,-2 22.1,3.2 1.2,3.5 4.8,4.5 6,0 2.3,-4.8 8.9,-5.6 12.5,-9.3 0.6,-4 5.3,-2.7 8.3,-3.5 8.4,-0.6 16.1,2 24.5,1.2 4.1,1 10.7,2 13.7,-2.6 2.4,-3.7 3.6,-8.6 7.7,-11.1 4.2,-4.9 11.4,-2.7 16.7,-4.6 1.8,-0.9 3,-2.9 5.4,-3.6 m 26.8,64.7 c 6.6,-0.6 12,4 18.5,3.4 6,0 14.3,-2.7 17.9,4 1.8,2.3 4.8,2.9 7.2,2.6 m -43.6,-20.9 c 7.8,-4.7 17.3,-1.4 25.1,-4.1 4.2,-0.7 7.7,-1.2 11.3,-0.6 m -37,-5.1 c 7.2,-5.3 15.5,-11.1 25.1,-10.3 2.4,-0.6 5.3,-1.5 7.1,-3.6" />
  <path id="hair" style="fill:#612700;" d="m 392.5,10.84 c -12.5,-0.59 -28.6,3.05 -42.3,2.51 -25.7,-1.37 -47.7,5.25 -47.7,19.44 v 0 c 0,-14.19 -21.5,-20.81 -47.1,-19.44 -18.5,0.71 -41.2,-5.606 -52.5,-0.6 -9.5,3.88 -21.5,16.64 -34.6,24.51 -14.9,8.65 -29.2,15.15 -37.6,22.3 -21.4,17.59 -15.5,22.54 -30.4,48.24 -1.16,36.4 -23.82,66.8 -26.21,100.4 -12.52,38.7 -22.06,67 -43.53,102.1 17.89,2.6 41.15,-33.2 19.68,11.9 1.79,31.3 -23.85,68.1 -19.68,89.6 21.47,6.6 7.76,23.3 -6.55,41.7 0,1.8 -0.6,4.2 -0.6,6 -0.6,4.2 -1.79,8.3 -1.79,12.5 v 4.8 c 0.6,1.8 0.6,3 1.19,4.2 3.58,-2.4 10.14,-7.8 14.91,-12 2.98,-2.3 5.37,-4.1 7.16,-5.9 1.79,-1.2 2.38,-2.4 2.38,-2.4 0,1.8 -0.59,3 -0.59,4.8 0,1.8 0,3.5 0.59,5.3 0,1.8 0,3.6 0.6,4.8 0,1.8 0.59,3 1.19,4.2 0.6,1.2 1.19,1.8 2.39,2.4 0,0 0.59,0.6 1.19,0.6 h 1.19 c 0.6,-0.6 1.19,-0.6 1.79,-1.2 0.6,0 1.19,-0.6 1.79,-1.2 1.79,-1.2 2.98,-3 4.77,-5.4 1.19,-1.2 2.98,-1.8 4.17,-2.4 1.2,-0.6 2.39,-1.2 3.58,-1.2 1.19,0 2.39,0 3.58,0.6 0.59,0 1.79,0.6 2.98,1.2 0.6,1.2 1.79,1.8 2.39,3 0.59,0.6 1.78,1.8 2.38,3 1.19,2.4 2.98,4.7 4.17,7.1 1.2,2.4 2.39,4.8 3.58,6.6 0.6,0.6 1.19,1.8 1.79,2.4 0.6,0.6 1.19,1.2 1.79,1.2 0.6,0.6 1.19,0.6 1.79,0.6 0.6,0 1.19,-0.6 1.79,-1.2 1.19,-0.6 1.79,-1.8 2.38,-3 0.6,-1.2 1.76,-3 2.36,-4.8 1.8,0.6 3.6,0.6 5.4,0 1.2,0 3,0 4.2,-0.6 3,-1.2 5.3,-2.4 7.7,-3.6 1.2,-0.5 2.4,-1.1 3.6,-1.1 1.2,-0.6 2.4,-0.6 3.6,-0.6 1.2,0 2.4,0.6 3.6,1.7 1.1,0.6 2.3,1.8 3.5,3.6 1.2,-1.2 3,-2.4 4.2,-3 1.2,-0.6 1.8,-0.6 3,-0.6 0.6,0 1.8,0.6 2.4,1.2 1.2,0 1.8,0.6 2.4,1.8 1.2,0.6 1.7,1.2 2.9,1.8 0.6,0.6 1.8,1.2 3,1.8 1.2,0.6 2.4,1.2 4.2,1.2 1.2,0 2.4,-0.6 3,-0.6 -13.7,-92.4 -30.4,-201.1 -18.5,-265.5 2.4,-13.1 0,-26.6 1.8,-42.5 3.6,-21.9 12.5,-46 23.8,-57.3 12.6,-12.9 38.8,-10.2 54.3,-16.1 12.5,-4.6 33.4,-8.6 44.7,-10.13 25.7,-3.22 37.6,9.63 38.8,-3.22 v 0 c 1.2,6.65 4.7,6.45 11.3,5.15 4.8,-6.28 11.3,-11.35 15.5,-15.82 3.6,-13.42 16.1,7.51 24.5,-3.34 7.7,-2.62 10.7,9.06 18.4,1.25 9,-0.89 13.2,-10.91 23.3,-11.86 9.5,4.41 25,3.46 28.6,15.68 1.2,9.66 12.5,13.49 19.1,18.39 13.1,3.5 11.9,18.1 22.6,25 3,12 7.8,18.8 13.2,30.3 5.9,7 4.7,13.4 5.3,23.1 1.8,11.4 9,22.2 2.4,31.9 -3.5,9.4 -2.4,18.2 3,27.6 4.8,8.4 3.2,17.3 1.8,27.5 -1.2,8.7 -5.3,16.6 -5.9,22.4 0,7.9 3.5,15.6 2.3,22.5 1.2,7.8 -4.7,15.6 -11.9,14.3 7.9,14.1 3.5,30 2,42.8 -1.9,15.6 -8.4,29.1 -6.9,50.3 1,15.4 7.8,35.9 16.8,59.9 2.4,-1.8 4.2,-3.6 6.6,-5.4 2.4,-2.4 4.8,-3.6 6.5,-5.4 l 3.6,-1.8 c 0.6,-0.6 1.8,-0.6 3,-1.2 1.2,0 1.8,0 3,-0.6 1.2,0 1.8,0.6 3,0.6 0.6,0.6 1.2,1.2 2.4,1.8 0.5,0.6 1.1,1.2 1.7,2.4 1.2,1.2 1.8,2.4 2.4,3.6 0,1.8 0.6,3.6 1.2,5.4 0.6,0.6 1.8,1.1 2.4,1.7 1.2,0.6 1.8,0.6 3,0.6 0.6,0.6 1.8,0 2.4,0 1.2,0 2.4,-0.6 3,-1.2 1.7,-0.5 4.1,-2.3 5.9,-4.1 1.8,-1.8 3.6,-4.2 6,-6 3.6,-4.8 7.1,-10.1 11.3,-14.9 1.8,-2.4 3.6,-4.2 5.4,-6.6 1.8,-1.7 3.6,-2.9 5.3,-4.1 1.2,-0.6 3,-1.2 4.8,-1.2 1.8,-0.6 3,-0.6 4.8,-0.6 -11.3,-15.5 -19.1,-29.2 -0.6,-34.6 4.2,-21.5 -21.5,-58.3 -20.3,-89.6 -20.9,-45.1 2.4,-9.3 20.3,-11.9 -21.5,-35.1 -31,-63.4 -43.5,-102.1 -2.4,-33.6 -25.7,-64 -26.3,-100.4 -14.9,-25.7 -8.9,-30.65 -30.4,-48.24 -8.3,-7.15 -22.7,-13.65 -37.6,-22.3 -13.1,-7.87 -25,-20.63 -34.5,-24.51 -3,-1.25 -6.6,-1.79 -10.2,-1.91 z" />
  <path id="beard" style="fill:#552200;" d="m 133.1,295.8 c -0.6,0 -1.2,0 -1.8,0.6 -16.7,7.7 -2.9,16.6 -9.5,26.8 4.8,1.2 3,9.5 1.8,29.2 13.7,-7.7 -3.6,14.1 -4.2,18.8 -4.8,10.2 -11.9,20.3 -12.5,30.5 3,-7.8 25.6,-11.4 17.9,0 -5.4,10.7 -9.6,22 -8.4,33.4 7.2,4.1 -3.5,14.9 10.2,5.3 22,-3.6 7.7,9.6 1.2,16.7 -5.4,6 0,29.2 5.9,30.4 8.4,-14.9 10.8,5.4 13.1,10.8 3,10.1 9,22.6 13.2,31 7.7,-2.4 13.1,-14.9 15.5,-4.2 5.9,5.4 1.8,25 16.1,13.1 7.1,-3 11.9,-3.6 17.9,1.2 0,10.1 -3,1.2 -2.4,11.9 5.9,-7.7 25.6,1.2 25,15.5 3.6,-6.5 14.3,-10.7 13.1,-1.2 2.4,6.6 11.4,22.7 21.5,9.6 13.7,-13.1 16.7,7.1 35.8,13.1 1.8,-17.3 22.6,-26.2 36.4,-13.1 10.1,13.1 19,-3 21.4,-9.6 -1.8,-9.5 9.6,-5.3 13.1,1.2 9.6,13.2 10.8,-6.5 12,-11.3 0,-10.7 19,6.6 19,-4.2 5.4,-4.1 2.4,-16.1 9.6,-13.1 14.3,11.9 10.1,-7.7 16.1,-13.1 2.4,-10.7 7.7,1.8 15.5,4.2 4.2,-8.4 10.1,-20.9 13.1,-31 2.4,-5.4 4.8,-25.7 13.1,-10.8 6,-1.2 11.4,-24.4 6,-30.4 -2.4,-7.7 -7.8,-25 -10.7,-47.1 -1.8,-8.3 -4.2,-14.3 -8.4,-20.3 -3,-4.1 -2.4,-13.1 -14.9,-6.5 -4.8,0 -8.3,0 -11.9,2.4 -4.2,1.7 -9,-0.6 -12,-3.6 -4.7,-3 -8.9,-6.6 -8.9,-11.3 0.6,-3 0,-5.4 -0.6,-7.9 -12.5,6.1 -25.6,12 -36.4,18 -8.3,4.8 -11.9,8.9 -48.3,11.3 -8.9,0.6 -10.7,-4.8 -23.2,-4.2 -11.9,-0.6 -13.7,4.8 -22.7,4.2 -36.4,-2.4 -39.9,-6.5 -48.3,-11.3 -29.2,-16.7 -74.5,-31.4 -78.1,-54 -3,-16.8 -11.3,-31.5 -20.3,-30.8 z" />
  <path id="upper-lip" style="fill:#f4e3d7;" d="m 354.4,407 c 0,-19.7 -37.6,-17.3 -51.9,-17.3 -13.7,0 -51.3,-2.4 -51.3,17.3 0,19.1 34,7.2 51.3,7.2 17.9,0 51.9,11.9 51.9,-7.2 z"/>
  <path id="lower-lip" style="fill:#f4e3d7;" d="m 354.4,426.7 c 0,-19.7 -37.6,-17.3 -51.9,-17.3 -13.7,0 -51.3,-2.4 -51.3,17.3 0,19.1 34,7.2 51.3,7.2 17.9,0 51.9,11.9 51.9,-7.2 z"/>
  <path id="moustache" style="fill:#552200;" d="m 315,372.4 c 3.6,-6.5 12.5,-5.9 19.1,-6.5 6.5,0 12.5,2.4 18.5,4.8 5.9,0.5 12.5,2.3 16.1,7.7 2.9,6.6 10.7,6.6 13.1,13.1 1.2,7.8 10.7,6.6 15.5,10.8 5.4,5.3 11.3,9.5 18.5,9.5 5.9,1.2 11.3,4.8 16.7,7.7 -1.8,4.2 -9.6,3.6 -6.6,9.6 3,7.7 -6,8.9 -10.7,7.1 -4.2,-0.6 -6,1.2 -7.2,4.2 -4.2,0 -8.9,-3.6 -10.1,2.4 -4.8,-1.2 -9,-6 -13.1,-1.2 -7.8,2.4 -9,-7.1 -15.5,-8.9 -7.2,-4.8 -14.3,-10.8 -21.5,-14.9 -4.8,-4.2 -10.7,-7.8 -17.3,-7.2 -5.4,0 -11.3,0.6 -14.9,-3.6 -3.6,-4.7 -10.7,-6.5 -12.5,-12.5 0,-6.6 -3,-15.5 4.7,-18.5 2.4,-1.2 4.8,-2.4 7.2,-3.6 z m -24.4,0 c -4.2,-6.5 -12.6,-5.9 -19.1,-6.5 -6.6,0 -12.6,2.4 -18.5,4.8 -6,0.5 -12.5,2.3 -16.1,7.7 -3,6.6 -11.3,6.6 -13.1,13.1 -1.2,7.8 -10.8,6.6 -15.5,10.8 -5.4,5.3 -11.4,9.5 -18.5,9.5 -6,1.2 -11.4,4.8 -16.7,7.7 1.8,4.2 9.5,3.6 6.5,9.6 -2.9,7.7 6,8.9 10.8,7.1 4.1,-0.6 5.9,1.2 7.1,4.2 4.2,0 9,-3.6 10.2,2.4 4.7,-1.2 8.9,-6 13.1,-1.2 7.7,2.4 8.9,-7.1 15.5,-8.9 7.1,-4.8 13.7,-10.8 21.5,-14.9 4.7,-4.2 10.7,-7.8 17.2,-7.2 5.4,0 11.4,0.6 15,-3.6 3.5,-4.7 10.7,-6.5 12.5,-12.5 -0.6,-6.6 2.4,-15.5 -4.8,-18.5 -2.4,-1.2 -4.8,-2.4 -7.1,-3.6 z" />
  <path id="nose" style="fill:#f4e3d7;" d="m 317.4,287.4 c 11.3,33.5 -2.4,44.1 9.5,56.7 9,9.4 14.3,20 6.6,27.7 -9,2.4 -7.8,-2.3 -17.9,1.8 -1.8,1.2 -3,6.6 -13.1,6.6 -9,0 -10.8,-6.6 -13.1,-7.8 -9.6,-4.1 -6,0.6 -14.9,-1.7 -4.8,-4.2 -3.6,-15.9 4.1,-26.6 10.2,-14.2 -2.4,-29.6 9.6,-56.7"/>
  <g id="eye">
    <path style="fill:#ffffff;" d="m 265.5,266.7 c 0,0 -4.2,12.7 -32.2,13.2 -19.1,0.6 -35.8,-13.2 -35.8,-13.2 0,0 21.5,-19.3 39.4,-15.5 32.2,6.3 28.6,15.5 28.6,15.5 z"/>
    <circle style="fill:#552200;stroke:none;" cx="233.9" cy="266" r="13.71"/>
    <circle style="fill:#000000;stroke:none;" cx="233.9" cy="266" r="5.963"/>
    <circle style="fill:#ffffff;stroke:none;" cx="238.1" cy="262.1" r="2.683"/>
  </g>
  <path id="burnt-eye" style="fill:#ffaaaa;stroke:#ff4242;stroke-width:3;" d="m 335.3,264.7 c 4.7,-1.8 9.5,-4.3 14.9,-5.8 2.4,-1.2 6.5,-4.5 8.9,-0.6 2.4,1.4 6.6,0.6 9.6,0.8 6.5,0 12.5,1.8 19,3.7 4.2,1.4 8.4,0.6 12.6,0.6 10.7,2.5 6.5,2.4 4.7,7.9 -2.9,1.7 -6.5,4.5 -10.1,3.7 -7.2,0 -14.9,-1.7 -22.1,0 -5.3,1.1 -10.7,1 -14.3,-2.5 -5.3,-2.9 -11.3,-2.1 -16.7,-4.2 -2.4,-0.8 -7.7,1.5 -6.5,-3.3 -0.6,0 0,-2 0,-0.7 z"/>
  <path id="eyebrow" style="fill:#552200;" d="m 170.7,234.3 c 5.4,-3.5 6,-10 8.9,-14.8 4.2,-2.9 9,-5 13.8,-6.3 5.3,1.9 9.5,-3.7 14.9,-4.3 3.5,1.1 7.1,2.4 10.7,2.7 4.2,0.6 8.3,1 10.7,4.1 3.6,2.8 9,1.5 12,4.7 3.5,2.3 7.7,2.5 11.3,4 5.4,0 10.7,2.6 15.5,5.6 3.6,3.5 7.1,7.4 11.3,9.8 4.8,1 5.4,7.2 3,10.8 -3.6,4.4 -8.3,-0.8 -13.7,0 -6.6,0.6 -13.1,-4.5 -17.9,-8.1 -4.2,-3.1 -9.5,-1.8 -13.1,-5.8 -4.8,-2.4 -9.6,-5.9 -13.7,-8.8 -4.8,-3.2 -9.6,-5.4 -14.9,-5.2 -6,-1.1 -10.8,2.8 -16.7,3.7 -4.8,0 -10.8,0.6 -13.8,5.4 -1.7,2.4 -5.9,4.6 -8.3,2.8 z"/>
</g>
<use id="shine" xlink:href="#outline" style="fill:url(#rg);stroke:#000000;stroke-width:3;" />
</svg>
