<?xml version="1.0" encoding="UTF-8" standalone="no"?>
<svg xmlns:svg="http://www.w3.org/2000/svg" xmlns="http://www.w3.org/2000/svg" width="119.25" height="122.88">
  <path style="fill:#000000" d="m 86.28,104.11 c -0.47,-0.19 -0.98,-0.3 -1.52,-0.3 -0.54,0 -1.05,0.11 -1.52,0.3 -0.47,0.2 -0.9,0.48 -1.25,0.84 l -0.03,0.02 c -0.2,0.2 -0.39,0.43 -0.54,0.68 -0.08,0.13 -0.16,0.27 -0.23,0.42 h -6.31 v -5.48 c -0.97,0.45 -1.98,0.79 -3.01,1 -0.18,0.04 -0.35,0.07 -0.53,0.1 v 6.14 c 0,0.49 0.2,0.93 0.52,1.25 0.32,0.32 0.76,0.52 1.25,0.52 h 8.14 c 0.06,0.12 0.13,0.24 0.21,0.36 0.14,0.21 0.3,0.41 0.48,0.59 l 0.03,0.03 c 0.36,0.36 0.8,0.66 1.29,0.86 0.47,0.19 0.98,0.3 1.52,0.3 0.52,0 1.03,-0.1 1.49,-0.29 l 0.03,-0.01 c 0.49,-0.2 0.92,-0.5 1.29,-0.86 0.36,-0.36 0.66,-0.8 0.86,-1.29 0.19,-0.47 0.3,-0.98 0.3,-1.52 0,-0.53 -0.11,-1.04 -0.3,-1.52 -0.2,-0.49 -0.5,-0.93 -0.86,-1.29 -0.38,-0.35 -0.82,-0.65 -1.31,-0.85 z M 57.43,66.61 h -7.4 l -1.06,3.48 h -6.66 l 7.95,-21.12 h 7.14 l 7.92,21.12 h -6.83 z m -1.38,-4.58 -2.31,-7.59 -2.32,7.59 z M 67.16,48.96 h 6.55 V 70.08 H 67.16 Z M 62.17,27.31 c -1.08,0.78 -2.08,1.83 -2.95,3.19 -0.04,0.07 -0.1,0.13 -0.17,0.17 -0.27,0.17 -0.63,0.09 -0.8,-0.17 -0.87,-1.36 -1.87,-2.41 -2.95,-3.19 -1.16,-0.84 -2.41,-1.37 -3.7,-1.63 h -0.02 c -1.26,-0.26 -2.55,-0.26 -3.79,-0.04 -1.31,0.23 -2.58,0.71 -3.72,1.37 -1.13,0.66 -2.15,1.51 -3,2.49 -0.82,0.95 -1.48,2.04 -1.91,3.21 v 0 c -0.07,0.18 -0.13,0.37 -0.19,0.57 -0.05,0.18 -0.11,0.38 -0.15,0.58 -0.05,0.26 -0.27,0.45 -0.55,0.46 -1.34,0.2 -2.67,0.69 -3.91,1.42 -1.26,0.75 -2.43,1.77 -3.44,2.99 -1,1.22 -1.84,2.66 -2.44,4.26 -0.56,1.5 -0.9,3.15 -0.97,4.9 -0.01,0.23 -0.01,0.45 -0.01,0.68 0,0.21 0.01,0.43 0.01,0.66 0.01,0.19 -0.07,0.39 -0.24,0.51 -0.82,0.59 -1.56,1.2 -2.22,1.83 -0.67,0.65 -1.26,1.32 -1.77,2.01 -0.83,1.13 -1.44,2.31 -1.85,3.5 -0.43,1.24 -0.64,2.51 -0.66,3.76 -0.01,1.2 0.15,2.39 0.49,3.54 0.34,1.17 0.86,2.31 1.53,3.37 v 0 c 0.38,0.61 0.81,1.21 1.28,1.77 0.48,0.57 1,1.11 1.56,1.62 0.14,0.13 0.22,0.34 0.18,0.54 -0.16,0.76 -0.24,1.51 -0.27,2.25 -0.02,0.76 0.02,1.51 0.12,2.24 0.19,1.34 0.58,2.62 1.13,3.8 0.58,1.26 1.34,2.41 2.22,3.42 0.85,0.99 1.82,1.85 2.86,2.56 1.05,0.72 2.16,1.28 3.3,1.67 0.51,0.17 1.03,0.31 1.56,0.41 0.5,0.1 1,0.16 1.49,0.18 0.27,-0.01 0.52,0.18 0.58,0.46 0.26,1.19 0.74,2.31 1.4,3.32 0.69,1.06 1.56,2 2.56,2.78 1.26,0.98 2.74,1.72 4.3,2.11 1.47,0.37 3.02,0.44 4.54,0.12 1.36,-0.28 2.68,-0.86 3.9,-1.78 1.12,-0.85 2.16,-1.99 3.03,-3.47 0.05,-0.09 0.13,-0.16 0.23,-0.21 0.28,-0.15 0.63,-0.04 0.78,0.24 0.72,1.34 1.6,2.41 2.58,3.22 1.06,0.87 2.23,1.46 3.46,1.8 1.57,0.43 3.21,0.43 4.8,0.1 1.7,-0.35 3.34,-1.09 4.75,-2.11 1.11,-0.79 2.09,-1.76 2.87,-2.86 0.74,-1.03 1.29,-2.18 1.61,-3.39 0.04,-0.23 0.22,-0.43 0.47,-0.47 1.47,-0.26 2.92,-0.87 4.25,-1.78 1.33,-0.91 2.54,-2.11 3.53,-3.54 0.91,-1.32 1.64,-2.84 2.11,-4.5 0.44,-1.55 0.65,-3.23 0.58,-5 -0.02,-0.2 0.07,-0.4 0.25,-0.52 0.86,-0.59 1.62,-1.21 2.3,-1.84 0.69,-0.66 1.3,-1.34 1.82,-2.05 v 0 c 0.8,-1.08 1.39,-2.2 1.8,-3.35 0.42,-1.19 0.64,-2.4 0.68,-3.61 0.03,-1.17 -0.11,-2.33 -0.41,-3.47 -0.3,-1.15 -0.77,-2.26 -1.38,-3.31 l -0.02,-0.02 c -0.4,-0.69 -0.87,-1.35 -1.39,-1.99 -0.52,-0.64 -1.11,-1.24 -1.74,-1.81 -0.15,-0.13 -0.23,-0.34 -0.19,-0.55 0.14,-0.69 0.23,-1.38 0.26,-2.06 0.03,-0.69 0.01,-1.37 -0.06,-2.04 -0.15,-1.39 -0.52,-2.71 -1.06,-3.94 -0.57,-1.3 -1.33,-2.5 -2.22,-3.55 -0.86,-1.02 -1.85,-1.91 -2.91,-2.65 -1.06,-0.74 -2.19,-1.32 -3.34,-1.71 L 82.91,34.77 C 82.3,34.56 81.68,34.41 81.07,34.31 h -0.02 c -0.6,-0.1 -1.2,-0.14 -1.79,-0.13 -0.27,0.02 -0.53,-0.16 -0.6,-0.44 -0.1,-0.41 -0.23,-0.81 -0.38,-1.2 -0.16,-0.4 -0.34,-0.79 -0.55,-1.18 -0.54,-1 -1.25,-1.92 -2.08,-2.71 -0.85,-0.81 -1.82,-1.5 -2.86,-2.03 -1.07,-0.54 -2.24,-0.92 -3.44,-1.09 -1.14,-0.16 -2.31,-0.14 -3.46,0.1 -1.29,0.31 -2.56,0.84 -3.72,1.68 z m 16.35,11.26 c 0.07,-0.22 0.27,-0.39 0.52,-0.41 0.42,-0.03 0.85,-0.01 1.28,0.06 0.44,0.07 0.88,0.18 1.32,0.33 0.83,0.28 1.66,0.71 2.43,1.25 0.76,0.53 1.48,1.18 2.1,1.92 l 0.01,0.02 c 0.65,0.77 1.2,1.63 1.61,2.57 0.39,0.88 0.65,1.82 0.76,2.81 0.07,0.66 0.07,1.35 -0.01,2.05 -0.07,0.65 -0.22,1.32 -0.45,1.99 l -0.01,0.04 c -0.14,0.42 -0.13,0.86 0,1.25 0.14,0.4 0.4,0.76 0.77,1 l 0.03,0.02 c 0.7,0.52 1.32,1.09 1.86,1.69 0.56,0.61 1.04,1.27 1.44,1.95 0.44,0.75 0.78,1.53 0.99,2.33 0.22,0.79 0.32,1.59 0.29,2.38 -0.02,0.82 -0.18,1.64 -0.47,2.45 -0.28,0.77 -0.69,1.53 -1.23,2.27 l -0.01,0.01 c -0.49,0.67 -1.11,1.33 -1.84,1.96 -0.7,0.6 -1.51,1.17 -2.44,1.72 l -0.03,0.02 c -0.37,0.21 -0.64,0.53 -0.8,0.9 -0.16,0.37 -0.21,0.78 -0.13,1.18 l 0.01,0.08 c 0.19,1.53 0.1,2.99 -0.21,4.32 -0.34,1.45 -0.93,2.75 -1.7,3.86 -0.59,0.85 -1.27,1.58 -2,2.16 -0.75,0.6 -1.56,1.04 -2.39,1.31 h -0.01 c -0.3,0.09 -0.63,-0.08 -0.72,-0.38 -1.13,-3.69 -3.08,-4.88 -6.38,-6.58 l -0.07,-0.04 c -0.46,-0.22 -0.96,-0.24 -1.41,-0.1 -0.45,0.14 -0.84,0.45 -1.07,0.9 l -0.03,0.06 c -0.22,0.46 -0.24,0.96 -0.1,1.41 0.15,0.45 0.47,0.85 0.93,1.09 2.76,1.41 4.8,2.48 4.77,5.94 -0.01,1.03 -0.33,2.03 -0.87,2.93 -0.57,0.95 -1.39,1.8 -2.34,2.49 -0.97,0.7 -2.06,1.21 -3.18,1.46 -1.07,0.25 -2.17,0.26 -3.2,-0.02 -1.74,-0.48 -2.87,-1.64 -3.63,-3.05 -0.72,-1.34 -1.12,-2.9 -1.41,-4.32 -0.02,-0.05 -0.02,-0.11 -0.02,-0.16 0,-0.72 -0.56,-1.19 -1.29,-1.4 -0.32,-0.1 -0.67,-0.14 -1.01,-0.14 -0.35,0 -0.69,0.05 -1.01,0.14 -0.72,0.22 -1.28,0.69 -1.28,1.4 0,0.05 -0.01,0.09 -0.02,0.14 -0.56,2.22 -1.37,3.89 -2.32,5.09 -1.11,1.41 -2.41,2.18 -3.75,2.46 -0.98,0.2 -1.99,0.15 -2.95,-0.1 -1.01,-0.27 -1.97,-0.76 -2.81,-1.4 -0.83,-0.65 -1.52,-1.44 -2,-2.33 -0.46,-0.85 -0.73,-1.79 -0.73,-2.75 0,-3.64 2.2,-4.86 5.11,-6.35 0.46,-0.24 0.78,-0.64 0.93,-1.09 C 48.5,78.9 48.47,78.39 48.24,77.92 48,77.46 47.6,77.14 47.15,76.99 46.7,76.85 46.2,76.87 45.74,77.09 l -0.03,0.01 c -3.43,1.75 -5.48,3.03 -6.71,6.84 -0.07,0.25 -0.31,0.44 -0.58,0.43 -0.34,-0.01 -0.68,-0.05 -1.03,-0.12 -0.34,-0.07 -0.68,-0.16 -1,-0.28 -0.81,-0.28 -1.62,-0.69 -2.38,-1.21 -0.75,-0.52 -1.45,-1.14 -2.07,-1.86 -0.64,-0.74 -1.19,-1.57 -1.61,-2.48 -0.4,-0.85 -0.68,-1.76 -0.82,-2.71 v -0.02 c -0.1,-0.7 -0.12,-1.43 -0.04,-2.18 0.07,-0.7 0.22,-1.43 0.47,-2.15 l 0.01,-0.03 c 0.14,-0.41 0.13,-0.84 0.01,-1.22 l -0.01,-0.02 c -0.13,-0.4 -0.39,-0.75 -0.75,-1 l -0.02,-0.02 c -0.64,-0.48 -1.22,-0.99 -1.73,-1.55 -0.52,-0.56 -0.98,-1.16 -1.36,-1.78 -0.46,-0.75 -0.82,-1.55 -1.06,-2.37 -0.23,-0.8 -0.35,-1.62 -0.34,-2.46 0.01,-0.85 0.16,-1.72 0.46,-2.57 0.29,-0.81 0.71,-1.62 1.29,-2.41 0.49,-0.67 1.09,-1.33 1.81,-1.96 0.69,-0.61 1.47,-1.19 2.37,-1.74 0.33,-0.2 0.57,-0.48 0.73,-0.8 l 0.01,-0.03 c 0.16,-0.33 0.22,-0.7 0.17,-1.07 -0.01,-0.04 -0.01,-0.08 -0.01,-0.12 v -0.02 c -0.05,-0.35 -0.08,-0.7 -0.1,-1.04 -0.02,-0.37 -0.02,-0.74 -0.01,-1.1 0.05,-1.31 0.3,-2.54 0.71,-3.65 0.44,-1.19 1.06,-2.26 1.8,-3.17 0.61,-0.75 1.31,-1.38 2.04,-1.87 0.73,-0.49 1.5,-0.84 2.29,-1.04 v 0 c 0.3,-0.09 0.63,0.08 0.72,0.38 0.62,1.96 1.4,3.19 2.89,4.58 l 0.06,0.05 c 0.37,0.34 0.85,0.5 1.32,0.48 0.47,-0.02 0.93,-0.21 1.27,-0.58 l 0.03,-0.04 c 0.34,-0.37 0.5,-0.85 0.48,-1.32 -0.02,-0.47 -0.22,-0.94 -0.6,-1.3 -1.2,-1.11 -1.47,-1.8 -1.83,-2.92 -0.42,-1.29 -0.35,-2.55 0.06,-3.67 0.28,-0.77 0.72,-1.49 1.28,-2.12 0.55,-0.63 1.22,-1.19 1.96,-1.62 l 0.03,-0.02 c 0.76,-0.44 1.58,-0.76 2.43,-0.92 0.81,-0.15 1.64,-0.16 2.45,0.01 1.14,0.24 2.26,0.84 3.25,1.88 0.87,0.91 1.64,2.17 2.25,3.83 l 0.01,0.02 c 0.21,0.65 0.89,1.03 1.69,1.18 0.36,0.07 0.74,0.09 1.11,0.07 h 0.01 c 0.38,-0.02 0.74,-0.09 1.08,-0.2 0.6,-0.2 1.07,-0.52 1.18,-0.93 v -0.23 c 0,-1.16 0.69,-2.39 1.64,-3.4 1.04,-1.1 2.43,-1.97 3.6,-2.21 0.74,-0.15 1.49,-0.16 2.22,-0.05 0.76,0.12 1.5,0.36 2.2,0.71 L 71.1,30 c 0.71,0.36 1.36,0.82 1.93,1.36 0.56,0.54 1.04,1.15 1.4,1.82 0.57,1.05 0.83,2.25 0.65,3.52 -0.16,1.11 -0.2,1.81 -1.13,2.92 l -0.01,0.01 c -0.33,0.39 -0.47,0.88 -0.43,1.36 0.04,0.46 0.25,0.91 0.62,1.23 l 0.06,0.05 c 0.39,0.32 0.87,0.45 1.34,0.41 0.46,-0.04 0.91,-0.25 1.23,-0.62 l 0.05,-0.07 c 0.96,-1.14 1.27,-1.98 1.71,-3.42 z m 21.96,48.94 c -0.19,-0.47 -0.3,-0.98 -0.3,-1.52 0,-0.54 0.11,-1.05 0.3,-1.52 0.2,-0.47 0.48,-0.9 0.84,-1.25 l 0.02,-0.03 c 0.2,-0.2 0.43,-0.39 0.68,-0.54 0.13,-0.08 0.27,-0.16 0.42,-0.23 v -6.31 h -7.76 c 0.01,-0.41 0.01,-0.82 -0.01,-1.24 -0.02,-0.23 0.08,-0.46 0.28,-0.59 0.8,-0.55 1.53,-1.12 2.19,-1.71 h 7.06 c 0.49,0 0.93,0.2 1.25,0.52 0.32,0.32 0.52,0.76 0.52,1.25 v 8.14 c 0.12,0.06 0.24,0.13 0.36,0.21 0.21,0.14 0.41,0.3 0.59,0.48 l 0.03,0.03 c 0.36,0.36 0.66,0.8 0.86,1.29 0.19,0.47 0.3,0.98 0.3,1.52 0,0.52 -0.1,1.02 -0.29,1.49 l -0.01,0.03 c -0.2,0.49 -0.5,0.92 -0.86,1.29 -0.36,0.36 -0.8,0.66 -1.29,0.86 -0.47,0.19 -0.98,0.3 -1.52,0.3 -0.53,0 -1.04,-0.11 -1.52,-0.3 -0.49,-0.2 -0.93,-0.5 -1.29,-0.86 -0.35,-0.38 -0.65,-0.82 -0.85,-1.31 z m 11.24,-20.25 h -10.55 c 0.18,-0.39 0.34,-0.78 0.48,-1.18 0.28,-0.78 0.48,-1.57 0.6,-2.36 h 9.47 c 0.07,-0.13 0.14,-0.26 0.22,-0.39 0.15,-0.24 0.33,-0.46 0.52,-0.65 0.37,-0.37 0.8,-0.66 1.29,-0.86 0.47,-0.19 0.98,-0.3 1.52,-0.3 0.52,0 1.02,0.1 1.49,0.29 l 0.03,0.01 c 0.49,0.2 0.92,0.5 1.29,0.86 0.36,0.36 0.66,0.8 0.86,1.29 0.19,0.47 0.3,0.98 0.3,1.52 0,0.53 -0.11,1.04 -0.3,1.52 -0.2,0.49 -0.5,0.93 -0.86,1.29 -0.36,0.36 -0.8,0.66 -1.29,0.86 -0.47,0.19 -0.98,0.3 -1.52,0.3 -0.52,0 -1.02,-0.1 -1.49,-0.29 l -0.03,-0.01 c -0.49,-0.2 -0.92,-0.5 -1.29,-0.86 -0.19,-0.19 -0.36,-0.4 -0.51,-0.63 l -0.02,-0.03 c -0.07,-0.12 -0.14,-0.25 -0.21,-0.38 z m 3.36,-9.68 h -13.27 c -0.34,-1.12 -0.82,-2.21 -1.42,-3.25 l -0.02,-0.03 c -0.05,-0.09 -0.1,-0.17 -0.15,-0.26 h 13.1 V 42.49 c -0.1,-0.06 -0.2,-0.12 -0.3,-0.19 -0.2,-0.14 -0.38,-0.29 -0.55,-0.46 -0.36,-0.36 -0.66,-0.8 -0.86,-1.29 -0.19,-0.47 -0.3,-0.98 -0.3,-1.52 0,-0.53 0.11,-1.05 0.3,-1.52 0.2,-0.49 0.5,-0.92 0.86,-1.29 0.36,-0.36 0.8,-0.66 1.29,-0.86 0.47,-0.19 0.98,-0.3 1.52,-0.3 0.53,0 1.04,0.11 1.52,0.3 0.49,0.2 0.93,0.5 1.29,0.86 0.36,0.36 0.66,0.8 0.86,1.29 0.19,0.47 0.3,0.98 0.3,1.52 0,0.52 -0.1,1.02 -0.29,1.49 l -0.01,0.03 c -0.2,0.49 -0.5,0.92 -0.86,1.29 -0.22,0.22 -0.48,0.42 -0.75,0.59 -0.15,0.09 -0.32,0.18 -0.48,0.25 V 55.8 c 0,0.49 -0.2,0.93 -0.52,1.25 -0.33,0.33 -0.77,0.53 -1.26,0.53 z m -13.87,-8.54 h -4.52 c 0.12,-0.66 0.19,-1.32 0.22,-1.98 0.02,-0.53 0.02,-1.05 -0.01,-1.56 h 2.54 V 40.28 C 99.3,40.21 99.17,40.14 99.04,40.05 98.8,39.9 98.58,39.72 98.37,39.51 v 0 c -0.36,-0.36 -0.66,-0.8 -0.86,-1.29 -0.19,-0.47 -0.3,-0.98 -0.3,-1.51 0,-0.53 0.11,-1.04 0.3,-1.52 0.2,-0.47 0.48,-0.9 0.83,-1.26 l 0.03,-0.03 c 0.36,-0.36 0.8,-0.66 1.29,-0.86 0.47,-0.19 0.98,-0.3 1.52,-0.3 0.54,0 1.05,0.11 1.52,0.3 0.47,0.2 0.9,0.48 1.26,0.84 l 0.03,0.02 c 0.36,0.36 0.65,0.78 0.85,1.26 l 0.01,0.03 c 0.19,0.47 0.3,0.98 0.3,1.52 0,0.53 -0.11,1.05 -0.3,1.52 -0.2,0.47 -0.48,0.9 -0.83,1.26 l -0.03,0.03 c -0.19,0.19 -0.4,0.36 -0.64,0.52 -0.12,0.08 -0.24,0.15 -0.37,0.21 v 7.02 c 0,0.49 -0.2,0.93 -0.52,1.25 -0.32,0.32 -0.77,0.52 -1.25,0.52 z M 31.13,18.77 c 0.47,0.19 0.98,0.3 1.52,0.3 0.54,0 1.05,-0.11 1.52,-0.3 0.47,-0.2 0.9,-0.48 1.25,-0.84 l 0.03,-0.02 c 0.2,-0.2 0.39,-0.43 0.54,-0.68 0.08,-0.13 0.16,-0.27 0.23,-0.42 h 6.31 v 5.45 c 1.11,-0.59 2.31,-1.02 3.54,-1.27 v -5.95 c 0,-0.49 -0.2,-0.93 -0.52,-1.25 -0.32,-0.32 -0.76,-0.52 -1.25,-0.52 H 36.16 C 36.1,13.15 36.03,13.03 35.95,12.91 35.81,12.7 35.65,12.5 35.47,12.32 l -0.03,-0.03 c -0.36,-0.36 -0.8,-0.66 -1.29,-0.86 -0.47,-0.19 -0.98,-0.3 -1.52,-0.3 -0.52,0 -1.03,0.1 -1.49,0.29 l -0.03,0.01 c -0.49,0.2 -0.92,0.5 -1.29,0.86 -0.36,0.36 -0.66,0.8 -0.86,1.29 -0.19,0.47 -0.3,0.98 -0.3,1.52 0,0.53 0.11,1.04 0.3,1.52 0.2,0.49 0.5,0.93 0.86,1.29 0.39,0.36 0.82,0.66 1.31,0.86 z M 51.39,7.53 v 13.66 c 1.18,0.34 2.33,0.88 3.41,1.66 l 0.12,0.09 c 0,-0.03 0.01,-0.06 0.01,-0.09 V 7.53 c 0.13,-0.07 0.26,-0.14 0.39,-0.22 0.24,-0.15 0.46,-0.33 0.65,-0.52 0.36,-0.37 0.66,-0.8 0.86,-1.29 0.19,-0.47 0.3,-0.98 0.3,-1.52 0,-0.52 -0.1,-1.02 -0.29,-1.49 L 56.83,2.46 C 56.63,1.97 56.33,1.54 55.97,1.17 55.61,0.81 55.17,0.51 54.68,0.31 54.21,0.12 53.7,0.01 53.16,0.01 c -0.53,0 -1.04,0.11 -1.52,0.3 -0.49,0.2 -0.93,0.5 -1.29,0.86 -0.36,0.36 -0.66,0.8 -0.86,1.29 -0.19,0.47 -0.3,0.98 -0.3,1.52 0,0.52 0.1,1.02 0.29,1.49 l 0.01,0.03 c 0.2,0.49 0.5,0.92 0.86,1.29 0.19,0.19 0.4,0.36 0.63,0.51 L 51,7.31 c 0.13,0.08 0.25,0.15 0.39,0.22 z m 9.67,-3.36 v 19.98 c 0.48,-0.49 0.99,-0.92 1.51,-1.3 0.65,-0.47 1.33,-0.86 2.03,-1.16 V 5.93 h 11.55 c 0.06,0.1 0.12,0.2 0.19,0.3 0.14,0.2 0.29,0.38 0.46,0.55 0.36,0.36 0.8,0.66 1.29,0.86 0.47,0.19 0.98,0.3 1.52,0.3 0.53,0 1.05,-0.11 1.52,-0.3 0.49,-0.2 0.93,-0.5 1.29,-0.86 0.36,-0.36 0.66,-0.8 0.86,-1.29 0.19,-0.47 0.3,-0.98 0.3,-1.52 0,-0.53 -0.11,-1.04 -0.3,-1.52 C 83.08,1.96 82.78,1.52 82.42,1.16 82.04,0.8 81.6,0.5 81.11,0.3 80.64,0.11 80.13,0 79.6,0 79.08,0 78.58,0.1 78.11,0.29 L 78.08,0.3 C 77.59,0.5 77.16,0.8 76.79,1.16 76.57,1.38 76.37,1.64 76.2,1.91 76.11,2.06 76.02,2.23 75.95,2.39 H 62.83 c -0.49,0 -0.93,0.2 -1.25,0.52 -0.32,0.33 -0.52,0.77 -0.52,1.26 z m 8.54,13.87 v 2.74 c 0.36,0.02 0.73,0.05 1.09,0.11 0.84,0.12 1.66,0.33 2.45,0.62 v -1.69 h 5.22 c 0.07,0.14 0.14,0.27 0.23,0.4 0.15,0.24 0.33,0.46 0.54,0.67 v 0 c 0.36,0.36 0.8,0.66 1.29,0.86 0.47,0.19 0.98,0.3 1.51,0.3 0.53,0 1.04,-0.11 1.52,-0.3 0.47,-0.2 0.9,-0.48 1.26,-0.83 l 0.03,-0.03 c 0.36,-0.36 0.66,-0.8 0.86,-1.29 0.19,-0.47 0.3,-0.98 0.3,-1.52 0,-0.54 -0.11,-1.05 -0.3,-1.52 -0.2,-0.47 -0.48,-0.9 -0.84,-1.26 l -0.02,-0.03 c -0.36,-0.36 -0.78,-0.65 -1.26,-0.85 l -0.03,-0.01 c -0.47,-0.19 -0.98,-0.3 -1.52,-0.3 -0.53,0 -1.05,0.11 -1.52,0.3 -0.47,0.2 -0.9,0.48 -1.26,0.83 l -0.03,0.03 c -0.19,0.19 -0.36,0.4 -0.52,0.64 -0.08,0.12 -0.15,0.24 -0.21,0.37 h -7.02 c -0.49,0 -0.93,0.2 -1.25,0.52 -0.32,0.31 -0.52,0.75 -0.52,1.24 z M 18.77,35.2 c 0.19,0.47 0.3,0.98 0.3,1.52 0,0.54 -0.11,1.05 -0.3,1.52 -0.2,0.47 -0.48,0.9 -0.84,1.25 l -0.02,0.03 c -0.2,0.2 -0.43,0.39 -0.68,0.54 -0.13,0.08 -0.27,0.16 -0.42,0.23 v 6.31 h 6.55 v 0.31 c 0,0.24 0.01,0.49 0.02,0.75 0.02,0.22 -0.08,0.44 -0.27,0.58 -0.86,0.61 -1.63,1.25 -2.33,1.9 h -5.72 c -0.49,0 -0.93,-0.2 -1.25,-0.52 -0.32,-0.32 -0.52,-0.76 -0.52,-1.25 v -8.14 c -0.12,-0.06 -0.24,-0.13 -0.36,-0.21 -0.21,-0.14 -0.41,-0.3 -0.59,-0.48 l -0.03,-0.03 c -0.36,-0.36 -0.66,-0.8 -0.86,-1.29 -0.19,-0.47 -0.3,-0.98 -0.3,-1.52 0,-0.52 0.1,-1.02 0.29,-1.49 l 0.01,-0.03 c 0.2,-0.49 0.5,-0.92 0.86,-1.29 0.36,-0.36 0.8,-0.66 1.29,-0.86 0.47,-0.19 0.98,-0.3 1.52,-0.3 0.53,0 1.04,0.11 1.52,0.3 0.49,0.2 0.93,0.5 1.29,0.86 0.34,0.38 0.64,0.82 0.84,1.31 z M 7.53,55.45 h 9.4 c -0.16,0.36 -0.3,0.73 -0.43,1.09 -0.28,0.81 -0.48,1.62 -0.6,2.44 H 7.53 c -0.07,0.13 -0.14,0.26 -0.22,0.39 -0.15,0.24 -0.33,0.46 -0.52,0.65 -0.37,0.37 -0.8,0.66 -1.29,0.86 -0.47,0.19 -0.98,0.3 -1.52,0.3 -0.52,0 -1.02,-0.1 -1.49,-0.29 L 2.46,60.88 C 1.97,60.68 1.54,60.38 1.17,60.02 0.81,59.66 0.51,59.22 0.31,58.73 0.12,58.26 0.01,57.75 0.01,57.21 c 0,-0.53 0.11,-1.04 0.3,-1.52 0.2,-0.49 0.5,-0.93 0.86,-1.29 0.36,-0.36 0.8,-0.66 1.29,-0.86 0.47,-0.19 0.98,-0.3 1.52,-0.3 0.52,0 1.02,0.1 1.49,0.29 l 0.03,0.01 c 0.49,0.2 0.92,0.5 1.29,0.86 0.19,0.19 0.36,0.4 0.51,0.63 l 0.02,0.03 c 0.07,0.13 0.14,0.26 0.21,0.39 z M 4.17,65.13 H 16.4 c 0.38,1.21 0.93,2.38 1.63,3.49 v 0.01 l 0.02,0.04 H 5.93 v 11.55 c 0.1,0.06 0.2,0.12 0.3,0.19 0.2,0.14 0.38,0.29 0.55,0.46 0.36,0.36 0.66,0.8 0.86,1.29 0.19,0.47 0.3,0.98 0.3,1.52 0,0.53 -0.11,1.05 -0.3,1.52 -0.2,0.49 -0.5,0.92 -0.86,1.29 -0.36,0.36 -0.8,0.66 -1.29,0.86 -0.47,0.19 -0.98,0.3 -1.52,0.3 -0.53,0 -1.04,-0.11 -1.52,-0.3 C 1.96,87.15 1.52,86.85 1.16,86.49 0.8,86.1 0.5,85.66 0.3,85.18 0.11,84.71 0,84.2 0,83.66 0,83.14 0.1,82.64 0.29,82.17 L 0.3,82.14 C 0.5,81.65 0.8,81.22 1.16,80.85 1.38,80.63 1.64,80.43 1.91,80.26 2.06,80.17 2.23,80.08 2.39,80.01 V 66.89 c 0,-0.49 0.2,-0.93 0.52,-1.25 0.33,-0.31 0.77,-0.51 1.26,-0.51 z m 13.87,8.54 h 3.3 c -0.11,0.66 -0.17,1.31 -0.19,1.95 -0.02,0.54 -0.01,1.07 0.03,1.59 h -1.37 v 5.22 c 0.14,0.07 0.27,0.14 0.4,0.23 0.24,0.15 0.46,0.33 0.67,0.54 v 0 c 0.36,0.36 0.66,0.8 0.86,1.29 0.19,0.47 0.3,0.98 0.3,1.52 0,0.54 -0.11,1.04 -0.3,1.52 -0.2,0.47 -0.48,0.9 -0.83,1.26 l -0.03,0.03 c -0.36,0.36 -0.8,0.66 -1.29,0.86 -0.47,0.19 -0.98,0.3 -1.52,0.3 -0.54,0 -1.05,-0.11 -1.52,-0.3 -0.47,-0.2 -0.9,-0.48 -1.26,-0.84 L 15.26,88.82 C 14.9,88.46 14.61,88.04 14.41,87.56 L 14.4,87.53 c -0.19,-0.47 -0.3,-0.98 -0.3,-1.52 0,-0.53 0.11,-1.05 0.3,-1.52 0.2,-0.47 0.48,-0.9 0.83,-1.26 l 0.03,-0.03 c 0.19,-0.19 0.4,-0.36 0.64,-0.52 0.12,-0.08 0.24,-0.15 0.37,-0.21 v -7.02 c 0,-0.49 0.2,-0.93 0.52,-1.25 0.32,-0.34 0.76,-0.53 1.25,-0.53 z m 47.99,41.68 v -13.99 c -1.25,-0.39 -2.43,-1.02 -3.51,-1.91 L 62.5,99.43 v 15.93 c -0.13,0.07 -0.26,0.14 -0.39,0.22 -0.24,0.15 -0.46,0.33 -0.65,0.52 -0.36,0.37 -0.66,0.8 -0.86,1.29 -0.19,0.47 -0.3,0.98 -0.3,1.52 0,0.52 0.1,1.02 0.29,1.49 l 0.01,0.03 c 0.2,0.49 0.5,0.92 0.86,1.29 0.36,0.36 0.8,0.66 1.29,0.86 0.47,0.19 0.98,0.3 1.52,0.3 0.53,0 1.04,-0.11 1.52,-0.3 0.49,-0.2 0.93,-0.5 1.29,-0.86 0.36,-0.36 0.66,-0.8 0.86,-1.29 0.19,-0.47 0.3,-0.98 0.3,-1.52 0,-0.52 -0.1,-1.02 -0.29,-1.49 l -0.01,-0.03 c -0.2,-0.49 -0.5,-0.92 -0.86,-1.29 -0.19,-0.19 -0.4,-0.36 -0.63,-0.51 l -0.03,-0.02 c -0.13,-0.08 -0.26,-0.15 -0.39,-0.22 z m -9.68,3.36 V 98.55 c -0.42,0.43 -0.86,0.81 -1.32,1.16 -0.71,0.54 -1.45,0.97 -2.22,1.31 v 15.94 H 41.26 c -0.06,-0.1 -0.12,-0.2 -0.19,-0.3 -0.14,-0.2 -0.29,-0.38 -0.46,-0.55 -0.36,-0.36 -0.8,-0.66 -1.29,-0.86 -0.47,-0.19 -0.98,-0.3 -1.52,-0.3 -0.53,0 -1.05,0.11 -1.52,0.3 -0.49,0.2 -0.92,0.5 -1.29,0.86 -0.36,0.36 -0.66,0.8 -0.86,1.29 -0.19,0.47 -0.3,0.98 -0.3,1.52 0,0.53 0.11,1.04 0.3,1.52 0.2,0.49 0.5,0.93 0.86,1.29 0.36,0.36 0.8,0.66 1.29,0.86 0.47,0.19 0.98,0.3 1.52,0.3 0.52,0 1.02,-0.1 1.49,-0.29 l 0.03,-0.01 c 0.49,-0.2 0.92,-0.5 1.29,-0.86 0.22,-0.22 0.42,-0.48 0.59,-0.75 0.09,-0.15 0.18,-0.32 0.25,-0.48 h 13.12 c 0.49,0 0.93,-0.2 1.25,-0.52 0.33,-0.34 0.53,-0.78 0.53,-1.27 z m -8.54,-13.87 v -2.91 c -0.78,-0.04 -1.56,-0.16 -2.32,-0.35 -0.41,-0.1 -0.82,-0.23 -1.22,-0.37 v 1.87 h -5.22 c -0.07,-0.14 -0.14,-0.27 -0.23,-0.4 -0.15,-0.24 -0.33,-0.46 -0.54,-0.67 v 0 c -0.36,-0.36 -0.8,-0.66 -1.29,-0.86 -0.47,-0.19 -0.98,-0.3 -1.51,-0.3 -0.53,0 -1.04,0.11 -1.52,0.3 -0.47,0.2 -0.9,0.48 -1.26,0.83 L 32.67,102 c -0.36,0.36 -0.66,0.8 -0.86,1.29 -0.19,0.47 -0.3,0.98 -0.3,1.52 0,0.54 0.11,1.05 0.3,1.52 0.2,0.47 0.48,0.9 0.84,1.26 l 0.02,0.03 c 0.36,0.36 0.78,0.65 1.26,0.85 l 0.03,0.01 c 0.47,0.19 0.98,0.3 1.52,0.3 0.53,0 1.04,-0.11 1.52,-0.3 0.47,-0.2 0.9,-0.48 1.26,-0.83 l 0.03,-0.03 c 0.19,-0.19 0.36,-0.4 0.52,-0.64 0.08,-0.12 0.15,-0.24 0.21,-0.37 h 7.02 c 0.49,0 0.93,-0.2 1.25,-0.52 0.32,-0.32 0.52,-0.76 0.52,-1.25 z"/>
</svg>
