<?xml version="1.0" encoding="UTF-8" standalone="no"?>
<svg width="600" height="600" version="1.1" id="svg129" xmlns:xlink="http://www.w3.org/1999/xlink" xmlns="http://www.w3.org/2000/svg" xmlns:svg="http://www.w3.org/2000/svg">
  <defs>
    <radialGradient id="rg" gradientUnits="userSpaceOnUse" cx="220" cy="220" r="405">
      <stop style="stop-color:#fff;stop-opacity:.3" offset="0"/>
      <stop style="stop-color:#fff;stop-opacity:.2" offset=".2"/>
      <stop style="stop-color:#666;stop-opacity:.1" offset=".6"/>
      <stop style="stop-color:#000;stop-opacity:.13" offset="1"/>
    </radialGradient>
    <clipPath id="shield-clip">
      <path id="shield" d="m 1.5,1.5 h 597 v 597 h -597 z" />
    </clipPath>
  </defs>
  <use id="field" xlink:href="#shield" style="fill:#ffffff" />
  <g style="fill:#151515;stroke:#000000;stroke-width:1;stroke-linecap:round;stroke-linejoin:round;">
    <path id="ears-inside" style="fill:#222222;" d="m 406.9,233.1 c 31.5,-1.8 62.5,-4.5 91.9,-17.8 18.2,-8.2 33.4,-31.3 39.9,-56.1 l 1.4,-23.8 -7.2,-0.3 -53.4,53.3 -73.3,32.1 m -213.2,12.6 c -31.5,-1.8 -62.5,-4.5 -91.9,-17.8 -18.02,-8.2 -33.38,-31.3 -39.88,-56.1 l -1.37,-23.8 7.17,-0.3 53.38,53.3 73.3,32.1"/>
    <path id="ears-hair" style="fill:#000000;" d="m 536.9,138.7 c -3.5,11.1 -6.1,17.5 -16,24.2 2,1.5 4.3,2.6 9.6,1.2 -6.1,7.2 -13.7,9.9 -21.5,15 3.7,0 7.2,0.3 10.7,0 -6.4,6.4 -17.4,10.3 -27.3,12.8 3.7,1.5 8.4,1.5 9.6,6.2 -5.6,-0.3 -9.3,-1.5 -14.1,0.9 2.4,4 5.9,5.8 2.1,9.9 -2.9,-2.9 -6.9,-6.4 -11.9,-4.7 1.8,4.1 1.8,5.5 -0.9,9.9 -3.8,-4.7 -5.8,-4.9 -12.5,-4.4 1.7,2.7 6.4,5 1.1,7.6 -1.4,-5.2 -9.3,-6.8 -15.1,-4.7 l -3.8,-23.3 44,-14.2 24.6,-22.9 20.3,-18.8 z m -473.84,0 c 3.49,11.1 6.1,17.5 16,24.2 -2.04,1.5 -4.36,2.6 -9.6,1.2 6.11,7.2 13.68,9.9 21.53,15 -3.78,0 -7.27,0.3 -10.76,0 6.4,6.4 17.4,10.3 27.27,12.8 -3.7,1.5 -8.32,1.5 -9.56,6.2 5.56,-0.3 9.26,-1.5 14.06,0.9 -2.4,4 -5.9,5.8 -2.1,9.9 2.9,-2.9 6.9,-6.4 11.9,-4.7 -1.8,4.1 -1.8,5.5 0.9,9.9 3.8,-4.7 5.8,-4.9 12.5,-4.4 -1.7,2.7 -6.4,5 -1.1,7.6 1.4,-5.2 9.3,-6.8 15.1,-4.7 l 3.8,-23.3 -44,-14.2 -24.57,-22.9 -20.28,-18.8 z"/>
    <path id="ears-outside" d="m 406.2,220.5 c 14.9,0.8 30.9,-2.7 44.5,-7.9 17.1,-6.5 30.5,-15.6 34.1,-22.6 6.1,-11.9 47.7,-53.8 52.1,-51.3 2.9,1.5 1.8,14.4 1.8,20.5 1.6,-6.1 2.7,-12.3 3.1,-18.4 1.4,-18.7 -5.6,-12.6 -16.6,-2.1 -13.2,12.8 -23.9,31.1 -41.6,34 -30.3,5 -61.3,3.8 -82.9,28.9 m -207,18.9 c -14.9,0.8 -30.9,-2.7 -44.5,-7.9 -17.1,-6.5 -30.5,-15.6 -34.1,-22.6 -6.1,-11.9 -47.68,-53.8 -52.04,-51.3 -2.91,1.5 -1.84,14.4 -1.84,20.5 -1.61,-6.1 -2.68,-12.3 -3.11,-18.4 -1.32,-18.7 5.66,-12.6 16.59,-2.1 13.23,12.8 23.97,31.1 41.6,34 30.3,5 61.3,3.8 82.9,28.9"/>
    <path id="face" d="m 251,452.7 c -7,-13.1 -7.5,-27.6 -12.8,-41.3 -5.2,-12.9 -11,-25.4 -15.2,-38.7 -1.6,1.2 -3.1,4.1 -3.4,6.1 -1.7,-8.5 0.9,-9.1 0,-13.1 -3.8,-9.3 -4.9,-15.4 -3.8,-25.3 -2.1,0.6 -5.3,-2.4 -5.3,3.2 -3.4,-8.8 0.3,-11.4 1.3,-15.7 -6.2,-6.1 -6.2,-7.9 -3.2,-16.3 -5.9,0.3 -5.9,3.2 -7.7,5.5 -4,-11 -10.4,-19.8 -6.4,-31.5 9.3,-8.2 12,-34.4 -0.8,-65.1 0.9,-6.3 2.8,-12.7 5.5,-18.9 5.2,-11.6 13.4,-22.5 24.5,-30.7 12.5,-9.2 28.3,-15.1 47.4,-15.4 1.6,0 3.3,0 4.9,0.1 7.6,0.3 14.6,5.6 21.8,5.6 h 4.4 c 7.2,0 14.2,-5.3 21.8,-5.6 1.6,-0.1 3.3,-0.1 4.9,-0.1 19.1,0.3 34.9,6.2 47.4,15.4 11,8.2 19.2,19.1 24.5,30.7 2.6,6.2 4.5,12.6 5.5,18.9 -12.9,30.7 -10.2,56.9 -0.9,65.1 4,11.7 -2.4,20.5 -6.4,31.5 -1.7,-2.3 -1.7,-5.2 -7.7,-5.5 3,8.4 3,10.2 -3.2,16.3 1,4.3 4.8,6.9 1.4,15.7 0,-5.6 -3.2,-2.6 -5.4,-3.2 1.2,9.9 0,16 -3.8,25.3 -0.9,4 1.7,4.6 0,13.1 -0.3,-2 -1.8,-4.9 -3.4,-6.1 -4.2,13.3 -10,25.8 -15.2,38.7 -5.3,13.7 -5.8,28.2 -12.8,41.3"/>
    <path id="horns" style="fill:#333333;" d="m 328.9,155.5 c -0.6,-3.2 0.5,-10.3 2.3,-14.2 -0.3,-5.1 2.1,-16 3.8,-19.7 -0.3,-4.1 3.8,-17.1 7.5,-19.8 0.9,-6.96 3.2,-14.27 8.7,-19.8 2.3,-6.4 5.8,-12.52 12.5,-18.04 4.1,-7.85 10.2,-13.09 17.5,-16.58 6.4,-7.28 11.9,-10.78 18,-13.1 5.6,-4.07 11,-7.27 17.7,-8.44 5.6,-3.49 12,-6.69 19.6,-7.27 4.3,-2.92 8.6,-2.92 12.8,-2.92 16,-1.71 22.9,6.34 20.5,13.03 -0.9,2.41 -3,4.64 -6.3,6.18 -3.2,2.62 -6.7,4.95 -11,5.82 -4.2,5.24 -9.3,6.99 -13.5,9.89 -3.7,5.54 -7.8,7.86 -11.8,10.47 -2.9,4.66 -5.9,9.9 -10.3,12.24 -2.9,5.52 -5.4,11.34 -10.4,15.12 -1.7,6.96 -5.9,11.09 -9.1,15.7 -0.5,6.4 -3.7,10.8 -6.6,15.4 -1.2,5 -3.5,11.9 -6.4,17.2 -0.3,4.6 -2.7,13.1 -5,18.1 0.6,4.9 -1.5,12.9 -3.2,16.1 -5.5,-1.5 -11.3,-3 -17.4,-4.8 -9.3,-2.7 -19.2,-6 -29.9,-10.6 z m -57.8,0 c 0.6,-3.2 -0.5,-10.3 -2.3,-14.2 0.3,-5.1 -2.1,-16 -3.8,-19.7 0.3,-4.1 -3.8,-17.1 -7.6,-19.8 -0.9,-6.96 -3.2,-14.27 -8.7,-19.8 -2.3,-6.4 -5.8,-12.52 -12.5,-18.04 -4.1,-7.85 -10.2,-13.09 -17.5,-16.58 -6.4,-7.28 -11.9,-10.78 -18,-13.1 -5.6,-4.07 -11,-7.27 -17.7,-8.44 -5.6,-3.49 -12,-6.69 -19.6,-7.27 -4.3,-2.92 -8.6,-2.92 -12.8,-2.92 -16,-1.71 -22.9,6.34 -20.5,13.03 0.9,2.41 3,4.64 6.3,6.18 3.2,2.62 6.7,4.95 11,5.82 4.2,5.24 9.3,6.99 13.5,9.89 3.7,5.54 7.8,7.86 11.8,10.47 2.9,4.66 5.9,9.9 10.3,12.24 2.9,5.52 5.4,11.34 10.4,15.12 1.7,6.96 5.9,11.09 9.1,15.7 0.5,6.4 3.7,10.8 6.6,15.4 1.2,5 3.5,11.9 6.4,17.2 0.3,4.6 2.7,13.1 5,18.1 -0.6,4.9 1.5,12.9 3.2,16.1 5.5,-1.5 11.3,-3 17.4,-4.8 9.3,-2.7 19.3,-6 30,-10.6 z"/>
    <path id="horn-ridges" style="fill:none;" d="m 449.3,15.65 c 7.8,4.08 12.3,7.5 13.6,15.43 l 0.6,3.78 m -121,66.94 c 11,-2.62 20.3,0.9 29.9,4.6 7,2.9 16.4,8.5 18.4,13.1 m -55.8,2.1 c 10.5,-3 21.8,-0.6 31.3,2.9 7,2.1 16.1,7.5 18.1,12.2 m 52.1,-118.13 c 7.5,4.07 13.5,8.86 15,16.88 l 1,5.23 m -35.6,-14.84 c 10.5,3.78 14.4,8.44 18.4,17.46 l 3.7,7.27 m -39.8,-16.29 c 11.8,2.04 20.2,13.07 23,18.04 l 5,8.72 m -46,-13.66 c 11.4,2.03 22.4,7.85 27.9,14.54 2.7,3.49 5.3,7.56 7.8,11.36 m -53.2,-9.32 c 11.2,0.59 27.6,5.82 32.9,10.18 4.3,3.49 7.3,9.02 9.9,14.26 m -55.3,-6.4 c 11.9,-0.87 22.5,0.58 33.2,7.28 5.5,3.78 9.5,9.07 13,14.82 m -66.2,37.2 c 10.7,-2.9 20.9,-1.9 30.5,1.3 7,2.2 16,7.5 17.7,12.2 m -20.6,11.3 c 6,-67.31 49.3,-117.34 111,-137.42 m -319.2,-13.03 c -7.8,4.08 -12.3,7.5 -13.6,15.43 l -0.6,3.78 m 121,66.94 c -11,-2.62 -20.3,0.9 -29.9,4.6 -7,2.9 -16.4,8.5 -18.4,13.1 m 55.9,2.1 c -10.5,-3 -21.8,-0.6 -31.4,2.9 -7,2.1 -16.1,7.5 -18.1,12.2 m -52.1,-118.13 c -7.5,4.07 -13.5,8.86 -15,16.88 l -1,5.23 m 35.6,-14.84 c -10.5,3.78 -14.3,8.44 -18.4,17.46 l -3.7,7.27 m 39.8,-16.29 c -11.8,2.04 -20.2,13.07 -23,18.04 l -5,8.72 m 46,-13.66 c -11.4,2.03 -22.4,7.85 -27.9,14.54 -2.7,3.49 -5.3,7.56 -7.8,11.36 m 53.2,-9.32 c -11.2,0.59 -27.6,5.82 -32.9,10.18 -4.3,3.49 -7.3,9.02 -9.9,14.26 m 55.3,-6.4 c -11.9,-0.87 -22.5,0.58 -33.2,7.28 -5.5,3.78 -9.5,9.07 -13,14.82 m 66.3,37.2 c -10.7,-2.9 -21,-1.9 -30.6,1.3 -7,2.2 -16,7.5 -17.7,12.2 m 20.6,11.3 c -5.9,-67.31 -49.3,-117.34 -111,-137.42"/>
    <path id="eyelids" style="fill:#111111;" d="m 378.8,251.8 -7.8,36.5 h 8.8 c 9.6,3.5 16.3,0.5 25.6,-2.7 5.9,-2.5 11.5,-9.3 9,-17.9 3.5,-10 2.5,-25.7 -8.1,-28.2 z m -157.7,0 7.8,36.5 h -8.8 c -9.6,3.5 -16.3,0.5 -25.6,-2.7 -5.8,-2.5 -11.5,-9.3 -9,-17.9 -3.5,-10 -2.5,-25.7 8.2,-28.2 z"/>
    <path id="eyes" style="fill:#ff6666;" d="m 414.4,267.7 c -17.5,-15.4 -31.6,2.3 -42,11.9 24.4,8.4 37.2,-0.9 42,-11.9 z m -228.9,0 c 17.5,-15.4 31.6,2.3 42,11.9 -24.3,8.4 -37.2,-0.9 -42,-11.9 z"/>
    <path id="pupils" style="fill:#330000;" d="m 405.2,271.4 c 0,5.3 -3.6,9.6 -7.9,9.6 -4.6,0 -8.2,-4.3 -8.2,-9.6 0,-5.5 5,-9 9.3,-9 4.7,0 6.9,3.5 6.8,9 z m -210.5,0 c 0,5.3 3.6,9.6 7.9,9.6 4.6,0 8.2,-4.3 8.2,-9.6 0,-5.5 -5,-9 -9.3,-9 -4.7,0 -6.8,3.5 -6.8,9 z"/>
    <path id="stripes" style="fill:#222222;" d="m 406.2,220.5 c -17.5,10.8 -34.3,27.6 -35.7,40.5 -3.2,21.4 -21.3,45.9 -21.6,61.3 -1.5,15.2 7,26.8 4.3,43.4 -2,13.9 -5.8,28 -4,44.5 2.2,-14.5 11.3,-23.8 11.6,-40.5 0.6,-44.7 17.9,-64.8 19,-81.4 l 1.1,-16 c 0.9,-11.3 12.9,-23.2 25.4,-32.8 0.2,-2.1 0.5,-4.2 0.6,-6.4 0.1,-4.1 -0.1,-8.4 -0.7,-12.6 z m -212.5,0 c 17.5,10.8 34.3,27.6 35.7,40.5 3.2,21.4 21.3,45.9 21.6,61.3 1.5,15.2 -7,26.8 -4.3,43.4 2,13.9 5.8,28 4,44.5 -2.2,-14.5 -11.3,-23.8 -11.6,-40.5 -0.6,-44.7 -17.9,-64.8 -19,-81.4 l -1.1,-16 c -0.8,-11.3 -12.8,-23.2 -25.3,-32.8 -0.3,-2.1 -0.6,-4.2 -0.7,-6.4 -0.1,-4.1 0.1,-8.4 0.7,-12.6 z"/>
    <path id="beard" d="m 326.2,489.7 c -4.4,9.8 3.6,15.7 8.8,21.8 -6.4,-1.8 -10.2,-1.2 -12.5,-7 -0.3,11.1 6.1,20.1 11.9,27.6 -6.1,1.1 -8.2,-0.3 -12.8,-4 -1.1,13.9 0.9,22.9 9.6,30.5 -5.8,-0.9 -11.4,-1.5 -13.9,-7.3 -1.2,10.5 0.6,16.3 3.5,24.2 -10.8,-4.1 -12.5,-7 -16.4,-16.9 -0.5,9.4 -3.8,23.6 -4.4,26.8 -0.6,-3.2 -3.9,-17.4 -4.4,-26.8 -3.9,9.9 -5.6,12.8 -16.4,16.9 2.9,-7.9 4.7,-13.7 3.5,-24.2 -2.5,5.8 -8.1,6.4 -13.9,7.3 8.7,-7.6 10.7,-16.6 9.6,-30.5 -4.6,3.7 -6.7,5.1 -12.8,4 5.8,-7.5 12.2,-16.5 11.9,-27.6 -2.3,5.8 -6.1,5.2 -12.5,7 5.2,-6.1 13.2,-12 8.8,-21.8"/>
    <path id="beard-folds" style="fill:none;" d="m 306.5,496.1 c -1.1,20.3 0,39.8 3.5,59.6 m -16.5,-59.6 c 1.1,20.3 0,39.8 -3.5,59.6"/>
    <path id="lower-lip" style="fill:#222222;" d="m 321.9,461 11.4,13.5 c -1.4,8 -3.8,12.6 -7.1,15.2 -5.2,4.1 -12.8,3.5 -22.6,3.5 h -7.2 c -9.8,0 -17.4,0.6 -22.6,-3.5 -3.3,-2.6 -5.7,-7.2 -7.1,-15.2 l 11.4,-13.5"/>
    <path id="nose" style="fill:#222222;" d="m 250.3,439.4 c -2.6,-14.5 -0.3,-23.3 0.4,-29.2 3.8,-31.1 38.8,-12.8 38.5,-131.5 l -0.6,-9.3 6.3,-7.4 h 10.2 l 6.3,7.4 -0.6,9.3 c -0.3,118.7 34.6,100.4 38.4,131.5 0.7,5.9 3,14.7 0.4,29.2"/>
    <path id="forehead" style="fill:#000000;" d="m 289.2,278.7 c -5,-4.6 -2.1,-9.6 -1.2,-16 -7.8,2.6 -11.7,5.3 -16,11.9 0.3,-10.4 3.7,-14.6 10.7,-21.2 -7,0.8 -8.9,2.9 -12.8,8.7 -0.3,-10.4 5,-13.1 7.6,-19.5 -3.7,-1.5 -6.9,-0.6 -10.8,0 3.5,-6.6 8.5,-9.3 14.9,-12.7 -5.3,-1.6 -7.8,0 -12.8,1.9 2.9,-5.1 6.9,-8.1 11.9,-11.3 -6.1,-1.7 -10.5,-1.2 -16.3,1.2 2.6,-10.2 7,-9.6 16.3,-12 -1.8,-4 -9.3,-4.6 -15.1,-7.2 8.7,-5.9 11.9,-2.9 19.2,3.2 -0.9,-6.1 -0.9,-7.3 -8.5,-21.3 6.4,4.1 11.1,7.3 14,13.7 0,-5.8 2.2,-9 9.7,-13.7 7.5,4.7 9.7,7.9 9.7,13.7 2.9,-6.4 7.6,-9.6 14,-13.7 -7.6,14 -7.6,15.2 -8.5,21.3 7.3,-6.1 10.5,-9.1 19.2,-3.2 -5.8,2.6 -13.3,3.2 -15.1,7.2 9.3,2.4 13.7,1.8 16.3,12 -5.8,-2.4 -10.2,-2.9 -16.3,-1.2 5,3.2 9,6.2 11.9,11.3 -5,-1.9 -7.5,-3.5 -12.8,-1.9 6.4,3.4 11.4,6.1 14.9,12.7 -3.9,-0.6 -7.1,-1.5 -10.8,0 2.6,6.4 7.9,9.1 7.6,19.5 -3.9,-5.8 -5.8,-7.9 -12.8,-8.7 7,6.6 10.4,10.8 10.7,21.2 -4.3,-6.6 -8.2,-9.3 -16,-11.9 0.9,6.4 3.8,11.4 -1.2,16 -1.4,-3.8 -2.3,-8.1 -10.8,-10.7 -8.5,2.6 -9.4,6.9 -10.8,10.7 z"/>
    <path id="upper-lip" d="m 305.4,469.3 c 10.7,0 17,10 27.9,5.2 9,-3.9 10.9,-12.8 15.6,-21.8 2,-5.9 1,-9.9 0.7,-13.3 -4,-48.9 -38.9,-32.4 -49.6,-32.4 -10.7,0 -45.7,-16.5 -49.7,32.4 -0.3,3.4 -1.3,7.4 0.7,13.3 4.7,9 6.6,17.9 15.7,21.8 10.9,4.8 17.2,-5.2 27.9,-5.2 z"/>
    <path id="nostrils" style="fill:#222222;" d="m 316.1,434.7 c 5.5,-4.1 8.7,-9.1 11.9,-14.9 3.2,-6.4 5,-6.4 10.2,-3.2 4,2.3 4.6,7.6 5.4,11.9 2.1,8.5 -15.9,8.2 -27.5,6.2 z m -32.2,0 c -5.5,-4.1 -8.7,-9.1 -11.9,-14.9 -3.2,-6.4 -5,-6.4 -10.2,-3.2 -4.1,2.3 -4.7,7.6 -5.5,11.9 -2.1,8.5 16,8.2 27.6,6.2 z"/>
  </g>
  <use id="shine" style="fill:url(#rg);stroke:#000000;stroke-width:3;" xlink:href="#shield" />
</svg>
