<?xml version="1.0" encoding="UTF-8" standalone="no"?>
<svg
   xmlns:dc="http://purl.org/dc/elements/1.1/"
   xmlns:cc="http://creativecommons.org/ns#"
   xmlns:rdf="http://www.w3.org/1999/02/22-rdf-syntax-ns#"
   xmlns:svg="http://www.w3.org/2000/svg"
   xmlns="http://www.w3.org/2000/svg"
   xmlns:sodipodi="http://sodipodi.sourceforge.net/DTD/sodipodi-0.dtd"
   xmlns:inkscape="http://www.inkscape.org/namespaces/inkscape"
   width="600"
   height="600"
   version="1.1"
   id="svg41"
   sodipodi:docname="Faceless_Men.svg"
   inkscape:version="0.92.3 (d244b95, 2018-08-02)">
  <metadata
     id="metadata45">
    <rdf:RDF>
      <cc:Work
         rdf:about="">
        <dc:format>image/svg+xml</dc:format>
        <dc:type
           rdf:resource="http://purl.org/dc/dcmitype/StillImage" />
        <dc:title />
      </cc:Work>
    </rdf:RDF>
  </metadata>
  <sodipodi:namedview
     pagecolor="#ffffff"
     bordercolor="#666666"
     borderopacity="1"
     objecttolerance="10"
     gridtolerance="10"
     guidetolerance="10"
     inkscape:pageopacity="0"
     inkscape:pageshadow="2"
     inkscape:window-width="1867"
     inkscape:window-height="1145"
     id="namedview43"
     showgrid="false"
     inkscape:zoom="0.5056885"
     inkscape:cx="738.97675"
     inkscape:cy="-170.4884"
     inkscape:window-x="1419"
     inkscape:window-y="27"
     inkscape:window-maximized="1"
     inkscape:current-layer="svg41"
     fit-margin-top="0"
     fit-margin-left="0"
     fit-margin-right="0"
     fit-margin-bottom="0" />
  <defs
     id="defs27">
    <radialGradient
       id="rg"
       gradientUnits="userSpaceOnUse"
       cx="220"
       cy="220"
       r="405"
       gradientTransform="matrix(1.4874999,0,0,1.4874999,-146.24997,-146.24997)">
      <stop
         style="stop-color:#fff;stop-opacity:.3"
         offset="0"
         id="stop2" />
      <stop
         style="stop-color:#fff;stop-opacity:.2"
         offset=".2"
         id="stop4" />
      <stop
         style="stop-color:#666;stop-opacity:.1"
         offset=".6"
         id="stop6" />
      <stop
         style="stop-color:#000;stop-opacity:.13"
         offset="1"
         id="stop8" />
    </radialGradient>
    <path
       id="shield"
       d="M 2,2 V 658 H 598 V 2 Z"
       inkscape:connector-curvature="0" />
    <g
       id="half-face">
      <path
         d="m 146.82203,246.80085 c 0,0 28.91972,-46.38399 75.76294,-46.38399 33.00071,0 69.1808,22.32098 69.40633,62.56387 0.23447,41.83823 -21.1728,66.65877 -25.54027,72.11811 0,0 15.30744,-23.65982 15.30744,-54.39336 0,-19.38531 -6.07668,-65.04177 -56.79497,-65.04177 -46.76329,0 -78.14147,31.13714 -78.14147,31.13714 z"
         id="path12"
         inkscape:connector-curvature="0" />
      <path
         d="m 256.93856,334.54449 c -8.22952,6.29237 -10.69207,11.19764 -10.69207,18.67234 0,7.34675 7.48876,10.85443 15.61098,10.85443 15.09668,0 17.45397,-6.10516 17.45397,-6.10516 4.36161,7.55454 14.3844,10.65693 20.68856,10.65693 v -11.70566 c -13.57355,0 -18.58899,-6.98519 -19.98941,-15.73093 -1.85265,8.02967 -5.7031,12.23517 -15.03178,12.23517 -13.26633,0 -12.19841,-9.17474 -8.04025,-18.87712 z"
         id="path14"
         inkscape:connector-curvature="0" />
      <path
         d="m 152.51484,261.28616 c 0,0 25.46034,-32.13441 63.52726,-32.13441 39.30285,0 57.10037,34.60628 57.10037,34.60628 0,0 -19.98726,-27.43783 -57.84194,-27.43783 -33.62696,0 -62.78569,24.96596 -62.78569,24.96596 z"
         id="path16"
         inkscape:connector-curvature="0" />
      <path
         d="m 264.73808,277.10617 c -12.29675,16.83673 -25.51672,20.64897 -43.63015,20.64897 -21.64806,0 -29.06871,-3.97567 -40.90806,-9.52552 15.02683,4.59845 19.26311,6.37205 40.99076,6.37205 26.22292,0 31.06978,-6.23232 43.54745,-17.4955 z"
         id="path18"
         inkscape:connector-curvature="0" />
      <path
         d="m 215.05273,244.23047 c -31.14565,-0.24719 -47.70703,24.96484 -47.70703,24.96484 9.39313,11.61783 27.19081,21.75391 52.65235,21.75391 22.4792,0 37.09422,-11.40205 45.97656,-22.74219 0,0 -17.79688,-23.71366 -50.92188,-23.97656 z m -0.36968,8.03415 c 19.54696,-0.0248 35.07345,5.39907 42.14507,12.55569 -1.6898,1.36759 -2.12005,2.78813 -2.12148,4.10805 0.003,1.6672 0.76981,2.85085 2.45789,4.12273 -6.0245,7.56472 -22.69959,9.98711 -41.61743,9.98711 -10.62907,0 -35.17785,-3.27417 -44.24546,-13.84179 7.32113,-7.33012 20.85627,-16.9032 43.38141,-16.93179 z"
         id="path20"
         inkscape:connector-curvature="0" />
      <path
         d="m 237.79462,267.96024 a 21.258148,21.258148 0 0 1 -21.25815,21.25814 21.258148,21.258148 0 0 1 -21.25815,-21.25814 21.258148,21.258148 0 0 1 21.25815,-21.25815 21.258148,21.258148 0 0 1 21.25815,21.25815 z"
         id="path22"
         inkscape:connector-curvature="0" />
      <path
         d="m 275.86133,388.61523 c -19.77489,-0.0728 -35.09961,19.99415 -35.09961,19.99415 8.0336,4.94375 13.20652,7.25878 24.22266,13.03124 9.00792,4.72018 19.29683,10.87696 35.01562,10.87696 v -16.52149 c -28.1495,0 -46.79633,-8.15678 -57.47461,-7.73828 11.61984,-7.25312 30.76621,0.7461 57.47461,0.7461 v -12.97266 c -8.1572,0 -10.6541,-7.36642 -24.13867,-7.41602 z"
         id="path24"
         inkscape:connector-curvature="0" />
    </g>
    <radialGradient
       id="rg-3"
       gradientUnits="userSpaceOnUse"
       cx="220"
       cy="220"
       r="405">
      <stop
         style="stop-color:#fff;stop-opacity:.3"
         offset="0"
         id="stop2-6" />
      <stop
         style="stop-color:#fff;stop-opacity:.2"
         offset=".2"
         id="stop4-7" />
      <stop
         style="stop-color:#666;stop-opacity:.1"
         offset=".6"
         id="stop6-5" />
      <stop
         style="stop-color:#000;stop-opacity:.13"
         offset="1"
         id="stop8-3" />
    </radialGradient>
    <radialGradient
       id="radialGradient865"
       gradientUnits="userSpaceOnUse"
       cx="220"
       cy="220"
       r="405">
      <stop
         style="stop-color:#fff;stop-opacity:.3"
         offset="0"
         id="stop857" />
      <stop
         style="stop-color:#fff;stop-opacity:.2"
         offset=".2"
         id="stop859" />
      <stop
         style="stop-color:#666;stop-opacity:.1"
         offset=".6"
         id="stop861" />
      <stop
         style="stop-color:#000;stop-opacity:.13"
         offset="1"
         id="stop863" />
    </radialGradient>
  </defs>
  <circle
     cx="300"
     cy="300"
     id="circle32"
     style="fill:#000000;stroke-width:1.48749995"
     r="297.5" />
  <path
     d="M 300.00001,2.5000097 V 597.49998 A 297.49999,297.49999 0 0 0 597.49999,299.99999 297.49999,297.49999 0 0 0 300.00001,2.5000097 Z"
     id="path34"
     inkscape:connector-curvature="0"
     style="fill:#ffffff;stroke-width:1.48749995" />
  <g
     id="use36"
     style="fill:#ffffff"
     transform="matrix(1.4874999,0,0,1.4874999,-146.24997,-146.24998)">
    <path
       id="path852"
       d="m 146.82203,246.80085 c 0,0 28.91972,-46.38399 75.76294,-46.38399 33.00071,0 69.1808,22.32098 69.40633,62.56387 0.23447,41.83823 -21.1728,66.65877 -25.54027,72.11811 0,0 15.30744,-23.65982 15.30744,-54.39336 0,-19.38531 -6.07668,-65.04177 -56.79497,-65.04177 -46.76329,0 -78.14147,31.13714 -78.14147,31.13714 z"
       inkscape:connector-curvature="0" />
    <path
       id="path854"
       d="m 256.93856,334.54449 c -8.22952,6.29237 -10.69207,11.19764 -10.69207,18.67234 0,7.34675 7.48876,10.85443 15.61098,10.85443 15.09668,0 17.45397,-6.10516 17.45397,-6.10516 4.36161,7.55454 14.3844,10.65693 20.68856,10.65693 v -11.70566 c -13.57355,0 -18.58899,-6.98519 -19.98941,-15.73093 -1.85265,8.02967 -5.7031,12.23517 -15.03178,12.23517 -13.26633,0 -12.19841,-9.17474 -8.04025,-18.87712 z"
       inkscape:connector-curvature="0" />
    <path
       d="m 214.68305,251.21589 c 19.54696,-0.0248 35.07345,6.4478 42.14507,13.60442 -1.6898,1.36759 -2.12005,2.78813 -2.12148,4.10805 0.003,1.6672 0.76981,2.85085 2.45789,4.12273 -6.0245,7.56472 -21.65086,13.48287 -40.5687,13.48287 -10.62907,0 -36.22658,-6.76993 -45.29419,-17.33755 7.32113,-7.33012 20.85627,-17.95193 43.38141,-17.98052 z"
       id="path860"
       inkscape:connector-curvature="0"
       sodipodi:nodetypes="scccscs" />
    <path
       id="path862"
       d="m 237.79462,267.96024 a 21.258148,21.258148 0 0 1 -21.25815,21.25814 21.258148,21.258148 0 0 1 -21.25815,-21.25814 21.258148,21.258148 0 0 1 21.25815,-21.25815 21.258148,21.258148 0 0 1 21.25815,21.25815 z"
       inkscape:connector-curvature="0"
       style="fill:#000000" />
    <path
       id="path864"
       d="m 275.86133,388.61523 c -19.77489,-0.0728 -35.09961,19.99415 -35.09961,19.99415 8.0336,4.94375 13.20652,7.25878 24.22266,13.03124 9.00792,4.72018 19.29683,10.87696 35.01562,10.87696 v -16.52149 c -28.1495,0 -46.79633,-8.15678 -57.47461,-7.73828 11.61984,-7.25312 30.76621,0.7461 57.47461,0.7461 v -12.97266 c -8.1572,0 -10.6541,-7.36642 -24.13867,-7.41602 z"
       inkscape:connector-curvature="0" />
  </g>
  <g
     id="use38"
     style="fill:#000000"
     transform="matrix(-1.4874999,0,0,1.4874999,746.24998,-146.24998)">
    <path
       id="path868"
       d="m 146.82203,246.80085 c 0,0 28.91972,-46.38399 75.76294,-46.38399 33.00071,0 69.1808,22.32098 69.40633,62.56387 0.23447,41.83823 -21.1728,66.65877 -25.54027,72.11811 0,0 15.30744,-23.65982 15.30744,-54.39336 0,-19.38531 -6.07668,-65.04177 -56.79497,-65.04177 -46.76329,0 -78.14147,31.13714 -78.14147,31.13714 z"
       inkscape:connector-curvature="0" />
    <path
       id="path870"
       d="m 256.93856,334.54449 c -8.22952,6.29237 -10.69207,11.19764 -10.69207,18.67234 0,7.34675 7.48876,10.85443 15.61098,10.85443 15.09668,0 17.45397,-6.10516 17.45397,-6.10516 4.36161,7.55454 14.3844,10.65693 20.68856,10.65693 v -11.70566 c -13.57355,0 -18.58899,-6.98519 -19.98941,-15.73093 -1.85265,8.02967 -5.7031,12.23517 -15.03178,12.23517 -13.26633,0 -12.19841,-9.17474 -8.04025,-18.87712 z"
       inkscape:connector-curvature="0" />
    <path
       id="path876"
       d="m 215.05273,244.23047 c -31.14565,-0.24719 -47.70703,24.96484 -47.70703,24.96484 9.39313,11.61783 27.19081,21.75391 52.65235,21.75391 22.4792,0 37.09422,-11.40205 45.97656,-22.74219 0,0 -17.79688,-23.71366 -50.92188,-23.97656 z m -0.36968,8.03415 c 19.54696,-0.0248 35.07345,5.39907 42.14507,12.55569 -1.6898,1.36759 -2.12005,2.78813 -2.12148,4.10805 0.003,1.6672 0.76981,2.85085 2.45789,4.12273 -6.0245,7.56472 -22.69959,9.98711 -41.61743,9.98711 -10.62907,0 -35.17785,-3.27417 -44.24546,-13.84179 7.32113,-7.33012 20.85627,-16.9032 43.38141,-16.93179 z"
       inkscape:connector-curvature="0" />
    <path
       id="path878"
       d="m 237.79462,267.96024 a 21.258148,21.258148 0 0 1 -21.25815,21.25814 21.258148,21.258148 0 0 1 -21.25815,-21.25814 21.258148,21.258148 0 0 1 21.25815,-21.25815 21.258148,21.258148 0 0 1 21.25815,21.25815 z"
       inkscape:connector-curvature="0" />
    <path
       id="path880"
       d="m 275.86133,388.61523 c -19.77489,-0.0728 -35.09961,19.99415 -35.09961,19.99415 8.0336,4.94375 13.20652,7.25878 24.22266,13.03124 9.00792,4.72018 19.29683,10.87696 35.01562,10.87696 v -16.52149 c -28.1495,0 -46.79633,-8.15678 -57.47461,-7.73828 11.61984,-7.25312 30.76621,0.7461 57.47461,0.7461 v -12.97266 c -8.1572,0 -10.6541,-7.36642 -24.13867,-7.41602 z"
       inkscape:connector-curvature="0" />
  </g>
  <circle
     id="circle842"
     cy="300"
     cx="300"
     style="opacity:1;vector-effect:none;fill:url(#rg);fill-opacity:1;stroke:#000000;stroke-width:3;stroke-linecap:butt;stroke-linejoin:miter;stroke-miterlimit:4;stroke-dasharray:none;stroke-dashoffset:0;stroke-opacity:1"
     r="297.5" />
</svg>
