<?xml version="1.0" encoding="UTF-8" standalone="no"?>
<svg
   xmlns:dc="http://purl.org/dc/elements/1.1/"
   xmlns:cc="http://creativecommons.org/ns#"
   xmlns:rdf="http://www.w3.org/1999/02/22-rdf-syntax-ns#"
   xmlns:svg="http://www.w3.org/2000/svg"
   xmlns="http://www.w3.org/2000/svg"
   xmlns:xlink="http://www.w3.org/1999/xlink"
   xmlns:sodipodi="http://sodipodi.sourceforge.net/DTD/sodipodi-0.dtd"
   xmlns:inkscape="http://www.inkscape.org/namespaces/inkscape"
   width="600"
   height="600"
   version="1.1"
   id="svg122"
   sodipodi:docname="House_Baratheon_(Dragonstone).svg"
   inkscape:version="0.92.3 (d244b95, 2018-08-02)">
  <metadata
     id="metadata126">
    <rdf:RDF>
      <cc:Work
         rdf:about="">
        <dc:format>image/svg+xml</dc:format>
        <dc:type
           rdf:resource="http://purl.org/dc/dcmitype/StillImage" />
        <dc:title></dc:title>
      </cc:Work>
    </rdf:RDF>
  </metadata>
  <sodipodi:namedview
     pagecolor="#ffffff"
     bordercolor="#666666"
     borderopacity="1"
     objecttolerance="10"
     gridtolerance="10"
     guidetolerance="10"
     inkscape:pageopacity="0"
     inkscape:pageshadow="2"
     inkscape:window-width="1313"
     inkscape:window-height="713"
     id="namedview124"
     showgrid="false"
     inkscape:zoom="0.71515152"
     inkscape:cx="238.94082"
     inkscape:cy="302.66175"
     inkscape:window-x="53"
     inkscape:window-y="27"
     inkscape:window-maximized="1"
     inkscape:current-layer="svg122" />
  <style
     id="style_css_sheet"
     type="text/css">
.stag {
  fill:#000000;stroke:#cc0000;stroke-width:1;
}
.stag-detail {
  fill:#cc0000;stroke:none;
}
</style>
  <defs
     id="defs27">
    <linearGradient
       inkscape:collect="always"
       id="linearGradient1245">
      <stop
         style="stop-color:#ffffbb;stop-opacity:1"
         offset="0"
         id="stop1241" />
      <stop
         style="stop-color:#ffff00;stop-opacity:1"
         offset="1"
         id="stop1243" />
    </linearGradient>
    <linearGradient
       inkscape:collect="always"
       id="linearGradient1237">
      <stop
         style="stop-color:#ffdd00;stop-opacity:1"
         offset="0"
         id="stop1233" />
      <stop
         style="stop-color:#ff9900;stop-opacity:1"
         offset="1"
         id="stop1235" />
    </linearGradient>
    <linearGradient
       inkscape:collect="always"
       id="linearGradient1229">
      <stop
         style="stop-color:#ff9900;stop-opacity:1"
         offset="0"
         id="stop1225" />
      <stop
         style="stop-color:#ff5500;stop-opacity:1"
         offset="1"
         id="stop1227" />
    </linearGradient>
    <radialGradient
       id="rg"
       gradientUnits="userSpaceOnUse"
       cx="220"
       cy="220"
       r="405"
       xlink:href="#flame2"
       gradientTransform="translate(5.3693571e-6,2.6074957e-5)">
      <stop
         style="stop-color:#fff;stop-opacity:.3"
         offset="0"
         id="stop3" />
      <stop
         style="stop-color:#fff;stop-opacity:.2"
         offset=".2"
         id="stop5" />
      <stop
         style="stop-color:#666;stop-opacity:.1"
         offset=".6"
         id="stop7" />
      <stop
         style="stop-color:#000;stop-opacity:.13"
         offset="1"
         id="stop9" />
    </radialGradient>
    <path
       id="shield"
       d="m 2,2 v 257 c 0,286 298,398 298,398 0,0 298,-112 298,-398 V 2 Z"
       inkscape:connector-curvature="0" />
    <radialGradient
       inkscape:collect="always"
       xlink:href="#linearGradient1229"
       id="radialGradient1231"
       cx="300"
       cy="299.99997"
       fx="300"
       fy="299.99997"
       r="225"
       gradientTransform="matrix(1.2724559,0,0,1.2724559,-81.736763,-81.736664)"
       gradientUnits="userSpaceOnUse" />
    <radialGradient
       inkscape:collect="always"
       xlink:href="#linearGradient1237"
       id="radialGradient1239"
       cx="300"
       cy="299.99997"
       fx="300"
       fy="299.99997"
       r="151.80345"
       gradientTransform="matrix(1.2724559,0,0,1.2724559,-81.736763,-81.736664)"
       gradientUnits="userSpaceOnUse" />
    <radialGradient
       inkscape:collect="always"
       xlink:href="#linearGradient1245"
       id="radialGradient1247"
       cx="300"
       cy="302.91388"
       fx="300"
       fy="302.91388"
       r="112.49378"
       gradientTransform="matrix(1.2724559,0,0,1.2394955,-81.736763,-71.752564)"
       gradientUnits="userSpaceOnUse" />
  </defs>
  <path
     style="fill:url(#radialGradient1231);fill-opacity:1;stroke-width:1.27245593"
     id="use18"
     d="m 300.00001,13.697464 c -17.34057,23.143421 -18.77979,47.53707 -14.44667,72.855265 4.29728,25.108471 2.37565,49.485471 -13.0594,70.941811 -7.66021,-28.42932 -22.01714,-47.49692 -40.85255,-60.226384 -22.48497,-15.195948 -34.43953,-35.099691 -41.1874,-61.757168 -7.164,28.017669 0.80236,51.074672 14.49455,72.807432 13.5716,21.54141 21.14805,44.79758 15.11638,70.51129 -17.95494,-23.32511 -38.53171,-35.43982 -60.80044,-39.99146 -26.5886,-5.43465 -45.27371,-19.23706 -61.709318,-41.283066 4.103228,28.626506 20.316388,46.870626 41.283068,61.709296 20.79418,14.71659 36.69071,33.3241 40.94819,59.41319 -25.52156,-14.68778 -49.14703,-18.04691 -71.46801,-13.72914 -26.644427,5.15408 -49.18625,-0.41628 -72.807443,-14.49452 14.7458,24.87721 36.707969,35.50185 61.757192,41.18739 24.833291,5.63651 46.595411,16.77 60.513391,39.22607 -29.1789,-3.79228 -52.26847,2.16098 -71.228818,14.68594 -22.643875,14.95814 -45.644702,18.41382 -72.855286,14.44665 23.143387,17.3406 47.537078,18.77983 72.855286,14.44669 25.108448,-4.29726 49.485468,-2.37567 70.941788,13.05936 -28.4293,7.66023 -47.4969,22.01713 -60.226361,40.85254 -15.195986,22.485 -35.099703,34.43952 -61.757191,41.18743 28.017667,7.16404 51.074682,-0.8024 72.807442,-14.49453 21.54138,-13.57161 44.79756,-21.14809 70.51126,-15.1164 -23.32508,17.95494 -35.43983,38.53171 -39.99144,60.80044 -5.43462,26.58856 -19.23704,45.27382 -41.283068,61.70917 28.626508,-4.10302 46.870648,-20.31612 61.709318,-41.28292 14.71659,-20.79421 33.32409,-36.69074 59.41316,-40.94819 -14.6878,25.52156 -18.04692,49.14716 -13.7291,71.46794 5.15408,26.64447 -0.41628,49.18623 -14.49455,72.80737 24.87721,-14.74569 35.50184,-36.70786 41.1874,-61.75698 5.64114,-24.85368 16.78073,-46.64485 39.27397,-60.5613 -3.80655,29.20287 2.1063,52.35396 14.63798,71.32446 14.95814,22.64386 18.41381,45.5969 14.44667,72.80738 17.34059,-23.14332 18.77991,-47.48913 14.44666,-72.80738 -4.29726,-25.10857 -2.33036,-49.53063 13.10729,-70.98963 7.66142,28.4138 21.97641,47.5494 40.80469,60.27428 22.48495,15.19605 34.43954,35.05179 41.18738,61.70917 7.16404,-28.01753 -0.80228,-51.02676 -14.49449,-72.75956 -13.57952,-21.5538 -21.12095,-44.87201 -15.06855,-70.60689 17.95327,23.32678 38.48382,35.48771 60.7526,40.03933 26.58858,5.43443 45.27376,19.23707 61.70931,41.28292 -4.10323,-28.62653 -20.31634,-46.87054 -41.28307,-61.70917 -20.79415,-14.71651 -36.64547,-33.36935 -40.90036,-59.46104 25.50842,14.67433 49.10852,18.09299 71.42015,13.777 26.64443,-5.15416 49.18637,0.41632 72.80744,14.49453 -14.74581,-24.87729 -36.7079,-35.5019 -61.75716,-41.18743 -24.83328,-5.63649 -46.54896,-16.81442 -60.46555,-39.27394 29.15821,3.78141 52.27872,-2.11987 71.22883,-14.63796 22.64381,-14.95815 45.59691,-18.41384 72.80742,-14.44669 -23.1434,-17.34062 -47.48921,-18.77989 -72.80742,-14.44665 -25.10844,4.29729 -49.53075,2.33035 -70.98968,-13.1073 28.41365,-7.66148 47.54958,-21.97642 60.27424,-40.80471 15.19596,-22.48495 35.0519,-34.43954 61.70932,-41.18739 -28.01761,-7.16401 -51.02683,0.80231 -72.75955,14.49452 -21.55394,13.5795 -44.87211,21.12096 -70.60699,15.06854 23.32672,-17.95325 35.48771,-38.48385 40.03931,-60.75259 5.43461,-26.58862 19.23712,-45.27373 41.28307,-61.709296 -28.62652,4.103216 -46.87066,20.316336 -61.70931,41.283066 -14.7166,20.79414 -33.3694,36.64543 -59.46105,40.90037 14.67427,-25.50845 18.09299,-49.10856 13.777,-71.4202 -5.15411,-26.644465 0.41631,-49.186327 14.49449,-72.807432 -24.87717,14.745776 -35.50185,36.707919 -41.18738,61.757168 -5.63365,24.820634 -16.78958,46.548084 -39.22607,60.465584 3.77969,-29.15656 -2.16776,-52.23091 -14.68591,-71.181011 C 299.48854,63.908892 296.03281,40.90805 300.00001,13.697464 Z"
     inkscape:connector-curvature="0" />
  <path
     style="fill:url(#radialGradient1239);fill-opacity:1;stroke-width:0.85866684"
     id="use20"
     d="m 303.77373,106.83684 c 11.39433,15.843 12.04383,32.31993 8.78663,49.34455 -3.23026,16.8836 -2.25507,33.35564 7.87587,48.03529 5.54292,-19.07978 15.48061,-31.75511 28.35631,-40.09518 15.3705,-9.95606 23.69837,-23.22719 28.6024,-41.12357 4.46413,18.99745 -1.21453,34.44859 -10.73887,48.93082 -9.44045,14.35471 -14.85868,29.94536 -11.12814,47.37344 12.42132,-15.50037 26.46377,-23.40273 41.54807,-26.18011 18.0105,-3.31619 30.79892,-12.38216 42.17832,-27.03956 -3.14569,19.25971 -14.32491,31.35497 -28.66632,41.09 -14.22344,9.65493 -25.1938,21.99956 -28.41013,39.54528 17.41253,-9.57318 33.3965,-11.52813 48.39914,-8.32079 17.90858,3.82856 33.19057,0.36746 49.31292,-8.81953 -10.27662,16.58984 -25.23415,23.46861 -42.20935,26.97437 -16.82887,3.47553 -31.65812,10.70026 -41.34432,25.66751 19.73647,-2.17398 35.23611,2.14691 47.86323,10.84719 15.08024,10.39045 30.55293,13.02511 48.96372,10.70719 -15.84298,11.39434 -32.31994,12.04384 -49.34457,8.78663 -16.88357,-3.23023 -33.35564,-2.25507 -48.03527,7.87585 19.07976,5.54293 31.7551,15.4806 40.09517,28.3563 9.95608,15.37052 23.22719,23.69837 41.12357,28.60243 -18.99744,4.46416 -34.44858,-1.21457 -48.93081,-10.73887 -14.3547,-9.44045 -29.94536,-14.85869 -47.37343,-11.12815 15.50036,12.42131 23.40273,26.46378 26.1801,41.54808 3.31619,18.01046 12.38214,30.79898 27.03956,42.17821 -19.2597,-3.14556 -31.35499,-14.32471 -41.09002,-28.66623 -9.65493,-14.22345 -21.99955,-25.19381 -39.54525,-28.41011 9.57319,17.41253 11.52813,33.39657 8.32077,48.3991 -3.82856,17.90859 -0.36746,33.19053 8.81955,49.31285 -16.58985,-10.27654 -23.46861,-25.23407 -26.9744,-42.20919 -3.47838,-16.8427 -10.70683,-31.69163 -25.69918,-41.37729 2.1833,19.75283 -2.11115,35.29452 -10.8161,47.92839 -10.39044,15.08024 -13.02447,30.52069 -10.70657,48.93141 -11.39434,-15.84295 -12.04452,-32.2876 -8.78724,-49.31224 3.23023,-16.88366 2.22511,-33.38672 -7.90755,-48.0682 -5.54354,19.06929 -15.45382,31.79105 -28.32465,40.12813 -15.37049,9.95613 -23.69775,23.19488 -28.60177,41.09118 -4.46416,-18.99735 1.21386,-34.41625 10.73821,-48.89851 9.44596,-14.36297 14.84137,-29.99594 11.09713,-47.43858 -12.42021,15.50152 -26.4321,23.43566 -41.51644,26.21304 -18.01045,3.31606 -30.79894,12.38217 -42.17829,27.03947 3.14569,-19.25973 14.32485,-31.35493 28.66631,-41.08993 14.22342,-9.65487 25.16388,-22.03068 28.37849,-39.57819 -17.40349,9.56429 -33.37111,11.55973 -48.36749,8.35371 -17.90857,-3.8286 -33.19063,-0.36742 -49.31291,8.81955 10.27664,-16.5899 25.2341,-23.46866 42.20933,-26.9744 16.82886,-3.47552 31.62737,-10.73084 41.31268,-25.70044 -19.72236,2.16692 -35.24357,-2.11931 -47.86387,-10.81483 -15.08021,-10.39046 -30.5207,-13.02449 -48.93144,-10.70659 15.843,-11.39434 32.28765,-12.04449 49.31228,-8.78722 16.88357,3.23026 33.38679,2.2251 48.06822,-7.90756 -19.06919,-5.54358 -31.79118,-15.45384 -40.1281,-28.32467 -9.95607,-15.37048 -23.19494,-23.69775 -41.09128,-28.60177 18.99741,-4.46413 34.4163,1.21389 48.89851,10.73823 14.36306,9.44594 29.99601,14.84138 47.43864,11.09713 -15.50148,-12.4202 -23.43567,-26.43212 -26.21304,-41.51643 -3.31617,-18.01049 -12.38218,-30.79893 -27.03954,-42.17829 19.2597,3.14568 31.35499,14.32485 41.09,28.66632 9.65494,14.22341 22.03072,25.16385 39.5782,28.37849 -9.56425,-17.40352 -11.55972,-33.37115 -8.35372,-48.36752 3.82859,-17.9086 0.36745,-33.19062 -8.81951,-49.31291 16.58982,10.27661 23.46862,25.23412 26.97438,42.20933 3.47376,16.82029 10.71407,31.62645 25.66813,41.31206 -2.16579,-19.72122 2.151,-35.21067 10.84654,-47.83096 10.39045,-15.08022 13.02514,-30.55293 10.70719,-48.96371 z"
     inkscape:connector-curvature="0" />
  <path
     sodipodi:nodetypes="cccccccccccscscccscccccccccccccccccccccccccscscccscscccccccccccsc"
     style="fill:url(#radialGradient1247);fill-opacity:1;stroke-width:0.63622797"
     id="use22"
     d="m 301.00978,164.27229 c -8.7914,11.47997 -9.63912,23.66856 -7.6057,36.34971 2.01662,12.57613 1.42215,17.33823 -6.40768,27.98472 -3.68052,-14.25413 -10.75841,-23.86282 -20.10872,-30.32615 -11.16203,-7.7157 -17.03442,-17.72983 -20.26811,-31.09329 -3.72901,13.97044 0.13314,25.54015 6.86437,36.47787 6.67225,10.84141 10.33808,22.50866 7.18732,35.33311 -8.85443,-11.75624 -19.0786,-17.92136 -30.18844,-20.31405 -13.26502,-2.85687 -22.53453,-9.85587 -30.63606,-20.9646 1.90109,14.33402 9.91138,23.54075 20.31619,31.06982 10.3192,7.46714 18.16926,16.85391 20.16083,29.9201 -12.68293,-7.47757 -24.47736,-9.28117 -35.65992,-7.23967 -13.34854,2.43692 -24.58957,-0.46654 -36.32555,-7.62938 7.24179,12.5154 18.16645,17.94282 30.6605,20.91703 12.38634,2.94857 23.20831,8.62934 30.04893,19.92988 -14.56871,-2.04934 -26.14414,0.80582 -35.68958,6.96834 -11.39991,7.35969 -22.91785,8.9666 -36.50153,6.84016 11.47994,8.79141 23.66855,9.63914 36.34972,7.60571 12.57612,-2.0166 24.75385,-0.92779 35.40034,6.90204 -14.25412,3.68053 -23.86283,10.7584 -30.32615,20.10872 -7.71572,11.16204 -17.72983,17.0344 -31.09329,20.26813 13.97043,3.72901 25.54015,-0.13314 36.47786,-6.86437 10.8414,-6.67226 22.50865,-10.3381 35.3331,-7.18733 -11.75622,8.85443 -17.92137,19.07861 -20.31405,30.18844 -2.85684,13.26499 -9.85584,22.53459 -20.96459,30.63599 14.33402,-1.901 23.54077,-9.91125 31.06984,-20.31612 7.46714,-10.31921 16.85389,-18.16927 29.92007,-20.16083 -7.47757,12.68292 -9.28117,24.47742 -7.23964,35.65987 2.43691,13.34858 -0.46654,24.58958 -7.62939,36.32553 12.51539,-7.24174 17.9428,-18.1664 20.91703,-30.6604 2.95099,-12.39652 8.63494,-23.23297 19.95406,-30.07264 -2.05659,14.58063 0.77805,26.1866 6.94386,35.73717 7.35971,11.39989 8.96686,22.89394 6.84043,36.47757 8.79141,-11.47991 9.63893,-23.64459 7.60544,-36.32578 -2.0166,-12.57616 -0.90488,-24.77618 6.92626,-35.42399 3.68121,14.24638 10.73777,23.88885 20.08455,30.34986 11.16202,7.71574 17.03466,17.70586 20.26835,31.06927 3.72902,-13.97037 -0.13302,-25.51619 -6.8646,-36.45393 -6.67614,-10.84764 -10.32414,-22.54572 -7.16291,-35.38066 8.85359,11.75708 19.05442,17.94505 30.16428,20.33774 13.265,2.85675 22.53456,9.85586 30.63606,20.96453 -1.9011,-14.33404 -9.91136,-23.54072 -20.3162,-31.06977 -10.31918,-7.46711 -18.1464,-16.87628 -20.13664,-29.94375 12.6764,7.47076 24.45784,9.30399 35.63572,7.26333 13.34855,-2.43696 24.58963,0.46655 36.32555,7.62939 -7.24179,-12.51545 -18.16641,-17.94284 -30.66049,-20.91705 -12.38634,-2.94856 -23.18485,-8.65129 -30.02477,-19.95355 14.55844,2.04378 26.14906,-0.78523 35.68936,-6.94436 11.39987,-7.3597 22.89394,-8.96686 36.4776,-6.84043 -11.47996,-8.79143 -23.64464,-9.63892 -36.32581,-7.60545 -12.57609,2.01662 -24.77624,0.90488 -35.42401,-6.92625 14.2463,-3.68126 23.88893,-10.73779 30.34984,-20.08456 7.71569,-11.16201 17.70591,-17.03466 31.06934,-20.26836 -13.97041,-3.729 -25.51623,0.13303 -36.45392,6.86461 -10.84772,6.67613 -22.54578,10.32415 -35.38072,7.1629 11.75705,-8.85357 17.94506,-19.05442 20.33774,-30.16427 2.85684,-13.26502 9.85588,-22.53453 20.9646,-30.63604 -14.33404,1.90109 -23.54078,9.91136 -31.06984,20.31618 -7.46715,10.31919 -16.8763,18.14639 -29.94376,20.13667 7.47074,-12.67642 9.304,-24.45788 7.26333,-35.63575 -2.43693,-13.34858 0.46656,-24.58962 7.62937,-36.32555 -12.51538,7.24177 -17.9428,18.16642 -20.91703,30.66048 -2.94706,12.38003 -8.63887,23.18454 -19.92961,30.02504 2.04292,-14.55761 -1.30378,-18.70976 -7.46295,-28.25006 -7.3597,-11.39988 -8.96663,-22.91782 -6.84018,-36.50152 z"
     inkscape:connector-curvature="0" />
  <path
     sodipodi:nodetypes="ccccccc"
     inkscape:connector-curvature="0"
     style="fill:#cc0000;stroke:none;stroke-width:0.82364446;stroke-miterlimit:4;stroke-dasharray:none"
     d="m 252.79744,185.48008 c -30.88655,0.70488 -59.06361,26.92822 -62.05002,71.57021 -3.18664,48.01313 26.13641,115.58905 109.21059,168.55673 83.07416,-52.96768 112.34183,-120.5436 109.14667,-168.55673 -2.93955,-44.64199 -31.09956,-70.86533 -61.98611,-71.57021 -24.49623,0 -43.2147,19.79857 -47.16056,34.52471 -3.96221,-14.78717 -22.62174,-34.52471 -47.16057,-34.52471 z"
     id="heart" />
  <path
     style="fill:url(#rg);fill-opacity:1;stroke:#000000;stroke-width:3;stroke-miterlimit:30;stroke-dasharray:none"
     d="m 300.00001,13.697292 c -17.34057,23.143421 -18.78039,47.537273 -14.44727,72.855468 4.29728,25.10847 2.37646,49.48507 -13.05859,70.94141 -7.66021,-28.42932 -22.01811,-47.4971 -40.85352,-60.226566 -22.48497,-15.195948 -34.43962,-35.098382 -41.1875,-61.755859 -7.16399,28.017669 0.80391,51.073884 14.4961,72.806645 13.5716,21.54141 21.1469,44.79801 15.11523,70.51172 -17.95494,-23.32511 -38.53205,-35.44055 -60.80078,-39.99219 -26.5886,-5.43465 -45.27338,-19.2372 -61.708987,-41.283206 4.103227,28.626506 20.316527,46.870316 41.283207,61.708986 20.79418,14.71659 36.69174,33.32497 40.94922,59.41406 -25.52156,-14.68778 -49.14777,-18.04628 -71.46875,-13.72851 -26.644428,5.15408 -49.185453,-0.41785 -72.806646,-14.4961 14.7458,24.87721 36.706636,35.50197 61.755859,41.1875 24.833287,5.63651 46.595697,16.7705 60.513677,39.22657 -29.1789,-3.79228 -52.26817,2.16058 -71.228521,14.68554 -22.643875,14.95814 -45.644884,18.41444 -72.855468,14.44727 23.143387,17.3406 47.53726,18.78041 72.855468,14.44727 25.108451,-4.29726 49.485091,-2.37644 70.941411,13.05859 -28.4293,7.66023 -47.49711,22.01811 -60.226567,40.85352 -15.195986,22.485 -35.098371,34.43958 -61.755859,41.1875 28.017667,7.16403 51.073885,-0.80397 72.806646,-14.4961 21.54138,-13.57161 44.79802,-21.14692 70.51172,-15.11523 -23.32508,17.95494 -35.44058,38.53205 -39.99219,60.80078 -5.43462,26.58856 -19.23718,45.27363 -41.283207,61.70898 28.626507,-4.10302 46.870317,-20.3164 61.708987,-41.2832 14.71659,-20.79421 33.32499,-36.69177 59.41406,-40.94922 -14.6878,25.52156 -18.04633,49.14797 -13.72851,71.46875 5.15408,26.64447 -0.41782,49.1855 -14.4961,72.80664 24.87721,-14.74569 35.50194,-36.70674 41.1875,-61.75586 5.64115,-24.85368 16.78216,-46.64605 39.2754,-60.5625 -3.80655,29.20287 2.10503,52.35372 14.63671,71.32422 14.95814,22.64386 18.41441,45.59811 14.44727,72.80859 17.34059,-23.14332 18.78052,-47.49034 14.44727,-72.80859 -4.29726,-25.10857 -2.33023,-49.52928 13.10742,-70.98828 7.66142,28.4138 21.97641,47.54856 40.80469,60.27344 22.48495,15.19605 34.43966,35.0516 41.1875,61.70898 7.16403,-28.01753 -0.80389,-51.02696 -14.4961,-72.75976 -13.57952,-21.5538 -21.12076,-44.87059 -15.06836,-70.60547 17.95327,23.32678 38.48513,35.48744 60.75391,40.03906 26.58858,5.43443 45.27343,19.23735 61.70898,41.2832 -4.10323,-28.62653 -20.31647,-46.87035 -41.2832,-61.70898 -20.79415,-14.71651 -36.6455,-33.36925 -40.90039,-59.46094 25.50842,14.67433 49.10829,18.09138 71.41992,13.77539 26.64443,-5.15416 49.18557,0.41789 72.80664,14.4961 -14.74581,-24.8773 -36.7066,-35.50198 -61.75586,-41.1875 -24.83328,-5.63649 -46.5502,-16.81588 -60.4668,-39.2754 29.15821,3.78141 52.28036,-2.11862 71.23047,-14.63671 22.64381,-14.95815 45.59613,-18.41442 72.80664,-14.44727 -23.1434,-17.34062 -47.48843,-18.78051 -72.80664,-14.44727 -25.10844,4.29729 -49.5313,2.33023 -70.99023,-13.10742 28.41365,-7.66148 47.54878,-21.97639 60.27344,-40.80469 15.19596,-22.48494 35.05156,-34.43965 61.70898,-41.1875 -28.01761,-7.164 -51.02509,0.80389 -72.75781,14.4961 -21.55394,13.5795 -44.87254,21.12078 -70.60742,15.06836 23.32672,-17.95325 35.48746,-38.48517 40.03906,-60.75391 5.43461,-26.58862 19.23725,-45.27342 41.2832,-61.708986 -28.62652,4.103216 -46.87033,20.316476 -61.70898,41.283206 -14.7166,20.79414 -33.36929,36.64545 -59.46094,40.90039 14.67427,-25.50845 18.09138,-49.10828 13.77539,-71.41992 -5.15411,-26.644466 0.41791,-49.18554 14.4961,-72.806645 -24.87717,14.745776 -35.50198,36.70661 -41.1875,61.755859 -5.63365,24.820636 -16.79008,46.549306 -39.22657,60.466806 3.77969,-29.15657 -2.16739,-52.23155 -14.68554,-71.18165 C 299.48915,63.908923 296.03281,40.907878 300.00001,13.697292 Z"
     id="shine"
     inkscape:connector-curvature="0" />
</svg>
