<?xml version="1.0" encoding="UTF-8"?>
<svg xmlns="http://www.w3.org/2000/svg" xmlns:xlink="http://www.w3.org/1999/xlink" width="600" height="600">
<defs>
  <filter id="stone" style="color-interpolation-filters:sRGB;" width="1.3" x="-0.15" height="1.3" y="-0.15">
    <feTurbulence result="result4" seed="0" numOctaves="5" baseFrequency="0.04" type="fractalNoise"/>
    <feDisplacementMap result="result3" in="SourceGraphic" in2="result4" scale="0" xChannelSelector="R" yChannelSelector="G"/>
    <feDiffuseLighting result="result1" in="result4" surfaceScale="2" diffuseConstant="1" lighting-color="rgb(233,230,215)">
      <feDistantLight elevation="40" azimuth="235"/>
    </feDiffuseLighting>
    <feComposite result="result2" in2="result1" in="result3" operator="in"/>
    <feComposite result="result5" k1="1.7" operator="arithmetic" in2="result1"/>
    <feBlend in="result5" in2="result5" mode="multiply"/>
  </filter>
  <radialGradient id="rg" gradientUnits="userSpaceOnUse" cx="220" cy="220" r="405">
    <stop style="stop-color:#fff;stop-opacity:.3" offset="0"/>
    <stop style="stop-color:#fff;stop-opacity:.2" offset=".2"/>
    <stop style="stop-color:#666;stop-opacity:.1" offset=".6"/>
    <stop style="stop-color:#000;stop-opacity:.13" offset="1"/>
  </radialGradient>
  <path id="crow-outline" d="m 442.58008,44.226562 c -3.68615,3.729009 -8.14369,6.60178 -14.10156,9.044922 -6.30073,3.257526 -13.41491,5.743469 -20.83008,8.615235 -7.41514,2.828902 -13.75798,4.885973 -19.33008,6.943359 -5.61493,2.057382 -12.68734,4.544144 -20.48828,7.373047 -7.80091,2.871766 -15.30168,5.313781 -21.94531,8.185547 -6.6865,2.486007 -13.75877,4.54407 -21.2168,6.558594 -7.45801,2.057383 -14.87306,4.928024 -21.17383,8.185546 l -0.12891,-0.126953 c -6.72934,3.257521 -13.41593,6.129201 -19.67382,9.386721 -6.77221,2.87177 -13.11626,6.17127 -19.03125,9.85742 -6.6865,3.68615 -13.03043,7.80121 -18.98828,12.6875 -5.95784,4.11476 -11.52978,9.04447 -15.64454,14.35938 -5.18632,6.12927 -8.57183,12.68737 -10.75781,20.48828 -1.88594,7.75804 -2.95898,15.51463 -2.95898,23.74414 -0.42861,7.75807 6.9e-4,15.94613 1.07226,24.13281 1.50017,8.22952 2.61405,15.98703 4.5,22.54492 -1.50018,-0.81438 -2.61408,-1.62891 -3.72851,-1.62891 -4.07189,-2.05735 -8.18587,-4.11437 -13.0293,-6.1289 -4.07192,-2.05739 -9.30108,-2.91497 -14.91602,-2.48633 1.50018,-0.42864 3.04175,-1.62908 4.11329,-2.48633 2.22884,-2.87177 3.34369,-5.70039 4.11523,-8.52929 -2.61461,1.20014 -8.22934,1.20014 -16.41602,0 -12.25856,-1.67163 -20.01717,-3.29995 -24.56054,-4.54297 4.84339,-1.62876 6.73047,-5.31604 6.73047,-11.44532 -0.42861,-6.17215 -3.3001,-9.42888 -8.5293,-10.67187 0,1.62876 -0.42868,2.91498 -0.81445,4.07227 -1.07153,4.92916 -4.07247,7.84264 -8.87305,8.18554 -4.80056,0.4715 -10.03058,0.4715 -15.25977,0 -4.84342,-0.42861 -9.68672,-0.81445 -14.87304,-0.81445 -5.22919,0 -10.02973,0.47271 -14.91602,1.28711 -5.229181,0.42861 -9.30018,2.82755 -12.986327,6.51367 -1.114416,2.44316 -1.5,4.5012 -1.5,6.55859 v 0 c -32.360936,-2.87177 -57.993489,6.9875 -77.3671874,29.44727 31.6322964,-2.8289 57.3068734,2.48567 76.2519534,14.78711 -8.529571,1.62875 -58.292379,4.67098 -69.050781,5.87109 1.500174,2.48604 42.990198,4.33045 43.761718,7.63086 13.372998,1.28586 26.01901,1.28481 37.591797,-0.42969 4.114777,3.25754 8.184947,6.60187 11.871097,9.85938 3.72901,3.68615 7.8441,6.1721 11.91601,8.61523 4.84343,2.01453 9.68783,3.25701 14.53125,4.5 4.84343,0.77154 9.64306,2.014 13.75781,4.5 2.18597,0.77154 2.95899,2.82958 2.95899,6.5586 v 2.87109 c 4.11479,-0.81438 6.34182,-3.72807 5.57031,-9.04297 2.22885,4.11476 5.18813,8.57079 8.57422,12.68555 0.72867,0.85725 1.11328,2.05885 1.11328,3.73047 0.42861,5.70065 0.001,11.01522 -1.11328,15.55859 -0.42861,1.20015 -0.72935,2.87204 -1.84375,3.25781 5.91496,1.67163 10.41557,0.42734 13.37305,-2.87304 0.42863,-1.20015 0.72751,-2.44253 1.11328,-3.68555 2.57171,3.68615 3.38784,8.61483 2.27344,14.74414 -1.15728,5.3149 -3.38625,9.81593 -7.11524,13.54492 4.45765,1.24302 8.9582,2.05852 14.14453,1.24414 1.4573,-0.47148 2.95576,-1.71587 4.79883,-2.91601 1.54305,-2.05737 3.38654,-4.11446 4.88672,-6.94336 0.42861,6.94366 1.45696,12.25941 3,17.61719 1.41444,4.50053 3.68705,8.57265 6.64453,11.87304 3.38612,3.25754 6.72999,6.17215 9.6875,9.42969 3.38609,2.8289 5.91384,4.92782 8.18555,5.74219 1.11441,0.42861 2.95863,1.20124 5.95898,2.01562 v 0 c 0.72864,4.50053 2.61479,9.00035 5.57227,13.07227 2.61462,4.15763 5.61368,7.84302 8.91406,11.48633 3.04322,3.72899 6.00055,7.8022 8.57227,12.30273 3.00035,4.50053 4.45801,9.4291 4.84375,14.70117 0.42864,5.74351 1.7e-4,11.10112 -1.5,16.41602 -1.50018,4.50053 -3.72902,7.37329 -7.07227,9.04492 5.57206,0.77151 10.45836,0.77151 14.91602,0 1.50017,0 2.95796,-1.28619 4.11523,-2.48633 1.07154,-0.81438 1.45688,-1.67299 2.18555,-2.91601 0,-0.78767 0.40172,-1.55172 0.73828,-2.72461 l 11.26367,47.73047 c 0.42861,0.6858 0,1.41436 0,2.31445 -0.97723,0.96366 -1.89647,1.92525 -2.7793,2.88281 l -0.008,-0.01 c -3.30038,1.88594 -6.51502,2.95687 -10.20117,3.68554 -3.98618,0.85724 -7.41557,2.3581 -10.37305,4.20118 -2.40029,0.77149 -4.62871,2.35551 -6.90039,3.9414 -2.61459,1.62875 -4.1143,4.28771 -5.31445,7.67383 -0.42861,0.85725 -0.55664,1.88601 -0.55664,3.17187 0,2.18597 1.02902,4.49925 2.48633,6.55664 1.45733,2.10024 5.27142,3.04327 11.52929,3.17188 -3.25752,-5.35778 -3.47155,-9.64268 -1.45703,-12.04297 2.01452,-2.31455 4.79985,-4.45783 8.35742,-5.57226 0.72015,-0.28806 1.5983,-0.58459 2.57618,-1.21094 -1.55509,2.90094 -2.61862,5.55214 -3.21875,7.81055 h -0.38672 c -0.60006,2.57171 -0.85708,6.0004 0.85742,9.30078 1.24298,3.98618 2.8304,5.44514 5.3164,4.58789 2.70034,-0.42861 5.69905,-1.07193 9.55665,-1.71485 -4.75772,-3.5147 -6.34328,-7.2873 -4.58594,-10.50195 1.67163,-3.1718 3.25864,-5.87199 4.37305,-7.80078 1.37159,-2.10026 2.48569,-4.02932 4.58593,-5.61524 v 0 c -0.94296,1.41447 -1.02867,3.77254 0,7.33008 0.51434,3.38612 2.52888,5.61393 4.71485,5.8711 1.80856,0.28258 3.87652,0.63896 6.45117,0.80078 -0.007,0.0195 -0.0147,0.0371 -0.0215,0.0566 -0.42863,0.85725 -0.55849,1.88602 -0.51562,3.17187 0,2.18598 0.98615,4.45836 2.48633,6.5586 1.41444,2.10026 5.2714,3.04329 11.52929,3.17187 -3.25754,-5.40062 -3.47168,-9.64466 -1.5,-12.04492 2.0145,-2.31455 4.80184,-4.45796 8.35938,-5.61523 0.68745,-0.27497 1.51698,-0.53523 2.4414,-1.0918 -1.51523,2.86209 -2.54912,5.48748 -3.12695,7.73633 h -0.30078 c -0.64293,2.52884 -0.85707,6.0003 0.85742,9.25781 1.20015,3.98618 2.78546,5.48616 5.27149,4.62891 2.7003,-0.42861 5.70109,-1.11479 9.60156,-1.71485 -4.80056,-3.5147 -6.34327,-7.32822 -4.58594,-10.5 1.67163,-3.1718 3.21372,-5.87209 4.32813,-7.84375 1.41447,-2.10026 2.48592,-4.02921 4.67187,-5.57226 v 0 c -1.02867,1.41446 -1.07154,3.72966 0,7.33007 0.4715,3.38612 2.40007,5.61392 4.62891,5.8711 2.74317,0.42861 5.95964,1.07171 10.93164,0.85742 -4.07189,-5.35777 -5.74407,-9.5158 -4.92969,-12.73047 0.55719,-3.04322 2.27073,-6.21507 4.32813,-8.6582 2.61458,-2.27168 5.61453,-3.81505 9.25781,-4.84375 0.94296,-0.47148 2.27364,0.4298 3.13086,2.05859 2.01453,3.12893 2.87091,6.38689 2.01367,9.60156 0,0.90012 -0.42969,1.5844 -0.42969,2.52735 0.98583,-0.51434 1.80196,-1.41384 2.27344,-2.09961 2.74319,-2.8289 4.41496,-6.00117 6.34375,-8.83008 1.67162,-3.1718 1.8858,-6.04282 0.72852,-9.12891 -1.75736,-4.2005 -4.41554,-6.00174 -8.14454,-5.91601 -0.85724,0 -1.67237,0.001 -2.6582,0.42969 -3.5147,1.3716 -7.24301,2.31395 -10.71484,3.68554 -3.1718,1.20015 -6.6867,0.68655 -10.28711,-2.05664 -3.87521,-11.34596 -6.0208,-22.71829 -6.88672,-33.23633 0.30078,0.0267 0.58144,0.0833 0.88672,0.10352 3.30039,0.47148 5.91466,8.8e-4 9.30078,-0.42773 1.84307,0 4.07099,-0.81551 5.91406,-1.24414 4.11479,-1.62876 10.41698,0.7712 18.64649,6.94335 -10.07259,-13.50158 -16.03192,-20.8733 -17.875,-22.54492 -3.77189,-3.25754 -6.68523,-6.8999 -8.91407,-10.6289 -0.77151,-0.77153 -1.1582,-2.05864 -1.1582,-3.64453 4.50053,2.01449 8.95916,3.25686 14.53125,2.87109 h 8.95703 c -3.3861,-2.05737 -7.07262,-4.54229 -11.14453,-7.41406 -4.5434,-2.87177 -7.11408,-6.55814 -8.22851,-11.87305 -0.42861,-2.01452 -1.15808,-3.64282 -1.88672,-5.31445 4.07189,0 8.57258,0.42861 13.41601,0 -3.72899,-1.24301 -7.0708,-3.72881 -10.41406,-6.98633 -3.72901,-3.21467 -6.68825,-6.4731 -9.3457,-10.58789 3.00035,0.42864 5.61503,1.20134 7.88671,2.05859 4.80059,2.05739 9.30211,3.59896 13.75977,5.69922 4.80056,2.01453 9.64391,4.07336 14.10156,6.08789 l 5e-5,0.084 c 3.38612,1.67162 14.14381,18.04516 32.70313,48.77734 2.65746,2.87177 7.15923,3.72929 13.07422,3.25781 5.57206,-1.20014 9.30047,-3.25728 11.52929,-7.75781 0.42864,-1.24298 1.15808,-3.30094 1.88672,-4.92969 2.18598,1.24298 4.07196,2.44448 6.30078,3.6875 4.84342,1.24298 9.68573,2.05664 15.25782,2.05664 3.72899,-0.42861 6.68714,-2.05781 9.6875,-4.88672 0.68579,0.42861 1.11312,0.42859 1.84179,0.77149 4.45766,2.48601 9.30281,3.68662 14.83203,4.11523 5.27204,0 10.07076,-0.42789 14.18555,-2.05664 1.50018,0 2.61617,-0.42858 3.77344,-0.77148 11.14416,3.21467 21.945,2.39989 31.24609,-3.30078 9.25824,-5.74354 16.33027,-11.10098 21.13086,-16.37305 v 0 c 12.6872,2.4003 22.37392,-1.20129 29.01758,-10.67383 4.15763,-6.98653 6.77318,-11.91433 7.45898,-15.17187 -12.60149,0 -24.13142,-0.81555 -35.36132,-2.83008 -7.70738,-1.7297 -23.30716,-5.6321 -37.42774,-9.33203 0.0702,-0.0673 0.15286,-0.11582 0.22266,-0.1836 1.88594,-1.62876 3.38644,-3.68481 4.84375,-5.74219 h -9.30078 c -7.80091,-0.81438 -15.60337,-2.01479 -23.4043,-3.25781 -7.45802,-1.67162 -14.52929,-4.11463 -21.60156,-7.80078 -6.6865,-3.25751 -13.02932,-6.51595 -20.10156,-9.00195 -6.68651,-2.87177 -13.33128,-6.12918 -20.10352,-9.38672 -7.0294,-3.30038 -13.75866,-6.94386 -21.17383,-10.28711 -6.6865,-3.30038 -13.41606,-6.12913 -19.7168,-8.57227 -1.50017,-0.42863 -2.99984,-1.24218 -3.72851,-1.24218 -16.37335,-8.57242 -25.63246,-14.74549 -28.63281,-18.43164 -1.86632,-2.84189 -3.7254,-4.89399 -5.13477,-7.67774 6.27754,-0.43639 11.49,-2.49201 15.16602,-6.55273 -4.80058,-2.01453 -8.91551,-4.92825 -12.64454,-9.85742 -5.22917,-6.47218 -9.34514,-13.07294 -12.25976,-19.63086 2.91462,4.11476 6.68677,7.37149 11.10156,10.67187 6.77224,4.50053 14.18822,6.5586 22.33203,6.5586 8.95822,0.4286 14.91472,-2.91481 17.5293,-10.28711 -6.3436,-2.01453 -11.52877,-6.55809 -16.0293,-12.64454 -3.30038,-4.58624 -6.34414,-9.473 -9.64453,-13.54492 1.84308,2.44316 4.45864,4.50215 7.45899,6.94531 4.41482,2.486 9.3,4.92799 14.48632,6.59961 7.41514,2.01453 14.87295,2.82893 21.90235,1.58594 -4.75768,-4.07192 -9.60116,-8.18605 -13.37305,-13.88672 -4.80056,-6.55793 -8.52895,-13.15877 -11.5293,-19.67383 v 0 c -0.41732,-0.75113 0.36558,-0.0537 0.40821,-0.0156 -0.007,0.004 -0.0167,0.0117 -0.0234,0.0156 3.72902,4.92914 7.84397,9.04342 12.64453,13.92969 5.95786,5.27207 12.68724,8.1865 20.44531,8.57227 7.84378,0.42861 15.30166,0.42861 22.7168,0 -5.22917,-3.68615 -10.07251,-9.38645 -14.10156,-15.5586 -4.84343,-6.08641 -8.61381,-12.68716 -11.18555,-19.63086 3.72902,2.44318 7.79928,5.70148 11.91406,8.95899 5.95784,4.58627 12.25977,8.65753 19.33203,11.5293 7.45802,3.25754 14.87202,4.50095 23.10157,4.88671 8.18668,-0.4286 15.2171,-2.82865 20.83203,-7.75781 -4.11476,-2.05737 -8.57264,-5.74461 -12.64453,-9.85937 -5.61494,-5.3149 -11.18669,-10.63059 -17.14453,-16.80274 -5.61374,-5.6994 -16.36854,-9.81252 -31.96485,-12.25586 11.80908,0.005 18.89883,0.81711 21.46289,2.01368 7.11511,3.77186 14.14455,6.17202 21.2168,7.80078 7.80093,1.24301 15.6443,2.44242 23.40234,3.64258 8.22955,0.85723 15.30279,-1.1996 21.60352,-5.27149 6.00071,-4.11476 10.80031,-9.42938 14.5293,-16.37305 -6.6865,0 -13.80084,-8e-5 -20.10157,-0.81445 -7.80091,-0.42861 -14.91594,-2.05892 -21.94531,-4.54492 -7.41517,-2.8289 -14.48745,-6.1292 -21.2168,-9.38672 -6.6865,-3.30041 -14.87289,-5.35642 -23.44531,-5.74219 h 11.57227 23.78906 c 7.07227,-0.42861 14.48617,-0.42868 22.28711,-0.81445 7.84378,0 15.26001,-2.05889 21.64648,-5.31641 6.60077,-3.72901 12.25917,-9.08554 15.94532,-15.98632 3.77186,-6.55792 3.34257,-10.20118 -1.84375,-10.20118 -7.80091,-0.42861 -15.2168,-0.85832 -23.06055,-0.42968 -7.84378,0 -15.6443,-0.42889 -23.40234,-1.67188 l 0.1289,-0.084 c 1.45731,0 3.30047,-0.001 4.75781,-0.42969 7.45801,-0.85724 14.91589,-2.09976 22.7168,-3.72852 6.6865,-1.62875 13.02936,-4.11559 18.5586,-8.1875 4.88629,-3.68615 8.61585,-8.6149 11.23046,-15.55859 h -8.1875 -23.48828 c -7.75807,-0.42861 -15.60058,4e-5 -23.05859,0.81445 -7.41516,0 -14.8302,0.81358 -21.94531,1.24219 -7.07227,0 -14.10254,0.81453 -21.56055,1.62891 -6.82653,0.82746 -13.61621,1.6306 -20.47852,2.76367 5.31423,-1.72267 9.90934,-5.27522 14.22071,-10.77735 4.11476,-6.12928 6.68727,-12.73015 8.95898,-19.673824 -2.27171,2.014524 -4.84425,3.685724 -8.1875,4.542974 -7.07227,2.0574 -14.18642,4.07153 -21.60156,6.1289 -7.41517,2.01452 -14.91676,3.64376 -22.28906,4.11524 -7.45801,0.42861 -15.30261,0.8135 -23.10352,0.42773 3.00035,-0.42861 5.57289,-1.15642 8.1875,-2.01367 7.07224,-3.25751 13.80083,-6.94471 20.10156,-10.63086 5.95784,-3.257527 11.52962,-8.186052 16.37305,-13.88672 4.84342,-6.600774 9.68873,-12.730083 14.10352,-18.859375 4.11479,-6.129289 5.99892,-13.930766 5.57031,-23.789063 z m -148.51563,371.359378 c 2.95748,2.0574 5.95745,4.88499 8.48633,7.32812 3.77186,4.11476 6.0437,8.22897 7.11524,13.11524 1.11443,5.40064 1.84284,10.67335 2.27148,15.98828 0,2.44314 -10e-4,4.92991 -0.42969,7.37304 -3.72899,0 -7.02809,-2.05698 -9.68554,-6.1289 -2.95748,-4.50053 -5.52898,-8.22967 -7.75782,-11.83008 4.41479,0 8.91442,-0.001 12.98633,-0.51562 -4.07191,-1.20014 -7.41456,-4.88609 -10.75781,-9.34375 -2.61461,-4.5434 -3.68583,-9.85704 -2.22852,-15.98633 z m 13.71485,56.49218 c -0.42864,1.24302 -0.72938,1.67 -1.07227,2.48438 4.45765,0.81438 8.91624,0.42857 13.7168,-0.81445 l 0.42773,-0.42774 c 1.48325,-0.28524 2.772,-0.93624 3.8125,-1.8164 l 10.28906,43.60742 c 0.42861,0.6858 0,1.3715 0,2.31445 -1.00851,0.98992 -1.9543,1.97643 -2.86132,2.95899 -3.24216,1.82875 -6.37052,2.88291 -9.9961,3.59961 -0.41415,0.0846 -0.81848,0.18143 -1.2207,0.28124 2.02541,-2.45184 3.49532,-5.06524 5.07812,-7.43945 1.67163,-3.1718 1.88567,-6.04477 0.68555,-9.13086 -1.7145,-4.15763 -4.3297,-5.95693 -8.10156,-5.91406 -0.81438,0 -1.62755,-8.8e-4 -2.65625,0.42773 -3.47183,1.37159 -7.15913,2.35877 -10.67383,3.6875 -3.1718,1.20014 -6.77241,0.72757 -10.28711,-2.01562 -3.97447,-11.67757 -6.09301,-23.34444 -6.94726,-34.08594 1.43607,0.70743 3.00865,1.29494 4.63281,1.89649 2.57172,0.42861 4.75856,1.20027 7.41601,1.6289 3.34325,0 5.91475,-0.4278 7.75782,-1.24219 z m 5.18359,41.37696 c 0.91886,-0.12071 2.00146,0.75021 2.78906,2.21289 2.01084,3.08042 2.86701,6.33209 2.01758,9.54101 -2.20883,0.80492 -4.21865,1.81881 -6.04687,2.93164 -2.44313,0.77152 -4.67155,2.35748 -6.90039,3.94336 -1.48559,0.94981 -2.62537,2.20517 -3.55274,3.74024 -2.03514,-3.49772 -2.80312,-6.3841 -2.23437,-8.75391 0.55721,-3.0432 2.27268,-6.21504 4.33007,-8.6582 2.57175,-2.22881 5.5287,-3.81505 9.21485,-4.84375 0.12323,-0.0589 0.25155,-0.096 0.38281,-0.11328 z"/>
</defs>
<g id="crow" style="fill:#888888;stroke:#333333;stroke-width:1;stroke-linejoin:round;stroke-linecap:round;">
  <path style="fill:#666666;" d="m 254.20169,527.92673 c -2.61459,1.62875 -4.11476,4.2862 -5.31491,7.67232 -0.42861,0.85725 -0.55722,1.88595 -0.55722,3.17181 0,2.18597 1.0287,4.50052 2.48601,6.55792 1.45733,2.10023 5.27206,3.04319 11.52993,3.1718 -3.25752,-5.35778 -3.47183,-9.64399 -1.45731,-12.04428 2.01452,-2.31455 4.80056,-4.45766 8.35813,-5.57209 1.07153,-0.42861 2.486,-0.85722 4.07189,-2.40027 1.58591,-1.62875 3.9862,-4.11478 6.30076,-6.60079 1.11441,-1.20012 2.65745,-2.52884 3.85757,-3.77186 l -1.80021,-2.01452 c -3.30038,1.88594 -6.51505,2.95748 -10.2012,3.68615 -3.98618,0.85724 -7.41514,2.35742 -10.37262,4.2005 -2.40029,0.7715 -4.62914,2.35742 -6.90082,3.94331 z"/>
  <path style="fill:#666666;" d="m 268.21762,537.485 c -0.60006,2.57171 -0.85725,6.0007 0.85725,9.30108 1.24298,3.98618 2.8289,5.44349 5.3149,4.58624 2.70033,-0.42861 5.70068,-1.07154 9.55828,-1.71446 -4.75772,-3.5147 -6.34361,-7.28659 -4.58627,-10.50124 1.67163,-3.1718 3.25754,-5.87212 4.37195,-7.80091 1.37159,-2.10026 2.486,-4.02904 4.58624,-5.61496 0.51434,-0.72864 1.07156,-1.97165 1.20014,-3.34325 0,1.3716 -0.6858,2.61461 -1.20014,3.34325 -0.94296,1.41447 -1.02867,3.77189 0,7.32943 0.51434,3.38612 2.52887,5.61496 4.71484,5.87213 2.74319,0.42861 5.95784,1.07156 10.887,0.85724 -3.98618,-5.35777 -5.6578,-9.5154 -4.88629,-12.73007 0.55721,-3.0432 2.27168,-6.215 4.32907,-8.65816 2.57175,-2.22881 5.52923,-3.81473 9.21538,-4.84343 0.98583,-0.47147 2.27168,0.42864 3.1718,2.10027 2.01452,3.08606 2.87177,6.3436 2.01452,9.55824 0,0.90012 -0.42863,1.62879 -0.42863,2.52888 0.98582,-0.51435 1.84307,-1.41444 2.31455,-2.10024 2.70032,-2.8289 4.41482,-6.0007 6.30076,-8.82961 1.67163,-3.1718 1.88592,-6.04357 0.6858,-9.12966 -1.7145,-4.15763 -4.32911,-5.95783 -8.10097,-5.91496 -0.81438,0 -1.62875,0 -2.65745,0.42861 -3.47183,1.37159 -7.15798,2.35742 -10.67268,3.68615 -3.1718,1.20014 -6.77221,0.72866 -10.28691,-2.01453 -4.15763,-12.2157 -6.30074,-24.43142 -7.07227,-35.57558 -0.42861,-5.35778 -0.42861,-12.34431 0.42863,-19.88806 -4.75771,2.01453 -9.34395,2.95748 -14.14451,1.75737 -0.42864,1.92878 -1.32872,3.90044 -3.08609,5.27203 l 0.42861,0.42861 12.98726,55.03503 c 0.42861,0.6858 0,1.41447 0,2.31456 -9.25824,9.12966 -14.23025,18.13071 -15.859,24.26 z"/>
  <path d="m 304.8219,532.08435 c -2.61458,1.67163 -4.15763,4.28621 -5.35775,7.7152 -0.42863,0.85725 -0.55721,1.88595 -0.51434,3.1718 0,2.18598 0.98582,4.45766 2.486,6.5579 1.41444,2.10026 5.27204,3.04322 11.52993,3.1718 -3.25754,-5.40062 -3.47186,-9.64399 -1.50018,-12.04425 2.0145,-2.31455 4.80056,-4.45769 8.3581,-5.61496 1.07157,-0.42861 2.486,-0.81438 4.07192,-2.3574 1.58588,-1.67162 3.98618,-4.11479 6.3436,-6.60079 1.11441,-1.24299 2.65745,-2.57171 3.81473,-3.77186 l -1.80021,-2.01452 c -3.30038,1.88594 -6.47218,2.95748 -10.15833,3.68615 -3.98618,0.81437 -7.41517,2.35742 -10.37265,4.15762 -2.44313,0.77151 -4.67198,2.35743 -6.90082,3.94331 z"/>
  <path d="m 318.83783,541.6855 c -0.64293,2.52884 -0.85724,6.0007 0.85725,9.25821 1.20015,3.98618 2.78603,5.48636 5.27206,4.62911 2.7003,-0.42861 5.70065,-1.11441 9.60112,-1.71447 -4.80056,-3.5147 -6.3436,-7.32945 -4.58627,-10.50123 1.67163,-3.1718 3.21467,-5.87212 4.32908,-7.84378 1.41447,-2.10026 2.48603,-4.02904 4.67198,-5.57209 0.42864,-0.72867 1.02869,-1.97166 1.11443,-3.34325 0,1.37159 -0.68579,2.61458 -1.11443,3.34325 -1.02867,1.41446 -1.07154,3.72902 0,7.32943 0.4715,3.38612 2.40029,5.61494 4.62913,5.87212 2.74317,0.42861 5.95784,1.07154 10.92984,0.85725 -4.07189,-5.35777 -5.74351,-9.5154 -4.92913,-12.73007 0.55719,-3.04322 2.27168,-6.21503 4.32908,-8.65816 2.61458,-2.27168 5.61493,-3.81473 9.25821,-4.84343 0.94296,-0.47148 2.27171,0.42861 3.12893,2.0574 2.01453,3.12893 2.87177,6.38644 2.01453,9.60111 0,0.90012 -0.42861,1.58592 -0.42861,2.52887 0.98583,-0.51434 1.8002,-1.41446 2.27168,-2.10023 2.74319,-2.8289 4.41482,-6.0007 6.34361,-8.82961 1.67162,-3.1718 1.88594,-6.04357 0.72866,-9.12966 -1.75736,-4.2005 -4.41481,-6.0007 -8.14381,-5.91497 -0.85724,0 -1.67162,0 -2.65745,0.42861 -3.5147,1.3716 -7.24372,2.31456 -10.71555,3.68615 -3.1718,1.20015 -6.6865,0.6858 -10.28691,-2.05739 -4.15763,-12.17286 -6.3436,-24.38855 -7.07227,-35.53271 -0.42861,-5.35778 -0.42861,-12.34431 0.42861,-19.93093 -4.8434,2.05739 -9.3868,2.95748 -14.23022,1.80021 -0.42864,1.92881 -1.28586,3.90046 -3.04323,5.27206 l 0.42864,0.42861 12.98724,55.03503 c 0.42861,0.6858 0,1.3716 0,2.31455 -9.30112,9.12964 -14.23025,18.08785 -15.81614,24.26001 z"/>
  <path style="fill:#666666;" d="m 303.36459,99.00502 c -6.72934,3.25752 -13.41584,6.12929 -19.67373,9.38681 -6.77221,2.87177 -13.11582,6.17215 -19.03081,9.8583 -6.6865,3.68615 -13.03008,7.80091 -18.98794,12.6872 -5.95783,4.11476 -11.52993,9.04393 -15.64469,14.35884 -5.18632,6.12928 -8.57241,12.6872 -10.75839,20.48811 -1.88594,7.75804 -2.95751,15.51611 -2.95751,23.74562 -0.42861,7.75807 0,15.94474 1.07157,24.13142 1.50017,8.22952 2.61458,15.98759 4.50053,22.54548 0.72866,0.42864 1.1144,0.81441 1.8002,1.20015 3.77189,2.87177 7.11514,6.12928 10.45836,9.42969 1.07157,2.486 2.61461,4.54337 3.77189,6.94366 4.80056,4.5434 9.60112,6.98653 13.7159,7.41514 4.45766,0 6.68648,-1.62875 7.11512,-4.88627 -1.15728,-4.92916 -2.65746,-9.8583 -4.8863,-14.31596 -3.68615,-6.17215 -7.0294,-13.15868 -9.68685,-20.53098 -2.95749,-8.18668 -2.95749,-15.55898 0.72866,-22.50264 3.00035,-6.94366 7.84378,-12.73007 13.84449,-17.23059 6.64363,-4.50053 13.33013,-9.0439 20.0595,-12.64434 6.68647,-4.11476 13.37297,-7.84378 19.67371,-10.24404 7.11514,-3.30041 13.80164,-6.21502 20.53098,-8.22955 7.0294,-2.87177 14.48741,-4.92914 21.55968,-6.51505 7.75804,-2.10024 15.21608,-3.72902 22.33119,-5.35778 7.41514,-1.24298 14.10164,-2.8289 21.17391,-3.68615 7.84378,-0.81437 15.25892,-2.05736 23.05986,-3.21464 7.07224,-0.90012 14.53025,-2.10026 21.98829,-2.95751 0,0 0,0 0.42861,0 5.61494,-1.62875 10.41552,-5.27204 14.91605,-11.01558 4.11476,-6.12928 6.68647,-12.73005 8.95818,-19.673721 -2.27171,2.014521 -4.84342,3.686131 -8.18667,4.543381 -7.07227,2.0574 -14.18738,4.07192 -21.60252,6.12929 -7.41517,2.01452 -14.91605,3.6433 -22.28835,4.11478 -7.45801,0.42861 -15.30179,0.81438 -23.1027,0.42861 3.00035,-0.42861 5.57207,-1.15727 8.18668,-2.01452 7.07224,-3.25751 13.80161,-6.94366 20.10234,-10.62981 5.95784,-3.257526 11.52993,-8.186675 16.37336,-13.887343 4.84342,-6.600774 9.68685,-12.730064 14.10164,-18.859356 4.11479,-6.129289 6.0007,-13.930204 5.57209,-23.788501 -3.68615,3.729008 -8.1438,6.600774 -14.10167,9.043916 -6.30073,3.257526 -13.41584,5.74353 -20.83101,8.615296 -7.41514,2.828902 -13.75874,4.886287 -19.33084,6.943673 -5.61493,2.057382 -12.68717,4.543388 -20.48811,7.372291 -7.80091,2.871766 -15.30179,5.314908 -21.94542,8.186674 -6.6865,2.486007 -13.75875,4.543389 -21.21678,6.557913 -7.45801,2.057383 -14.87315,4.929149 -21.17392,8.186672"/>
  <path d="m 415.70634,156.35461 c -6.6865,5.74352 -11.48706,9.42967 -15.25892,11.8728 0.77151,0 2.22881,0 3.77186,0 4.80056,0.42864 10.71555,0.42864 17.83066,0 6.64363,0 13.7159,0 21.55968,1.15728 7.80091,1.24302 8.14381,5.35778 1.11441,12.34431 -0.72867,0 -1.54305,0.81437 -1.54305,1.24301 -2.18597,1.20015 -3.64328,2.91461 -5.52922,4.45765 -3.72899,2.48601 -7.45801,4.92914 -11.5299,7.84378 -4.45769,2.44314 -8.95822,4.07192 -13.75877,4.45766 l -0.42861,1.67162 c 3.68615,0.42864 7.75804,0.81438 12.30143,1.62876 6.30074,1.24302 7.75804,4.50053 4.80056,10.24407 11.87283,0 18.98794,0.81438 21.55968,2.01453 7.11511,3.77186 14.14451,6.17215 21.21676,7.80091 7.80093,1.24301 15.64471,2.44313 23.40275,3.64328 8.22955,0.85724 15.30179,-1.20015 21.60252,-5.27204 6.00071,-4.11476 10.80129,-9.42969 14.53028,-16.37336 -6.6865,0 -13.80161,0 -20.10234,-0.81437 -7.80091,-0.42861 -14.91605,-2.0574 -21.94542,-4.5434 -7.41517,-2.8289 -14.48744,-6.12928 -21.21679,-9.3868 -6.6865,-3.30041 -14.87317,-5.35776 -23.44559,-5.74353 3.72899,0 7.45801,0 11.57277,0 7.80091,0 15.60182,0 23.78849,0 7.07227,-0.42861 14.48741,-0.42861 22.28835,-0.81438 7.84378,0 15.25892,-2.05739 21.64539,-5.31491 6.60077,-3.72901 12.25857,-9.08679 15.94472,-15.98758 3.77186,-6.55792 3.34325,-10.2012 -1.84307,-10.2012 -7.80091,-0.42861 -15.21608,-0.85725 -23.05983,-0.42861 -7.84378,0 -15.64472,-0.42864 -23.40276,-1.67163 -3.34325,0 -6.0007,0.42861 -8.95818,0.85722 -2.22885,0 -4.45769,0 -6.34361,0 -40.54762,1.24302 -60.99286,2.8289 -60.64996,5.31493"/>
  <path d="m 554.45119,440.57362 c 12.6872,2.4003 22.37403,-1.20014 29.01769,-10.67268 4.15763,-6.98653 6.77221,-11.91567 7.45801,-15.17321 -12.60149,0 -24.13139,-0.81437 -35.36129,-2.8289 -12.98724,-2.91461 -49.12076,-12.11504 -61.0793,-15.84403 -2.95748,2.87177 -6.30073,5.3149 -9.98688,6.51505 -4.50053,1.67162 -9.30109,3.30038 -14.18739,4.58624 l -1.8002,5.70067 c 25.97447,13.50158 70.68041,26.85962 85.93936,27.71686"/>
  <path d="m 429.12221,213.27555 c -0.77154,0.42861 -1.15728,0.81438 -1.50018,1.20015 -6.3436,4.07189 -12.25859,7.84378 -17.10202,10.24404 -4.84342,2.87177 -7.45801,4.11479 -8.18667,4.11479 -3.729,6.98653 -8.57242,13.15868 -14.53026,16.80196 -0.77153,0.42861 -1.88594,1.20015 -2.61461,1.62876 3.72902,4.92914 7.84378,9.04392 12.64434,13.93019 5.95786,5.27207 12.6872,8.18668 20.44527,8.57245 7.84378,0.42861 15.30179,0.42861 22.71693,0 -5.22917,-3.68615 -10.07259,-9.38683 -14.10164,-15.55898 -4.84343,-6.08641 -8.61529,-12.68718 -11.18703,-19.63087 3.72902,2.44317 7.80091,5.70068 11.91569,8.95819 5.95784,4.58627 12.25857,8.65816 19.33084,11.52993 7.45801,3.25754 14.87315,4.50053 23.1027,4.88629 8.18668,-0.4286 15.21608,-2.8289 20.83101,-7.75806 -4.11476,-2.05737 -8.57244,-5.74352 -12.64433,-9.85828 -5.61494,-5.3149 -11.18703,-10.62984 -17.14487,-16.80199 -5.61496,-5.70065 -16.37335,-9.81543 -31.97517,-12.25857"/>
  <path d="m 402.33334,228.83453 c -6.72935,1.24299 -13.41585,1.62876 -20.10235,1.24299 -1.84308,0 -8.22955,-0.42861 -18.25927,-1.62876 -1.45734,1.62876 -2.95751,2.87177 -4.80059,4.07192 -6.3436,5.3149 -12.30143,9.81543 -18.60217,13.50158 -2.61458,1.62876 -4.84342,3.30038 -7.84378,4.50053 3.00036,2.0145 6.72937,3.68612 11.18703,3.25751 7.45801,-0.42861 14.87318,-1.24301 22.28832,-1.24301 h 2.95749 c 5.22919,-0.42861 10.84413,-2.40027 15.64471,-5.27204 -0.42864,-0.77151 0.42861,0 0.42861,0 0.72867,-0.42861 1.84308,-1.24299 2.61458,-1.62876 5.95787,-3.64328 10.80127,-9.81543 14.53028,-16.80196"/>
  <path d="m 361.78574,260.38106 c -2.61461,2.44317 -5.22919,4.50053 -7.45803,6.94369 -4.45766,4.07189 -9.30109,6.51506 -14.87316,8.18668 1.11441,3.25751 1.11441,6.12929 0.68577,9.42967 -0.4286,4.11476 -2.18594,8.61528 -5.52919,13.15868 -4.8863,6.47218 -11.18703,9.38682 -18.2593,7.32943 1.50017,2.40029 4.07192,4.45766 7.84378,6.98653 5.22919,3.64328 10.75842,6.08644 16.37335,7.7152 1.45731,0 2.57172,0 4.07189,0.42861 2.22885,0.42864 3.68615,0.42864 5.61497,0.42864 6.30073,-0.42864 11.52992,-2.48601 15.21607,-6.55792 -4.80058,-2.01453 -8.91534,-4.92914 -12.64436,-9.85831 -5.22917,-6.47218 -9.34395,-13.07294 -12.25857,-19.63086 2.91462,4.11476 6.6865,7.3723 11.10129,10.67268 6.77224,4.50053 14.18738,6.55792 22.33119,6.55792 8.95822,0.42861 14.91605,-2.91464 17.53063,-10.28694 -6.3436,-2.01453 -11.52992,-6.55789 -16.03045,-12.64434 -3.30038,-4.58624 -6.3436,-9.47253 -9.64399,-13.54445 -1.1144,-1.24299 -2.61458,-3.25751 -4.07189,-5.31491"/>
  <path d="m 354.32771,267.32475 c 2.22884,-2.44316 4.84342,-4.50052 7.45803,-6.94369 2.18598,-2.87174 4.84343,-5.3149 7.37228,-7.84377 -1.07154,0 -2.18595,0 -2.95749,0 -7.41514,0 -14.83031,0.85724 -22.28832,1.24301 -4.45766,0.42861 -8.18667,-1.24301 -11.18703,-3.25751 -2.22884,0.42861 -4.45765,0.85722 -6.6865,1.6716 0.42864,8.57244 -2.95748,15.55897 -9.68685,20.44527 -1.84308,0.81438 -3.68615,2.01452 -5.57207,3.30038 7.45801,1.62876 15.25892,1.62876 23.05983,0.81438 1.88595,-0.42861 3.77189,-0.81438 5.61496,-1.24299 5.57207,-1.67162 10.4155,-4.11479 14.87316,-8.18668"/>
  <path d="m 365.85763,265.69597 c 1.84308,2.44316 4.45766,4.50053 7.45801,6.94369 4.41482,2.486 9.30112,4.92914 14.48744,6.60076 7.41514,2.01453 14.87315,2.82891 21.90255,1.58592 -4.75768,-4.07192 -9.60111,-8.18668 -13.373,-13.88735 -4.80056,-6.55793 -8.52955,-13.15869 -11.5299,-19.67374 -4.80058,2.87177 -10.41552,4.92914 -15.64471,5.27204 -2.52885,2.52887 -5.1863,4.97203 -7.37228,7.84377 1.45731,2.0574 2.95749,4.07192 4.07189,5.31491"/>
  <path d="m 420.93553,400.41177 c -3.38612,0.81438 -7.07227,0.81438 -10.84413,0.42864 -0.42863,0 -0.42863,0 -0.72866,0 -0.72864,-0.42864 -1.07154,-0.42864 -1.50018,-0.42864 -0.72864,0.42864 -2.18597,1.20015 -3.64328,2.0574 -1.88594,1.20014 -4.11476,2.05736 -6.0007,2.87177 -1.88595,0.42861 -4.45766,1.20012 -6.30074,1.62875 -0.42864,2.01453 -0.77153,3.68615 -1.50017,4.92914 -0.72867,1.24302 -1.88595,2.48601 -2.95749,3.30038 3.68613,1.58592 7.41514,3.64331 10.37263,6.51506 4.11478,2.87177 8.18667,6.12931 11.87282,9.42969 3.77187,2.87177 7.45801,6.17215 11.2299,9.42966 3.34325,3.68615 6.6865,7.32943 9.98689,11.44422 1.15727,2.05737 3.38609,3.68612 5.27203,5.31491 2.18598,1.24298 4.07192,2.44313 6.30074,3.68615 4.84342,1.24298 9.68685,2.05736 15.25894,2.05736 3.72899,-0.42861 6.6865,-2.05736 9.68686,-4.88627 -3.72902,-2.05739 -7.07227,-4.11478 -10.02976,-6.17215 -4.11476,-3.25754 -7.88664,-6.55792 -11.52992,-9.81546 -3.77186,-3.68612 -7.50088,-7.37227 -11.18703,-10.62981 -3.77186,-3.30038 -7.45801,-6.17215 -11.18703,-8.65816 -4.84343,-2.44313 -8.87245,-4.92914 -13.41585,-7.7152 -3.64328,-2.486 -7.41517,-4.54337 -11.14416,-6.60076 3.72899,2.05739 7.50088,4.11476 11.14416,6.60076 4.5434,2.78606 8.57242,5.27207 13.41585,7.7152 3.72902,2.48601 7.41517,5.35778 11.18703,8.65816 3.68615,3.25754 7.41517,6.94369 11.18703,10.62981 3.64328,3.25754 7.41516,6.55792 11.52992,9.81546 2.95749,2.05737 6.30074,4.11476 10.02976,6.17215 0.68579,0.42861 1.1144,0.42861 1.84307,0.77151 4.45766,2.48601 9.30109,3.68615 14.83031,4.11476 5.27204,0 10.07259,-0.42861 14.18738,-2.05736 1.50018,0 2.61459,-0.42864 3.77186,-0.77154 -0.42864,-0.47148 -0.42864,-0.47148 -0.42864,-0.47148 -4.45765,-2.44313 -8.52954,-5.70067 -11.87279,-8.95819 -3.38612,-3.25754 -6.72938,-6.98653 -10.41552,-10.24407 -3.77187,-3.25751 -7.84378,-6.55789 -11.57277,-9.81543 -3.77189,-2.486 -7.41517,-5.74352 -11.18703,-8.65816 -3.68615,-3.25751 -7.80091,-6.12928 -11.87283,-8.52957 -4.11476,-3.25751 -8.95819,-5.78639 -13.03011,-8.65816 -3.34325,-2.01452 -7.07224,-3.30038 -10.75839,-4.50053"/>
  <path d="m 387.46018,415.19921 c -2.65745,2.01453 -5.95786,2.78606 -10.45839,2.78606 3.38612,1.67163 14.14452,18.04496 32.70384,48.77714 2.65746,2.87177 7.15799,3.72902 13.07298,3.25754 5.57206,-1.20014 9.30108,-3.25754 11.5299,-7.75807 0.42864,-1.24298 1.1573,-3.30038 1.88594,-4.92913 -1.88594,-1.62879 -4.11476,-3.25754 -5.27203,-5.31491 -3.30039,-4.11479 -6.64364,-7.75807 -9.98689,-11.44422 -3.77189,-3.25751 -7.45803,-6.55789 -11.2299,-9.42966 -3.68615,-3.30038 -7.75804,-6.55792 -11.87282,-9.42969 -2.95749,-2.87175 -6.6865,-4.92914 -10.37263,-6.51506"/>
  <path d="m 431.69392,404.9123 c 4.07192,2.87177 8.91535,5.40065 13.03011,8.65816 4.07192,2.40029 8.18668,5.27206 11.87283,8.52957 3.77186,2.91464 7.41514,6.17216 11.18703,8.65816 3.72899,3.25754 7.8009,6.55792 11.57277,9.81543 3.68614,3.25754 7.0294,6.98653 10.41552,10.24407 3.34325,3.25752 7.41514,6.51506 11.87279,8.95819 0,0 0,0 0.42864,0.47148 11.14416,3.21467 21.94542,2.40029 31.24651,-3.30038 9.25824,-5.74354 16.33048,-11.10129 21.13107,-16.37336 -15.25895,-0.85724 -36.08996,-7.80091 -62.06443,-21.30249 -3.77186,-2.05739 -7.11511,-3.68615 -10.84413,-5.70067 -11.14416,-6.60077 -23.40273,-13.54443 -36.8186,-21.81684 -10.02975,4.58626 -16.7591,7.0294 -19.33084,7.88664 -1.50017,0 -3.00035,0.42861 -4.45766,0.77151 3.68615,1.20015 7.41514,2.48601 10.75839,4.50053"/>
  <path d="m 92.782771,219.83347 c -3.343248,4.11476 -4.843424,8.18668 -4.543389,11.8728 3.386112,4.11479 7.157981,4.8863 11.958548,2.0574 1.11441,-0.42861 1.54304,-1.24299 2.27169,-2.44314 0.6858,-2.87177 1.07156,-6.98653 0.42862,-11.48706 -3.643281,1.24299 -7.072253,1.24299 -9.986881,0 z"/>
  <path d="m 100.19793,233.76367 c -4.800567,2.8289 -8.572436,2.05739 -11.958548,-2.0574 0,2.44316 0.814381,4.8863 2.271696,7.3723 3.771869,1.20015 8.615296,2.01453 13.758752,1.20015 4.50053,-0.42861 8.18668,-2.87177 11.57279,-6.51505 1.84307,-2.44314 2.95749,-5.74352 3.68615,-9.42967 -4.80057,-0.85725 -8.91534,-2.87177 -12.25859,-6.12931 -0.72865,0.42864 -1.45731,0.85725 -2.22883,1.20015 -1.11441,0 -1.50017,0.42863 -2.22883,0.42863 0.72866,4.50053 0.42862,8.61529 -0.42862,11.48706 -0.72866,1.20015 -1.15728,2.01453 -2.2717,2.44314 z"/>
  <path style="fill:#777777;" d="m 240.48579,396.72562 c -3.729,-0.81437 -6.34361,-1.20012 -8.57242,-2.44313 0.72864,4.50053 2.61458,9.00105 5.57206,13.07297 2.61462,4.15763 5.61497,7.84375 8.91535,11.48706 3.04322,3.72899 6.0007,7.80091 8.57242,12.30144 3.00035,4.50053 4.45768,9.42966 4.84342,14.70173 0.42864,5.74351 0,11.10129 -1.50017,16.41619 -1.50018,4.50053 -3.72899,7.3723 -7.07224,9.04393 5.57206,0.77151 10.45836,0.77151 14.91602,0 1.50017,0 2.95751,-1.28586 4.11478,-2.486 1.07154,-0.81438 1.45731,-1.67163 2.18598,-2.91465 0,-0.81437 0.42861,-1.58588 0.77151,-2.8289 3.68615,1.24302 7.75804,3.30038 12.98723,5.74355 1.84308,1.20014 4.07192,2.01452 6.38647,2.87177 2.57172,0.42861 4.75769,1.20012 7.41514,1.62875 3.34325,0 5.915,-0.42863 7.75807,-1.24301 0.42861,-1.58589 1.11441,-3.25751 1.88592,-5.31491 0.72866,-2.44313 1.50017,-4.50053 1.84307,-7.3723 -3.72899,0 -7.0294,-2.05736 -9.68685,-6.12928 -2.95748,-4.50053 -5.5292,-8.22955 -7.75804,-11.82996 4.41479,0 8.91532,0 12.98723,-0.51435 -4.07191,-1.20014 -7.41514,-4.88629 -10.75839,-9.34395 -2.61461,-4.5434 -3.68615,-9.8583 -2.22884,-15.98759 -1.11441,-0.85725 -2.22884,-1.20014 -2.95748,-2.01452 -4.8863,-2.52888 -9.34396,-5.31491 -13.75877,-7.84378 -2.70033,-2.05737 -5.61494,-3.64328 -8.22952,-5.70065 -1.45734,0 -2.61462,0 -4.07192,0 -8.22955,0 -16.03046,-0.85724 -24.56003,-3.30041"/>
  <path d="m 362.90015,138.73824 c -7.11511,1.62876 -14.57315,3.25754 -22.33119,5.35778 -7.07227,1.58591 -14.53028,3.64328 -21.55968,6.51505 -6.72934,2.01453 -13.41584,4.92914 -20.53098,8.22955 -6.30074,2.40026 -12.98724,6.12928 -19.67371,10.24404 -6.72937,3.60044 -13.41587,8.14381 -20.0595,12.64434 -6.00071,4.50052 -10.84414,10.28693 -13.84449,17.23059 -3.68615,6.94366 -3.68615,14.31596 -0.72866,22.50264 2.65745,7.3723 6.0007,14.35883 9.68685,20.53098 2.22884,4.45766 3.72902,9.3868 4.8863,14.31596 0.68579,2.82891 0,7.7152 -1.54305,14.2731 -1.84307,6.98653 -7.0294,10.67268 -16.71625,11.48706 9.68685,-0.81438 14.87318,-4.50053 16.71625,-11.48706 1.54305,-6.5579 2.22884,-11.44419 1.54305,-14.2731 -0.42864,3.25752 -2.65746,4.88627 -7.11512,4.88627 -4.11478,-0.42861 -8.91534,-2.87174 -13.7159,-7.41514 -1.15728,-2.40029 -2.70032,-4.45766 -3.77189,-6.94366 -3.34322,-3.30041 -6.68647,-6.55792 -10.45836,-9.42969 -0.6858,-0.42861 -1.07154,-0.81438 -1.8002,-1.20015 -1.50018,-0.81438 -2.61459,-1.62876 -3.72902,-1.62876 -4.07189,-2.05736 -8.18665,-4.11475 -13.03008,-6.12928 -4.07192,-2.05739 -9.30111,-2.91464 -14.91605,-2.486 1.50018,-0.42864 3.04322,-1.62876 4.11476,-2.48601 2.22884,-2.87177 3.34325,-5.70067 4.11479,-8.52957 -2.61461,1.20014 -8.22955,1.20014 -16.41623,0 -12.25856,-1.67163 -20.01662,-3.30038 -24.55999,-4.5434 4.84339,-1.62876 6.72934,-5.31491 6.72934,-11.44419 -0.42861,-6.17215 -3.30038,-9.42969 -8.52958,-10.67268 0,1.62876 -0.42861,2.91461 -0.81438,4.07189 -1.07153,4.92917 -4.07189,7.84378 -8.87247,8.18668 -4.80056,0.4715 -10.02973,0.4715 -15.25892,0 -4.84342,-0.42861 -9.68685,-0.81438 -14.87317,-0.81438 -5.22919,0 -10.02975,0.47148 -14.91604,1.28588 -5.229182,0.42861 -9.301086,2.82891 -12.987233,6.51503 -1.114416,2.44316 -1.500176,4.50053 -1.500176,6.55792 0,2.44313 1.500176,4.45766 4.071907,5.31491 0.771517,0.42863 1.114416,0.42863 2.271693,0.42863 2.914627,1.24299 6.343603,1.24299 10.029749,0 0.72866,0 1.11442,-0.42863 2.22883,-0.42863 0.77152,-0.42861 1.50018,-0.85725 2.22883,-1.20015 1.11442,-0.85722 2.22884,-1.67163 3.00036,-2.05737 2.57173,-2.05739 5.57208,-4.11478 8.52957,-4.92916 -2.95749,0.81438 -5.95784,2.87177 -8.52957,4.92916 -0.77152,0.42861 -1.88594,1.20015 -3.00036,2.05737 3.34325,3.25754 7.45802,5.27206 12.25859,6.12931 h 1.88593 c 4.45767,1.20012 9.30109,0.85722 14.53028,0 2.22882,-0.42864 4.07189,-0.85725 5.91497,-1.24301 -1.84308,0.42863 -3.68615,0.85724 -5.91497,1.24301 -5.22919,0.85722 -10.07261,1.20012 -14.53028,0 h -1.88593 c -0.72866,3.68615 -1.84308,6.98653 -3.68615,9.42967 -3.38611,3.64328 -7.07226,6.12928 -11.57279,6.51505 -5.143456,0.81438 -9.986883,0 -13.758752,-1.20015 0.771517,0.81438 1.114416,1.20015 1.885933,2.44316 5.572083,6.60077 7.458019,16.80197 5.229187,29.87491 4.114772,3.25754 8.186672,6.6008 11.872822,9.85831 3.72901,3.68615 7.84377,6.17215 11.91568,8.61528 4.84343,2.01453 9.68686,3.25754 14.53028,4.50053 4.84343,0.77154 9.64399,2.01453 13.75875,4.50053 2.18597,0.77154 2.95748,2.8289 2.95748,6.55792 v 2.87177 c 4.11479,-0.81438 6.3436,-3.72902 5.57209,-9.04392 2.22885,4.11476 5.18633,8.57244 8.57242,12.6872 0.72867,0.85725 1.11444,2.0574 1.11444,3.72902 0.42861,5.70065 0,11.01558 -1.11444,15.55895 -0.42861,1.20015 -0.72864,2.87177 -1.84304,3.25754 5.91496,1.67163 10.41549,0.42861 13.37297,-2.87177 0.42863,-1.20015 0.72866,-2.44313 1.11443,-3.68615 2.57171,3.68615 3.38609,8.61529 2.27169,14.7446 -1.15728,5.3149 -3.38612,9.81543 -7.11511,13.54442 4.45765,1.24302 8.95818,2.0574 14.14451,1.24302 1.4573,-0.47148 2.95748,-1.7145 4.80055,-2.91464 1.54305,-2.05737 3.38612,-4.11476 4.8863,-6.94366 0.42861,6.94366 1.45731,12.25856 3.00035,17.61634 1.41444,4.50053 3.68615,8.57244 6.64363,11.87283 3.38612,3.25754 6.72935,6.17215 9.68686,9.42969 3.38609,2.8289 5.91496,4.92914 8.18667,5.74351 1.11441,0.42861 2.95749,1.20015 5.95784,2.01453 2.22881,1.24301 4.84342,1.62876 8.57242,2.44313 8.52957,2.44317 16.33048,3.30041 24.56003,3.30041 h 4.07192 c -1.11444,-0.85724 -2.22885,-2.05739 -3.38612,-3.30041 -3.68615,-3.25751 -6.98653,-7.37227 -9.25825,-12.25856 -2.61458,-4.5434 -4.45766,-9.4297 -6.30073,-14.7446 -1.84308,-4.50053 -2.65745,-9.85831 -2.65745,-15.17321 0,-5.74352 1.92881,-10.20118 5.61496,-13.11582 -3.68615,2.91464 -5.61496,7.3723 -5.61496,13.11582 0,5.3149 0.81437,10.67268 2.65745,15.17321 1.84307,5.3149 3.68615,10.2012 6.30073,14.7446 2.27172,4.88629 5.5721,9.00105 9.25825,12.25856 1.15727,1.24302 2.27168,2.44317 3.38612,3.30041 2.61458,2.05737 5.52919,3.64328 8.22952,5.70065 4.41481,2.52887 8.87247,5.3149 13.75877,7.84378 0.72864,0.81438 1.84307,1.15727 2.95748,2.01452 2.95748,2.0574 5.95783,4.8863 8.48671,7.32943 3.77186,4.11476 6.04357,8.22955 7.11511,13.11582 1.11443,5.40064 1.84307,10.67268 2.27171,15.98761 0,2.44314 0,4.92914 -0.42864,7.37227 -0.42861,2.87177 -1.11441,4.92917 -1.84307,7.3723 -0.77151,2.0574 -1.50018,3.72902 -1.88592,5.31491 -0.42864,1.24301 -0.72867,1.67162 -1.07156,2.486 4.45765,0.81438 8.91534,0.42864 13.7159,-0.81438 l 0.42861,-0.42861 c 2.22884,-0.42863 4.07191,-1.62875 5.18632,-3.30038 3.68615,3.30038 8.22955,4.54337 13.41587,4.88627 3.30039,0.47148 5.91497,0 9.30109,-0.42861 1.84307,0 4.07189,-0.81438 5.91496,-1.24302 4.11479,-1.62875 10.41553,0.77154 18.64504,6.94369 -10.07259,-13.50158 -16.03042,-20.87388 -17.8735,-22.5455 -3.77189,-3.25754 -6.6865,-6.90082 -8.91534,-10.62982 -0.77151,-0.77153 -1.15728,-2.05739 -1.15728,-3.64328 4.50053,2.0145 8.95819,3.25752 14.53028,2.87175 h 8.95819 c -3.3861,-2.05737 -7.07225,-4.54337 -11.14416,-7.41514 -4.5434,-2.87177 -7.11512,-6.55792 -8.22955,-11.87283 -0.42861,-2.01452 -1.15728,-3.64328 -1.88592,-5.31491 4.07189,0 8.57242,0.42861 13.41585,0 -3.72899,-1.24301 -7.07224,-3.72901 -10.4155,-6.98653 -3.72901,-3.21467 -6.6865,-6.47218 -9.34395,-10.58697 -2.91464,-4.11476 -4.37195,-8.61528 -4.37195,-13.93019 -0.42861,-4.92916 -0.42861,-10.67268 0,-15.98759 v -5.74354 5.74354 c -0.42861,5.31491 -0.42861,11.05843 0,15.98759 0,5.31491 1.45731,9.81543 4.37195,13.93019 3.00035,0.42864 5.61494,1.20015 7.88662,2.0574 4.80059,2.05739 9.30111,3.60041 13.75877,5.70067 4.80056,2.01453 9.64399,4.07189 14.10164,6.08642 4.50053,0 7.80094,-0.77151 10.45839,-2.78604 1.07154,-0.81438 2.22882,-2.05739 2.95749,-3.30038 0.72864,-1.24301 1.1144,-2.91464 1.50017,-4.92916 -5.61493,1.28588 -10.41552,0.42863 -14.53028,-1.62876 -4.45766,-2.44313 -8.52957,-4.92914 -12.64433,-6.98653 -4.45766,-2.8289 -10.41552,-4.8863 -17.87353,-6.90082 7.45801,2.01452 13.41587,4.07192 17.87353,6.90082 4.11476,2.05739 8.18667,4.5434 12.64433,6.98653 4.11476,2.05739 8.91535,2.91464 14.53028,1.62876 1.84308,-0.42861 4.41479,-1.24299 6.30074,-1.62876 1.88594,-0.81438 4.11476,-1.67163 6.0007,-2.87177 1.45731,-0.85722 2.91464,-1.62876 3.64328,-2.05737 -4.07189,-0.42864 -7.75804,-1.62878 -11.52993,-2.8289 -4.41479,-2.05739 -8.87245,-4.58627 -13.37297,-6.12931 -5.2292,-2.10024 -10.75842,-4.92914 -17.10203,-8.18665 6.34361,3.25751 11.87283,6.08641 17.10203,8.18665 4.50052,1.54304 8.95818,4.07192 13.37297,6.12931 3.77189,1.20012 7.45804,2.44313 11.52993,2.8289 0.42864,0 0.77154,0 1.50018,0.42861 h 0.72866 c 3.77186,0.42864 7.45801,0.42864 10.84413,-0.42861 1.45731,-0.42864 2.95749,-0.77153 4.45766,-0.77153 2.57174,-0.85725 9.30109,-3.30039 19.33084,-7.84378 l 7.45801,-2.87175 c -10.07259,-2.40029 -29.01769,-8.52957 -45.43389,-15.5161 -10.41552,-4.50053 -18.55933,-8.18668 -24.13139,-11.52993 5.57206,3.34325 13.71587,7.0294 24.13139,11.52993 16.4162,6.98653 28.7605,11.05842 38.74739,13.45871 3.25754,1.0287 4.45768,1.67162 6.6865,2.05739 -2.65745,0.81438 -5.22917,2.05737 -7.45801,2.87175 13.41587,8.22954 25.67444,15.17321 36.8186,21.774 4.11476,0.81437 8.57244,0.81437 12.64433,0 4.8863,-1.28589 9.68686,-2.91464 14.18739,-4.58627 3.68615,-1.20015 7.0294,-3.64328 9.98688,-6.51505 1.88594,-1.62876 3.38612,-3.68615 4.84343,-5.74352 h -9.30109 c -7.80091,-0.81438 -15.60182,-2.01452 -23.40275,-3.25754 -7.45802,-1.67162 -14.53026,-4.11476 -21.60253,-7.80091 -6.6865,-3.25751 -13.0301,-6.51505 -20.10234,-9.00105 -6.6865,-2.87177 -13.33014,-6.12929 -20.10238,-9.38683 -7.0294,-3.30038 -13.75874,-6.94366 -21.17391,-10.28691 -6.6865,-3.30038 -13.41584,-6.12928 -19.71658,-8.57242 -1.50017,-0.42863 -3.00035,-1.24301 -3.72902,-1.24301 -16.37335,-8.57242 -25.63157,-14.74457 -28.63192,-18.43072 -1.88594,-2.87177 -3.77189,-4.92917 -5.18632,-7.75807 -1.92882,0 -3.38612,0 -5.61497,-0.42861 -1.50017,-0.42864 -2.61458,-0.42864 -4.07189,-0.42864 -2.95748,3.68615 -7.07227,6.55792 -11.91569,7.80094 -1.88592,0 -3.34325,0 -4.84343,0.42861 -0.72864,5.3149 -4.07189,8.57244 -9.30109,10.62981 -4.84342,1.62876 -9.64398,3.30038 -14.48741,4.5434 -4.84342,1.20014 -10.07259,1.58588 -15.25892,1.58588 -3.77188,-0.42861 -7.11514,-0.7715 -9.68685,-0.7715 2.57171,0 5.91497,0.42863 9.68685,0.7715 5.18633,0 10.4155,-0.42861 15.25892,-1.58588 4.84343,-1.24302 9.64399,-2.91464 14.48741,-4.5434 5.2292,-2.05737 8.57245,-5.31491 9.30109,-10.62981 -3.72899,0.81438 -7.02937,0.81438 -10.80126,0.81438 -5.22917,0 -10.02975,-0.42861 -14.87315,-2.01453 l -14.44457,-3.72899 14.44457,3.72899 c 4.8434,1.58592 9.64398,2.01453 14.87315,2.01453 3.77189,0 7.07227,0 10.80126,-0.81438 1.50018,-0.42861 2.95751,-0.42861 4.84343,-0.42861 4.84342,-1.24302 8.95821,-4.11479 11.91569,-7.80094 -5.61493,-1.62875 -11.14416,-4.07189 -16.37335,-7.71517 -3.77186,-2.52887 -6.34361,-4.58626 -7.84378,-6.98653 -8.18668,0 -15.98759,0 -23.40273,-1.20015 -1.50017,-0.47147 -2.65745,-0.47147 -4.11479,-0.47147 1.45734,0 2.61462,0 4.11479,0.47147 7.41514,1.20015 15.21605,1.20015 23.40273,1.20015 7.07227,2.05737 13.373,-0.85725 18.2593,-7.32943 3.34325,-4.5434 5.22917,-9.04392 5.52919,-13.15868 0.42864,-3.30041 0.42864,-6.17216 -0.68577,-9.4297 -1.84307,0.42864 -3.72901,0.85725 -5.61496,1.24302 -7.80091,0.81438 -15.60182,0.81438 -23.05983,-0.81438 -4.45768,2.05737 -8.52957,3.64328 -13.75877,5.31491 -4.84343,1.58588 -9.68685,1.58588 -14.48741,1.58588 4.80056,0 9.64398,0 14.48741,-1.58588 5.2292,-1.67163 9.30109,-3.25754 13.75877,-5.31491 1.88592,-1.28588 3.72899,-2.48603 5.57207,-3.30041 6.72937,-4.88627 10.07262,-11.8728 9.68685,-20.44524 -2.22884,0.42861 -4.45766,0.42861 -7.0294,0.42861 -7.50088,0 -14.53028,-0.42861 -20.53098,-1.58589 6.0007,1.24299 13.0301,1.58589 20.53098,1.58589 2.57174,0 4.80056,0 7.0294,-0.42861 2.22885,-0.81438 4.45766,-1.24302 6.6865,-1.67163 3.00036,-1.20015 5.2292,-2.87177 7.84378,-4.50053 6.30074,-3.68615 12.25857,-8.18667 18.60217,-13.50158 1.84308,-1.20015 3.34325,-2.44313 4.80059,-4.07192 3.38609,-4.50053 4.45766,-9.04389 3.38609,-13.97306 1.07157,4.92917 0,9.47253 -3.38609,13.97306 10.02972,1.20015 16.41619,1.62879 18.25927,1.62879 6.6865,0.42861 13.373,0 20.10235,-1.24302 0.72866,0 3.34325,-1.24299 8.18667,-4.11476 4.84343,-2.40029 10.75842,-6.17215 17.10202,-10.24407 0.42861,-0.42861 0.72864,-0.81438 1.50018,-1.20012 2.95748,-5.74354 1.45731,-9.00105 -4.84343,-10.24407 -4.50052,-0.81438 -8.57244,-1.24302 -12.30146,-1.62876 -1.88592,-0.42863 -3.34322,-0.42863 -5.22917,0 -5.52922,0 -8.52957,0 -10.02975,-0.42863 h -0.42861 c -1.45733,0 -3.30041,-0.47148 -4.80059,-0.47148 h -5.95783 c -0.77151,0.47148 -1.84307,0.47148 -2.95748,0.47148 h -3.00035 c -0.72867,0 -1.50018,0 -1.88595,0.42863 -0.42861,0.42861 -1.11441,0.81438 -1.4573,1.24299 -3.72902,3.25754 -7.07227,6.12931 -10.80127,8.57245 -2.57174,2.05739 -5.18632,3.72899 -7.75806,5.3149 -7.11511,4.07192 -14.23023,6.55792 -21.25963,6.94367 -5.95783,0 -12.25859,0 -18.60219,0.47147 6.3436,-0.47147 12.64436,-0.47147 18.60219,-0.47147 7.0294,-0.42861 14.14452,-2.87175 21.25963,-6.94367 2.57174,-1.58591 5.18632,-3.25751 7.75806,-5.3149 3.729,-2.44314 7.07225,-5.31491 10.80127,-8.57245 0.42861,-0.42861 1.1144,-0.85725 1.4573,-1.24299 0.42864,-0.42863 1.15728,-1.20014 1.54305,-2.05739 4.07192,-5.31491 4.80055,-11.05845 2.95748,-18.43071 -0.42861,0.42861 -0.72864,0.81438 -1.11441,0.81438 -6.3436,4.88626 -13.41587,8.61528 -20.83101,10.6298 -7.45801,2.05739 -14.91605,2.91464 -22.33119,3.25751 h -8.22955 8.22955 c 7.41514,-0.42861 14.87318,-1.20012 22.33119,-3.25751 7.41514,-2.01452 14.48741,-5.74354 20.83101,-10.6298 0.42861,0 0.72867,-0.42864 1.11441,-0.81438 4.07192,-3.68615 9.68685,-7.3723 16.71625,-11.48706 -7.0294,4.11476 -12.64433,7.80091 -16.71625,11.48706 1.84307,7.37226 1.11444,13.1158 -2.95748,18.43071 l 0.42861,1.67163 h 3.00035 c 1.07156,0 2.18597,0 2.95751,-0.47148 h 5.95783 c 1.50018,0 3.34325,0.47148 5.18633,0.47148 5.22917,-0.81438 10.41549,-1.28586 15.64469,-1.28586 4.80055,-0.42864 9.30108,-2.01453 13.75874,-4.45766 4.07192,-2.91464 7.80094,-5.35777 11.52993,-7.84378 1.88594,-1.54304 3.34325,-3.25753 5.52922,-4.45768 0,-0.42861 0.81438,-1.24298 1.54305,-1.24298 7.0294,-6.98654 6.6865,-11.10132 -1.11444,-12.30144 -7.84378,-1.20015 -14.91602,-1.20015 -21.55965,-1.20015 -7.11514,0.42861 -13.0301,0.42861 -17.83066,0 h -3.77189 c 3.77189,-2.44316 8.57245,-6.12928 15.25895,-11.87282 -27.90329,-3.72902 -45.73395,-3.72902 -53.92062,-0.42861 8.18667,-3.30041 26.01733,-3.30041 53.92062,0.42861 -0.42864,-2.48601 20.05947,-4.07192 60.60709,-5.31491 h 6.34361 c 3.00035,-0.42864 5.61493,-0.85725 9.00105,-0.85725 1.45731,0 3.30038,0 4.75772,-0.42861 7.45801,-0.85724 14.91602,-2.10026 22.71693,-3.72902 6.6865,-1.62875 13.0301,-4.11476 18.55933,-8.18667 4.88629,-3.68615 8.61528,-8.61529 11.22989,-15.55898 h -8.18667 -23.48847 c -7.75807,-0.42861 -15.60185,0 -23.05986,0.81441 -7.41516,0 -14.83031,0.81437 -21.94542,1.24298 -7.07227,0 -14.10167,0.81438 -21.55968,1.62876 -7.07227,0.85725 -14.10164,1.67162 -21.21678,2.87177 h -0.42861 c -7.45801,0.85725 -14.91605,2.05739 -21.94542,2.91464 -7.80094,1.20012 -15.25895,2.40027 -23.10273,3.25751 -7.07224,0.81438 -13.75874,2.4003 -21.17391,3.64328"/>
  <path d="m 92.782771,219.83347 c -1.157277,0 -1.500176,0 -2.271693,-0.42863 -2.571731,-0.85725 -4.071907,-2.87178 -4.071907,-5.31491 -32.360936,-2.87177 -57.992531,6.98653 -77.3662298,29.4463 31.6322968,-2.8289 57.3067338,2.48603 76.2518138,14.78747 -8.529571,1.62875 -58.292567,4.67198 -69.050969,5.87209 1.500175,2.48604 42.990769,4.32908 43.762289,7.62949 13.372998,1.28586 26.017336,1.28586 37.590123,-0.42864 2.228832,-13.07294 0.428621,-23.27414 -5.229187,-29.87491 -0.771517,-1.24301 -1.114416,-1.62878 -1.885933,-2.44316 -1.457315,-2.486 -2.271696,-4.92914 -2.271696,-7.3723 -0.428621,-3.68612 1.200141,-7.75804 4.543389,-11.8728"/>
</g>
<use style="opacity:0.5;filter:url(#stone);" xlink:href="#crow"/>
<use id="shine" xlink:href="#crow-outline" fill="url(#rg)" stroke="#000" stroke-width="3"/>
</svg>
