<?xml version="1.0" encoding="UTF-8" standalone="no"?>
<svg width="600" height="600" version="1.1" id="svg129"
   xmlns:xlink="http://www.w3.org/1999/xlink" xmlns="http://www.w3.org/2000/svg"
   xmlns:svg="http://www.w3.org/2000/svg">
  <defs>
    <radialGradient id="rg" gradientUnits="userSpaceOnUse" cx="220" cy="220" r="405">
      <stop style="stop-color:#fff;stop-opacity:.3" offset="0"/>
      <stop style="stop-color:#fff;stop-opacity:.2" offset=".2"/>
      <stop style="stop-color:#666;stop-opacity:.1" offset=".6"/>
      <stop style="stop-color:#000;stop-opacity:.13" offset="1"/>
    </radialGradient>
    <clipPath id="shield-clip">
      <path id="shield" d="m 1.5,1.5 h 597 v 597 h -597 z" />
    </clipPath>
    <clipPath id="tiger-front-arm-clip">
      <path id="tiger-front-arm-shape" d="m 460.2,221.4 c -25.8,-2.2 -29.5,14.1 -30.5,32.2 -7.6,9.7 -15.1,11.1 -23.1,17 -15.4,11.5 -37.1,10.9 -40.7,0.8 -0.6,-1.7 0.6,-4 0.2,-6.8 -0.1,-1.8 -0.3,-4.2 -2.2,-5.5 -7.2,-6 -15.4,1.5 -15.9,9.4 -3.3,-2.9 -6.7,-3.2 -9.4,-2.4 -6.2,2 -9.8,10.3 -3.8,15.7 1.6,1.4 6,0.5 6.7,2.7 0.7,2.2 0.9,2.1 1.5,2.9 0.5,0.9 1.6,2.3 1.6,2.3 0,0 -5,0.4 -6.3,1.6 -7.3,7.6 4.1,20.4 13.1,15.2 1.6,-1.1 2.2,-2.2 4.1,-3.8 1.9,-1.4 8.9,-2.3 8.9,-2.3 -3.6,5.5 -1.6,7.2 -1.9,9.4 -0.2,0.9 -1,2.6 -2.7,3.7 8.2,-0.2 11.9,-2.3 15.8,-9.9 0.5,4.8 0.6,8 -1.5,12.1 0,0 6.3,-1.5 9.5,-3.5 2.8,-1.8 7.3,-9.1 7.3,-9.1 1.2,4 1.2,7 -1.1,10.5 6.5,-2.5 10.9,-5.3 12.4,-12.6 1,-1.8 2.7,-2.3 2.7,-2.3 -1,6.1 4.6,5.3 0.8,11.9 9.1,-2 14.7,-14.8 13.4,-17.4 0,0 4.5,8.2 2.2,11.5 6.3,-0.5 9.9,-5.8 8.5,-10.7 2.1,0.6 3.5,3.3 4.9,6.1 2.3,-2.2 3.2,-7.1 3.1,-12.7 1.2,2.7 2.7,4.9 4.9,6.3 0.1,-6.4 4.6,-11.6 12.8,-13.6 2.8,-0.6 12.4,-0.3 13.9,-3.6 1,-2.4 -0.7,-4.1 -1.6,-5.1 -0.7,-1.4 -0.9,-5 -0.8,-7.7" />
    </clipPath>
    <clipPath id="tiger-back-leg-clip">
      <path id="tiger-back-leg-shape" d="m 399.6,479.5 c 0,0 -0.1,2.2 -0.8,3.5 -0.9,1.8 -3,3.5 -5.3,4.4 -2.3,0.9 -4.6,0.9 -6.9,0 -2.3,-0.9 -4.7,-4.2 -4.7,-4.2 0,0 -3.2,5.1 -5.5,6.1 -2.8,1.3 -6,1.3 -8.8,0.4 -3.2,-1.4 -5.9,-3.2 -7.3,-6.9 -0.5,-1.4 0,-5.1 0,-5.1 -3.6,2.5 -8.8,1.6 -11.1,-1.4 -1.9,-2.3 -2.1,-5 -1.4,-8.4 0.2,-1.3 1.3,-3.1 2.3,-3.7 0,0 -1.4,-1.8 -1.4,-2.7 -0.9,-2.3 0.5,-4.6 0.5,-4.6 0,-1.8 2.7,-4.1 5,-4.1 7,0.4 9.8,4.6 15.7,6 13,2.2 25.9,-2.3 35.7,-10.7 3.6,-3.2 5.5,-6.5 7.7,-10.6 1.9,-3.7 2.8,-8.4 2.4,-12.5 -0.5,-6.9 -4.2,-12 -5.6,-18.9 -0.9,-3.3 -1.3,-11.2 -1.3,-11.2 0,-9.7 4.5,-13.8 5.9,-20.3 0,0 0,-3.2 1,-5.5 0.9,-2.8 1.8,-5.6 4.1,-7.4 1.4,-0.5 4.2,-2.3 4.2,-2.3 0,0 1.9,-2.8 2.8,-4.2 1.4,-2.8 3.2,-5.1 6.5,-6.5 3.2,-1.8 6,-2.3 9.7,-1.8 12.9,1.8 24.5,5.1 37.9,0.4 l 5.6,65.7 c -8.4,-1.8 -18.1,-1.4 -26,-4.2 -3.2,-0.9 -8.8,-5.5 -11,-7.4 0,0 0,7 -1.4,10.7 -1.9,4.6 -5.6,8.7 -4.2,13.3 1,2.3 3.3,3.7 5.1,6 1.8,1.9 2.7,5.1 2.7,8.4 0.5,1.8 0,4.6 -1.3,5.5 -6.9,3.8 -13.4,6.1 -15.3,11.2 -1.8,8.2 -1.4,14.7 -9.2,18.4 0.9,-3.7 0.4,-6.5 -1,-9.7 -1.4,6.9 -2.7,10.2 -8.3,14.3 0.5,-4.1 0.5,-7.8 -0.9,-11.6 -1.9,7.9 -4.2,12.6 -10.6,15.3 1.4,-4.1 1.8,-7.4 0.5,-11.5 -2.3,3.2 -1.9,7.4 -6,7.8 z" />
    </clipPath>
    <clipPath id="tiger-back-arm-clip">
      <path id="tiger-back-arm-shape" d="m 219.3,178.9 c 0.7,7.9 -4.6,8.1 -1.6,16 -9.2,-5 -11.9,-11.7 -13,-22 -4.2,4.1 -4.1,8.3 -3.4,13.7 -9.7,-5.1 -11.4,-13.2 -12,-23.4 -3.4,3.7 -3.4,7.7 -3,12.5 -9.9,-6.3 -10.2,-15.2 -8.9,-26 -4.6,9.8 -8.6,7.5 -7.1,16.2 -8.8,-9.7 -10.4,-16.6 -7.5,-28.7 -4.7,2.2 -6.2,5.3 -6.7,11 -2.9,-2 -5.1,-4.4 -6.1,-7.1 -2.1,-2.9 -2.1,-7.1 -2.8,-10.7 -0.5,-1.9 -9.8,-3.5 -11.5,-4 -0.7,-0.2 -8.6,-1.2 -12,-0.4 -2.1,0.6 -4.9,1 -6.5,1.4 -12.9,2.2 -19.47,-17.3 -7.6,-22.6 2.1,-0.7 8.1,1.5 8.1,1.5 0,0 -0.8,-2.2 -1,-3.4 l -0.3,-3.8 c -0.4,-2.81 -5.5,-3.37 -7,-6.2 -4.3,-8.54 3.9,-16.16 11.4,-15.84 3.9,0.1 7.6,1.99 9.8,6.91 4.7,-9.04 17.3,-13.29 22.8,-3.75 1.4,2.8 1.5,6.15 1.2,8.66 -0.8,5.41 0.1,10.06 3.2,13.92 18.2,23.6 69.4,50.8 113.4,63.1 l -14.9,51.4 c 0,0 -12.2,-10.5 -19.9,-16.3 -5.8,-4.1 -17.1,-22.1 -17.1,-22.1 z" />
    </clipPath>
    <clipPath id="tiger-body-clip">
      <path id="tiger-body-shape" d="m 511.8,371 c 0.5,6.4 1,11.4 1,17.9 0,6.5 -1.9,13.9 -1,19.9 1.4,7.4 3.7,14.3 7.4,20.8 2.8,4.6 6.5,8.3 10.2,12 2.3,2.4 7.4,6.5 7.4,6.5 1.8,1.4 4.1,2.3 6,3.3 5.5,3.7 7.4,8.3 6.9,13.8 -2.3,-3.7 -5.5,-3.2 -9.2,-2.3 7.8,5.5 10.6,10.1 8.8,19.9 -1.9,-6.5 -8.8,-4.7 -13.5,-7.9 4.2,8.8 10.7,10.7 12.1,16.2 0.9,2.8 1.4,6 -1.9,12.9 -0.4,-2.7 -0.9,-5 -2.3,-6.4 -2.3,-2.3 -6.5,-1.9 -9.7,-6 0,0 0,3.2 0.9,5.1 1.4,2.7 1.9,2.7 3.7,5 1.4,1.9 3.2,5.5 3.7,7.8 0.5,5.6 -2.8,13.9 -2.8,13.9 0,0 -1.8,-3.2 -3.2,-4.6 -1.8,-1.4 -4.6,-0.5 -6.9,-1.8 -1.8,-1 -4.1,-4.7 -4.1,-4.7 0,0 0.4,2.8 0.4,4.2 -0.4,0.9 -2.7,3.7 -2.7,3.7 0,0 5.5,0.5 7.8,3.2 2.3,3.3 2.3,6.5 0.9,9.3 -2.3,3.7 -6.9,5.6 -12,3.3 -2.3,-1 -4.6,-2.4 -4.6,-2.4 0,0 0,2.8 -0.5,4.2 -0.5,1.9 -0.9,3.2 -2.3,4.6 -2.3,2.3 -5.6,2.7 -8.3,2.7 -3.3,-0.4 -6.1,-1.3 -7.5,-4.1 -0.9,-1.3 -1.8,-4.6 -1.8,-4.6 0,0 -3.7,3.7 -5.5,3.7 -4.1,0.5 -7.8,-1.4 -9.7,-4.1 -1.4,-2.4 -2.2,-4.5 -2.2,-7.3 0,-1.4 0.5,-3.9 2.2,-5.3 0,0 -1.9,-0.4 -3.2,-1.3 -1.4,-1 -2.8,-2.4 -3.3,-3.8 -0.4,-2.7 -0.4,-5.5 0.5,-7.8 1.8,-3.3 4.6,-4.2 7.9,-3.7 2.3,0 5.5,2.7 6.9,4.1 2.7,2.8 6.4,2.4 9.2,1.9 2.7,-0.5 5.1,-3.3 7.4,-6.5 5.1,-7.3 6,-18.4 5.5,-27.2 0,-9.3 0.5,-20.8 0.5,-20.8 0,0 -7.9,-6 -11.6,-9.7 -5.1,-5.6 -15.6,-19 -15.6,-19 -5.6,-9.2 -9.8,-10.2 -16.7,-26.3 0,0 -9.7,-13.9 -12.5,-23.2 -1.4,-5 -1.4,-10.5 -0.5,-16.1 0.5,-30 -48.4,-29.5 -49.4,-75.8 1.2,-52.1 -2.1,-52.8 24,-74.9 7.7,-6.4 10.4,-4.9 14.9,-8.7 1.9,-1.8 2.6,-2.8 2.6,-3.7 0,-1.9 -0.8,-2.4 -0.8,-2.4 -1.4,-0.9 -3.7,-1.8 -4.6,-1.8 h -6 c 0,0 1.4,-3.3 0.9,-4.6 0,-1.4 -0.5,-2.8 -0.5,-4.2 0,-1.4 0.5,-2.8 1.9,-3.3 1.4,-0.9 5.1,-0.4 6.5,0 0.9,0 1.8,1 2.7,1.9 1.9,1.9 3.3,4.6 6,5.6 0.9,0.4 2.3,0.4 3.7,0 10.6,-4.2 8.8,-20.9 0.4,-26.8 -0.9,1.8 -1.8,2.8 -3.2,2.8 -1.8,0.4 -4.1,0.9 -5.9,-0.5 -2.8,-1.9 -9.8,-3.7 -12.1,-4.2 -0.4,-0.5 -0.9,-5.1 0.5,-8.3 0.5,-0.9 0.5,-2.3 0,-3.2 -3.7,-3.7 -2.8,-11.6 -0.5,-12.5 2.8,-1 12.5,-0.5 12.5,-0.5 0,0 8.7,0.5 11.1,-0.9 6,-3.7 9.7,-4.6 17.1,-4.2 11.6,1 25.4,7 32.3,15.7 3.9,4.9 5.2,11 6,19 0.4,4.3 1.2,7.8 1,11 -1.2,18.1 -9.3,21.8 -7.9,32 0,0.9 1.9,4.1 1.9,4.1 0,0 -2.8,-0.5 -3.8,-0.9 -0.9,-0.5 -2.7,-1.9 -2.7,-1.9 0,0 0.9,4.2 0.4,6 0,1.4 -1.4,4.7 -1.4,6.1 -0.4,2.3 1,4.6 1,4.6 -3.3,-0.5 -4.2,-2.8 -5.6,-4.6 0,0 0.9,3.2 0.5,5.5 -0.5,1.9 -1.4,4.6 -1.9,6.5 -0.4,1.8 0.9,6 0.9,6 -0.9,-0.4 -3.2,-0.9 -5,-5.1 0,0 1.4,4.7 0.9,7.4 0,2.4 -1.8,5.6 -1.8,7.9 -0.5,2.2 0.4,5.5 0.4,5.5 -1.3,-0.5 -3.6,-0.5 -5,-3.3 0,0 2.3,4.2 2.8,6.5 0.4,3.3 -1.4,7.9 -1.4,10.7 0,2.3 0.4,5.1 0.4,5.1 4.2,19.8 18,44.3 23.6,61.9 8.8,9.7 15.3,21.3 19.9,35.1 1.8,4.6 3.6,9.2 5.9,14.8 1.9,5.5 4.2,13.4 7,19 3.2,5.5 6,12.4 11.5,15.2 0,0 5.6,2.7 9.8,3.2 3.2,0.5 7.4,0 9.7,-2.3 4.5,-4.1 6.4,-6.9 5.9,-11 -0.4,-7.9 -7.8,-14.8 -14.7,-22.3 -3.2,-3.2 -6.5,-7.8 -8.3,-10.6 -7,-8.7 -27.3,-36.1 -34.2,-45.3 -4.2,-5.9 2.3,-12 7.8,-6.4 6.4,6.4 18.9,26.8 23.1,31.4 7.4,9.7 15.3,19.4 24,28.6 6,6 12.5,11.6 13.4,24.1 1,9.2 -4.6,18 -12.9,22.2 -8.7,5 -19.4,4.1 -28.7,-1.9 -6.9,-4.6 -11.1,-12 -15.2,-18.9 -5,-9.3 -7.4,-21.3 -11.5,-31 -2.8,-6.9 -6,-12 -8.8,-18 -1.9,-3.7 -7,-8.3 -7,-8.3 0,0 3.3,9.2 3.7,13.9 z" />
    </clipPath>
  </defs>
  <use id="field" xlink:href="#shield" style="fill:#ffffff" />
  <g id="tiger" style="stroke-width:1;stroke-linecap:round;stroke-linejoin:round">
    <g id="tiger-mouth">
      <path style="fill:#111111;stroke:#666666" d="m 454.5,162.5 c 6,12.9 7.9,19.8 -6.9,31.4 l 10.1,1.4 7.4,-8.3 0.5,-13.5 -8.3,-10.1 z" id="path24" />
      <path id="tiger-tongue" style="fill:#bb0000;stroke:#990000" d="m 428.6,164.8 c 0,0 -2.3,3.3 -1.8,6 0.4,3.2 1.4,6 4.2,7.8 4.6,2.3 12.9,0.5 17.5,1.9 7.4,2.3 17.1,11.6 17.1,11.6 l 1.9,-11.2 c 0,0 -9.8,-6.9 -15.8,-8.7 -5.5,-1.4 -13.3,1.8 -18.4,0.9 -1.9,-0.5 -2.3,-1.4 -3.3,-2.8 -1.4,-1.3 -1.4,-5.5 -1.4,-5.5 z" />
      <path id="tiger-teeth" style="fill:#ffffff;stroke:#666666" d="m 439.3,185.1 c 0.5,-2.3 0,-1.8 1.8,-6.9 1,2.7 1,4.6 2.8,7.8 0,1 -4.1,1.9 -4.6,-0.9 z m 2.8,-18.9 c 0.4,2.3 0,1.9 1.8,6.4 1,-2.3 1,-3.6 2.8,-6.4 0,-0.9 -3.7,-3.3 -4.6,0 z" />
    </g>
    <use id="tiger-back-arm" xlink:href="#tiger-front-arm" transform="rotate(24.52,490,269.6)"/>
    <g id="tiger-back-leg">
      <use xlink:href="#tiger-back-leg-shape" style="fill:#ffcc00;stroke:none" />
      <path id="tiger-back-leg-fingers" style="fill:none;stroke:#666666" d="m 394.9,473.5 c 3.1,0.9 4.5,3.5 4.7,6 m -13.7,-7.1 c -3.6,1.5 -6.2,5.6 -4,10.8 m -9.2,-13.4 c -3.7,4.4 -9.3,-0.3 -12.4,7.9 m 8.2,-13.9 c -7.7,3.6 -12,-2.6 -18.4,0.4" />
      <path id="tiger-back-leg-stripes" clip-path="url(#tiger-back-leg-clip)" style="fill:#000000;stroke:none" d="m 427.2,432.8 c 1.2,11 7.9,15.5 16.8,18.2 l -2.9,3.7 c -6.3,-0.5 -14.8,-7.3 -13.9,-21.9 z m -3.7,-16.6 c 3.7,16.6 26.5,25.1 32.5,22.1 l -0.1,4.8 c -8.7,1.3 -32,-4.1 -32.4,-26.9 z m 3.7,-29.1 c -1.7,19.9 9.9,38 25,38.8 l 0.7,6.7 c -23.4,-3.1 -32.9,-30.5 -25.7,-45.5 z m 15.3,-14.3 c -6.3,14 -3.5,38.6 11.6,41.5 l 0.8,6.6 c -23.6,-7.7 -24,-39 -12.4,-48.1 z m 10.1,3.2 c -2.2,8.7 -3.1,21.5 4.8,32.9 -13.6,-9 -11,-24.4 -4.8,-32.9 z" />
      <use xlink:href="#tiger-back-leg-shape" style="fill:none;stroke:#666666" />
      <path id="tiger-back-leg-claws" style="fill:#ffffff;stroke:#666666" d="m 396.3,484.2 c 0.5,-1.9 -2.3,-2.4 -4.2,-2.4 -1.8,0.5 -5.5,2.8 -4.1,4.2 2.3,3.7 1.4,8.4 0.4,12.1 5.6,-2.4 8.4,-7.9 7.9,-13.9 z m -34.2,-3.3 c 0.9,-1.8 3.2,-0.9 5.1,0.5 1.3,1.4 2.7,5.5 0.9,6 -4.1,1.4 -6.4,5.6 -7.8,9.7 -3.3,-5.5 -1.9,-11.5 1.8,-16.2 z m -14.3,-13 c 1.8,-0.4 3.2,1.4 3.7,3.8 0,1.8 -1.4,6 -3.3,5 -4.1,-1.3 -8.3,0.5 -11.6,2.8 1,-6.5 5.6,-10.2 11.2,-11.6 z m 4.1,-14.2 c 1.9,0 2.8,2.3 2.8,4.1 -0.5,1.9 -2.3,5.5 -3.7,4.6 -4.2,-1.8 -8.3,-0.9 -12.5,0.9 2.3,-5.9 7.4,-9.2 13.4,-9.6 z" />
    </g>
    <path id="tiger-pizzle" style="fill:#ddaa33;stroke:#666666;" d="m 444.4,339.9 11.5,13.4 c 0,0 1.8,14.9 -1.9,18.1 -1.8,-6 -10.5,-18.1 -14.7,-24.1 -0.9,-1.8 3.7,-5.1 5.1,-7.4 z" />
    <g id="tiger-body">
      <use xlink:href="#tiger-body-shape" style="fill:#ffcc00;stroke:none"/>
      <path id="tiger-body-stripes" clip-path="url(#tiger-body-clip)" style="fill:#000000;stroke:none;" d="m 492,395.4 c 7.7,-3.7 17.5,-6.3 21.6,-20.9 l -1.9,-10.7 c -4.2,15 -12.8,25.5 -19.7,31.6 z m -20.8,-51.3 c -1.6,10.8 -5.1,34.4 -21.6,25.8 l 1.3,-10 c 8.1,9.3 14.5,0 20.3,-15.8 z m 9.2,15.3 c -2.5,10.8 -4.7,31.5 -25.9,30.6 l -1.9,-7.2 c 15.2,2.3 22.7,-8.6 27.8,-23.4 z m 23.6,2.3 c -4.2,9.4 -8.4,19.4 -16.6,24.8 -4.5,2.9 -7.7,1.1 -13.8,3.9 -7.6,3.4 -11,3.9 -16.2,4.8 l 9.5,14.3 c 3.6,-3.5 8.9,-4.4 12.3,-6.7 17.3,-11.7 20.5,-24.8 24.8,-41.1 z m -21.2,30.7 c 0.2,0 0.3,0.1 0.4,0.2 0.9,1.4 -3.6,5.2 -7.4,7 -3.8,1.8 -3,0.7 -3.4,-0.6 -0.1,-0.5 0.1,-1 1.5,-1.7 3.3,-1.4 7.6,-5 8.9,-4.9 z m 24.9,-2.1 c -3.4,10.3 -6,12.9 -14.3,16.3 -2.5,1 -3.5,4.7 -6,6.4 -8.4,5.2 -11,2.1 -17.2,4.5 0.7,1.5 5,5.9 5.8,7.4 6.9,-1.9 11.9,0.9 18.1,-2.3 3.7,-1.8 2.8,-5.9 6.1,-10.4 3.5,-4.6 8,-13.7 7.5,-21.9 z m -13.2,22 c 0.1,0 0.2,0.1 0.2,0.3 0.5,0.9 -0.7,5.2 -3.6,6.8 -3.3,1.9 -6.4,1.1 -6.5,-0.9 -0.2,-1.8 1.9,0.9 4.6,-0.9 2.5,-1.8 4.5,-5.4 5.3,-5.3 z m 16.4,-0.2 c -4.1,25.6 -13.4,32 -18.8,30.6 l -5.1,-6 c 12.3,4.2 19.4,-16.6 23.9,-24.6 z m 4.6,19.3 c -3.2,12.8 -15.4,13.9 -20,16.8 15.4,10.1 17.3,-1.2 20,-16.8 z m 2.8,54.2 c 3.6,-14.3 -1.7,-23.2 -7.4,-27.3 l -2.7,8.9 c 10.4,1.2 9,10.6 10.1,18.4 z m -3.7,12.9 c 0.1,-4.8 1.4,-10.1 -5.6,-12 v -9.5 c 5.5,6.4 8.1,13.3 5.6,21.5 z m -4.2,11.5 c -0.1,-5.1 -0.9,-8.7 -6.1,-5.4 l 3.7,-12.3 c 3.2,5.6 4.5,11.4 2.4,17.7 z m 15.3,-39.3 c 5.1,-7.8 8.1,-18.1 6.3,-27.9 12.5,7.3 -0.4,23.6 -6.3,27.9 z m -0.9,20.9 c 3.7,-7.3 9.2,-11.5 17,-10.6 l -5,-5.3 c -5.2,-1 -10,9.7 -12,15.9 z m -0.9,19.3 c 3.7,-11.9 9.2,-13.2 15.6,-9.7 l -2.6,-5.6 c -9.4,-2.1 -11.3,8.8 -13,15.3 z m -5.2,-343.2 1.7,20.9 -12,35.2 -15,54.4 21.6,64.4 c -8.2,-3.5 -11.5,0.5 -13.6,11.7 -2.7,6.3 -11.2,8.7 -12.7,19.9 -0.4,-8.3 2,-13.9 9.5,-22.4 2.2,-2.5 2.6,-6.9 4.1,-9.6 2.2,-4.1 1.3,-6.1 0,-7.8 -0.8,-1 -4.1,-3.6 -8.5,0.2 -6.4,5.6 -11.7,21.8 -21.4,22.2 6.1,-4.6 15.9,-19 18.7,-30.2 1.3,-4.8 0.4,-9.1 -1.2,-11.7 -7.2,-11.1 -22.6,14 -28.1,26 -2.1,-4.2 -1.6,-7.5 5.6,-17 8.4,-11.1 11.7,-14.7 15,-17 3.3,-2.2 3.6,-10.4 0.1,-12.7 -3.3,-2.1 -7.4,-0.4 -12,5 -5.3,6.3 -9.5,17.8 -12.1,18.5 -1.1,-5.4 5.2,-17 10.5,-22.2 8.2,-8.2 11.6,-5 11.1,-14.6 -0.7,-12.7 -5.6,-4.9 -18.5,4.8 -5.6,4.3 -12.1,11.3 -14.3,17.5 0.8,-12.3 13.4,-21.5 19.7,-27.3 17.7,-16.5 22.3,-34.9 25.4,-48 1.5,-6.9 -6.8,-2 -11.4,4.6 3.1,-10.3 8.3,-11.9 11.9,-13.2 2.2,-0.7 5,-1.4 5.1,-3.3 0.4,-2.9 0.3,-2.7 -2.9,-2.4 -10.6,0.7 -16.7,1.1 -23.5,7.4 2.9,-4.5 6.1,-8.6 14.2,-9.8 9.9,-1.4 13.8,-2.1 14.2,-4 1,-4.8 -7.9,-1.3 -9.4,-0.6 3.9,-4.3 12,-4.1 15.1,-7 5.4,-2.8 7.9,-24.4 6,-37.3 -0.3,-15.4 -6.4,-13.3 -10.3,-9.3 -0.7,-5 -3.3,-8 -5.1,-9.2 0.5,3.4 0.9,6.8 -0.7,10.2 -0.5,-4.2 -0.4,-8.6 -4.5,-12.9 -3.4,-3.6 -3.4,-2.2 -2.7,-0.8 1.9,3.6 2,6.2 1.3,9.4 -1.7,-4.4 -2.7,-10 -9.1,-13.5 -1.2,-0.6 -3.5,-0.9 -2.2,0.3 2.7,2.3 4.2,5.2 5,8.5 -5,-5.7 -9.1,-12 -23.6,-9.4 l 6.1,-3.5 17.1,-1.9 25.9,13.2 z m -57.4,36.5 c -11.4,7.6 -20.9,5.4 -30.7,5.4 l 9.7,-4.7 c 7,4.5 11.9,1.5 21,-0.7 z m 10.1,3.8 c -12.3,15.5 -37.9,5.2 -54.4,14 13.1,-15.7 32.2,-1.9 54.4,-14 z m -26.2,13.4 c -6.5,10.5 -26.6,6.6 -40,14.6 14.1,-15.7 22.7,-7.2 40,-14.6 z m -10.4,11.5 c -6.7,8.3 -11.9,14.3 -31.3,15 l 1.2,-5.8 c 10.7,0.1 19.7,-0.1 30.1,-9.2 z m -4.6,20.6 c -9.2,2.9 -17.8,7.2 -30.1,2.8 -0.1,17.5 19.3,6.1 30.1,-2.8 z m 2,27 c -17,10.5 -26.6,12.2 -31.7,7.8 2.8,16.7 22.5,7 31.7,-7.8 z m 9.4,11.9 c -6.1,12 -10.6,25.5 -25,29.9 l -6.7,-9.6 c 20.8,0.7 22.4,-12.6 31.7,-20.3 z m 4.6,17 c -4.5,11.9 -10,21.7 -19.6,21.7 12.5,11.3 18.3,-7.7 19.6,-21.7 z m 10.6,13.9 c -1.4,10.2 -2.3,27.1 -13.3,21.2 l -2.8,-3 c 10.1,3.2 12.7,-10.6 16.1,-18.2 z m 61.4,51 c 3.6,-0.4 0.1,-16 13.7,-0.2 l -4.7,-15 c -8.7,-8.8 -12.8,-7.4 -14.2,-3.8 -0.9,2.3 1.1,5.9 -1.6,6.7 z m 10.4,27.3 c 6.3,1.9 -0.5,-15.1 15,2.4 l -2.6,-6.2 c -13.8,-29.5 -13.8,-12.4 -16.2,-8.8 z m 23.3,34.1 c 1.8,-6 -10.4,-9 5.2,-12.6 l -8.1,-8.7 c -10.1,-8 -14.1,-6.4 -12.8,3.3 2.9,8.8 7.7,15.4 15.7,18 z m 21.5,-11.7 c 2.8,2.8 -0.2,6.6 1.1,8.3 1.6,2.3 5.2,0.5 6.7,3.3 l -6.2,3 c -15.6,-2.5 -21.1,-6.9 -13.7,-13.8 z m 5.1,-15.5 c 8.1,4.7 10.1,-1 10.8,-9.4 3.4,7.1 9.2,12.6 2.7,26 -3.7,-0.5 -8.3,4.7 -10,2.9 -1.9,-2 -0.9,-7.9 -3.1,-9.5 z m -19.3,-24.2 10.4,12.6 c 12.8,9.3 12.7,0.8 13.8,-5 l -8.2,-9.6 c -5.7,0.4 -1,10.3 -16,2 z m -14.1,-18.4 6,8 c 15,11.7 17.9,5.8 15.2,-1 l -2.6,-3.5 c -8.4,-5.7 -15.5,-8.8 -18.6,-3.5 z m -11.6,-15.7 c -2.5,-9.8 4.6,-11.7 14.6,-1.5 l 6.4,9.4 c -5.6,-0.7 -10.5,-5.6 -15.9,-1 z m -5.4,-7.7 c -1.8,-8.2 4,-11.6 11.2,-5.8 l -9.6,-16.4 -13,7.9 z" />
      <use xlink:href="#tiger-body-shape" style="fill:none;stroke:#666666;" />
      <path id="tiger-thigh" style="fill:none;stroke:#666666;" d="m 473.2,327.2 c 0.8,8.4 -1.7,11.2 -8.6,17.2 -4.6,3.9 -9.1,13.6 -10.6,19.6" />
    </g>
    <g id="tiger-front-leg">
      <path id="tiger-front-leg-fingers" style="fill:none;stroke:#666666" d="m 514.6,524.4 c -0.8,1.4 -1.3,6.1 0.5,9.2 m -10.7,-8.8 c -3.3,3.9 -9.4,3.6 -9.7,11.6 m -1.8,-16.7 c -4.7,3.5 -9.6,0.5 -13.4,3.7" />
      <path id="tiger-front-leg-claws" style="fill:#ffffff;stroke:#666666" d="m 531.7,528.4 c -0.9,-1.4 -3.2,-0.5 -4.6,1.3 -1.4,1.4 -2.3,5.6 -0.4,5.6 4.1,1.4 6.9,5.1 8.2,8.8 2.8,-5.6 1.4,-11.6 -3.2,-15.7 z m -31.5,14.5 c 0,-1.9 2.4,-2.8 4.2,-2.8 2.3,0 5.6,1.9 4.7,3.7 -1.9,3.6 -1,8.3 0.9,12 -6,-1.9 -9.3,-7 -9.8,-12.9 z m -20.1,-13.1 c 1.3,-1.3 3.6,0 4.5,1.9 1,1.9 1.4,6 -0.4,6 -4.6,0.5 -7.9,3.7 -10.2,7 -1.4,-6.1 1,-11.6 6.1,-14.9 z m -3.8,-20.3 c 1.3,0 2.3,2.4 2.3,4.7 -0.5,1.8 -2.8,5.1 -4.2,4.1 -3.7,-2.3 -8.3,-1.8 -12,-0.4 2.3,-5.6 7.4,-8.4 13.9,-8.4 z" />
    </g>
    <g id="tiger-head">
      <path id="tiger-nose" style="fill:#000000;stroke:none" d="m 436.1,152.8 c 0,0 1.3,0 2.3,-0.5 -1,-5.1 1.8,-4.6 3.7,-4.1 0.4,-0.5 1.8,0.4 1.8,0 0.5,-1 2.3,-3.3 1.4,-3.7 -1.8,-2.3 -7.9,-6 -11.6,-2.3 -1.1,4 0,7.3 2.4,10.6 z" />
      <path id="tiger-cheek" style="fill:none;stroke:#666666" d="m 492.4,165.3 c 0.9,4.6 4.1,10.5 7.8,9.2 -4.1,2.3 -8.2,1.3 -11.9,-2.3 -0.5,3.2 3,7.3 9,8.7 -4.1,3.3 -10.4,0.5 -12.2,-2.3 -0.5,1.9 3.2,8.4 6.4,9.3 -0.4,-0.5 -6.4,1.4 -12.5,-7 0.5,3.3 5.1,8.8 -2.3,11.2 0.9,-1.9 1.4,-5.1 -0.9,-7 m 18.9,-25.4 c 4.6,2.8 4.6,4.6 6,7.9 2.8,5.5 4.2,8.7 9.7,5.9 -1.3,4.7 -4.1,6.5 -11.1,5.1 -2.8,2.8 3.3,9.8 7,9.3 -2.8,3.2 -8.4,1.4 -12,-0.9 -1,4.1 4.1,13.4 7.8,13.9 -6.5,1.3 -16.1,-4.7 -16.6,-10.2 -1.8,2.3 0.5,7.4 4.6,11.5 -3.6,1 -11.1,-4.1 -11.5,-6.4 -1.4,1.4 -1,5.1 0.9,6.9 0.5,0.5 -4.6,0.5 -6,-6.5 -1.4,1.9 -1.9,7 -9.8,7 1.4,-1.9 2.4,-1 4.2,-5.1 -2.8,1.8 -8.3,2.7 -11.1,2.8 -3.7,0.1 -9.9,-1.1 -11.5,-2.4" />
      <path id="tiger-eye-stripes" style="fill:#000000;stroke:none" d="m 454.5,145.4 c -2.3,0.4 -4.5,3.2 -4.1,5.5 0.2,1.8 1.3,4.2 3.6,5.1 -3.6,-3.2 -0.9,-9.7 0.5,-10.6 z m 4.2,-1.9 c -6.5,4.7 -5.1,15.7 4.6,15.3 -8.8,-2.3 -7,-13.4 -4.6,-15.3 z m 8.8,28.7 c 4.1,3.2 7.9,4.3 12.5,2.3 4.2,-1.7 5.5,-6 4.6,-10.6 0,0 -0.9,5.5 -1.9,6.4 -1.8,1.9 -4.1,2.8 -6.4,3.2 -2.8,0.5 -8.8,-1.3 -8.8,-1.3 z m 13.9,-15.7 c -2.8,3.7 -6.9,7.3 -11.6,5.5 -2.8,-1 -5.1,-3.6 -8.4,-1.8 -0.9,0.5 -0.4,1.4 1.4,3.2 9.8,5.1 17.2,-1.8 18.6,-6.9 z m -17.2,9.7 c 0,0 3.3,4.1 5.6,5 2.3,1 5.5,1 7.8,0 1.9,-0.9 3.3,-1.8 4.2,-3.6 0.9,-2.3 0,-7.9 0,-7.9 0,0 -1.6,3.1 -2.8,4.2 -2,1.7 -3.7,3.4 -6.4,3.7 -2.8,0.2 -8.4,-1.4 -8.4,-1.4 z" />
      <g id="tiger-eye">
        <path style="fill:#666666;stroke:none" d="m 459.6,143.1 c -1,-1 -0.6,-1.4 -0.6,-1.4 l 0.2,-1 0.7,0.8 v 0 0 c 0,0 2.4,2.6 7.3,4.8 2,1 5.3,1.2 7.9,2.1 1.1,0.5 2.4,1.1 2.8,2.3 0.7,1.3 0.7,2.8 -0.1,4.8 -0.9,-0.7 -0.3,-2.4 -0.9,-4.1 -0.4,-0.8 -1.1,-1.2 -2.3,-1.6 -2.2,-0.8 -5.5,-1 -7.9,-2.2 -4.6,-2.1 -6.3,-3.5 -7.1,-4.5 z" id="path69" />
        <path style="fill:#ffffff;stroke:#666666" d="m 461.2,147.7 c -0.6,2 1.3,6.3 4.5,7.4 3.3,1.1 6.8,-1.5 7.4,-3.5 0.6,-2 -2.2,-2.5 -5.5,-3.6 -3.3,-1 -5.8,-2.3 -6.4,-0.3 z" id="path71" />
        <path style="fill:#333333;stroke:none" d="m 462.3,149.4 c -0.3,0.7 -0.3,1.5 0,2.3 0.3,0.7 0.8,1.3 1.4,1.6 0.7,0.3 1.5,0.3 2.1,0 0.7,-0.3 1.3,-0.9 1.5,-1.6 0.3,-0.7 0.3,-1.6 0,-2.3 -0.2,-0.7 -0.8,-1.3 -1.4,-1.5 -0.7,-0.3 -1.4,-0.3 -2.1,-0.1 -0.7,0.3 -1.2,0.9 -1.5,1.6 z" id="path73" />
        <path style="fill:#000000;stroke:none" d="m 465,149.3 c 0.6,0.3 1.1,1.1 0.7,1.9 -0.2,0.8 -1,1.1 -1.7,0.7 -0.8,-0.3 -1.1,-1.2 -0.8,-1.9 0.4,-0.7 1.2,-1 1.8,-0.7 z" id="path75" />
        <path style="fill:#ffffff;stroke:none" d="m 464.5,148.6 c 0.5,0.2 0.8,0.8 0.5,1.4 -0.1,0.6 -0.8,0.7 -1.3,0.5 -0.4,-0.2 -0.6,-0.8 -0.5,-1.3 0.4,-0.5 0.9,-0.7 1.3,-0.6 z" id="path77" />
      </g>
      <g id="tiger-ear">
        <path style="fill:#ffcc00;stroke:#666666" d="m 503.9,153 c 1,-2.3 3,-3.6 3.5,-4 2.4,-2.3 8.1,-3.2 16.5,-0.4 -0.9,1.9 -1.9,8.8 -3.7,13 -1.4,2.7 -3.4,6 -7,7.4 -2.7,1 -4.5,1.4 -7.4,1.3" id="path80" />
        <path style="fill:#666666;stroke:none" d="m 517.9,153.2 c -3.8,-0.4 -7.4,1.7 -9.3,3.7 -1.8,2 -2.3,5.1 -2.3,8.8 0,0 1.2,0.5 2.3,0.5 2.7,-0.1 4.6,-0.9 4.6,-0.9 -3,2.4 -5.9,2.7 -8.3,1.8 -0.8,-4.6 0.4,-9.1 2.8,-12 2.7,-3.2 7.4,-4.2 10.2,-1.9 z" id="path82" />
      </g>
      <path id="tiger-whiskers" style="fill:#000000;stroke:none" d="m 440.4,158.6 c -0.5,-0.4 -1.1,-0.4 -1.5,0.2 -0.4,0.5 -0.1,1.2 0.4,1.6 0.3,0.2 1.3,0.2 1.5,-0.3 0.4,-0.5 0,-1.2 -0.4,-1.5 z m 3.8,2.1 c -0.4,-0.3 -1.1,-0.3 -1.6,0.2 -0.3,0.5 -0.1,1.3 0.4,1.6 0.5,0.3 1.2,0.1 1.4,-0.3 0.5,-0.6 0.3,-1.2 -0.2,-1.5 z m 3.3,0.5 c -0.5,-0.3 -1.3,-0.2 -1.7,0.4 -0.3,0.4 0,1.3 0.4,1.5 0.5,0.4 1.2,0.2 1.4,-0.2 0.5,-0.6 0.5,-1.3 -0.1,-1.7 z m -5.1,-5.9 c -0.5,-0.3 -1.1,-0.1 -1.4,0.4 -0.4,0.5 -0.3,1.2 0.2,1.5 0.5,0.3 1.2,0.2 1.4,-0.4 0.5,-0.4 0.3,-1.1 -0.2,-1.5 z m 3.7,2 c -0.7,-0.4 -1.1,-0.3 -1.5,0.3 -0.3,0.5 -0.2,1.1 0.3,1.5 0.6,0.4 1.4,0.3 1.7,-0.2 0.3,-0.6 0.1,-1.2 -0.5,-1.6 z m 4.1,0.3 c -0.6,-0.3 -1.2,-0.2 -1.5,0.3 -0.5,0.6 -0.3,1.3 0.1,1.6 0.5,0.3 1.3,0.3 1.7,-0.3 0.3,-0.5 0,-1.3 -0.3,-1.6 z" />
    </g>
    <g id="tiger-front-arm">
      <use xlink:href="#tiger-front-arm-shape" style="fill:#ffcc00;stroke:none"/>
      <path id="tiger-front-arm-fingers" style="fill:none;stroke:#666666" d="m 365.3,283.2 c -13.7,-3.8 -12.1,-9.1 -17.3,-14.7 m 11.1,21.1 c -6.9,1.1 -10.2,0.7 -14.5,0.1" />
      <path id="tiger-front-arm-stripes" clip-path="url(#tiger-front-arm-clip)" style="fill:#000000;stroke:none" d="m 383.7,288 c 0.3,17.7 -11.7,28 -30.4,31.9 l 2.8,-8.9 c 15.6,-1.9 22.7,-8.7 27.6,-23 z m 15.7,-3.5 c 2.5,8.3 -1.1,23.5 -11.2,33 l -2.1,-5.3 c 4.8,-9.1 13.5,-11.8 13.3,-27.7 z m 14,-6.3 c 0.8,13.8 0.1,24 -11,28.4 l 1,8.6 c 13,-8.1 14.7,-26.6 10,-37 z m 16.4,15.8 2.7,8.2 -13.1,5.9 -0.3,-6.9 c 11.4,-3.1 7.4,-25.4 6.5,-30.3 3.8,6.4 4.8,15.1 4.2,23.1 z m 7.7,-32.2 c -1,9.5 5.3,23.1 0.3,25.6 0.9,5.5 1.4,9.9 4.8,6.3 -0.2,-4.8 2,-7.6 1.4,-12.7 -0.9,-6.7 -4.8,-10.6 -6.5,-19.2 z m 9.5,22.5 c 8.5,-1.3 9.1,-8.2 9,-13.7 -0.3,-10.3 -4.2,-22.9 -7.3,-31.6 1.3,16.3 4.6,33.9 -1.7,45.3 z m 13.3,-57.6 c -13.5,-1.6 -20.8,4.7 -24.2,9.9 -3.1,5 -3.7,16.2 1.3,21.3 -1.3,-7.2 0.4,-15.9 1.9,-18.3 4.9,-7.9 7.7,-10.7 21,-12.9 z" />
      <path id="tiger-front-arm-stripes2" style="fill:#000000;stroke:none" d="m 464.3,260.6 c 5.5,-8.5 0.2,-17.4 -0.5,-23.1 11.9,4.1 5.8,20 0.5,23.1 z" />
      <use xlink:href="#tiger-front-arm-shape" style="fill:none;stroke:#666666;"/>
      <path id="tiger-front-arm-claws" style="fill:#ffffff;stroke:#666666" d="m 337.3,294.1 c 1.6,-1.1 3.6,0.7 4.1,2.5 0.8,2.1 0.1,6.2 -1.5,5.8 -4.5,-0.6 -8.5,2.1 -11.5,5.1 0,-6.3 3.3,-11.1 8.9,-13.4 z m -0.4,-27 c 1.7,0.5 1.7,3.4 0.7,5.1 -0.9,1.7 -4,4.1 -5,2.6 -2.9,-3.5 -7,-4.1 -11.4,-4.1 3.8,-4.7 10.3,-5.7 15.7,-3.6 z m 22.4,-8.5 c 1.5,1.5 0.2,3.4 -1.4,4.7 -1.5,1 -5.8,1.4 -5.8,-0.5 -0.9,-4.1 -4.4,-7.3 -7.8,-9.1 6.1,-2 11.7,0.2 15,4.9 z" />
    </g>
  </g>
  <g id="elephant" style="fill:#999999;stroke:#333333;stroke-linecap:round;stroke-linejoin:round;stroke-width:1">
    <path id="elephant-tail" style="fill:#4d4d4d" d="m 19.69,464.1 c 0,0 6.16,0.3 6.87,-13.7 -0.25,-16.1 -13.88,-27.2 -13.88,-27.2 0,0 -0.35,16.8 -1.45,25.1 -1.829,8.5 3.54,15.4 3.54,15.4 z" />
    <path id="elephant-back-tusk" style="fill:#e6e6e6" d="m 301.1,169.9 c 21.1,3.8 44,2.9 62.5,-2.4 -13,12.2 -33.7,17 -60.6,13.5 0,0.6 -1.9,-10.8 -1.9,-11.1 z" />
    <g id="elephant-back-arm">
      <path d="m 205.6,233 c 3.3,11.9 40.7,17.2 42.5,29.3 3.9,23.8 1.8,37.9 7.6,54.8 1.1,3.4 2.9,5.4 4.6,6.8 1.5,1.1 2.8,5.4 4.7,7.3 2.8,3.5 3.6,7.5 4.6,10.8 1.2,3.9 4.2,6.2 2.7,9.9 -1,1.9 -2.9,3.1 -4.9,3.6 -3.3,0.9 -10.4,-1.2 -10.4,-1.2 -2.7,1.4 -14.7,0.5 -14.7,0.5 -2.6,-0.6 -7,0.2 -10.3,0.2 0,0 -6.3,-2 -7.8,-6.6 -2,-6.4 2.9,-23.4 1.5,-29.9 0,0 -2.3,-13.2 -4,-19.6 -3.3,-11 -65.3,-14.5 -65.3,-14.5 l -16.5,-37.1" id="path90" />
      <path style="fill:#4d4d4d" d="m 256.5,353.1 c 0.1,2.5 -3.8,4.6 -8.6,4.9 -4.9,0.2 -9,-1.5 -9.1,-4 -0.1,-2.4 3.7,-4.6 8.6,-4.8 4.9,-0.3 9,1.5 9.1,3.9 z" />
      <path style="fill:#4d4d4d" d="m 273.6,352.1 c 0.1,2.5 -3.7,4.6 -8.6,4.9 -4.9,0.2 -8.9,-1.5 -9.1,-4 -0.1,-2.4 3.8,-4.6 8.7,-4.8 4.8,-0.3 8.9,1.5 9,3.9 z" />
    </g>
    <g id="elephant-back-leg">
      <path d="m 109.2,421.7 c 0,0 11.3,7.4 15.7,16.4 5.7,11.5 14.5,32.4 13.3,41.7 -0.7,6.4 -3,22.4 -0.9,28.6 1.4,4.2 8,6 8,6 3.2,0 7.6,-1 10.1,-0.6 0,0 12,0.7 14.7,-0.7 0,0 7.1,2 10.7,0.9 1.8,-0.6 3.7,-1.8 4.5,-3.7 1.5,-3.4 0.6,-7.7 -0.7,-11.2 -1.7,-5.1 -8,-11.1 -11.6,-15.1 0,0 -3,-2.3 -3.5,-3.9 -2.8,-7.8 0.5,-24.1 0.2,-32.4 -0.2,-11.7 -3.5,-20.2 -3.4,-31.9 0.3,-4.9 2.9,-14.3 2.9,-14.3 3.8,-7.5 4.6,-17 3.6,-24.2 -4.3,-28.7 -36.2,-47.5 -58.3,-64.8 l -10.5,104.7 z" id="path97" />
      <path style="fill:#4d4d4d" d="m 169.4,512 c 0.1,2.4 -3.8,4.5 -8.7,4.6 -4.9,0.1 -8.9,-1.8 -9,-4.3 0,-2.4 3.9,-4.5 8.8,-4.6 4.9,-0.1 8.9,1.8 8.9,4.3 z" />
      <path style="fill:#4d4d4d" d="m 186.6,511.5 c 0.1,2.4 -3.9,4.5 -8.8,4.6 -4.9,0.1 -8.9,-1.8 -8.9,-4.3 -0.1,-2.4 3.9,-4.5 8.8,-4.6 4.8,-0.1 8.8,1.8 8.9,4.3 z" />
    </g>
    <path id="elephant-body" d="m 302.9,30.77 c 7.9,0.17 12,8.68 19.3,6.38 1.6,-0.53 3.5,-2.31 3.5,-2.31 2.2,3.36 -1.9,9.57 -9.3,8.16 0.6,4.43 -3.2,8.68 -5.9,7.97 0,0 -1.2,-4.96 -3.4,-5.67 -1.3,-0.71 -4.6,-1.42 -6.4,1.06 -2.6,3.72 -3.8,8.86 -0.1,14.18 5.7,9.75 16.8,15.47 28,29.76 14.5,19 20.2,41.9 20.2,55.4 -0.1,24.2 -12.8,40.2 -28.7,46.4 -17.9,7 -38,0 -48.4,-10.5 -10.1,7.8 -16.1,6.1 -21,2.4 -8.6,8.3 -18.5,13.2 -28.6,14.5 0,0 -6.4,5.4 -8.3,9 -3.5,6.7 -3.6,12 -3.5,19.5 -1.9,25 -4.2,51 -12,71.4 -10.1,26.1 -28.6,55.9 -47,75.9 -2.2,2 -12.6,11.6 -15.7,17.7 1.9,10.7 2.8,14.4 0.1,26.1 -5.5,17.5 -21.6,27.3 -27.1,44.9 -4.2,13.4 -7.4,28.8 -2.6,41.8 1.9,5.3 9.2,7.3 11.8,12.2 1.8,3.5 3.6,7.8 2.3,11.7 -0.7,2 -2.8,3.6 -4.8,4.4 -3.5,1.5 -11.8,0.6 -11.8,0.6 -2.9,1.9 -16.17,2.8 -16.17,2.8 -2.83,-0.1 -7.79,1.4 -11.17,1.8 0,0 -7.61,-0.9 -9.74,-5.2 -3.01,-6 2.48,-12.7 2.48,-19.4 0.18,-5 -2.13,-10 -2.31,-14.9 -1.05,-22 7.63,-48.1 3.02,-75.2 -1.95,-10.5 -3.89,-17.4 -7.62,-24.6 -5.14,-7.5 -14.18,-13.7 -14.18,-13.7 12.93,40.9 13.82,125.5 -25.17,112.3 -21.8138,-7.5 -2.31,-44.7 -6.03,-60.7 11.35,18.4 -5.85,48.2 10.1,51.4 23.41,4.6 20.56,-63.9 10.64,-93.9 -5.14,-15.6 -7.81,-24.5 -11.7,-32.3 -4.97,-10.1 -24.464,-56.1 -1.25,-110.5 11.53,-27.4 12.59,-47.4 31.38,-61.6 19.86,-15.3 26.41,-17.9 48.62,-29.4 7.4,-4 8.1,-12.6 13.9,-24.4 4.5,-2.8 11.2,-15.4 15.6,-18.4 9.6,-7 16.2,-18.49 29.4,-25.7 v 0 c 4.5,-2.52 9.2,-4.2 13.6,-4.92 22.8,-3.24 47.3,22.02 47.3,22.02 30.2,4.9 36.9,20.9 42.9,28.7 13,3 27.3,18.9 41.1,14.1 13.7,-4.8 11.9,-23.5 10.1,-31.3 -4.9,-20.3 -23.9,-36.28 -31.5,-55.73 -3.7,-9.39 -3,-24.99 6.5,-31.02 3.7,-2.47 7,-3.18 9.6,-3.18 z" />
    <path id="elephant-front-tusk" style="fill:#e6e6e6" d="m 250.7,183.9 c 4.8,3.7 10.8,5.5 20.9,-2.1 34.7,15 67.6,7 100.4,-3.5 -19.5,15.8 -77,37.9 -122.7,6.8 0.5,-0.4 0.9,-0.8 1.4,-1.2 z" />
    <path id="elephant-lip" d="m 260.6,187 c -4.1,0.6 -7.2,-1 -9.9,-3 -2.4,2.3 -4.8,4.3 -7.4,6.1 8.6,-0.6 17.9,4.7 20.9,15.6 1.6,-2.3 4,-12.8 -3.6,-18.7 z" />
    <path id="elephant-leg-crease" style="fill:none" d="m 135.6,392 c -5.4,-35.4 -33.7,-61.9 -42.95,-88.3" />
    <g id="elephant-eye">
      <path style="fill:#333333;stroke:none" d="m 240.7,136.7 c 1.4,-0.4 1.4,-1 1.4,-1 l 0.3,-1 -1,0.4 v 0 0 c 0,0 -3.7,1 -9.5,0.2 -2.4,-0.3 -5.5,-2 -8.3,-2.6 -1.3,-0.2 -2.7,-0.4 -3.8,0.5 -1.4,0.7 -2.3,2.1 -2.6,4.4 1,-0.1 1.5,-2 3.2,-3.2 0.7,-0.5 1.6,-0.5 2.9,-0.3 2.4,0.6 5.5,2.3 8.4,2.7 5.4,0.6 7.7,0.3 9,-0.1 z" id="path106" />
      <path style="fill:#ffffff" d="m 237.4,138.6 c 0.3,2.1 -2.5,6.3 -6.1,6.8 -3.7,0.6 -6.9,-2.7 -7.2,-4.9 -0.1,-2.3 2.9,-2.3 6.5,-2.8 3.7,-0.4 6.6,-1.4 6.8,0.9 z" id="path108" />
      <path style="fill:#333333;stroke:none" d="m 235.9,140.1 c 0.2,0.9 0,1.7 -0.4,2.4 -0.4,0.8 -1,1.3 -1.8,1.5 -0.7,0.2 -1.5,0.1 -2.2,-0.4 -0.7,-0.4 -1.1,-1.2 -1.3,-2 -0.1,-0.8 0.1,-1.7 0.5,-2.4 0.4,-0.7 1.1,-1.2 1.8,-1.3 1.5,-0.4 3,0.6 3.4,2.2 z" id="path110" />
      <path style="fill:#000000;stroke:none" d="m 233.1,139.5 c -0.7,0.3 -1.3,1 -1.1,1.8 0.2,1 0.9,1.4 1.7,1.1 0.9,-0.1 1.3,-0.9 1.1,-1.8 -0.1,-0.8 -1,-1.3 -1.7,-1.1 z" id="path112" />
      <path style="fill:#ffffff;stroke:none" d="m 233.8,138.9 c -0.6,0.2 -1,0.8 -0.8,1.4 0,0.6 0.7,0.8 1.2,0.7 0.5,-0.1 0.8,-0.7 0.8,-1.2 -0.2,-0.6 -0.8,-1 -1.2,-0.9 z" id="path114" />
    </g>
    <path id="elephant-ear-crease" d="m 184.5,169.1 c -7,-12.6 -15.7,-29.4 -28.2,-37.1 -15.7,-9.8 -34.3,-10.4 -49.1,5.1" />
    <path id="elephant-ear" style="fill:#b3b3b3" d="m 194.2,192.3 c -17.2,-10.2 -34.8,-48 -52.2,-57.7 -11,-6 -25.6,-4.2 -34.8,2.7 -2.9,2.1 -4.5,4.6 -5.8,8 -2.67,7.2 -13.97,28.8 -13.38,34.2 0.26,2.4 -1.32,4 -1.06,6.4 0.12,1.6 2.21,4.2 2.21,4.2 0,0 3.46,-3.1 5.62,-3.7 3.77,-0.9 11.71,-1 15.51,0.5 5.1,1.9 9.6,7.2 14.9,9.1 5.5,2 25.1,9 30.6,11.2 3.8,1.5 5.1,4.2 9,5.6 3.6,1.3 16.2,0.1 19.9,1 5.3,1.4 13.4,8 15.4,6.7 3.1,-4.1 7,-20.9 6.6,-22.7" />
    <g id="elephant-front-arm">
      <path style="fill:#999999" d="m 187,216.5 c 6.5,6 8.8,8.8 16.7,10.1 19.2,3.5 47.8,-7.2 55.6,-2.6 11.4,6.7 18.6,33.1 31.2,45.6 2.7,2.7 5.1,3.6 7.1,4.1 2.1,0.4 5.2,3.6 7.6,4.4 4.1,2 6.6,5.1 9,7.6 2.9,2.9 6.5,3.7 6.7,7.6 0.1,2.1 -1.1,4.2 -2.6,5.5 -2.5,2.3 -9.9,3.6 -9.9,3.6 -1.8,2.5 -12.9,7 -12.9,7 -2.6,0.6 -6.2,3.3 -9.1,4.6 0,0 -6.7,1.3 -9.9,-2.2 -4.7,-4.8 -7.8,-22.3 -12.1,-27.3 0,0 -8,-10.9 -12.4,-15.8 -7.9,-8.5 -58.6,17.4 -64.8,16.3 -10.2,-1.8 -20.9,-15.7 -31.3,-26" id="path119" />
      <path style="fill:#4d4d4d" d="m 307.6,301.7 c 1.1,2.2 -1.7,5.7 -6.1,7.8 -4.4,2.1 -8.9,1.9 -9.9,-0.3 -1,-2.2 1.7,-5.7 6.1,-7.7 4.5,-2.1 8.9,-2 9.9,0.2 z" />
      <path style="fill:#4d4d4d" d="m 323.1,294.3 c 1.1,2.2 -1.7,5.7 -6.1,7.8 -4.4,2 -8.9,1.9 -9.9,-0.3 -1,-2.2 1.7,-5.7 6.1,-7.7 4.5,-2.1 8.9,-2 9.9,0.2 z" />
    </g>
    <path style="fill:#4d4d4d" d="m 102.9,532.8 c 0.3,2.5 -3.52,4.8 -8.39,5.2 -4.87,0.5 -9,-1.1 -9.22,-3.6 -0.22,-2.4 3.55,-4.7 8.42,-5.2 4.87,-0.4 8.99,1.2 9.19,3.6 z" />
    <path style="fill:#4d4d4d" d="m 120,531.1 c 0.2,2.5 -3.5,4.8 -8.4,5.3 -4.9,0.4 -9,-1.2 -9.2,-3.7 -0.2,-2.4 3.5,-4.7 8.4,-5.2 4.9,-0.4 9,1.2 9.2,3.6 z" />
    <path id="elephant-cheek" style="fill:none" d="m 250.7,183.9 c -8.7,8.4 -18.4,13.3 -28.6,14.6 -9.3,1.1 -19,-0.8 -27.9,-6.2" />
  </g>
  <use id="shine" xlink:href="#shield" style="fill:url(#rg);stroke:#000000;stroke-width:3;" />
</svg>
