<?xml version="1.0" encoding="UTF-8"?>
<svg xmlns="http://www.w3.org/2000/svg" xmlns:xlink="http://www.w3.org/1999/xlink" width="600"
    height="660">
    <defs>
        <radialGradient id="rg" gradientUnits="userSpaceOnUse" cx="220" cy="220" r="405">
            <stop style="stop-color:#fff;stop-opacity:.3" offset="0" />
            <stop style="stop-color:#fff;stop-opacity:.2" offset=".2" />
            <stop style="stop-color:#666;stop-opacity:.1" offset=".6" />
            <stop style="stop-color:#000;stop-opacity:.13" offset="1" />
        </radialGradient>
        <path id="shield" d="m2,2v257c0,286 298,398 298,398c0,0 298-112 298-398V2z" />
    </defs>
    <use xlink:href="#shield" style="fill:#763b0f" />
    <g id="demon" style="stroke:#134d13;stroke-linecap:round;stroke-linejoin:round;">
        <g id="wing1">
          <path id="path22623" style="fill:#44d044;" d="m 252.3,171.5 c -7.4,0 -13,-9.4 -20.3,-24.6 -3.6,-15.3 -3.1,-16.9 -0.3,-35 -8.9,0.2 -10.6,-9.6 -8.8,-13.93 -48.9,2.93 -104.1,95.63 -129.09,161.93 -31.24,67.8 -32.9,131 -27.69,155.4 9.35,-7.8 11.69,-1.4 14.65,3.5 24.33,-46.4 83.43,-59.1 105.93,-50.8 2.9,-6.1 8.1,-7.1 18.7,3.5 5,-33.2 52.3,-50.3 76.5,-57.2 z"/>
          <path id="path22625" style="fill:#299c29;" d="m 215.7,101.4 c -44.8,22.9 -75.5,68.5 -107.6,136.7 -38.69,90.7 -41.15,130.3 -37.36,177.3 l 3.87,-0.7 c -4.22,-68.3 17.15,-126.2 37.89,-174.4 11.7,-24.2 40.8,-93.7 92.4,-126.6 3.2,-4.7 6.2,-1.6 9.3,1 0.5,1.7 0.9,3.3 1.4,5 -26.1,33.7 -38.6,73.3 -36.8,125.7 -0.3,46.5 4.7,86.5 12.6,121 l 5.2,0.1 c -8,-37.5 -12.8,-79.9 -11.7,-125.2 -4.5,-43.6 12.5,-90.4 32.2,-115.8 0.6,2.1 1.1,4.1 1.6,6.2 -10.7,9 -7.7,60.9 -5.7,75.3 3.1,21.9 31.1,130.7 31,129.9 l 4.9,-0.9 c -10,-30.7 -15.7,-67.9 -28.6,-102.5 -0.3,-30 -11.1,-55 0.5,-94.1 4.6,16.6 10.2,31.7 22.3,40.9 l 9,-6.9 c -8.3,3.8 -15.6,-10.4 -22.9,-24.6 z"/>
          <path id="wing-claws" style="fill:#258e25;" d="m 80.77,418.8 c -0.73,-7.9 -10.61,-11.3 -14.65,-3.5 2.64,8.4 4.51,14.9 16.42,17.1 -2.52,-3.5 -5.05,-4.2 -1.77,-13.6 z m 124.63,-47.3 c -9.2,-10.7 -15.4,-11.2 -18.7,-3.5 3.9,6.1 4.5,15.1 19.8,18.9 -3.8,-4.5 -7,-10.9 -1.1,-15.4 z m 17.5,-273.53 c 7.5,-3.83 14.9,-5.05 22.6,7.93 -5,1.2 -11.5,-0.1 -13.8,6 -7.2,0.4 -11.1,-7.5 -8.8,-13.93 z"/>
        </g>
        <use id="wing2" xlink:href="#wing1" transform="matrix(-1,0,0,1,600,-3.2)"/>
        <path id="foot-claws" style="fill:#258e25;" d="m 359.4,467.1 c 0.5,6.5 4.5,7.7 7.1,10.2 -0.3,-3.1 -2.3,-6 0,-10.3 -2.6,-1.5 -4.8,-0.4 -7.1,0.1 z m -10,-1 c -0.8,5.6 0.7,9.3 5.2,11.1 -2.7,-6.6 -0.6,-7.6 0.7,-9.5 -1.5,-1.1 -2.2,-3.2 -5.9,-1.6 z m -9.8,-3.7 c -4.2,1.7 2.7,14.3 2.2,11.4 -0.5,-2.7 2.4,-10.7 3.4,-8.2 -1.5,-3.1 -3.4,-3.9 -5.6,-3.2 z m -5.5,-10.5 c -4.1,2.8 -5.2,7 -3.3,12.6 1.9,-2.5 3,-5.4 7.1,-6.7 0,-4.2 -1.3,-4.9 -3.8,-5.9 z m -102.6,12.2 c -2.4,6.8 -0.1,10 2.8,12.7 0.6,-3.1 0.6,-6.6 3.2,-8.1 -0.8,-2.7 -3.7,-3.4 -6,-4.6 z m -9.6,-5.7 c -2.4,3.9 -1.1,8.2 1.3,12.8 0.6,-4.1 1.1,-7.1 4.1,-7.7 -1.1,-3.2 -2.8,-4.5 -5.4,-5.1 z m -6.1,-7.6 c -7,6.2 -4.1,9 -4.7,12.9 2.5,-2 2.7,-6.5 7.8,-6 0.4,-3.1 -1.1,-5.1 -3.1,-6.9 z m -0.1,-10.2 c -5.1,0.2 -7.4,4.3 -8.7,9.9 3.6,-3.2 6.4,-3.1 9.3,-2.9 0.6,-2.1 0.2,-4.5 -0.6,-7 z"/>
        <path id="hand-claws" style="fill:#258e25;" d="m 455.1,179.6 c 3.1,-0.2 3.9,-5 5.5,-8.3 0.4,3.6 2.4,6.1 -1.2,12.3 z m -5.6,-9.6 c 2.9,-1.2 4.8,-4.4 5.9,-9.1 0.8,3.6 2.9,5.6 0.8,12.6 -3.5,-0.5 -5.8,-1.6 -6.7,-3.5 z m -5.8,-9.5 c 2.6,-2.6 3.1,-6.3 3.9,-9.3 2.5,2.6 4.6,6.2 3.3,11.5 -5.5,0.8 -5.7,-1 -7.2,-2.2 z m -3.9,-0.9 c -3.8,0.5 -5.9,-0.3 -7.9,-1.2 2.2,-5.9 4.9,-6.5 7.5,-8.9 -0.4,4 -1.9,9.3 0.4,10.1 z m -17.4,12.3 c -1.8,-4.8 0.6,-6.7 1,-10 -7.8,3.6 -8,7 -7.8,10.7 z m -267.2,7.6 c -3.1,-0.2 -3.9,-5 -5.5,-8.3 -0.4,3.6 -2.4,6.1 1.2,12.3 z m 5.3,-10.4 c -2.9,-1.2 -4.8,-4.4 -5.9,-9.1 -0.8,3.6 -2.9,5.6 -0.8,12.6 3.5,-0.5 5.8,-1.6 6.7,-3.5 z m 6.3,-8.9 c -2.6,-2.6 -3.1,-6.3 -3.9,-9.3 -2.5,2.6 -4.6,6.2 -3.3,11.5 5.5,0.8 5.7,-1 7.2,-2.2 z m 3.5,-0.6 c 3.8,0.5 5.9,-0.3 7.9,-1.2 -2.2,-5.9 -4.9,-6.5 -7.5,-8.9 0.4,4 1.9,9.3 -0.4,10.1 z m 17.7,11.9 c 1.8,-4.8 -0.6,-6.7 -1,-10 7.8,3.6 8,7 7.8,10.7 z"/>
        <path id="body" style="fill:#33cc33;" d="m 263,238 c 3.3,11.1 9.1,27.3 10,33.4 -0.8,10.4 -5.6,16.1 -14.1,20.6 -28.8,27.7 -25.5,48.2 -33.1,59 -0.2,3 -5.9,4.2 -8.9,13.1 1,3 -0.7,6.4 -3.2,9.5 2.6,0.9 5.3,-0.7 7.4,-4.6 -0.3,3.9 0.9,3.9 2.4,5.4 1,-3.1 0.8,-5.3 3.7,-9.6 3.3,5.5 3.4,6.3 3.9,9.8 6.1,37.9 15.7,43 17.3,54.8 0.5,5.3 -0.4,9.4 -4.2,11 -2.7,1.7 -5.4,3.4 -11.5,3.2 -4,0.4 -6.6,-2.4 -12.6,-2.7 -1.9,-1.8 -3,-0.7 -4.4,-0.3 1.4,3.7 0.4,4.5 0.3,7.7 0.9,1.3 2.5,0.2 4.5,-0.6 l 4.5,0.3 -4.7,1 c -1.7,0.4 -3.9,-1.3 -5,1.9 3.3,1.5 3.3,4.3 3.6,6.8 1.4,0.3 2.7,0 3.8,-2.5 2,-1 4.1,-1.9 8.6,-2.6 -1,1.1 -3.3,2.5 -4.7,3.7 -3.1,-0.8 -3.6,0.8 -4.7,2.1 5,1.4 4.5,2.9 4.9,5.4 1.7,0.4 3.1,0.9 4.4,-3 1.6,-1.6 3.3,-3.2 6.6,-3.7 -3.5,3.9 -2.2,2.6 -2.7,3.4 -2.9,-0.3 -3.6,2.3 -3.6,3.3 2,1.4 4.5,1 5.9,4.9 1.4,-0.5 3.1,-0.3 3.4,-3.7 4,-1.8 6.5,-5.3 11.5,-6.4 3.2,-0.2 5.2,-0.5 7.7,-0.5 16.5,2.9 17.6,-7.5 15.2,-11.9 -0.2,-3.6 -7.4,-2.1 -8.7,-24.5 -1.6,-11.9 7.3,-31.3 5.8,-38.4 -0.1,-9.9 -4.7,-18 -8.1,-21.3 -3.6,-2.9 -2.1,-4.7 0.5,-6.3 15,-8.9 23.1,-15.2 32.3,-28.5 2.1,13.3 15.1,23.1 16.6,30.6 4,8.6 -0.9,12.6 -1,16.8 -0.3,5.6 4.9,7.7 2.6,14.3 1.6,-0.4 3.3,-0.8 4.5,-6.9 0.6,2 2.6,2.9 4.4,3.7 -0.6,-2.4 -1.6,-4.1 -0.9,-9.5 -0.8,7.4 31.7,46.4 36.6,50.8 5.4,4.2 1.1,13.6 0.9,14 -0.9,1.8 -4,5.1 -8.6,7.5 -1.6,1.6 -8.7,0.1 -13.9,2.1 -1.1,-0.7 -2.3,-1 -4.1,1.3 3.3,1.5 3.8,3.5 4,7.4 1.2,0.6 2.7,0.1 4.3,-1.7 2,-1.4 3.3,-2.2 5,-3.3 -1.1,1.3 -2.1,3.1 -3.8,3.4 -2.4,1.3 -5.4,2.3 -5,4.5 2.8,0.4 5.4,1 5.8,4.5 1.1,-1.4 2.7,0.6 3.4,-4.7 2,-1.9 3.9,-3.7 6.1,-4.4 -0.4,1.7 -0.9,3 -1.4,4.4 -3.4,-0.1 -3.9,1.5 -3.7,3.7 4,-1.7 4.6,0.6 6.9,2.6 1.3,-0.4 2.7,-0.7 2.2,-4.7 1,-2.4 2.7,-4.1 4.3,-5.9 l -0.8,3.5 c -0.7,1.8 -2.5,0.8 -2,5.9 2.8,-0.5 5.8,-1.9 8.4,0.6 0.4,-2 2.2,-1.8 1,-6.3 3.1,0.3 4.2,-8.3 10.6,-10.5 3.1,-1.3 8,-3.7 9.9,-6.9 6.4,-5.8 -1.9,-11.8 -4.7,-15.2 -4.8,-3 -10.8,-13 -13.1,-23.7 -0.9,-7.1 0.1,-20.6 -4,-28.4 -6.5,-15 -12.3,-12.1 -17.3,-18.5 -1.8,-3.3 -1.2,-11.3 1.8,-16.2 12.8,-33.7 1.8,-50.7 -6,-71.3 0.6,-10.8 -4,-6 1.8,-32.2 1,-6.1 3.7,-10.2 4.3,-16.8 9.3,18.7 10.8,20.3 23.9,27.4 3.7,3 9.5,8.9 11.9,12.1 1.7,2.8 4.8,6.1 10.2,2.5 20.3,-9.2 30.1,-52 36.9,-61.1 12.3,-3 10,-10.2 13.6,-11 2.8,-1 4.9,-2.2 8.7,-4.7 0.2,-0.2 3.6,0.7 3.4,-3.6 -1.9,-0.2 -3.9,-1.7 -5.8,-4.7 -0.9,0.9 -3.5,0.5 -2.6,3.7 l -5.3,2 c 0.7,-0.7 0.4,-0.2 6.9,-7.7 2,-0.3 4.2,-0.6 3,-4 -5.7,-0.4 -5.8,-2.3 -6.7,-4 -2.4,1.6 -2.2,3.2 -2.2,4.8 -4.9,2 -4.6,3.2 -7.1,5.3 l 7.3,-11.4 c 2.2,0.4 3.1,-1.9 3.5,-5 -2.9,0.1 -5.8,0.9 -8.4,-2.7 -2.2,0.7 -2.5,2.3 -2,4.4 -1.7,3.5 -3.5,8.7 -5.3,10.4 0.4,-3.3 0.8,-5.3 1.9,-9.3 2.2,-1 4.1,-4.4 2.8,-5.6 -3.1,0.4 -6.2,0.7 -8.9,-1.7 -2.5,2.3 -1.6,4.1 -1,6.1 -2.2,5.5 -2,14 -6,15.8 -0.1,-0.8 -0.4,-2.6 -0.9,-4.8 0.8,-2.5 -0.3,-3.1 -1.2,-3.9 -6.2,1.6 -5.6,0.8 -7.7,0.9 -1.7,2 -2.7,4 1.5,5.4 0,3.5 0.1,7.7 0.9,9.2 2.2,2.2 5.7,2.6 1.9,7.1 -5,4.7 -8.4,9.5 -12.8,13.9 -3.1,4.3 -9.1,5.4 -14.6,16.1 -5,-24.3 -19.4,-25.1 -20.4,-30 -7.8,-19.7 -10.7,-27.4 -30.3,-27.7 -4.2,0.3 -10.5,0.5 -12.4,-0.8 -1.9,-2.6 -5.6,-5.1 -5.1,-15.2 -2.5,-2 -39.1,-4.8 -46.7,1.2 0.4,16.9 -4.4,17.1 -9.1,18 -28.3,-1 -24.9,16.4 -29.2,24.5 -1,4.9 -15.3,5.7 -20.4,30 -5.4,-10.7 -11.5,-11.8 -14.6,-16.1 -4.2,-4.4 -7.8,-9.2 -12.7,-13.9 -3.8,-4.5 -0.3,-4.9 1.8,-7.1 0.8,-1.5 1.1,-5.7 1,-9.2 4.2,-1.4 3.2,-3.4 1.6,-5.4 -2.2,-0.1 -1.6,0.7 -7.8,-0.9 -0.9,0.8 -2,1.4 -1.2,3.9 -0.4,2.2 -0.8,4 -0.9,4.8 -4,-1.8 -3.9,-10.3 -5.9,-15.8 0.4,-2 1.4,-3.8 -1.1,-6.1 -2.7,2.4 -5.8,2.1 -8.9,1.7 -1.3,1.2 0.6,4.6 2.7,5.6 1.1,4 1.7,6 2,9.3 -1.8,-1.7 -3.6,-6.9 -5.4,-10.4 0.6,-2.1 0.3,-3.7 -2,-4.4 -2.5,3.6 -5.5,2.8 -8.3,2.7 0.4,3.1 1.2,5.4 3.5,5 l 7.4,11.4 c -2.6,-2.1 -2.3,-3.3 -7.3,-5.3 0.1,-1.6 0.2,-3.2 -2.1,-4.8 -1,1.7 -1.1,3.6 -6.7,4 -1.3,3.4 0.9,3.7 3,4 6.4,7.5 6.1,7 6.9,7.7 l -5.3,-2 c 1,-3.2 -1.6,-2.8 -2.6,-3.7 -2,3 -3.9,4.5 -5.8,4.7 -0.2,4.3 3.2,3.4 3.4,3.6 3.7,2.5 5.9,3.7 8.7,4.7 3.6,0.8 1.3,8 13.5,11 6.9,9.1 16.6,51.9 37,61.1 5.4,3.6 8.4,0.3 10.2,-2.5 2.4,-3.2 8.2,-9.1 11.9,-12.1 13.1,-7.1 14.5,-8.7 24.1,-27.4 1,5.6 1.1,11.3 4.6,16.3 z"/>
        <path id="legs" style="fill:none;" d="m 361.4,461.2 c 2.2,-0.7 3,-0.2 3.9,0.4 m -12.8,0.4 c 1.5,-0.4 2.9,-0.4 3.4,1.2 m -13.2,-5 c 1.1,0.8 3.8,0.1 2.7,2.8 m -7.2,-10.4 c 0.9,0.9 1.9,1.6 2.2,3.9 m 25.9,-22.3 c 1.5,2.9 2.8,5.9 1.5,9.5 m -22.6,-63.3 c 3.1,12 7.6,20.9 13.2,27.3 m -35.7,-36.9 c -0.4,2.5 -1.1,5 0.5,7.4 m -3.9,1.9 c -0.3,2.1 -0.4,3.7 0.4,3.9 m -84.6,78.5 c 1,0.6 2.8,0.6 3,2.6 m -11.5,-6.8 c 2.3,0.7 3.1,1.3 3,2.1 m -9.3,-9.4 c 2.4,1.7 1.6,2 1.8,2.7 m -2,-10.8 c 0.6,1.8 1.1,3.7 -0.6,4.2 m 29.5,-0.7 c 1,0.8 2,-2.1 3,-7.9 m -2.4,-59.7 c 0.1,18.1 2.5,24.5 5,30.2"/>
        <g id="tale">
          <path style="fill:#33cc33;" d="m 357.3,302.6 c 2.3,6.4 7.7,2.4 12.2,1.5 l 24.9,-24.2 c 8.2,-5.6 20.9,-5.7 31.9,-2.3 9.9,3.6 27.5,21 9.3,45 -9.6,11.3 -22.9,11.9 -23.6,25.1 -0.4,15.1 15.1,10.1 19.7,41.2 -7.7,30.4 -24.4,21.4 -25.7,24.9 -1.9,4.5 1.9,7.4 0.3,11.8 l -3.2,-5.5 c 0,0 -3.8,0.7 -2.3,-11 3.1,-4.9 10.8,-3.7 11.6,-9.7 1.9,-1.1 -8,-13.9 3.4,-24.8 -4.7,-7.4 -16.9,-12.3 -15.4,-33.3 9.8,-16.7 33.5,-22.7 30.4,-41.7 -3.1,-9.7 -10.5,-15.6 -31.2,-9.7 -10.9,7.2 -21.1,26 -32.7,29.4 -6.8,1.5 -7.3,-0.5 -9.6,-1.5 z"/>
          <path style="fill:#33cc33;" d="m 413.2,412.6 c -1.7,2.2 -2.8,5.5 -0.8,15.5 -3.5,-2.9 -5.1,-7.8 -6.5,-14.1 0.9,-1.3 4.2,-1.9 7.3,-1.4 z"/>
          <path style="fill:none;" d="m 403,420 c -0.7,-1 -1.6,-5.6 1.3,-7.6 2.4,-0.9 9.6,-4.2 13.4,-8.7 1.5,-2.6 3.4,-3.5 2.8,-11.1"/>
          <path style="fill:#33cc33;" d="m 403.4,406.5 c -3,-5.6 8.9,-7.1 7.5,-14.4 0.1,3.5 3.9,5.7 0.5,10.5 -3.8,2.3 -5.4,2.7 -8,3.9 z"/>
        </g>
        <path id="head" style="fill:#33cc33;" d="m 291.7,87.54 c -1.3,-3.07 -0.4,-6.78 -5.6,-9 -1.9,7.82 -6,7.66 -9.4,10.03 l -8.7,-4.26 c 0.3,10.42 -1.4,14.44 -1.5,20.09 l -4,23.3 c 2.8,12 -2.4,12.6 -3.9,18.4 l 6.2,-3.9 c -4,5.9 -1.7,4.9 0,4.5 -2.8,5.2 -4.6,9 1,4.7 -6.5,9.8 -1.2,5.9 1.9,4.6 -6.4,15 0.7,8.4 2.4,10.5 -0.5,10.1 2.5,3 4,3.9 -0.6,3.1 -1.7,6.2 -0.2,9.3 2.5,-1.1 4.7,-2.2 6.7,-3.3 1,3.1 2.4,12 6.4,11.6 1.7,0.1 3.7,-5.3 5.5,-6.8 1.5,6.5 4.9,9.4 8.6,11.8 8.6,-5.7 4.7,-7.3 7.8,-11.7 2.3,3.7 4.5,5.3 7.3,6.3 5.8,-5.5 2.9,-8.2 4.2,-12.2 4.3,3.6 5.8,3.7 7.6,4.3 1.6,-3.2 -0.8,-6.7 -1.1,-10.7 1.6,1.7 3.2,3.7 5.3,1.7 0.2,-1.2 1.3,-0.8 0,-4.5 1.3,0.4 3.8,0.2 5.2,-0.4 -2.3,-5 -3.4,-5.4 -3.1,-7.4 1.3,0.4 2.6,1.1 3.9,0 -1.6,-2.7 -0.8,-3.9 -1.1,-5.7 2.2,1.3 2.7,0.8 3.3,0.7 -4,-2.6 -2.7,-4.6 -2.6,-6.7 2.8,-7.6 -3.4,-6.3 0.4,-20 l -3.4,-19.4 v -12.18 c 1.9,-6.55 -8.8,-6.47 -14.1,-9.15 -2.5,-1.66 -5.1,-3 -5.6,-8.21 -6,2.84 -3.6,6.47 -4.9,9.78 -1.1,-2.44 -2.2,-4.97 -4.3,-7.5 -1.6,2.53 -1.1,3.64 -1.3,5.21 -0.5,-2.92 -1.3,-5.84 -3.9,-8.28 -2.8,4.26 -2.7,6.71 -3,9.47 -0.4,-3 -1.2,-5.05 -2.2,-6.47 -3.1,4.5 -3.1,5.68 -3.8,7.57 z"/>
        <path id="ear2" style="fill:#33cc33;" d="m 333.7,108.5 c 4.3,-3.6 5.1,-9.04 14.2,-9.98 -6.9,6.78 -5.2,17.48 -6.3,22.68 -0.8,1.9 -1.6,3.9 -6.1,4.4"/>
        <path id="mouth" style="fill:#5cd65c;" d="m 275.7,158.5 c 18.2,-5.5 30.4,-6.9 49.8,0.5 1.6,-1.3 3.8,-2.2 1.8,-5.5 -19.6,-16.7 -47,-7.9 -52.1,-0.1 -2.5,1.3 -1.9,5 0.5,5.1 z"/>
        <path id="teeth" style="fill:#258e25;" d="m 306.4,150.3 c -1.9,-2.3 -2.6,-4.2 -3.3,-6.2 l 4.1,0.8 c 0,1.3 -0.1,2.5 -0.8,5.4 z m 4.8,4.2 3,-4.1 c 0.7,0.6 1.1,3 1.4,5.5 -1.5,-0.4 -3,-0.8 -4.4,-1.4 z m -18.2,-9.5 c 0,1.9 0.6,3.2 0.8,5.3 1.7,-2.3 3,-3.9 2.9,-5.6 z m -7.1,10.5 c 0.2,-0.5 0.9,-6.1 1.3,-5.5 0.4,0.6 3.1,4.5 2.7,4.8 z"/>
        <path id="ear1" style="fill:#33cc33;" d="m 264.7,125.6 c -4.5,-3.3 -2,-11.6 -4.5,-14.8 -0.7,-4.2 -2.8,-8.3 -4.8,-12.28 5.2,0.55 9.1,3.28 11.7,7.58"/>
        <path id="face" style="fill:none;" d="m 265.5,118.6 c 2.1,-16.5 -5.5,-15.4 -10.1,-20.08 m 18.6,3.78 c 8.6,-5.52 17.4,7.3 22.2,-1.6 m 30.6,2 c -8.4,-5.76 -17.7,6.6 -22.1,-2.3 m 3.2,-5.51 c 2,-2.45 4.8,-2.69 7.7,-3 m -28.4,-0.95 c 3.8,0.1 6.4,1.74 8.6,3.87 m 2.2,17.39 c -1.8,3.3 -4,6.6 -2.1,9.4 m 17.2,4.6 c 4.9,-0.8 3.3,9.4 7.8,8.7 m -9.9,-10.9 c 0.9,3.6 3.2,2.9 3.6,5.6 -0.3,3.3 -1.6,2.3 -2.7,2.9 m -23.8,-6.4 c -3.9,-1.1 -3.5,10.1 -7.8,8.6 m 11.2,-11.1 c -0.6,2.8 -3.9,2.6 -4.3,5.9 0.3,3.3 1.8,2 3,2.6 m 8.1,-7.6 c 3,-1.2 4,-0.4 5.6,-0.2 m -11.7,6.9 c 3,0.5 2.6,4.5 4.7,4.5 5.4,1.7 5.7,0.4 7.9,0 1.9,-1 2.6,-4.7 5.3,-4.8 m -9.4,8 0.3,3.4 m -29.8,-3.8 c -1.5,1.7 -2.8,3.4 -2.6,5 m 59.7,-5.8 c 1.7,1.3 4.3,2 4,4.8 m 1.3,-25.7 c 1.1,11.2 -1.1,10.9 -2.5,13.1 m -62.5,-12 c -0.9,5.4 -0.2,9.4 1.6,12.6 m 8.3,32.3 c 12.8,-8 27.8,-8.1 44.4,-1.1 m 7.6,-59.8 c 2.8,2.9 1.3,6.1 1.7,8.9 m -61.4,-8.7 c -2.7,3.8 -1.7,5.8 -1.6,8.3 m 68.6,11.4 c -2.6,-18.3 5.4,-18.5 10.1,-23.28"/>
        <path id="horns" style="fill:#258e25;" d="m 318.6,88.1 c -1.7,8.05 5.3,9.39 6.9,9.79 9.7,-6.4 16.5,-15.16 5.9,-29.37 -1.5,6.95 -0.2,15.31 -12.8,19.58 z m -35.2,-0.32 c -0.3,6.79 -3.5,9.32 -7.8,10.18 -14,-6.31 -12.5,-19.26 -6,-29.76 1.2,7.5 -0.4,15.71 13.8,19.58 z"/>
        <path id="eyes" style="fill:#5cd65c;" d="m 274.6,111.6 c 1,-1.2 4,-5.1 9.5,-4.6 3.5,0.6 7.4,3.9 8.2,6 -2.5,1.6 -5.5,1.3 -8.9,1.9 -3.9,-0.9 -7.5,-0.2 -8.8,-3.3 z m 33.6,0.4 c 0.7,-1.2 3.5,-5.5 9,-5.5 3.6,0.4 7.7,3.4 8.7,5.4 -2.3,1.8 -5.3,1.8 -8.7,2.6 -4,-0.6 -7.5,0.4 -9,-2.5 z"/>
        <path id="pupils" style="fill:#258e25;" d="m 285.1,110.9 a 1.156,1.561 0 0 1 -1.2,1.6 1.156,1.561 0 0 1 -1.2,-1.6 1.156,1.561 0 0 1 1.2,-1.6 1.156,1.561 0 0 1 1.2,1.6 z m 32.1,-0.4 a 1.156,1.561 0 0 1 -1.2,1.6 1.156,1.561 0 0 1 -1.2,-1.6 1.156,1.561 0 0 1 1.2,-1.6 1.156,1.561 0 0 1 1.2,1.6 z"/>
        <path id="tunic" style="fill:#258e25;" d="m 271.8,273 c 2.5,-1.5 3,1.6 5.5,4.5 15.3,5.4 41.1,3.4 53.2,2.7 10.7,-1.5 11.6,-3 17,-6.3 5,0.5 3.1,4.9 3.4,6.6 2.5,5 4.4,10.4 4.5,12.4 4.8,12.3 4.1,13.1 2.1,19 -5.5,-4.4 -11.7,-21.4 -16.3,-19.9 -8.3,0.4 -5.7,7.8 -10,11.1 -2.9,3.4 -6,7.1 -7.6,12.3 -8,30.4 -19.5,34.1 -20.5,55.1 -6.4,-0.2 -17.1,-12.7 -16.8,-19.7 3,-13 0.9,-22.2 -0.9,-29.3 -3.1,-10.6 -2.6,-17.5 -13.4,-34 -2.8,-3.2 -1,-11.6 -0.2,-14.5 z"/>
        <path id="tunic-folds" style="fill:none;" d="m 313,306.6 c -2.7,2.2 2.4,10.3 -0.7,20.3 -0.4,6.9 -12.6,20.4 -8.3,36.4 m -19.1,-70 c 3.4,9 8.8,12.6 11.5,13.7 5,-0.2 14,-9.7 23.8,-15.2 3.8,-4.4 18.3,-4.3 30,-11.2 m -64.7,4.9 c 4.3,2.4 10.8,3.8 15.2,3.7 8.5,-0.6 23.3,-6.4 31.8,-8.8"/>
        <path id="upper-body" style="fill:none;" d="m 305.5,248.4 c 0.7,5.3 0.4,7.7 0,10.1 m 1.1,-32 c 3,5.8 9.1,7.7 15.4,9.5 1.1,3.2 3.4,5.5 5.8,7.6 m -48.9,1.4 c 3.3,-4 8.7,-6.6 10.6,-11.2 6.2,-0.2 10,-3.7 13.7,-7.3 m -14.5,35.6 -1.6,12.2 m 32.5,-11.2 1.1,11.2 m -34.6,-25.6 c -0.2,14.1 8.3,18.4 19.4,9.8 7.6,8.4 18.3,7.2 16.4,-9.6 m -31.1,-3.5 c 4.2,2.6 8.9,2.7 14.6,-0.4 9.2,5.1 11.6,2.5 16.1,2.1 m -21.8,-52.8 c -2.2,15.3 1,19.5 2.8,26.6 m 4.9,-29 c 10.2,-5.8 18.8,-4.1 27.5,-3.6 m -57.5,0.5 c 5.7,-0.5 10.7,-0.1 14.3,2.4 m -21.1,-12.3 c -3.6,2 -4.9,4 -6.4,6 m 111,51.6 c -7.1,-4.3 -13.1,-10.3 -17.2,-19.8 m -9.4,-11.3 c 1,5.6 1.6,11.7 3.5,16.3 m 39.8,1.9 c -1,3.3 -0.9,5.6 -0.1,7.3 m 41.5,-56.5 c 0.8,-0.1 1.7,0.1 2.7,1.4 m 2.5,2.5 c 1.2,0 2.6,-0.1 3.5,2 m 3.2,3.2 c 1.4,0.7 2.7,1.6 1.7,2.4 m -22.1,14.1 c -0.4,3.3 -1.8,5.3 -4.3,6.2 m 5.7,-9.5 c -0.6,0 -2.6,-3.1 -2.4,-3.7 m 8.1,7.5 c -1.6,0.4 -2.3,-0.7 -2.9,-1.7 m -0.8,-17.1 c 1.8,2.8 2.3,5.4 1.2,7.8 m 7.3,-6.3 c -0.5,3.7 -2.4,6.4 -4.6,8.8 m -12.9,-15.4 c -0.9,0.4 -1.8,0.8 -2.7,0.7 m 38,7.2 c -1.2,0.3 -1.7,-1.1 -2.2,-2.2 m -2.2,-6.7 c -1.5,-0.3 -2.2,-1.1 -2.1,-2.2 m -11.6,-8.7 c -1.1,2.2 -5.6,-0.7 -5.6,-0.8 m 14.3,2.1 c -1.4,0.7 -2.7,-0.1 -3.8,-2 m -206.2,72.5 c 7.1,-4.3 13.1,-10.3 17.2,-19.8 m -66.8,-16.7 c 0.4,3.3 1.8,5.3 4.3,6.2 m -5.7,-9.5 c 0.6,0 2.6,-3.1 2.4,-3.7 m -8.1,7.5 c 1.6,0.4 2.3,-0.7 2.9,-1.7 m 0.8,-17.1 c -1.8,2.8 -2.3,5.4 -1.2,7.8 m -7.3,-6.3 c 0.5,3.7 2.4,6.4 4.6,8.8 m 81.7,13.3 c 0.8,2.4 -1.1,17.3 -1.5,16.4 m -40.1,1.9 c 1,3.3 0.9,5.6 0.1,7.3 m -41.4,-56.5 c -0.8,-0.1 -1.7,0.1 -2.7,1.4 m -2.5,2.5 c -1.2,0 -2.6,-0.1 -3.5,2 m -3.2,3.2 c -1.4,0.7 -2.7,1.6 -1.7,2.4 m -7.6,-1.4 c 1.2,0.3 1.7,-1.1 2.2,-2.2 m 2.1,-6.7 c 1.5,-0.3 2.2,-1.1 2.1,-2.2 m 11.8,-8.7 c 1.1,2.2 5.6,-0.7 5.6,-0.8 m -14.5,2.1 c 1.4,0.7 2.7,-0.1 3.8,-2 m 22.2,12.6 c 0.9,0.4 1.8,0.8 2.7,0.7"/>
        <path id="tongue" style="fill:#258e25;" d="m 300.5,152.7 c 2.9,0.2 5.4,-1.1 8.5,-1.3 1.1,1 2.9,1.6 2,3.6 -1.7,15.1 -6.3,14.8 -7,15.6 -2,0.4 -3.6,1.6 -6.6,-0.2 -5,-3.2 -7.1,-8.5 -7.1,-15.4 0.3,-1.5 0.9,-2.9 3.3,-3.5 2.7,0.4 4.2,1.4 6.9,1.2 z"/>
        <path id="tongue-fold" style="fill:none;" d="m 300.3,161.9 0.2,-9.2"/>
     </g>
    <use id="shine" xlink:href="#shield" style="fill:url(#rg);stroke:#000000;stroke-width:3;" />
</svg>