<?xml version="1.0" encoding="UTF-8" standalone="no"?>
<svg
   xmlns:dc="http://purl.org/dc/elements/1.1/"
   xmlns:cc="http://creativecommons.org/ns#"
   xmlns:rdf="http://www.w3.org/1999/02/22-rdf-syntax-ns#"
   xmlns:svg="http://www.w3.org/2000/svg"
   xmlns:xlink="http://www.w3.org/1999/xlink"
   xmlns="http://www.w3.org/2000/svg"
   version="1.1"
   width="832"
   height="418.8"
   viewBox="7920 5620 2080 1047">
  <title>Map of Ulthos - Made by Abjiklam</title>
  <desc>
    A map of Ulthos from "A Song of Ice and Fire".
    This map covers the following coordinates (parentheses indicate repeating digits):
     - from 10.0°N to  1.897(72)°S
     - from 60.0°E to 83.(63)   °E
  </desc>
  <metadata>
    <rdf:RDF>
      <cc:Work rdf:about="">
        <dc:format>image/svg+xml</dc:format>
        <dc:type rdf:resource="http://purl.org/dc/dcmitype/StillImage" />
        <dc:title>Map of Ulthos</dc:title>
        <dc:date>07 July 2021</dc:date>
        <dc:creator>
          <cc:Agent>
            <dc:title>Abjiklam &lt;abjiklam@gmail.com&gt;</dc:title>
          </cc:Agent>
        </dc:creator>
        <dc:description>
          A map of the Known World from "A Song of Ice and Fire".
          This map covers the following coordinates (parentheses indicate repeating digits):
           - from 10.0°N to  1.897(72)°S
           - from 60.0°E to 83.(63)   °E
        </dc:description>
        <cc:license rdf:resource="http://creativecommons.org/licenses/by-nc-sa/4.0/" />
      </cc:Work>
      <cc:License rdf:about="http://creativecommons.org/licenses/by-nc-sa/4.0/">
        <cc:permits rdf:resource="http://creativecommons.org/ns#Reproduction" />
        <cc:permits rdf:resource="http://creativecommons.org/ns#Distribution" />
        <cc:requires rdf:resource="http://creativecommons.org/ns#Notice" />
        <cc:requires rdf:resource="http://creativecommons.org/ns#Attribution" />
        <cc:prohibits rdf:resource="http://creativecommons.org/ns#CommercialUse" />
        <cc:permits rdf:resource="http://creativecommons.org/ns#DerivativeWorks" />
        <cc:requires rdf:resource="http://creativecommons.org/ns#ShareAlike" />
      </cc:License>
    </rdf:RDF>
  </metadata>
  <style>
* {
  stroke-linejoin: round;
  stroke-linecap: round;
}

#guides {
  display: none;
}

.ocean,
.lake {
  fill: #c6ecff;
}

#bleeding-sea,
#sea-of-sighs {
  fill: #ffc6d3;
}
#poison-sea {
  fill: #b6c4d2;
}

.land,
.river,
.lake {
  stroke: #0978ab;
  stroke-width: 2;
}

.river {
   fill: none;
}

.land {
  fill: #e0e0e0;
}

.major-border,
.minor-border {
  fill: none;
  stroke: #646464;
}
.major-border {
  stroke-width: 12;
}
.minor-border {
  stroke-width: 6;
}

/* Colors
  Dark grey: #e0e0e0
  Light grey: #f5f5f5
  Yellow: #feffe9
  Red: #c12838
*/

#ulthos {
  fill: #feffe9;
}
  </style>
  <defs>
    <pattern id="major-grid" x="2640" y="6500" width="880" height="880" patternUnits="userSpaceOnUse">
      <rect x="0" y="0" width="880" height="880" style="fill:none;stroke:#888888;stroke-width:6;"/>
      <circle cx="440" cy="440" r="6" style="fill:#888888;stroke:none;"/>
    </pattern>
    <pattern id="minor-grid" x="2640" y="6500" width="88" height="88" patternUnits="userSpaceOnUse">
      <rect x="0" y="0" width="88" height="88" style="fill:none;stroke:#888888;stroke-width:2;"/>
      <circle cx="44" cy="44" r="3" style="fill:#888888;stroke:none;"/>
    </pattern>
    <pattern id="decimal-grid" x="2640" y="6500" width="8.8" height="8.8" patternUnits="userSpaceOnUse">
      <rect x="0" y="0" width="8.8" height="8.8" style="fill:none;stroke:#888888;stroke-width:1;"/>
    </pattern>
  </defs>
  <g id="ocean" class="ocean">
    <rect width="10000" height="6667" />
  </g>
  <g id="land" class="land">
    <g id="essos">
      <path id="essos-mainland" d="m 10020,5719 h -20 l -5,-1 -11,8 v 4 l -4,7 -6,3 v 18 l -3,3 -12,-3 -5,5 3,3 -2,7 h 4 l -1,4 -14,9 -10,-1 -6,6 -8,-1 -6,6 2,8 -6,2 2,10 -14,-1 -5,-2 -7,3 -2,3 -8,2 -4,-6 4,-4 6,1 1,-12 10,-14 1,-8 -8,-8 -8,-2 -6,-9 -6,4 -6,-1 v -8 l 3,-5 -1,-9 5,-2 1,-13 -3,-5 -4,-4 v -4 l 5,1 -1,3 6,2 v 4 l 4,6 6,-1 5,-5 -1,-9 6,1 -5,-7 -6,1 -10,-11 3,-3 v -4 l 6,-3 4,3 h 8 v -10 l 8,-5 v -8 h -6 l 2,-4 -7,-2 -11,10 v 3 l -6,2 h -19 l -9,7 -1,5 -11,7 -11,-1 5,16 h 7 l 3,8 -8,9 3,7 -8,3 -1,4 -21,4 -5,9 5,5 -4,7 -14,8 -11,-3 h -9 l -12,10 2,6 -10,4 -4,10 -8,4 1,5 6,5 -2,3 v 9 l 4,5 -6,5 -1,5 -11,7 -9,-13 -10,3 -1,-9 -16,-3 -9,3 -9,-4 3,-4 -3,-10 -7,5 -11,1 -2,11 -11,15 -5,6 -2,-2 -2,3 -7,1 -1,5 6,-1 1,4 -6,3 -6,9 v 8 l 5,2 v 5 l -17,7 -7,-2 -3,4 h -8 l -7,2 v 4 l -2,3 5,10 -11,7 3,15 -12,2 -10,4 -12,-1 -1,-3 9,-1 2,-5 5,-2 6,-9 1,-7 -4,-10 5,-7 4,1 5,-3 -3,-9 4,-3 v -4 l -7,3 h -4 l -11,8 h -8 l -1,-2 -11,-1 -6,4 -15,-1 -15,16 -15,4 2,7 -10,5 10,6 8,-1 -2,6 2,4 -4,9 -5,-3 -6,2 -10,7 v 7 l -10,4 1,7 h 6 l 1,6 -13,4 -2,8 3,5 -22,8 -2,11 -17,-1 h -18 l -10,-5 -10,7 -11,-3 -5,6 -6,-2 -2,-14 -7,1 1,6 -5,2 -3,-1 -2,2 5,5 7,2 v 4 l 11,1 -2,9 -7,8 -1,5 -3,1 1,4 2,3 -5,2 -14,1 -6,4 5,8 h 4 l -5,10 -10,7 -5,11 -13,1 -7,4 v 7 l -8,7 -8,3 -3,7 -9,-6 -4,6 h -5 l -1,3 -10,3 -5,1 1,6 1,8 -14,12 1,4 -9,5 3,8 h -10 l -1,-8 -16,-3 -2,-3 -6,1 -2,3 h -13 l -9,-5 -18,-1 -7,5 v 7 h -6 l -8,3 h -9 l -8,3 h -7 v 6 l 16,7 -6,5 2,3 -1,2 3,1 -1,3 -9,1 -3,6 -16,-2 -5,4 -8,-1 -1,3 -9,-1 -5,-4 -14,-1 -5,5 h -11 l -4,6 -8,2 -8,-4 -3,6 3,2 -3,4 1,4 10,3 -1,2 -9,3 v 5 l -8,5 1,5 -10,4 -6,-3 -18,1 1,4 -16,1 -5,-3 h -14 l 1,5 -13,1 -2,-4 -13,-3 v -11 l 8,-7 9,-4 -6,-4 -1,-11 6,-3 h 5 l 5,-6 -3,-7 2,-5 -5,-12 3,-2 v -5 l 13,-3 1,-12 -3,-5 4,-2 7,-13 9,-1 10,-8 -2,-5 -4,-1 1,-3 h 6 v -6 l 4,-2 -5,-7 -2,-11 6,1 6,-5 v -10 l -7,-5 -3,-6 14,-3 8,-10 v -11 l 7,-1 3,-7 -3,-6 -7,-1 4,-4 -1,-5 -4,-2 -1,-3 -5,-1 2,-4 8,-2 -1,-6 3,-4 13,-6 1,-7 4,-2 10,-10 1,-8 -4,-4 2,-16 12,-2 7,-7 1,-21 10,-4 4,-10 5,-2 4,-11 -7,-1 -5,-5 -8,-2 1,-6 5,-3 2,-12 4,-3 v -13 l -6,-7 v -5 l -6,-1 -1,-3 7,-6 4,-1 4,-11 10,-2 1,-11 -5,-6 -4,-1 -2,-10 -10,-4 -7,3 -2,-3 h -4 v -5 l 8,-2 6,-6 -4,-3 h -8 l -2,-5 -2,3 v 5 h -7 l -3,4 1,8 -1,4 h -8 l -4,-4 -1,-4 -4,-1 -6,2 -8,-6 -5,7 -1,7 h -3 l -1,-6 -2,-5 -2,1 -2,-3 11,-12 v -3 l -6,-2 1,-4 7,2 9,-7 h 5 l 4,-5 -1,-11 h 19 l 8,-9 -1,-6 3,-5 v -6 l 6,-3 -1,-8 -3,-5 5,-12 v -8 l -5,-4 -4,4 -8,-4 -1,-7 12,-14 -1,-6 -10,-10 2,-10 4,3 4,-5 -3,-14 3,-2 -3,-5 -14,-3 7,-10 1,-14 2,-5 -3,-5 -3,3 h -6 l -3,-5 -2,-9 h -6 l -2,-9 -3,2 -2,6 -14,-3 6,-7 -2,-13 -7,-1 -5,-4 3,-4 -1,-5 8,1 6,-3 h 5 l 2,-12 -2,-6 4,-6 4,3 1,5 8,-2 -4,-8 2,-3 -3,-4 1,-4 -6,-4 -11,-3 -7,-8 h -7 l -8,-3 -2,-8 2,-6 -3,-7 h -13 v -5 l 1,-8 6,-4 v -5 l 6,-2 2,-9 -5,-2 -15,11 -16,1 1,6 -10,1 -8,-13 -9,1 -7,-2 -3,-11 2,-5 -10,-6 -4,-9 4,-3 v -9 l -6,-10 -3,3 -6,1 -3,3 -6,-2 4,-5 1,-7 -5,-5 1,-4 -5,-7 11,1 5,-4 1,-8 -3,-4 v -7 l -4,2 -1,3 -10,1 v -5 l -4,-1 -5,3 -9,-1 1,-6 h -5 l -6,6 h -11 l 1,6 -8,3 -4,4 -6,-7 -9,-2 -6,-4 h -9 l -2,4 -8,-5 5,-7 -5,-10 2,-5 -4,-3 -6,1 -7,-6 1,-5 -3,-1 -7,1 -4,-8 v -5 l -20,-1 -3,-6 -4,-1 -3,3 -13,3 -3,8 -9,1 -2,-14 -10,-7 h -12 l -3,-4 -3,1 -1,2 h -7 l -10,-5 1,-3 -2,-2 -1,-5 -12,-10 h -17 l -8,-9 h 7 l 3,-6 5,-2 -2,-14 8,-3 6,-10 -4,-8 2,-8 -7,-5 -1,-9 9,-5 -4,-5 v -11 l -6,7 -11,1 -2,8 -8,5 h -6 l -1,4 h 5 l 4,6 -3,5 -7,-4 -4,5 2,7 -3,2 -7,-1 -4,4 -3,-4 -6,-1 7,-5 4,-13 v -7 l 3,-5 -9,-2 v -9 l -7,8 -4,-3 -4,5 1,9 -6,6 v 8 l -4,2 -2,-3 1,-10 -5,1 -3,-4 4,-8 2,-8 -8,3 -1,6 -9,12 -4,2 3,8 -10,1 -6,4 -4,-2 -2,-10 -7,-9 3,-5 5,-1 2,-5 -8,-7 3,-6 v -7 l -6,4 -12,3 -2,10 -7,5 v 4 l -10,6 -4,5 -12,-1 -7,9 2,7 -11,5 -7,-1 4,-13 -9,3 -4,-4 -12,8 -7,-1 2,9 5,3 1,4 -2,4 -7,-3 -9,1 -11,15 v 4 h -4 l -5,-5 -7,1 -1,-12 -5,-2 2,-7 -4,1 -7,-3 -9,3 -10,-4 -6,3 -4,5 v 6 l -13,4 -12,7 2,6 -11,3 -1,5 11,-2 -1,4 13,1 6,-5 h 8 l 3,-5 3,1 -4,7 -1,5 -19,5 v 2 l -7,4 -1,3 -12,5 -5,6 -1,7 -26,5 -6,4 v 5 l -4,5 5,10 -7,3 -1,6 -8,1 -6,5 -10,-2 -9,7 3,6 -17,10 -2,4 10,-1 1,2 14,-6 3,-6 7,-3 4,2 v 6 l 9,-1 v 5 l 3,1 -1,7 -10,7 -1,8 -6,3 1,5 h 8 l 2,3 3,-1 -1,6 h 5 l 3,-6 3,1 v 13 l -5,6 2,9 4,4 -3,5 -7,3 2,7 -8,1 -6,5 -4,-1 -7,7 -4,-3 -8,1 -4,6 v 19 l 4,3 -2,3 h -9 l -4,3 2,4 -8,5 -3,10 3,6 h 5 l -6,5 1,5 2,5 h -5 l -4,5 -9,-2 -5,-6 h 5 l 3,-6 -5,-7 v -5 l -9,1 -8,-10 v -8 l -4,-3 5,-2 1,-9 -8,-18 6,-2 v -16 l -8,-7 -2,-11 h 4 l 1,-3 -3,-3 6,-4 -3,-3 -15,3 -6,-6 -3,3 -9,-2 v -7 h -14 l -11,-6 -4,4 h -20 l -3,6 4,2 2,8 h -18 v 8 l -6,-2 -3,-2 -5,1 12,5 -3,5 4,4 h 8 l 2,4 -1,6 h -10 l -2,4 -5,4 3,2 -5,6 h -14 l -4,1 1,4 h -5 l 4,5 -7,-1 -3,-3 -14,1 -4,2 v 4 h -9 l -2,7 -8,1 -4,-5 -6,1 -1,3 -12,-2 -3,-7 -22,1 -5,5 -9,-1 -6,-10 -6,-2 v -3 l 5,-3 -8,-7 -5,2 -3,-3 -11,1 v 7 l -16,-2 -3,-7 -5,6 -8,-1 2,-8 -16,-17 v -11 l -5,-5 v -6 l 8,-4 -14,-15 -4,3 -7,-4 -6,-12 -10,-11 -4,4 -6,-2 v -3 h -8 v 8 l -4,-3 h -4 l -9,-6 7,-1 -3,-13 -7,-7 2,-4 -3,-3 -6,3 -5,-1 v -5 l -10,-4 -5,7 h -3 l -3,5 h -10 l 5,-5 -1,-9 -4,-7 6,-2 1,-10 -10,-19 -9,1 -3,-15 -8,-4 -12,2 -2,8 -11,2 -8,-5 1,-6 6,-5 -6,-8 -8,2 -3,-11 -6,-4 12,1 11,-3 4,-10 12,1 3,-13 -7,-4 v -5 l -11,-3 -3,-12 8,-2 6,3 5,-1 -4,-9 9,-1 v -5 l -13,1 -3,-3 -9,8 -11,1 -9,7 h -5 l 8,14 -4,6 -6,-1 -3,3 -20,-5 -1,3 -12,-1 v -7 l -7,-10 -8,-6 -7,1 -5,-7 4,-3 -2,-6 1,-4 -5,-6 -10,-4 -6,-10 h -13 l -5,6 h -5 l -4,-7 2,-3 -8,-11 -11,-9 -10,1 -2,4 h -6 l -5,-8 -9,6 -3,-8 -28,-12 8,-4 1,-5 h 3 l 6,6 5,-2 7,-1 -8,-4 3,-6 v -3 l 5,-2 v -5 h -5 l -5,7 -9,-1 v 3 l -15,11 -12,-10 v -4 l -6,-3 -5,-7 h -6 l -10,-8 3,-7 7,-3 -1,-15 -11,-25 5,-3 -1,-8 -3,-4 -4,1 -8,-8 6,-10 -12,-3 -11,-15 7,-4 -1,-8 5,-2 -4,-6 -7,-3 1,-9 8,-2 -4,-7 5,-7 -8,1 -6,5 -4,1 -3,3 -9,-1 -3,-4 h -7 l -2,5 h -6 l -3,7 -7,-1 3,-6 -6,-3 2,-5 -7,-9 -33,12 -5,11 -10,7 -8,1 -1,8 -4,4 -3,-1 -7,4 3,10 6,4 -1,8 -7,3 -1,4 -4,5 -1,6 h -13 l -4,5 1,10 -13,2 -10,11 4,5 v 6 l -5,4 -12,4 -9,7 -5,13 -9,-5 5,-6 -2,-9 -4,-3 1,-9 -5,-5 -10,-2 -4,-12 -18,-3 1,-4 -10,-10 -16,-5 h -6 l -2,-4 8,-4 -6,-9 -11,2 -2,-5 -8,1 -4,3 -15,2 -2,6 -9,-2 -11,10 -7,-1 3,-3 -3,-7 -8,1 -1,-4 -29,2 1,6 -11,3 -1,5 -4,-2 -7,-3 -23,5 -1,12 h -9 l -2,5 -11,-2 1,5 h 3 v 5 l -9,7 2,4 -6,5 h -5 l -4,6 -6,-6 -15,-1 -2,-5 -9,-1 -7,-7 -1,-4 -6,2 -1,4 -9,-1 -5,2 -1,-2 2,-4 -3,-8 4,-3 -5,-5 -5,1 -3,-4 -4,-1 v -4 l -8,1 -7,5 -16,-1 -19,12 -11,3 1,5 -6,7 -8,2 -4,7 h -4 v -5 l -3,-2 -1,-4 -16,1 -6,8 -2,6 h -8 l -3,4 -21,-1 -2,3 7,1 -2,6 -4,2 3,7 -10,3 -16,-1 -10,8 -11,1 -9,9 h -11 l -5,5 h -7 l -1,-7 -6,-2 -1,-5 8,-4 -1,-10 -7,-12 1,-10 -4,-4 h -10 l -4,-5 1,-10 7,4 8,-5 -4,-11 4,-2 -1,-3 -15,2 -2,-6 -2,2 h -10 l -7,-13 -15,-10 -1,-12 -7,-9 -17,1 -6,-7 4,-2 -2,-9 3,-10 -5,-3 -10,1 -2,-7 9,-5 v -4 l -17,-5 -9,3 -2,4 -16,-1 -2,3 h -15 l 1,4 -6,-1 -2,-2 -5,-2 18,-7 5,3 1,-5 h 7 l -3,-7 -12,2 -19,-1 -15,10 -14,-2 -13,8 3,6 -14,9 -8,1 -2,11 -38,4 v 7 l -4,4 -8,-3 -8,5 2,7 -3,11 -8,2 2,4 -13,2 -2,-5 -14,-2 -2,-2 -6,1 -1,6 -14,-4 -13,4 -7,1 -5,4 h -7 l -1,-4 -10,1 4,6 -2,5 -9,2 -27,2 -2,2 1,5 -6,5 h -7 l -3,-3 h -3 l -6,6 -7,-1 -3,-7 4,-4 -1,-9 10,-12 1,-9 -5,-5 -7,-3 v -4 h 7 l 4,-4 h 6 l 5,-7 v -8 l 2,-1 1,-6 11,1 8,-7 -3,-4 v -4 h -7 v -5 l 7,-3 -4,-7 h 9 l 3,-4 -2,-2 -16,-4 -1,-4 -19,-2 v -4 l 6,-1 1,-3 -5,-6 -2,-8 -22,-1 2,7 -1,2 -7,-1 2,-3 -2,-5 -5,1 -5,-4 -7,-1 -4,-5 -22,-1 1,-7 -11,4 h -7 l 1,6 -13,2 -5,7 -12,5 3,2 -3,4 -9,-1 -9,3 -6,-2 -6,4 v 4 l -3,3 2,4 8,1 -5,5 -9,-1 -4,4 1,5 -11,-1 -11,5 2,5 -10,6 -8,11 3,8 -6,3 -7,1 -1,7 4,4 -3,5 -6,4 -7,1 -2,5 h -6 l -2,-6 -13,7 -1,5 -4,2 -1,3 -4,2 4,3 -1,4 -4,4 -10,-2 -4,6 3,15 -7,2 -5,8 -7,1 -5,6 v 11 l -7,4 h -8 l -8,2 -2,-7 4,-4 -3,-13 -7,1 1,-12 6,-1 -3,-11 6,-3 5,1 -1,-4 2,-2 v -5 l -6,3 -5,1 -12,7 -9,1 -8,5 -12,-1 -3,4 -15,-2 -3,-4 -6,9 -8,1 -5,6 1,7 9,2 1,6 -3,8 -4,1 1,7 h 3 l 2,6 -3,2 6,9 2,-3 h 5 v 7 l -3,3 v 5 l 4,4 -8,4 -2,16 -7,2 v 4 l -5,2 -1,5 7,4 -3,3 2,8 -5,2 -2,9 5,9 3,1 -2,17 -5,1 -1,6 3,1 1,5 -4,3 -1,10 3,4 -16,5 -1,5 -7,2 -3,-3 -4,5 -9,-1 -3,-9 -4,1 -3,8 -6,1 4,13 5,1 4,-3 -1,5 -3,3 4,4 -1,6 -13,7 -4,5 1,4 -7,5 -16,-1 -4,-2 -6,6 -15,1 -12,1 -9,-3 -3,4 2,5 -8,1 -8,-5 7,-4 -3,-4 -10,2 -2,-4 -6,-1 -2,-5 -5,3 h -14 l 2,-11 -6,-10 2,-6 -8,-17 -13,-9 h -9 l -6,-2 v -8 l 7,-1 -3,-6 -5,-7 3,-1 3,2 12,-2 -4,-7 -10,1 -8,-9 -3,-4 -4,1 v 5 h -9 l -1,-5 -8,-10 2,-3 -3,-7 2,-2 -2,-4 -11,-1 -2,-2 h -4 l -5,-3 -10,6 -10,1 -4,-7 h -17 l -8,3 -1,-9 4,-2 -9,-6 -4,-7 -9,-2 -6,8 -14,1 -5,-7 -10,-3 -22,3 -1,3 h -8 l -5,4 -5,-7 4,-2 -9,-3 -2,-4 -27,-6 -3,-5 -16,2 3,-7 4,-5 -2,-8 -8,-5 1,-4 -5,-7 -9,2 -1,-6 -5,-5 14,-7 9,-1 8,-6 6,-1 -3,-11 h 3 l -1,-4 -4,-6 2,-2 4,2 7,-5 -1,-13 -10,-13 -10,-7 -1,-4 -4,-1 -1,3 -12,-5 -9,-11 3,-6 -4,-3 h -10 l -10,-4 -3,4 -12,-2 -1,-7 -7,-3 v -3 h 4 l 4,-7 -7,-6 -4,-8 -12,-4 -15,-1 v -7 l 4,-3 -2,-12 1,-4 -4,-4 -5,2 1,8 -8,4 -1,4 -19,-1 -7,-8 h -5 l -3,-5 -8,2 -2,-4 h -5 l -1,-11 -3,-4 3,-2 -5,-4 -2,2 -7,-3 -1,-3 -3,1 -3,3 -5,-4 -1,-11 -8,-8 6,-4 -8,-5 v -5 l -8,-9 -9,-3 4,-6 -4,-10 1,-4 -6,-5 6,2 9,-6 -3,-7 -23,4 -5,-5 -9,5 -7,-7 -4,-21 h -5 l -8,-11 v -4 l 4,-2 -1,-9 -10,-2 -5,-6 -6,2 -9,-7 v -5 l -4,-2 -4,3 -9,-2 5,-6 1,-12 -4,-4 2,-5 5,1 v -12 l -8,-14 -9,-1 1,-4 7,-4 1,-11 -7,-5 -1,-6 h -5 l -9,-4 6,-10 -4,-5 3,-2 10,7 9,2 5,8 13,1 7,-4 h 15 l 6,6 8,1 4,5 9,-4 1,-7 h 8 l 5,10 7,2 6,-2 7,13 18,1 2,2 h 12 l 15,4 6,-4 2,-2 h 5 l 2,8 10,4 2,7 14,4 7,-3 h 8 l 4,2 h 5 l 5,4 5,-1 6,7 11,-1 2,-6 5,1 8,-2 h 6 l 7,-7 v -4 l 4,1 11,-4 1,-6 4,1 2,3 4,-1 9,-8 -1,-12 -5,-4 -1,-6 h -4 l -5,-12 5,1 6,-6 h 7 l 3,-9 3,-3 v -5 l -4,-3 v -4 l -3,-5 8,-6 h 5 l 5,-7 4,-2 -1,-7 -3,-3 3,-5 6,3 4,-2 -3,-5 2,-3 -1,-9 -5,3 -5,-2 v -9 l 6,-1 2,-6 -1,-28 4,2 3,-4 12,-2 -5,-9 -18,-1 -7,-6 -3,-7 -5,1 -3,-3 h -4 l -2,-7 3,-2 -2,-12 -4,-7 7,-5 v -4 l 3,-2 -3,-15 11,-1 1,-7 h -9 l -2,-2 h -3 l -2,-5 -6,4 -6,-3 -1,-12 5,-1 -3,-5 -10,-1 -5,-6 9,-4 -1,-7 16,-1 2,-6 18,-4 2,-11 15,-1 4,-3 7,6 h 9 l -1,-6 6,-1 3,-6 9,-2 2,-6 2,6 10,-3 9,-13 v -7 l -4,-2 -1,-6 h -7 l -3,-5 2,-6 7,-2 5,-6 -1,-4 2,-5 4,3 8,-4 1,-13 1,-5 -6,-4 v -4 l -3,-3 2,-3 6,4 7,1 3,-4 v -4 h 15 l 10,-5 -6,-3 -15,1 -1,-6 -28,2 -5,-5 -8,2 h -9 l -3,-2 -12,3 -1,6 -10,4 v 4 l -3,3 -12,-2 3,-16 -6,-5 h -7 l -6,4 -7,6 h -7 l -6,6 2,5 -3,3 h -11 l -14,-5 -9,3 -3,8 -11,3 v -7 l -12,-6 v -4 l 12,-9 -4,-5 -11,5 -3,-4 3,-5 -2,-3 h -6 l -7,12 h -5 l -3,3 4,2 8,-2 5,6 -3,5 1,5 8,3 -3,5 -11,4 2,6 -11,5 h -6 l -7,5 h -14 l -6,-4 -11,6 -1,10 h -5 l -4,-5 -10,1 -9,6 2,5 -12,12 2,4 -9,-2 -2,-6 -7,-2 -6,3 -1,4 h -6 l -3,5 2,5 -2,10 -6,1 -4,-4 h -5 l -4,6 v 0 l -19,3 1,8 h -5 l -1,3 h -8 l 1,-7 -6,-8 -13,-4 1,-7 -4,-7 2,-9 -1,-4 2,-3 5,1 v -6 l -3,-7 6,-4 -4,-3 -4,4 h -7 l -9,8 -12,-1 -8,5 v 5 h -10 l -5,5 -10,1 -3,7 -5,3 -2,6 -8,-1 -5,3 -1,5 h -6 l -6,4 v 6 l -2,3 6,7 3,7 -7,2 -2,4 -3,1 -5,3 -6,1 -7,6 v 7 l -5,2 2,4 -1,5 2,4 -13,6 -2,5 -12,5 h -10 l -3,5 -10,7 -1,3 4,1 -1,3 -8,2 -4,4 -8,6 1,5 -10,3 2,6 -5,3 h -9 l -14,11 1,5 -4,3 4,3 -2,3 h -5 l -7,7 -6,-1 -5,6 4,6 -5,1 -6,-2 -5,3 2,5 4,1 -3,6 -5,4 2,7 5,5 -8,3 -8,7 -5,1 -2,5 -12,-1 -5,4 v 4 l -7,8 -14,-4 3,-7 8,-7 -7,-12 v -6 l 7,2 6,-2 v -7 l 3,-3 v -7 l 6,2 8,-12 -9,3 1,-5 -1,-5 4,-3 -2,-5 h -10 l -4,-5 -10,1 -5,-4 8,-1 -6,-8 h -12 l -2,-9 -15,3 -6,6 -5,-1 -2,5 -14,-1 -13,7 -23,-2 -6,7 -9,4 -2,7 3,5 -4,4 2,6 2,4 -3,4 -6,-2 -11,3 v 11 l -5,-1 -4,7 3,4 5,1 -2,8 2,5 6,2 -3,4 -9,3 v 4 l -6,2 2,8 6,2 v 2 l -8,-1 -3,5 1,8 -7,-1 -4,4 3,5 -1,4 h 5 l 5,8 -5,5 2,16 17,2 -4,19 -8,11 2,7 4,7 -4,5 -1,4 -10,7 -3,10 7,7 12,4 -6,5 3,4 -6,10 -8,7 3,8 6,-6 12,-3 6,-9 -1,-7 h 10 l 6,4 11,-3 1,-6 -1,-6 15,2 3,-8 -3,-4 2,-2 17,8 17,2 3,-5 5,1 v 6 l 8,3 v 5 l -6,2 5,9 10,2 4,-3 7,1 1,5 12,4 11,-1 4,8 7,2 8,1 -1,6 6,2 v 7 l -3,1 2,4 -3,3 3,6 -10,2 -2,4 4,3 7,-1 2,2 -3,4 v 4 l 5,3 v 6 l -4,4 -1,10 -7,10 2,6 -8,4 -4,-3 -10,3 4,5 -3,4 h -8 l -6,-1 -4,4 -7,2 -3,-4 -2,-13 5,-2 -3,-4 -7,-2 1,-6 -6,-8 -13,1 -5,-8 h 10 l -5,-8 -10,1 -4,-7 -19,2 -4,-7 -5,1 1,7 -9,-1 -7,8 v 10 l 7,3 2,8 8,4 6,-2 8,7 v 10 l 9,15 h 9 l 4,6 -2,9 h -3 l 1,8 10,2 5,5 h 4 l 3,7 12,9 5,-5 4,5 -2,5 1,8 6,5 -2,4 -4,7 -6,3 -3,9 -6,1 -1,5 h 7 v 10 l 4,3 -1,4 h 5 l -4,7 -4,4 3,7 -5,6 -6,1 -4,8 5,4 2,16 -1,10 -7,8 -3,1 v 7 l 5,1 -2,8 7,3 -3,6 -5,2 -1,6 -18,-2 -12,4 2,5 -6,5 -7,-1 -1,5 -6,2 -4,-3 8,-7 -4,-9 -13,-1 -6,-6 -3,-6 4,-3 1,-7 3,-2 -2,-9 v -8 l -9,-5 4,-10 7,-3 -1,-7 1,-5 h 8 l 6,-9 8,4 v -4 l 5,-2 -6,-5 h -10 l -1,-2 -9,2 -4,3 -14,-3 -9,8 h -7 l -8,5 -3,7 -13,2 -1,9 2,5 -6,5 -18,-2 -11,4 h -9 l 6,-10 1,-9 3,-6 -14,-7 -3,-7 -14,-3 -5,2 -9,-2 -6,-10 -9,6 -10,-3 -12,7 2,6 -9,2 -12,-5 -5,-7 -6,3 -11,-5 v -7 l 2,-5 -7,-4 -2,-5 -8,1 -1,6 -13,2 -6,4 h -18 l 1,-4 -3,-4 -13,1 -1,7 h -14 l -5,4 -7,-1 2,-6 -5,-4 11,-5 -5,-6 -9,-3 -12,1 -4,-3 v -5 l -7,-1 1,-5 -7,-3 h -4 l -3,-5 -10,-6 -12,1 -7,-6 5,-6 -2,-8 -6,-4 -6,-16 -8,-2 -2,-6 8,-6 -2,-6 3,-1 v -5 l 2,-2 -1,-5 6,-3 6,1 2,-8 h -7 l -4,3 -12,-1 -2,-7 -11,6 h -8 l -4,3 3,7 -3,2 -16,2 v 3 l -6,3 -7,-1 -10,8 -4,4 -5,-3 -4,2 v 5 7 l -5,2 -4,10 2,6 v 5 l 3,3 -9,3 -4,11 -8,3 -1,2 3,2 3,7 -4,8 v 7 l 1,3 -3,1 -2,-9 -8,-4 1,-13 -6,-7 1,-22 5,-4 -2,-13 7,-2 v -8 l 2,-3 v -7 l -5,-2 2,-8 6,-4 5,-15 -3,-14 7,-4 v -8 l 5,-2 4,2 8,-7 h 5 l -2,-5 -3,-1 -2,-7 12,-6 5,-6 -2,-5 9,-9 17,-7 -2,-5 6,-7 4,2 h 5 l 7,-8 7,-1 5,-8 10,2 2,-3 h 7 l -1,-8 -9,-3 -5,-15 9,-6 1,-5 3,-1 v -6 l 12,-5 v -8 l -6,-7 3,-1 5,1 4,-4 -1,-10 1,-4 -12,-6 -4,-9 -12,1 -7,-4 v -9 l -5,-2 1,-7 4,-9 -5,-5 1,-7 -8,-4 -8,-1 -4,-5 8,-3 4,-7 -6,-5 6,-3 -1,-3 h -14 l -1,-2 -4,-2 v 5 h -7 l -2,-8 -8,-7 -8,-2 -1,-10 -4,-5 -5,-3 6,-7 1,-9 10,-2 5,-8 2,-1 2,-13 15,1 5,-2 -3,-6 -10,1 1,-5 -12,-5 -3,-4 -11,2 1,-3 -9,-3 v 3 l -9,-1 -2,-4 -3,2 -4,-3 h -4 l -3,-3 -7,3 1,6 -3,6 -4,1 -2,4 1,6 -4,5 2,4 v 8 l -15,1 -3,8 -11,1 1,4 -4,3 -5,1 -2,-3 4,-3 1,-4 -7,-1 -3,-6 4,-2 -11,-5 -9,5 h -11 l -7,10 4,3 -1,7 -15,-2 -6,3 -29,-3 -3,7 -8,5 h -4 l 1,6 -12,1 -1,4 -10,-3 -4,-6 -25,1 -8,-8 h -10 l -3,2 -16,-3 -2,-7 -8,-2 -6,-9 v 6 l 3,3 1,7 -6,5 -5,-4 -6,3 -2,5 -4,3 v 6 l -10,4 -4,-4 -2,5 5,8 h 4 l 3,3 -1,4 11,6 -4,5 -3,10 10,10 v 3 l 2,4 -3,2 h -8 l -4,3 -1,6 -11,-1 -3,-5 -9,1 -5,-3 -4,-1 3,-7 -5,-1 -6,-6 -3,-10 1,-7 -3,-8 -4,1 1,6 -2,2 v 5 l -4,4 -1,4 4,5 -3,6 v 5 l -2,4 v 5 l -13,4 -4,6 v 4 l -4,3 -1,4 -1,3 v 3 l -6,5 -8,-1 3,-7 3,-2 v -4 l -5,-5 -6,-1 -2,-4 -4,2 -13,-3 2,-7 h -6 l -9,-6 -1,-4 -14,1 -4,3 h -4 l -4,-4 3,-5 -4,-4 h -5 l -13,-12 -1,-7 -5,-6 h -7 l -2,5 -8,1 -5,-4 4,-3 -3,-5 v -6 l -6,-7 -9,2 -3,-4 -10,-1 3,-3 v -4 l 2,-1 -1,-5 -12,-7 -6,-8 -11,-1 -3,-4 -6,1 -8,-7 -14,1 -2,-5 3,-1 -6,-7 h -7 l -6,-4 -1,-4 -9,-1 -8,4 -7,-1 -1,6 h -7 l -6,-6 3,-3 1,-8 5,1 6,-2 4,-9 3,-1 3,4 3,-2 v -7 l 4,-2 -3,-5 h -6 l -1,3 -8,-1 -3,-5 h -15 l -5,1 -12,-4 -3,5 -34,-2 -6,3 v 5 l -15,1 -5,5 v 3 l -10,3 -2,-7 h -5 l -3,1 h -8 l -3,3 h -8 l -2,-4 -11,-3 -7,4 v 8 l -12,2 -10,6 -3,-3 h -9 l -9,6 h -6 l 1,-6 -7,2 h -6 l -2,2 -4,-6 -17,-1 1,8 3,7 -9,1 -5,2 -3,-7 -10,-1 -2,-3 -7,-3 -8,1 -2,-3 v -18 l 8,-3 -5,-10 v -12 h -10 l -4,-6 1,-4 -3,-5 -6,6 -11,-3 -2,-4 -6,1 -5,-8 -4,2 -5,-2 v 6 l -13,2 -4,-4 -9,2 -6,-2 -4,5 v 3 l -3,3 v 5 l -7,-5 h -9 l 1,-4 -4,-4 4,-3 v -6 l -4,-6 h -4 l -3,5 h -6 l -1,-5 3,-2 -8,-6 -3,-6 h -6 l -3,5 h -8 l -3,-1 -5,4 -8,-1 -1,-9 -8,-7 v -3 h -7 v 2 l -11,1 -2,-7 v -5 l -5,-1 -8,-7 3,-3 v -6 l -4,-2 -4,-6 1,-5 -4,-4 -1,4 -6,1 v -5 l 2,-1 1,-4 h -8 l -6,-7 -4,2 v 3 l -7,1 -6,-4 -10,3 -7,-7 5,-3 -2,-5 h -4 l -3,-8 -8,1 -6,-3 -6,-9 h -5 l -3,4 -14,-1 -6,-5 -7,6 -5,-1 -7,4 -3,6 -8,2 -1,-3 1,-10 -6,-3 -2,-5 3,-1 -1,-16 -4,-5 v -7 l 4,-3 v -6 l -12,-10 h -4 l -4,-4 -5,4 h -5 l 1,-11 -13,-5 -7,6 h -6 l -3,3 h -4 l -4,5 -4,-4 -8,1 -2,3 3,4 -2,6 -10,7 -7,-1 -4,3 v 3 l -2,2 h -9 l -3,3 -4,-2 -6,1 6,-9 h 3 l 2,-3 9,-11 -6,-7 15,-9 v -6 l 3,-1 2,3 14,-10 -1,-7 3,-3 -1,-5 6,1 2,-3 -1,-10 -6,-4 v -3 l 2,-2 -2,-4 3,-3 -6,-12 v -6 l -4,-2 -4,3 -6,-6 -1,-7 5,-1 2,-2 -5,-9 3,-6 -1,-2 -7,-2 -2,-4 h -5 l 1,-5 3,-6 8,-3 v -4 l 3,-5 3,2 7,-3 -4,-4 -3,-7 7,-4 -1,-9 4,-5 8,-1 v -8 l 10,-7 10,-2 v -8 l 4,-1 3,7 4,1 6,7 h 5 l 7,5 5,-3 7,5 -2,3 4,7 9,7 2,-1 v -3 l 4,-4 1,4 11,-6 7,-5 h 4 l 3,6 5,-2 2,-4 5,-1 v -13 l 6,1 7,-5 7,2 3,-4 10,-6 3,7 4,-1 1,-3 7,-3 4,6 3,-4 4,-1 1,-6 5,-1 3,-3 6,1 6,5 h 6 l 3,-4 6,3 4,14 8,-1 5,5 -5,5 -2,12 6,1 3,7 h 5 l 4,6 h 7 l 7,-4 1,-4 7,-2 2,4 -2,3 -1,6 3,4 11,-17 -1,-15 4,-3 5,1 5,-3 v -9 l 6,-1 4,-5 7,-4 v -9 l 5,-6 5,1 4,-1 -1,-6 3,-3 -2,-7 7,-3 -4,-7 2,-3 v -6 l 7,5 4,-10 4,-2 -1,-6 h -5 l -6,-5 v -6 l -2,-2 1,-7 h -6 l -1,-9 5,-3 -2,-5 -6,3 -6,-3 -7,-1 -3,4 -7,-2 4,-1 v -5 l -8,-6 v -4 l 9,-1 6,-5 -3,-9 5,-4 -1,-8 12,-3 -2,-12 6,-4 3,2 7,-2 2,-6 5,-3 2,-4 h -6 l -6,-3 -2,-5 -4,-2 2,-11 9,-3 4,-8 4,-2 -1,-7 -11,11 -12,1 -2,5 -9,3 -3,10 -5,4 2,5 -2,3 2,6 -8,7 -1,4 -6,4 2,11 -10,4 3,6 -17,12 -11,1 -4,4 -2,6 -6,1 -3,-3 -5,7 -21,-1 -13,-3 -3,-8 -5,-4 v 4 l -6,-4 -6,1 -1,-6 -6,-3 -7,1 -2,-7 -3,-4 4,-2 -2,-9 h -4 l -2,-5 -13,-2 -10,6 h -5 l 1,-5 -5,-5 -22,3 -5,-5 -9,-2 -5,-6 -15,5 -6,-8 h -4 l -5,-4 h -4 l -4,-8 1,-5 -9,-11 2,-3 6,5 h 8 l -1,7 7,3 4,6 7,1 5,-5 10,1 10,-3 4,-6 -7,2 -9,-4 -12,5 -9,-2 1,-5 -2,-5 v -5 l -6,-9 -8,3 -3,-10 2,-3 -2,-6 -3,-2 1,-20 -4,-3 -4,-1 -4,-6 6,-6 8,8 h 5 v 13 l 4,7 -1,10 4,6 9,2 1,5 3,-3 6,3 5,-6 -2,-12 3,-4 -3,-6 2,-6 h 5 l 5,-9 -4,-4 4,-4 5,3 2,7 9,-3 2,-4 8,-5 -1,-8 4,-5 4,2 3,-2 3,-1 v -10 l 3,-3 h 6 l 11,-10 v -5 l 4,-1 6,8 12,-6 1,-13 7,-2 1,-11 5,-5 1,-8 5,-1 2,2 4,-8 -8,-3 1,-3 -4,-5 1,-6 4,-1 -2,-6 2,-6 -7,-9 1,-6 6,-3 2,-4 6,-1 -2,-10 1,-5 -6,1 -1,7 -6,4 -7,-1 -5,3 -9,-3 -4,-6 -8,-1 -4,2 -7,-8 h -5 l -1,-2 -5,-2 -6,5 -17,-1 -8,-10 -5,-1 v -3 l -6,-3 -3,3 -9,1 -8,-12 2,-5 -12,-9 -7,-20 4,-5 v -6 l -9,-4 -2,-10 6,-4 -1,-10 4,-5 6,-4 1,-5 h 4 l 1,6 -5,7 -1,11 h 4 l 3,5 -1,4 3,6 -3,5 5,12 13,1 2,2 10,-1 3,3 7,-2 6,3 1,8 8,1 3,-8 3,-2 -1,-4 5,-2 2,3 5,-7 6,-4 1,-10 -4,-1 3,-5 -1,-8 3,-6 -4,-5 3,-5 6,-2 -1,-7 -4,-3 -8,-1 -5,-4 v -5 l -4,-5 2,-4 -18,-4 -2,4 -12,3 -3,-4 v -3 l -11,-4 -5,7 -9,-1 -4,2 -8,-2 -2,3 -2,9 -10,5 3,-10 -2,-10 -7,5 h -8 l 1,7 -6,2 -8,-4 3,-3 -1,-6 1,-14 -3,-2 -2,2 -5,-5 4,-1 -1,-5 1,-15 -3,-4 -2,-9 -4,1 -6,-9 4,-1 2,-10 -7,-4 v -5 l -3,-2 v -6 l 6,-8 h 7 v -6 l -12,3 -8,-1 -2,-6 1,-10 -9,2 -6,-7 1,-4 -6,-1 2,-8 -7,-3 -7,-7 -3,-5 1,-8 -5,-3 1,-11 5,-7 4,-2 1,-7 5,-4 -3,-9 1,-5 -2,-4 3,-4 5,3 1,-4 4,-2 2,-4 3,1 -2,7 5,4 9,-2 2,-5 -1,-11 2,-3 1,-4 -8,-6 h -6 l -8,-8 2,-6 3,2 5,-1 v -6 l 6,-1 3,-5 -4,-7 5,-7 4,2 15,-17 v -13 l -3,-1 2,-11 5,-5 h 4 l 3,-2 2,3 4,1 17,-15 1,-12 -2,-3 5,-3 5,3 h 6 l 2,-4 7,-1 2,-8 h -8 l -1,-15 -8,-1 -6,-6 1,-8 3,-1 -1,-4 6,-3 -3,-11 5,-5 -1,-4 3,-3 4,2 3,-3 h 6 l 12,-8 1,-3 7,-1 v -4 l -3,-1 -3,-2 -11,-4 2,-9 8,-4 2,-11 -5,-5 2,-5 11,-3 1,-6 7,-3 2,-6 5,-2 5,-8 -2,-5 h -4 v -8 l -4,-9 1,-6 -3,-3 -3,-1 -7,-8 5,-6 3,-1 9,-12 v -16 l 2,-4 -2,-14 10,-1 6,-9 -4,-3 -2,-8 -6,-7 2,-15 -6,-4 2,-5 3,-1 4,-4 1,-7 2,-4 8,-2 -3,-4 -8,1 -4,-3 h -9 l -4,-4 -7,-1 -1,-19 -4,-3 -5,-7 3,-7 6,-6 v -7 l -8,-12 3,-6 6,-1 v -6 h 5 l 3,6 -1,4 8,3 -1,7 5,4 -1,7 6,3 9,-6 -4,-7 2,-18 -2,-5 -3,-1 -4,-11 1,-6 -3,-10 -4,-1 1,-12 -5,-5 -1,-8 4,-2 v -11 l -4,-1 -1,-3 -5,-1 -3,-10 -5,-1 v -3 l 7,-3 1,-3 6,-2 -1,-5 3,-2 1,-4 3,1 v 3 l -3,3 5,2 v 6 l -3,5 2,3 -1,5 11,8 1,-9 h 3 l 1,6 8,5 v -3 l -2,-4 3,-2 7,1 3,-7 -4,-6 -2,-8 2,-1 3,5 h 4 l -1,-5 3,-2 v -12 l -6,-1 -7,-5 6,-3 5,-1 4,-5 4,1 -1,7 4,5 -3,7 2,7 4,-2 2,4 -6,5 7,2 1,-6 9,-1 3,-6 6,-1 v -6 l 7,-2 12,-17 8,-2 1,6 -3,5 2,9 -7,1 1,4 5,2 h 7 l -1,6 5,3 1,8 -3,2 -5,11 3,7 -3,5 6,4 5,-3 7,3 1,-5 5,2 1,7 3,3 1,6 9,-1 9,5 2,-3 5,-3 21,-1 v -5 l 10,-4 8,2 15,-1 11,-4 7,2 2,5 9,2 5,-5 7,3 17,1 1,3 -5,2 -1,4 1,6 -4,2 -1,5 -8,-1 -2,-3 -2,7 2,15 -5,4 h -4 l -5,8 2,7 -2,7 8,-1 3,-4 12,7 9,1 v 10 l 4,7 h 7 l 6,4 h 10 l 4,3 -5,5 -4,7 7,14 v 8 l -5,3 v 3 l 10,7 v 3 l 6,4 -1,6 -4,3 v 5 l 3,2 1,4 3,2 -1,5 -2,2 v 6 l 7,1 5,6 -3,2 1,8 -2,3 1,3 -2,4 3,6 -2,4 -5,1 v 10 h 4 l 1,9 -5,2 -1,8 3,5 -1,8 -7,9 -5,4 2,7 3,7 v 6 l 2,4 -2,7 6,1 5,-4 -1,-4 4,-2 10,6 v 7 l 4,2 18,-5 4,-9 10,-5 5,-8 v -3 h 3 l 3,2 7,-1 -2,-6 5,-6 6,-1 2,-5 9,5 h 9 l 6,-6 h 9 l 4,-5 1,-4 7,-3 3,-6 6,-2 4,-3 -2,-3 -6,2 -3,4 -10,-1 -6,2 h -4 l -11,-6 6,-3 1,-5 5,1 1,2 h 6 l -4,-3 2,-4 9,1 4,-2 v -5 l -4,-2 1,-6 4,-2 1,-7 19,-6 h 9 l -2,-10 -3,-1 -4,-3 -1,-5 4,-3 -4,-7 -7,-1 -4,-7 -2,-12 h -6 l -5,-4 1,-5 -4,-7 h -5 l -8,-9 -1,-5 29,1 3,-2 9,1 2,5 14,3 14,1 2,7 -1,4 4,2 -1,4 4,3 8,-1 2,4 -1,3 2,3 -2,5 9,1 11,12 29,3 5,-11 8,-3 10,1 11,-4 h 13 v -4 l 4,-3 v -4 h 4 l 5,-8 -4,-2 -1,-4 7,-5 h 5 l 13,-11 4,1 4,-4 h 3 v -7 l 7,-1 6,3 10,-1 9,-7 8,4 9,1 v 7 l 9,6 4,-1 5,4 v 4 l 4,7 7,1 2,4 5,1 3,9 h 7 l -1,5 2,2 v 5 l 7,5 4,8 -6,2 v 5 l -9,2 -2,4 h 8 l 3,3 7,-1 3,7 -2,3 2,5 -2,3 14,9 1,5 h 8 l 3,4 -7,5 7,9 -1,5 4,7 4,-2 3,3 4,-3 4,2 -1,4 1,3 -2,3 2,4 -3,7 h -4 v 3 l 1,8 -8,4 -2,4 14,1 5,-3 3,4 h 9 v -4 h 6 l 4,4 -1,3 5,8 5,1 -1,5 10,1 v -7 l 3,-4 h 6 l 5,-5 h 4 l -2,-3 3,-3 7,1 6,-11 -1,-4 7,-4 -3,-8 7,-2 -5,-3 h -4 l -2,4 h -9 v -4 h -6 -3 l -5,-6 5,-4 5,-1 -3,-7 7,-2 10,-5 -1,-4 2,-4 -3,-2 -1,-5 7,-1 1,-7 3,-3 -2,-2 h -5 l -3,-9 4,-3 -1,-6 2,-6 h 4 l 2,11 7,6 15,2 5,-3 -2,-12 4,-2 -1,-8 -4,-4 5,-7 -2,-7 -5,-5 v -4 l 7,-1 4,6 14,5 1,2 -2,5 5,5 v 7 l 7,4 -4,11 7,5 12,3 1,4 7,8 24,1 1,15 -8,7 4,11 -2,9 3,2 -5,11 -9,3 -5,9 v 6 l -2,8 -13,7 1,-6 3,-3 v -11 l -6,-4 -3,-4 -4,-1 -3,-6 -6,5 2,13 -8,6 3,6 1,5 2,4 -8,9 v 5 l 3,5 -2,15 11,6 -1,6 12,5 8,2 1,5 5,2 1,6 -5,3 -2,10 -9,6 1,4 5,-1 2,3 h 5 l 5,6 18,2 8,5 1,7 10,8 9,1 6,7 -1,9 7,5 h 14 l 2,3 8,5 1,3 12,9 h 12 l 11,-7 -3,-6 6,-6 -2,-6 -2,-13 5,-4 4,-13 16,-9 6,-10 5,-1 -2,9 7,-1 v -6 l 11,-7 6,3 2,-2 v -5 l 5,-1 3,-6 11,2 9,-5 h 6 l 5,-6 -4,-4 2,-5 20,-13 5,4 16,-2 -2,8 -3,3 2,12 6,1 7,-9 9,3 9,-3 7,2 9,-8 6,-1 2,-7 8,1 8,-7 7,1 3,3 9,-2 -1,-5 5,-6 4,1 8,-10 7,1 7,-9 -1,-9 7,-6 16,-5 2,-11 20,-3 6,-9 v -7 l 5,-5 5,-1 7,-6 3,-8 5,1 1,8 -1,8 10,3 6,5 -2,5 4,2 -2,7 -5,1 1,2 h 5 l 5,3 3,-6 6,-2 2,-4 14,1 2,-6 7,-3 7,1 6,-4 -1,-5 -4,-1 1,-7 -5,-2 3,-6 5,-4 -4,-8 2,-5 5,1 3,-8 -3,-3 v -4 l -2,-2 v -9 l -3,1 -3,2 -3,-4 5,-6 h 7 l 4,-6 4,-1 5,-7 6,-1 v 5 l 10,4 2,-5 14,-1 15,5 h 5 l 3,2 9,-1 v -4 l 4,-4 h 13 l 5,-3 v -6 l 11,-5 h 8 l 5,-6 3,1 6,-8 4,-1 -3,-6 10,-8 v -12 l 10,-8 10,-3 8,-10 v -10 l -6,-1 -1,-5 4,-3 h 4 l 5,-5 1,-7 9,-4 6,-10 -5,-4 v -3 l -3,-2 2,-7 9,-8 12,-2 14,-10 3,-6 10,1 7,2 12,-6 4,1 4,-3 7,-1 1,3 6,4 7,-6 8,-4 h 11 l 16,7 7,-5 5,1 -4,8 2,3 v 7 l 10,1 6,6 h 11 l 8,3 -1,5 -5,2 3,13 13,3 3,5 -1,9 7,5 2,8 8,4 -3,4 -4,2 1,9 -6,4 2,9 -5,6 h 6 l 6,-6 v -5 l 5,-3 1,-5 6,3 1,10 10,-2 8,7 -2,9 -9,5 v 9 l 6,2 2,6 -5,4 2,15 6,1 8,14 -8,7 v 10 h 16 l -3,7 5,10 -3,7 -7,2 2,10 -4,10 6,5 6,-3 11,13 v 10 h 15 l 2,7 9,6 -5,8 3,2 v 3 l 5,5 5,2 3,5 5,-2 4,-3 7,8 9,2 v 6 l -4,6 6,8 -2,7 3,9 -7,9 1,3 h 11 l 5,-4 10,2 1,4 9,-1 4,4 7,-6 h 8 l 5,-6 v -5 l 9,-8 h 5 v -8 l 18,-4 5,-6 v -7 l 6,-5 13,-1 4,-18 -6,-2 -1,-9 h 5 l 1,-11 7,-3 11,2 9,-9 8,2 9,-1 5,-4 -6,-2 -3,-7 5,-10 h -6 l 2,-13 7,-3 4,-10 5,-1 3,-7 -4,-4 -1,-10 8,-13 9,-2 3,-7 15,-1 5,-11 11,-6 9,3 10,-2 6,3 13,-8 1,-4 9,-5 h 7 l 6,-5 3,6 6,1 7,-4 14,1 v 6 h 14 l 6,-6 16,1 7,-4 10,7 22,1 -4,4 3,3 -3,4 -9,-2 -2,3 v 3 l -4,2 v 6 l 15,-1 8,4 6,6 1,5 18,7 -1,5 7,6 4,13 h 4 l 6,5 h 13 l -3,3 2,11 -10,-1 -4,10 -15,1 -5,6 -9,2 -4,10 -4,2 -1,5 -5,3 -4,6 3,5 h 4 l -2,6 -7,6 4,3 7,-1 5,3 4,-1 6,9 -7,3 v 4 l -7,1 -6,11 9,1 8,-6 9,-2 15,6 10,-1 v 4 l 6,4 -2,9 6,13 6,2 1,7 3,6 -4,5 6,8 -1,7 9,4 -1,5 -5,5 4,5 3,-5 7,-2 13,1 7,4 5,-1 4,4 -1,6 5,2 v 7 l -2,6 h 4 l -2,8 3,6 1,-8 4,-7 9,-1 -3,-5 3,-1 h 7 l 3,3 h 10 l 4,-3 -1,-5 6,-5 h 5 l 9,-5 -2,-9 -8,-4 2,-17 8,-1 1,-6 11,-5 -6,-16 h -6 l -1,-12 -3,-4 3,-3 -1,-7 -7,-3 -5,1 -3,-8 3,-7 -3,-8 2,-7 -10,-7 -8,-21 -7,6 -10,-10 h -9 l -6,-3 -1,-6 5,-3 v -11 l -5,-4 -3,-2 v -5 l 9,1 2,-6 8,-2 3,-11 h 9 l 8,-5 2,-5 12,3 18,6 8,-2 10,2 1,9 7,6 h 10 l 5,3 -2,8 -5,3 v 3 l -3,3 6,4 8,-3 1,4 h 9 l 11,13 h 6 l -4,9 9,7 4,-3 4,4 -1,16 9,1 -2,16 21,5 7,-10 27,3 5,-2 1,-7 10,-4 8,-8 h 16 l 21,-9 -5,-6 v -6 l 6,-1 1,-4 -4,-3 8,-9 v -4 l 2,-5 v -10 h 14 l 7,-2 -1,-5 7,-9 h 6 l 3,3 5,-1 3,-5 -3,-6 3,-10 12,-1 v -9 l 5,-6 h 8 l 3,-7 7,-1 11,-8 6,7 7,-3 -2,-7 2,-4 -1,-4 16,-1 2,-4 9,-7 15,-4 v -8 l 4,-4 h 11 l 14,-14 -6,-10 5,-4 1,-8 6,-4 -2,-7 -6,-4 1,-7 -3,-7 7,-4 9,-18 2,-13 18,-17 h 20 l 2,10 -12,4 -1,3 10,-1 1,3 -3,5 10,1 6,10 -2,7 -7,5 v 8 l 4,4 10,1 3,-7 h 9 l 7,5 3,7 -5,6 5,2 5,-10 9,-3 h 4 l 5,-6 h 20 l 7,-2 4,-6 2,4 7,-1 11,5 -1,5 5,1 5,-3 13,5 h 14 l 4,-8 13,-3 4,-5 h 8 l 5,5 h 13 l 6,-5 7,2 v -5 l 15,-4 8,1 9,-4 -3,-6 6,1 7,-4 8,-9 4,3 7,3 7,-3 7,1 2,-4 15,-1 8,6 v -5 l -1,-3 7,-7 -2,-5 9,-5 -1,-6 5,-6 7,2 4,5 24,-5 v -6 l 25,-4 9,-5 1,-13 15,-5 -2,-3 -8,-1 v -3 l 11,-5 -1,-8 6,-1 10,5 -2,6 3,6 -6,7 1,2 7,-2 2,-10 7,-5 -3,-7 10,-3 v -10 l 2,-2 -1,-2 h -5 l -1,-2 8,-3 2,-6 8,-6 11,-9 -1,-6 12,-12 8,-3 -2,-9 -7,-1 4,-9 4,-4 -1,-7 -6,-8 h -7 l -6,-9 10,-2 6,-12 v -12 l -6,-5 -5,-9 -6,4 -5,-4 8,-6 7,-2 5,-6 9,-4 7,5 13,-1 4,2 10,-6 13,2 4,-9 15,-6 2,6 7,2 13,-1 -2,5 2,5 -7,1 -3,8 -6,2 -1,4 11,-4 5,1 13,-7 7,4 9,-2 -3,5 -9,3 3,11 h -8 l -8,2 -4,13 -10,4 v 5 l -3,5 4,5 -2,7 5,4 3,1 2,4 7,3 -4,14 -4,6 -1,9 5,7 -6,5 1,3 7,1 10,-7 6,4 9,-4 2,4 -3,5 -5,2 -1,4 h 12 l 2,-6 9,1 11,-3 5,4 -3,6 18,-4 1,-4 8,-5 1,-4 6,-2 9,3 2,4 10,-1 10,-5 15,1 6,-9 39,1 5,-5 7,6 1,6 7,4 7,-2 6,4 13,-7 12,8 2,6 5,1 v 11 l 4,4 -2,9 h 6 l 3,-5 9,7 h 5 l 4,12 -4,6 3,6 -5,5 2,5 9,-4 h 7 l 8,12 5,4 -2,13 7,5 h 10 l 3,5 6,1 1,5 5,-1 7,2 9,-8 11,2 8,-3 8,2 11,-7 15,5 4,4 6,-10 5,2 6,-3 15,4 h 19 l 1,6 4,3 -4,7 h 9 l 5,-7 -3,-5 4,-7 -1,-6 5,-3 14,-3 2,-6 8,-6 10,-3 2,-5 7,8 v 8 l 7,1 6,-13 8,1 11,-9 13,6 2,8 5,1 -6,9 4,5 8,-2 3,-7 17,-2 8,-6 15,1 3,7 -3,14 5,2 v 6 l -3,7 h 7 l 1,-7 7,-2 v -4 l 18,11 22,2 19,13 -3,11 14,14 17,2 2,6 h 4 l 5,-4 9,1 -1,6 -3,1 3,5 -5,8 6,14 -7,8 1,8 -3,3 3,7 -5,6 v 10 l 10,-12 5,-3 -4,-8 9,-3 3,-4 -5,-2 1,-5 13,-3 1,-5 8,-2 10,4 12,-2 8,4 1,12 h -7 l -2,5 8,2 4,12 -4,4 4,4 -2,11 -8,3 -11,-1 -2,6 h 12 l 1,6 12,1 4,-7 8,-3 5,7 17,5 12,-5 2,-6 9,-2 5,-9 8,10 13,3 v 11 l 6,8 -9,7 2,6 10,8 -3,8 12,7 7,-1 6,8 h 7 l 8,6 -7,10 v 8 l -10,4 v 4 h 11 l 9,-3 4,7 h 9 l 12,4 -2,7 3,8 -5,4 9,5 3,12 9,-1 7,18 11,3 3,11 10,-1 7,5 -4,10 11,-1 -1,-9 4,-3 -1,-10 h -8 l -1,-4 3,-1 7,2 8,-9 h 15 l -1,-6 -4,-2 4,-8 -2,-6 -3,-6 11,-12 11,-6 v -7 l 11,-4 5,-15 -3,-2 4,-27 -3,1 -2,-6 4,-9 -4,-6 -8,-5 v -12 l -7,-5 h -5 l -1,-7 4,-4 -5,-11 8,-2 18,3 7,-16 -3,-5 3,-9 7,-3 2,-11 12,3 8,-3 h 5 l 2,-5 h 9 l 1,11 14,2 8,-5 7,6 19,6 2,7 14,1 -2,6 h -4 l -1,4 -6,-1 3,15 4,1 3,6 h 10 l 3,-5 25,8 -5,5 -2,14 -5,4 -12,-3 v 7 h -9 l -2,-3 -11,3 1,4 -13,11 1,3 h 8 l 3,-2 2,2 -9,5 -6,4 -6,2 -8,8 2,10 h 11 l 1,-7 10,-5 14,1 8,-10 5,2 -5,12 -4,4 v 9 l -8,4 -8,12 -8,-1 -5,3 -9,-3 -2,13 -6,5 -10,-1 -10,6 v 8 l -9,7 -13,3 2,6 6,2 5,13 7,-1 3,4 -5,6 -1,7 9,6 7,1 6,14 -9,14 v 10 h -6 l -3,-3 -1,11 -9,5 v 3 l 11,2 7,6 -3,6 10,4 8,-3 3,4 21,2 3,8 10,-2 2,3 -5,2 -2,9 h -8 v 3 l 5,3 v 14 l -5,3 -5,-1 1,13 -4,10 -12,6 6,3 13,-5 15,-2 12,2 2,6 -1,6 7,3 -1,12 6,1 1,-5 9,-5 6,1 4,-6 24,3 v 11 l -3,3 3,7 9,1 6,10 10,2 6,6 6,-2 1,-4 8,4 -1,11 5,1 4,5 -5,4 2,9 -8,2 -6,11 4,1 4,-4 6,5 h 7 l 3,-2 h 5 l 6,6 3,-1 6,4 5,-3 2,9 -4,7 5,7 6,1 3,7 14,4 7,-11 9,4 1,7 -1,3 1,2 -5,3 8,3 10,-2 v 5 l 5,3 v 11 l -4,3 v 3 l -10,6 h 16 l 5,-8 10,-4 h 12 l 6,-5 -1,-8 8,-2 17,2 3,-4 9,-1 v -7 l -5,-4 4,-4 7,-6 -1,-7 9,-7 3,-10 5,-2 9,3 7,-6 -2,-7 5,-4 9,1 5,-15 -9,-5 v -9 l 15,-10 1,-5 -5,-3 2,-10 9,-6 -1,-9 -5,-3 v -7 h 8 v -5 l 7,-4 3,-8 -8,-1 -2,-5 -7,1 -5,3 h -4 l -1,-4 11,-9 10,3 4,-11 10,-4 3,-8 -4,-2 12,-11 v -6 l -5,-2 6,-8 -3,-4 4,-5 11,3 8,-5 2,-7 7,-4 2,-6 9,-1 3,-3 -4,-4 -3,-11 4,-2 2,-5 6,-2 6,-20 5,-4 1,-11 4,-2 -1,-10 h -14 l -2,-4 h -6 l 1,-9 10,-4 -2,-7 3,-4 -2,-14 h -4 l -5,-13 -12,-3 -3,-5 -9,-1 1,-4 -4,-5 -6,5 -11,-1 -3,-4 v -7 l -9,-4 -4,-12 -12,-3 6,-8 8,2 3,-4 10,1 3,-10 h 25 l 2,-3 -6,-4 1,-4 -3,-3 1,-8 12,-2 7,-9 1,-4 h 7 l 9,-6 6,-7 9,-2 1,7 4,1 4,-4 1,-6 7,-1 11,14 -1,3 7,1 7,-3 5,7 h 7 l 7,7 7,2 -1,6 -13,2 v 7 l -8,6 v 6 l 8,3 4,-2 7,8 -5,16 -6,2 4,6 -5,7 -1,5 11,-11 h 11 l 1,-5 10,-1 10,-3 11,6 2,7 15,-3 14,6 9,-1 5,7 -3,5 9,5 20,2 6,6 6,1 -6,4 v 4 l -4,3 1,8 -5,-1 v 5 l 4,2 1,8 7,6 v 13 l -4,5 -18,-2 1,5 -11,2 -1,4 9,2 4,-2 6,2 5,-4 7,2 6,8 v 2 1 l 7,1 3,3 h 9 l 3,3 h 7 l 4,5 h 5 l 6,10 h 9 l 3,4 -5,9 6,3 v 5 l 3,5 -6,4 4,7 -5,13 3,7 -4,1 -2,5 10,-1 1,-10 8,-2 4,4 9,1 3,6 12,-2 4,7 6,1 -2,6 4,6 -4,10 -8,4 -4,12 -1,7 6,-2 6,-11 7,-1 2,-6 8,-1 2,6 -1,7 4,10 -6,3 v 6 l -3,2 4,8 3,-1 4,3 4,1 v 8 l 13,4 12,-1 2,4 9,5 h 6 l 8,12 18,2 v 3 l 12,5 5,-1 2,5 -3,3 -1,8 6,1 2,4 h 16 l 3,13 -5,5 -5,-1 -4,5 1,4 3,4 -1,11 -12,3 -4,-3 -8,8 15,5 18,-3 v -8 l 9,-2 1,-5 -3,-6 6,-3 13,5 3,5 4,-2 10,6 8,1 4,4 v 4 l -4,2 3,6 -10,-1 -6,-5 h -7 l 4,5 -8,1 -6,-2 -1,3 6,8 14,4 -2,4 2,3 -1,11 -6,2 v 9 l 5,1 7,-4 3,-12 10,1 3,-3 6,1 4,-6 -2,-5 8,-2 5,-6 10,3 3,-4 7,-1 1,-15 10,-6 2,7 -2,4 8,4 -1,11 -20,3 -9,6 -2,9 7,11 14,5 -4,4 -2,9 2,11 4,1 5,-6 10,1 5,-7 -7,-7 2,-5 8,2 11,-5 v 6 l -3,7 7,4 v 7 h -11 l 1,3 3,2 -4,5 1,12 -3,2 4,8 h 10 l 4,4 1,12 -7,5 -4,11 19,1 8,4 5,-6 11,1 5,2 11,1 5,6 v 12 l -4,4 1,4 7,-2 4,-16 16,-7 8,-1 6,-7 8,-1 2,3 11,1 3,-7 8,-4 4,-12 h 16 l 13,-5 10,10 -4,7 2,5 7,-4 v -3 l 4,-2 v -6 l 6,2 4,3 10,-6 -2,-14 5,-3 3,-8 8,1 4,-5 8,-3 2,5 7,1 v -4 l 9,-5 9,-1 1,-8 13,-1 18,-11 8,-13 -1,-6 -4,-1 -4,-4 -1,-4 -3,-2 5,-2 h 4 l 4,-3 -3,-5 5,-2 3,2 7,1 -2,-5 12,-5 -3,-7 1,-5 -6,1 -4,-5 3,-3 v -7 l 8,-7 8,-1 -1,-5 8,-9 -2,-5 2,-4 5,2 3,-4 -3,-4 2,-4 -5,-3 -5,1 -1,-4 3,-2 -2,-5 -10,-3 -3,4 -4,-6 h -3 l -3,-8 5,1 1,3 6,2 5,-4 12,-1 -1,-4 2,-8 -8,-14 v -7 l -5,-7 -13,-6 -8,2 2,3 -7,3 -5,-7 3,-5 -4,-3 -1,-8 -6,-5 8,-8 1,4 4,-3 -3,-4 4,-4 1,-9 -2,-4 3,-6 h 4 l 2,-4 6,-1 4,-3 6,1 v 4 l 9,1 6,-3 9,5 h 9 l 1,2 -6,5 4,3 -1,3 -5,2 -2,3 7,1 3,-3 6,1 3,-4 h 4 l 4,11 13,2 12,-2 1,6 10,4 5,-2 3,-5 h 8 l 2,4 h 9 l 3,9 -4,2 v 7 l 10,5 14,2 5,-4 v -2 l 13,1 2,-3 6,-1 1,5 4,2 h 5 l 6,7 9,1 13,-8 10,1 7,-3 v -5 l -6,-1 v -3 h 6 l 16,-10 3,-3 -1,-4 7,3 2,5 -2,5 3,5 10,1 6,-2 8,6 -5,7 1,2 h 9 l 5,5 34,2 8,-5 v -8 l 8,1 4,-6 h 4 l 6,5 10,-1 11,-7 -5,-7 8,-2 6,1 6,-6 v -6 l 5,-6 h 10 l 7,-2 4,-6 -4,-3 1,-6 3,-2 v -9 l 9,-2 2,-6 -4,-4 h -5 l -9,-6 -3,-4 h -4 l -3,2 h -10 l -2,-3 13,-4 v -5 l 4,-3 2,-3 4,-1 3,3 h 13 l 6,-10 12,-7 -3,-8 -11,-10 -1,-8 4,-2 -1,-2 -3,-1 3,-13 -3,-4 13,-10 7,4 9,-3 6,-11 16,-2 6,2 7,-8 h 10 v 6 l 6,5 -4,5 6,5 3,-3 8,-1 6,2 4,-6 -3,-2 5,-3 h 14 l 3,-7 h 7 l 13,-9 5,1 4,9 4,1 -3,4 2,2 -4,4 h 7 l 4,-10 9,-5 1,-4 17,-9 -3,-4 v -12 l 12,-14 v -11 l -9,-3 3,-13 -3,-8 3,-4 1,-11 -4,-4 -8,-2 -7,-13 2,-4 -11,-7 -13,-13 h -14 l -6,3 -7,-6 -16,1 v -5 l 7,-1 3,-9 7,1 9,-6 10,1 -1,-8 8,-7 24,-1 12,-13 7,1 21,-6 12,-1 10,-6 v 10 l 3,6 -4,3 h -5 l 4,6 7,-1 10,-4 9,4 11,-3 9,15 11,4 13,-4 4,9 -3,6 4,8 -3,13 13,3 1,-7 13,11 33,1 5,5 -4,4 3,4 -7,4 3,16 h 10 l 4,-4 8,3 -1,5 8,3 16,-3 -2,-6 -6,-3 -1,-8 16,-1 7,-6 7,10 -2,9 3,3 -1,3 7,1 4,3 15,2 7,-4 7,4 -2,5 h 18 v 12 l -13,2 -2,7 -12,4 1,4 -13,5 -4,-3 v -6 l -9,1 1,9 -10,6 -11,1 v 3 h 15 v 5 l 3,3 -2,4 19,3 20,-5 2,-9 19,-2 -6,-11 14,-7 12,4 3,7 h 12 l 4,-6 -6,-3 1,-8 7,-4 -2,-4 11,-5 -1,-6 9,-5 h 20" />
      <path id="manticore-isles" d="m 8521,6003 2,-6 h 4 v -4 l -4,-4 2,-5 h 4 l 1,-6 -4,-5 6,-6 4,4 -3,12 -2,5 5,3 -3,8 -7,5 -1,5 -2,-2 z m -21,21 4,1 -2,5 -4,-1 z m -38,25 h 11 l 10,-12 3,3 -1,4 -4,5 1,8 h -9 l -6,7 h -11 l -4,-6 6,-6 h 3 z m 5,20 v 1 l -1,6 5,4 11,-8 -1,-3 -9,-1 z m -10,21 -4,6 -8,-2 -8,4 -6,-7 5,-6 h 7 l 4,4 4,-1 z m -36,27 -1,-6 4,-2 2,-3 h -8 l -3,1 -1,-4 -6,-1 -5,5 2,4 v 4 l -4,2 -1,7 11,-7 z m -101,27 4,-4 9,1 8,-4 1,-6 4,-2 v -5 l 8,2 v 6 l 12,1 11,-6 2,-3 h 5 l 3,2 -6,12 -4,4 1,4 2,2 -4,4 -5,-2 -9,2 -7,6 h -7 l -9,7 h -8 l -2,-4 3,-2 v -4 l -4,-3 h -8 l -1,-3 2,-2 z" />
      <path id="essos-minor-islands" d="m 8469,5165 -1,7 4,-1 -1,-6 4,-12 -1,-6 3,-2 -2,-6 -8,7 v 4 l -6,2 1,4 h 6 z m 14,-18 v 4 l 2,2 -2,6 -4,-3 v -4 l 2,-2 v -3 z m 1,-20 4,9 -10,-3 2,-5 z m 40,27 3,4 5,1 -1,4 3,10 -5,1 -3,6 v -9 l -2,-6 1,-2 -3,-5 z m 36,-4 2,4 -5,7 -6,6 h -4 l 1,-5 7,-5 3,-5 -3,-4 3,-3 h 3 v 4 z m -2,26 h 4 l 3,1 -2,3 h -2 z m 18,4 5,2 v 4 h -4 l -1,3 -5,-1 z m -2,27 -1,3 -4,-3 1,-2 4,-1 1,2 z m 27,-41 5,1 v 4 l -3,2 1,5 -4,1 v -3 l 1,-1 -1,-7 z m -21,37 6,1 4,-2 v -2 l 4,-2 v -3 l 7,-2 -1,-4 -3,-1 1,-3 -6,-4 h -3 v 6 h 4 l -1,7 -6,7 z m 13,16 1,3 h -6 l -5,-2 4,-2 3,2 z m 70,40 1,1 4,2 -2,2 -4,-1 z m 175,255 10,1 9,-7 7,-2 -2,-6 4,-5 7,-2 -1,-4 -2,-2 h -2 l -5,-6 3,-1 v -8 l -3,-2 -5,2 -3,-6 -12,-3 -10,2 1,6 4,3 6,1 3,4 v 8 l -2,3 6,1 3,3 -4,4 -3,11 z m 94,0 9,2 v -3 h 6 l -3,-4 h -8 z m 36,-1 -2,6 -4,-2 1,-3 z m -9,288 3,3 1,-4 7,-5 -1,-4 3,-2 -1,-2 1,-2 -3,-2 -4,2 -1,-2 h -4 l -1,4 h -5 l -1,4 3,2 h 5 l 2,3 -4,1 z m 19,24 -3,3 v 8 l 4,-2 v -3 l 3,-4 -1,-5 -3,-3 -5,-2 3,-2 -4,1 v 3 z m 33,-19 2,2 -3,4 -2,-1 v -3 z m 16,128 -1,5 3,1 -1,3 -9,2 h -6 l -1,-5 3,-1 3,3 4,-3 v -6 z m -53,82 -1,8 -6,-2 -2,-5 5,-2 z m -3,43 5,1 -3,3 -4,-1 z m -39,23 2,4 10,-1 5,3 3,-1 4,5 4,-1 1,-5 -5,-2 -5,-4 h -6 l -4,-3 -2,4 z m 199,131 2,3 h 6 l 1,1 h 5 l 3,2 12,-2 -3,-3 1,-3 -16,1 v -4 l -5,-2 -3,2 v 4 z m 158,-89 2,1 -1,2 -4,2 1,-2 -2,-3 v -2 l 3,-1 z m 162,-119 5,2 4,6 h 7 l 3,1 -2,4 -5,-1 -9,1 -1,-1 -6,-1 -1,-3 -5,-1 1,-2 5,-1 z m 32,8 2,4 -4,2 -2,-2 z m 45,-71 3,4 -4,4 -5,-3 5,-2 z m 367,-119 5,5 -3,3 -5,1 v 5 h -6 l 3,-5 v -5 h 5 z m -1563,-616 -1,3 1,3 -6,2 -2,3 -4,-1 2,-3 -1,-2 h 4 z m 45,-8 v 0 l 6,2 1,4 -9,-2 z m 23,-16 -2,6 5,2 3,-2 -2,-1 v -4 z m -354,212 1,4 5,-3 5,2 4,-3 v -4 h -9 z m 94,95 -2,3 v 3 h -12 l -2,3 -6,-5 4,-1 -1,-3 8,-4 1,6 z m 42,-30 v 4 l 3,-1 1,-2 z m -3,11 1,3 h 5 l 1,-3 h 7 l -3,-2 -9,-1 z m 72,-137 1,7 h -5 l -2,3 2,13 -5,-2 -3,2 -2,-4 4,-5 -2,-5 3,-1 3,-5 4,-3 v -5 l 2,-2 1,3 z m -584,-22 -4,-2 -5,-5 -8,3 -2,-5 -13,-3 -5,3 -7,-3 -1,-8 -4,-6 h -9 l -3,-6 -8,-2 v -5 l 5,-5 -1,-5 8,3 2,4 5,4 7,1 3,-3 4,6 -3,5 15,4 h 8 l 5,-4 7,6 -1,7 11,10 -5,3 z m 12,0 2,5 h 4 l 5,3 -4,-8 z m -421,-286 9,-7 6,-13 -1,-13 2,-5 6,1 3,-4 -1,-6 -7,-2 -3,-4 1,-4 4,1 4,-3 v -7 l -3,-3 1,-4 8,-3 12,-1 10,3 2,-2 5,1 v 4 h 5 l 6,-3 3,2 -1,5 -3,3 3,5 3,1 3,6 h -7 l -8,9 -1,8 -4,2 -3,-1 -4,3 2,6 -6,2 h -5 l -2,-3 -4,3 2,6 1,5 -5,4 -5,2 -1,12 4,4 -2,3 -8,1 -5,7 -5,3 -6,-1 -1,-5 3,-1 1,-3 -6,-5 1,-2 -3,-3 z m 38,38 h 13 l 2,-5 11,-8 -5,-4 5,-6 v -5 l 5,-3 h -7 l -3,4 -8,-2 -5,6 1,4 4,7 -5,3 v 5 l -4,1 h -3 z m -1275,-213 v 1 l -2,6 -5,-1 -5,2 -1,-4 4,-2 h 5 z m 17,-8 v 1 l -6,3 1,-3 z m 19,8 h 6 l 4,-3 -1,-4 3,-4 -4,-5 -1,-4 -4,3 2,5 2,2 -1,3 v 3 l -6,2 z m 21,-15 -3,5 h 4 l 1,-3 z m 55,10 2,3 -5,2 -1,-3 z m -949,70 v 4 l -9,-1 4,-4 z m 61,76 -8,-5 -2,-5 -8,-1 -4,-7 3,-4 -11,-14 -11,-10 h -6 l -2,-4 4,-4 -12,-4 -4,-8 12,-1 6,2 3,-1 3,3 v 7 l 12,1 3,4 -2,3 10,8 2,6 -2,3 6,5 7,1 v 4 l 3,3 -3,9 3,4 z m 96,-765 v 0 l -2,3 1,3 h -8 l 1,-4 3,-2 z m -665,280 h 6 l 5,-4 -2,-2 v -3 l -4,1 -2,-1 -2,3 1,4 z m -770,41 -1,-6 -4,-6 -4,-1 -4,-4 3,-3 v -4 l -5,-3 2,-8 6,3 h 5 l 1,6 5,2 1,10 -3,6 v 6 z m 133,-73 6,-1 2,-2 10,-1 3,-3 -1,-3 2,-2 5,2 2,-4 4,-1 2,2 -1,5 -3,1 -1,4 -6,6 -13,-1 -6,2 -5,-1 z m 17,86 7,-6 1,-5 5,-1 6,2 8,-6 1,-9 6,-4 -1,-4 3,-1 4,3 5,-3 -1,-12 -3,-1 -5,-4 3,-10 -1,-7 5,-4 7,-1 4,2 5,-1 2,3 -3,2 2,4 -3,2 -3,1 3,6 5,1 5,4 2,5 8,1 2,-2 h 4 l 1,4 -3,3 v 8 l 4,3 -1,5 -2,1 -7,1 -5,-2 h -7 l -6,6 2,4 -5,2 h -11 l -4,-3 -5,4 -1,5 -11,7 h -13 z m -636,-132 5,-1 5,-3 2,-4 3,-5 h 9 l 2,3 4,-2 -1,3 1,6 -5,2 h -7 l -3,4 -7,3 -10,-3 z m -10,24 v -6 l -5,-2 -2,-5 5,-3 5,2 3,6 -3,4 z m 15,22 v -1 l -3,-2 -5,1 -1,-3 -4,2 1,4 -3,5 -5,2 1,4 7,2 5,-3 v -4 l 5,-3 z m 69,14 5,-1 8,5 2,4 6,2 1,5 4,2 1,4 5,-3 1,-4 -5,-4 -1,-4 3,-4 -4,-2 h -5 l -8,-6 -3,-7 h -4 l -5,-6 h -9 v 6 l 4,1 4,6 -2,5 z m -444,-640 -2,4 h -3 l -1,-3 4,-3 z m -262,-188 3,4 5,-1 1,5 -3,3 3,4 -6,2 -3,-2 v -3 l -4,-3 v -8 z m 46,28 3,1 v 5 l -4,1 -2,-3 z m -32,-288 4,1 v 4 l -4,2 -4,-2 v -3 z m 46,46 3,4 6,-1 6,4 -1,3 -11,1 -1,-4 -7,-4 v -3 z m 10,-845 3,2 -2,6 1,3 3,1 v -5 l 4,-3 v -4 l -4,-6 -4,1 z m -6,-13 3,2 -1,4 -6,-1 z m 13,133 2,5 -6,-1 3,-2 z m -147,443 1,4 -7,-1 1,-4 z m 468,-507 4,-1 4,2 1,3 h 6 l 3,3 -5,3 -6,-1 -1,-2 -6,-1 2,-4 z m -6,12 h 2 l 2,1 -2,3 h -2 z m -165,-212 v 6 l -5,4 2,5 -3,1 -1,-4 -3,-1 1,-3 3,-1 4,-4 -1,-2 z m -37,13 2,2 -2,3 h -4 l -1,-4 z m 8,18 6,2 2,-3 6,-1 -1,-5 2,-4 -3,-1 -5,7 h -6 z m 4010,35 5,-3 h 7 l -1,7 h -6 l -4,3 v 5 l -3,1 1,-4 -1,-5 3,-2 z m -22,-13 5,1 4,5 -5,2 -1,3 2,3 h -7 l 3,-4 -1,-6 z m 14,-19 h 3 l 2,3 -1,3 -4,2 -3,-4 z m 780,237 -3,3 1,4 -2,5 -8,1 -2,-4 -7,4 1,5 -5,3 h -5 l -4,6 -6,-2 -6,2 -3,-5 4,-3 3,1 7,-7 -2,-4 2,-4 9,-6 h 5 l 9,-3 7,1 4,1 z m -58,20 2,4 -2,2 -6,-1 -1,-3 z m 66,-182 3,15 -10,7 -4,5 h -7 l -3,-2 -3,1 2,5 -4,3 h -8 l -3,-3 h -5 l -2,4 -7,-2 v -7 l 6,-1 5,-6 9,-4 2,-8 9,1 5,-4 h 8 z m -145,72 -4,4 h -8 l -4,1 -1,3 -3,-2 1,-5 8,-2 h 11 z m -288,22 h 6 v 4 l -3,6 -6,-5 z m -17,43 -4,1 v 3 h 5 l 8,-10 -3,-3 z m 623,316 10,3 -7,8 1,4 -8,7 v 5 l -4,5 -12,3 -3,4 v 5 l -7,4 -1,4 -10,4 -5,-8 -12,1 -5,-5 6,-5 7,-2 2,-12 8,-9 4,1 1,-4 9,1 3,-4 6,2 5,-1 3,-3 5,-1 v -4 z m 14,-12 v 3 l 1,1 -2,3 h -7 v -3 z m -33,-37 1,4 4,1 -4,5 -4,1 v -3 h -4 l 4,-5 v -2 z m -24,13 4,4 5,-1 1,5 h -8 l -8,4 -3,6 -7,-1 v -3 l -5,-3 v -4 l 11,-3 h 5 z" />
    </g>
    <g id="ulthos">
      <path id="ulthos-mainland" d="m 8704,6667 -3,-8 -8,-3 v -6 l -3,-1 -1,-11 h -6 l -6,5 -13,6 -11,-4 -16,-1 -8,3 v -4 l -5,-1 -1,-4 4,-1 2,-4 6,-4 1,-6 -5,-2 -1,-2 h -12 l -4,-2 -4,-8 12,-6 2,5 8,1 7,-3 11,-3 6,-5 4,-9 5,1 1,3 7,-5 4,-2 5,3 4,-6 9,-7 -3,-10 3,-2 v -6 l 2,-3 5,6 -1,4 16,2 7,-4 11,-4 2,5 6,-1 6,4 8,-2 1,-4 -9,-4 -8,-11 h -7 l -1,-9 11,-7 v -6 l 2,-2 3,-4 v 4 l 4,2 6,-5 v -9 l -2,-6 8,-2 1,8 7,2 -3,4 v 3 l -3,5 1,7 -6,3 2,7 5,6 5,-1 12,-5 v -4 l 5,-5 v 4 l 4,4 10,-7 10,-3 5,2 -5,2 v 3 7 l 4,1 8,-3 v 6 l -4,2 1,4 -4,5 -5,1 v 9 l 14,1 6,-4 15,-2 11,-4 2,8 13,-1 6,-8 -3,-6 2,-2 1,-4 -3,-4 4,-3 14,-2 3,5 -2,4 2,7 h 30 l 13,-5 8,-5 v -4 l 3,-1 4,3 7,-2 5,-8 5,-7 -13,4 h -10 l -7,7 -11,1 -8,-3 -9,-1 v -7 l -2,-7 -7,-1 -7,-4 2,-4 7,-1 3,-4 -5,-6 8,-5 1,-6 h 9 l 5,-2 3,-7 -4,-4 v -6 l -1,-5 -4,6 1,8 -8,5 h -8 l -8,6 -9,1 1,6 -5,2 h -11 l -4,-4 -15,-2 -3,3 -8,2 -3,-8 h -7 l -1,5 -4,3 -5,-2 -8,1 -3,2 2,5 2,4 -3,5 -7,-3 -5,-7 -12,3 -10,-2 -1,-5 -6,-2 5,-9 h 10 l 6,-10 8,-2 3,-11 -9,-1 -2,-5 h -6 l -2,3 -4,-1 -8,2 -3,-8 3,-4 5,1 5,-3 -1,-3 v -5 l 10,-3 -1,-5 3,-3 v -3 l 3,-2 2,3 5,-1 4,4 -4,1 1,4 3,3 4,-2 24,2 14,-2 5,-4 h 7 l 3,4 4,-2 v -6 l 4,-2 1,-4 6,-2 1,-4 7,-10 1,-7 -5,-7 v -10 l 3,-2 1,-6 3,3 h 5 l 6,-5 3,1 -2,2 -2,7 -4,-1 -1,3 3,3 -2,3 3,4 h 16 l 8,-4 h 6 l 14,-7 1,-4 -1,-3 h -3 l 1,-3 -4,-4 -1,-2 4,-2 v -4 l 14,-1 8,6 13,1 11,-6 13,-4 7,-7 h 6 l 2,3 7,-1 3,2 h 10 l 4,-5 -2,-2 v -4 l -3,-2 3,-4 2,1 4,-3 4,1 4,5 9,1 8,-5 8,2 6,-2 5,-4 v -5 l 15,-1 4,4 -2,2 4,6 18,-1 1,-3 h 3 l 11,-8 h 5 l 2,-4 -1,-5 3,-3 6,1 h 6 l 10,-5 3,-6 7,-3 v 8 l 7,5 v 4 l -4,1 -6,2 -1,5 5,4 8,-2 2,-4 8,-3 h 7 l 2,-4 9,-5 4,4 -1,4 h 12 l 6,-4 1,-4 9,1 1,7 h 16 l 2,3 4,-1 5,4 -1,3 1,6 7,2 7,-2 7,1 4,-4 7,-2 2,-4 5,-2 -1,10 8,-1 2,6 h 6 l 12,-4 20,-1 3,6 9,-2 1,-3 -4,-1 -3,-6 2,-3 -1,-2 5,-2 v 3 l 3,2 v 4 l 9,-2 11,-2 5,-3 6,1 v 7 h -7 l 2,5 h 8 l 3,3 v 2 h -4 l -1,2 1,2 -3,2 2,4 18,-3 20,-6 3,-5 11,1 7,-2 -3,-7 2,-6 10,-1 3,2 8,-2 3,-6 -3,-3 -1,-8 3,-4 8,1 12,-2 v -7 l 4,-8 11,-5 2,5 7,4 7,1 7,-3 5,1 5,-5 1,-5 11,2 5,5 18,-1 9,-6 9,-4 2,-5 3,-3 v 4 h 4 l 9,-2 6,-1 2,-7 -2,-2 3,-4 v 2 h 8 l 5,-8 9,-5 4,5 9,1 18,-4 8,-11 6,-6 -2,-12 2,-5 14,1 5,-6 v -5 l -3,-4 4,-2 v -4 l 3,-3 -2,-4 h -6 l -3,-4 2,-5 -4,-1 2,-5 11,-3 1,-4 -1,-3 4,-2 5,-5 2,2 -3,4 6,3 2,5 6,4 -1,3 3,5 7,1 h 11 l 9,-4 5,1 3,3 15,3 1,-3 7,3 h 6 l -1,3 11,-1 10,-4 6,-6 v -5 h 3 l 4,-3 v 4 h 14 l 3,-3 v -5 l 3,-2 v -3 l 5,-3 2,2 3,-2 3,2 3,-2 2,2 8,-2 3,5 h 12 l 13,-4 3,-6 5,-3 -1,-4 3,-4 6,2 10,-4 v -4 l 9,-6 3,-8 6,4 -1,8 h 6 l 4,4 -1,7 9,2 4,3 5,-2 h 20 v 541 h -1316 z" />
      <path id="ulthos-minor-islands" d="m 9678,6147 -7,5 2,5 6,-1 3,-6 z m -170,83 2,-5 4,-3 -2,-7 -4,-6 6,-8 8,-3 -1,-6 3,-4 -1,-9 19,-7 1,-5 -2,-2 5,-3 1,-6 h 6 l 9,7 12,-6 7,1 5,-4 5,3 h 4 v -4 l -3,-4 8,-1 2,-6 11,4 4,-4 h 6 l 4,5 h 11 v -5 l 6,-3 7,2 v 3 h 15 l -8,5 -1,7 -6,-1 -8,6 -1,7 4,7 -10,1 v 4 l -8,-2 -10,1 -1,7 -11,1 -2,10 h -10 l -8,3 -6,6 -7,-1 -4,-4 -14,1 -8,-3 -5,6 1,9 -7,3 -8,1 -4,10 -12,5 z m -405,57 4,5 -5,1 z m -179,75 -6,-1 -2,2 -3,2 1,2 2,2 2,-4 h 5 z m -162,90 v 4 l 2,3 -2,2 1,3 h -3 l 1,-3 -3,-4 1,-4 z m -11,13 2,2 -1,3 -5,1 v -2 z m -27,15 h 1 l 4,-2 1,-2 h 3 l 1,-3 9,-7 -2,4 2,3 -1,5 -6,-2 -6,6 -1,4 -5,-1 z m 71,30 v 0 l 3,-3 3,1 2,4 -1,3 -4,-1 z m 91,6 7,-3 3,4 -1,4 h -5 z m -229,52 5,2 4,-6 3,1 3,-3 -8,-3 -4,2 1,4 z m -64,33 -1,9 -6,-1 -4,-7 5,-2 z" />
      <path id="ulos" d="m 9763,5937 -3,3 1,2 4,-1 1,-3 z m -31,4 5,2 4,-4 12,-2 4,-4 -2,-2 2,-3 -4,-1 -2,-2 -7,2 -2,4 1,5 h -5 z m 232,34 15,2 v -3 l -5,-1 -2,-4 -7,1 z m -19,-10 -6,-8 h -5 l -1,-4 -4,1 -19,-5 v -3 h 3 l 2,-7 -6,-2 -5,3 -21,-1 -7,-4 1,-4 v -3 l -4,-1 -13,5 -12,-7 -12,-4 -20,2 h -12 l -2,14 h -6 l -3,3 h -8 v 7 l 5,2 v 6 l 3,3 -1,9 9,1 4,-5 2,6 18,9 h 5 v 4 l -11,6 -10,1 6,6 -1,12 -5,5 -6,-1 -2,-1 -2,3 2,13 -6,3 -3,7 -8,8 5,2 1,4 11,5 3,13 -6,16 4,4 12,3 12,-10 5,1 6,-2 14,-1 10,4 8,-1 v 4 h 9 l 7,3 -3,-4 6,-4 2,-3 7,-3 h 8 l 3,-4 -2,-5 2,-2 v -4 l 5,-3 h 3 l 2,-5 -2,-3 1,-8 3,-2 3,1 1,-2 4,-3 -7,-2 -10,-9 1,-5 -6,-4 -3,-1 4,-3 -7,-9 11,-4 -5,-2 5,-1 4,-8 4,-4 h 9 l 4,-5 -7,-3 5,-5 2,-5 z" />
    </g>
  </g>
  <g id="rivers" class="river">
    <path id="ulthos-river" d="m 9306,6504 16,3 17,5 h 27 l 27,-7 22,-4 26,1 21,8 18,3 13,-4 m -518,16 20,-14 46,1 27,-6 33,-16 33,-3 39,10 40,-2 43,-7 37,9 13,7 8,9 -5,14 -10,8 -13,8 -6,11 1,10 7,11 15,7 20,8 18,11 11,17 1,16 -4,18 -13,17" />
    <path id="path1038" d="m 9885,5577 -5,-12 1,-15 4,-10 14,-12 8,-15 2,-13 m -14,163 16,-16 11,-21 -4,-17 -19,-14 -14,-18 -13,-8 h -34 l -22,-5 -13,1 -16,-4 -8,-5 -14,-10 -4,-12 2,-17 13,-19 4,-16 5,-13 -1,-16" />
    <path id="ash" d="m 9313,5890 13,-11 10,-17 -2,-27 m 191,-155 -1,-11 -6,-13 -2,-14 10,-14 12,-5 7,-8 m -425,424 14,-11 32,-9 15,-13 17,-5 11,-13 24,-16 8,-17 3,-20 13,-15 34,-11 17,-10 5,-9 24,-3 31,1 28,-14 18,-25 -5,-23 11,-16 31,-8 28,-5 9,-12 -3,-16 -30,-11 -10,-5 v -17 l 18,-14 23,-12 6,-14 31,-8 2,-8 11,-11 14,-3 11,-7 m -323,142 3,-12 -4,-22 3,-18 8,-19 13,-12 6,-9 16,-10 8,-9 16,-5 7,-11 11,-7 m -410,571 9,-4 19,-18 20,-8 18,-12 23,-9 17,-19 8,-40 34,-23 10,-13 14,-8 7,-10 11,-10 7,-17 8,-8 7,-17 v -20 l 16,-20 15,-11 8,-19 -1,-29 17,-24 14,-14 6,-12 6,-3 5,-15 v -26 l 10,-17 15,-11 16,-7 25,-1 23,-5 8,-7 14,-6 12,-13 8,-15" />
    <path id="path1077" d="m 9152,4975 6,-12 15,-14 -2,-12 -9,-20 3,-18 14,-11 1,-23 -16,-16 -22,-8 -1,-13 m 251,98 5,-5 11,1 6,11 -4,12 3,12 15,10 m -71,-98 -6,-7 h -35 l -14,-10 -24,-11 -10,-16 -1,-11 m -133,328 9,-6 -2,-8 -12,-22 v -22 l 15,-25 v -27 l -5,-19 6,-28 7,-10 17,-14 22,3 16,7 26,-6 20,-14 26,-8 56,-1 47,-8 10,-8 4,-11 -5,-20 -12,-13 -22,-13 -1,-14 10,-15 23,-7 32,-1 12,-5 6,-5 13,-4 13,-18 m -106,318 16,-8 19,-3 20,2 10,12 5,16 12,7 13,4 4,14 -6,23 3,19 12,14 9,19 m -108,-128 6,-8 -2,-20 8,-12 10,-21 -2,-25 m 151,50 17,-1 17,-11 3,-20 6,-10 -5,-14 7,-13 12,-6 m -292,143 20,1 24,-9 11,-15 9,-9 18,-13 13,-6 h 21 l 27,-1 15,-11 4,-12 21,-15 17,2 22,16 13,4 17,8 6,9 2,11 21,19 22,6 18,10 6,18 v 21 l -11,20 m -655,207 8,-11 14,-4 9,-9 5,-20 8,-5 5,-14 18,-11 9,-24 -6,-22 -28,-13 -11,-18 3,-20 18,-17 14,-26 24,-19 35,-8 23,-17 21,-2 18,-4 h 20 l 19,-10 39,-13 27,-4 22,10 9,12 16,8 15,5 3,20 -10,10 -18,8 -13,17 -17,11 -4,12 7,18 25,7 6,13 -5,20 v 17 l 3,12" />
    <path id="path1128" d="m 8507,5102 -5,2 -4,8 -5,3 m 100,-21 -8,6 -14,1 -8,-9 -11,-1 -9,11 -17,2 -9,-5 -10,3 -1,13 3,8 -4,8 -7,4 m 70,-18 -9,5 -9,-5 -12,5 -2,9 m 46,-17 -7,3 h -7 l -5,11 m 71,-57 -10,16 -7,3 -15,-3 -9,7 -4,12 -7,8 -2,6 -6,3 v 12 l -2,4 m 525,-480 18,-8 10,-13 18,-6 13,1 24,-5 30,9 39,7 20,-2 16,-13 6,-25 25,-30 17,-9 19,-4 10,-14 m -212,4 v -19 l -5,-17 1,-22 10,-20 12,-9 m -336,169 4,-8 7,-3 h 10 l 4,-9 15,-5 15,-12 27,-10 31,7 18,12 22,-2 18,14 11,30 19,11 33,6 31,-5 22,-21 11,-17 11,-13 10,-31 -1,-26 4,-22 10,-12 15,-7 32,1 19,-8 8,-13 14,-7 22,2 17,-8 9,-23 m -453,-192 -8,-4 -8,1 -2,-3 -11,1 -8,6 -16,2 -3,-8 m 76,-25 v -14 l -7,-14 3,-10 9,-5 -1,-21 m -24,142 7,-6 v -11 l 9,-7 1,-10 -3,-4 2,-6 -5,-5 -11,1 -4,-9 4,-9 13,-5 7,-7 -4,-9 -8,-3 -8,3 -7,-5 -13,2 -12,-2 -6,-10 3,-14 m 126,158 -12,-2 -8,2 -8,-2 -6,3 m 21,-42 7,4 1,4 -3,5 5,5 11,-3 7,3 4,12 -9,7 -10,4 -5,8 -10,3 -5,8 1,15 8,8 m 37,-108 -1,-7 3,-7 h 7 v -6 l -7,-7 -1,-5 7,-1 7,2 3,4 h 12 l 12,4 4,7 8,5 h 12 l 12,-4 9,-19 v -12 m -129,-6 1,-4 4,-7 -1,-5 -7,-1 -4,5 -6,-2 -1,-8 12,-13 v -10 l -8,-5 -4,-12 -8,-11 m -107,-284 -15,-1 -11,5 -11,11 h -12 l -10,-10 -3,-12 m 137,11 h -5 l -8,5 -14,-1 -13,-9 -18,-1 -6,3 -11,-1 -14,-11 -8,-22 -2,-16 -11,-6 h -21 m 278,-183 2,-5 -5,-6 6,-10 8,2 7,-6 -3,-14 -4,-9 12,-14 m -12,163 16,9 30,1 33,16 33,2 19,-15 8,-22 8,-5 m -170,297 h 16 l 21,-13 8,-22 11,-19 21,-6 30,-2 13,-8 13,-12 16,-2 m -534,1186 3,-8 10,-10 -2,-15 5,-21 -4,-22 16,-44 -5,-15 4,-28 -6,-28 6,-27 16,-17 30,-23 14,-38 41,-52 28,-29 30,-15 7,-17 -3,-24 8,-17 -8,-21 1,-10 20,-4 3,-7 -3,-27 -23,-14 -27,6 -16,-9 -15,-14 -17,2 -31,8 -18,-3 -19,-25 -9,-30 2,-31 17,-20 26,-14 27,3 27,-11 15,-22 4,-25 14,-19 16,-10 5,-26 14,-7 12,-4 12,-21 2,-10 13,-4 10,6 16,-1 9,-16 14,-14 8,1 -3,10 11,19 21,-1 17,-10 1,-14 -8,-8 -17,-5 -6,-16 -12,-4 -6,-8 7,-11 31,-4 10,-6 9,-10 12,2 6,8 20,5 8,-4 2,-14 -8,-7 -23,-2 -10,-5 -6,-9 -21,-7" />
    <path id="path1132" d="m 8178,5319 -20,2 -17,7 -36,-1 -15,-6 -8,-12 -17,-7 -7,-11 2,-11 8,-8 7,-15 -1,-18" />
    <path id="path1142" d="m 7768,5089 3,-7 -3,-3 -8,1 -7,-7 -15,5 -7,-1 -10,-11 -4,-14 -1,-17 10,-16 m 100,127 v -10 l 6,-7 -2,-8 -9,-8 -1,-9 6,-8 m 23,238 1,-31 -5,-10 2,-8 -6,-16 11,-19 -4,-19 -7,-9 -10,2 -22,-15 v -14 l 10,-9 h 22 l 6,-8 -5,-11 -17,-12 1,-9 -7,-6 -14,5 -9,8 -18,-4 -11,-10 -4,-15 1,-17 4,-18 12,-8 9,-13 11,-8 2,-17 -5,-7 -6,-3 v -5 l 12,-12 15,-6 16,2 h 14 l 11,-4 23,-3 m 37,142 2,-5 11,2 15,-3 9,-21 9,-13 -1,-27 -9,-28 m -113,350 7,-25 3,-23 -3,-20 6,-21 11,-12 13,-6 13,-21 5,-20 12,-6 15,10 16,-2 11,-17 -1,-30 -10,-21 -16,-9 -9,-7 -1,-12 5,-13 -2,-10 -6,-5 v -13 l -10,-5 -8,3 -11,-3 -6,-15 v -11 l 5,-9" />
    <path id="path1154" d="m 7482,4918 11,-3 15,2 14,-3 14,7 10,14 2,8 9,6 13,-1 10,-12 6,-15 12,-6 16,3 8,7 6,10 m 116,-61 11,4 13,-8 m -84,-6 13,1 16,-5 h 13 l 10,13 8,1 6,10 -2,14 -10,9 -9,12 m -350,25 6,-2 5,-6 16,6 24,-6 5,-9 18,-7 15,2 14,-4 8,-7 10,-2 3,-9 -5,-12 19,-10 8,-8 15,1 9,-7 15,2 4,6 21,4 h 20 l 7,-13 2,-11 10,-4 17,3 11,14 19,3 9,-4 12,-10 8,-17 2,-22 11,-7 12,-18 -1,-14 -10,-10 -17,-3 -11,4 h -9 l -12,-13 -9,-4 -14,4 -21,2 -12,-12 -15,-9 1,-12 11,-13" />
    <path id="path1157" d="m 7366,4878 9,-7 v -9 l 11,-14 4,-21 -6,-16 -1,-10 19,-31 7,-4" />
    <path id="path1221" d="m 4294,4414 -6,1 -5,-6 -5,-3 -8,1 -6,12 v 15 l 4,8 -4,13 -7,3 -5,-3 m 81,-83 -4,-7 1,-6 12,3 7,-4 -4,-10 8,-12 m -47,-5 -1,-4 2,-5 18,3 7,-5 -1,-16 9,-12 10,2 4,-4 13,-1 16,-5 3,-5 14,-1 5,-14 10,-10 2,-11 m -70,138 -3,-4 -5,6 -7,-2 1,-9 -9,-7 -9,3 -1,6 -5,3 -2,11 6,11 -4,9 -7,6 h -8 l -7,-7 1,-9 3,-8 -3,-9 -8,-4 -10,4 -8,4 -7,-8 2,-9 15,-14 12,-3 8,2 2,2 15,-7 2,-9 -5,-8 -6,-6 -6,-3 -1,-22 4,-13 12,-15 v -8 l 5,-6 -1,-18 8,-13 15,-6 17,-1 13,-6 5,-14 16,-15 m 159,128 4,-7 12,-2 16,10 20,2 11,-3 8,2 m -84,-44 8,-9 -1,-5 5,-5 v -12 l -5,-12 -5,-7 -9,-4 -9,-3 -10,-12 -5,-18 -9,-8 -11,-4 -9,-14 v -19 l 4,-8 -5,-17 -13,-8 m 197,97 -2,-17 5,-16 9,-13 19,-10 14,-8 6,-12 1,-18 -5,-19 m -208,243 18,1 10,-6 8,1 10,-8 5,-8 -3,-17 -12,-8 v -12 l 2,-5 11,-6 14,4 23,-6 12,-13 18,-4 10,2 21,-11 11,-14 3,-20 -6,-15 -5,-6 -3,-12 1,-20 -8,-9 -7,-2 -1,-5 -7,-3 -8,-13 1,-21 7,-17 -2,-10 -9,-10 -1,-18 4,-14 6,-12 8,-4 m -130,381 8,2 9,-3 m -40,33 v 0 l -2,13 -7,1 -3,6 4,5 -2,8 -12,3 -2,7 m -48,179 14,1 15,-6 3,-7 -4,-14 -7,-8 1,-11 6,-10 18,-6 10,-6 7,-12 m -162,100 5,-1 12,-8 h 12 l 12,2 18,-2 14,-5 5,-6 21,-1 5,3 5,11 -1,12 -5,15 -2,19 12,12 v 20 l -9,12 -16,12 -6,9 2,14 10,13 9,4 m -95,-201 3,-3 6,-2 4,3 h 7 l 4,-8 v -16 l 7,-9 m -137,150 -7,-3 -10,4 -5,8 -13,1 m 44,-148 3,-1 3,-5 7,3 6,-2" />
    <path id="path231" d="m 3157,4185 -4,-3 -3,-9 -10,-6 h -11 l -8,-7 -9,-4 -2,-11 4,-7 m 101,71 2,5 -2,5 2,11 10,8 8,1 4,-2 m -64,-34 h 5 l 6,7 v 7 h 7 l 7,-4 4,-7 h 8 l 3,3 6,2 9,1 2,-3 v -7 l 6,-5 m -62,148 -1,-5 6,-6 v -16 l -11,-19 -15,-14 v -22 l -4,-11 h -9 l -7,-12 2,-12 8,-8 5,-1" />
    <path id="path240" d="m 3260,4030 3,-4 v -5 l 2,-3 5,1 5,-2 h 5 l 3,-8 -1,-10 -9,-6 -4,-6 v -7 l 7,-9 5,-2 5,1 11,-4 4,-10 -1,-12 -8,-8 1,-5 9,-10 9,-7 9,-2 6,2 7,-1 2,1 m -39,178 5,-2 4,-8 7,-6 h 8 l 7,3 7,-7 1,-6 4,-6 -2,-13 1,-6 8,-6 m -86,54 3,3 9,-2 8,4 1,5 4,1 2,3 6,-3 v -5 l 3,-3 5,2 4,4 v 6 l -2,4 1,14 -5,5 -4,10 v 10 l 5,4 m -269,-144 v 4 l -5,4 -1,4 6,2 7,9 2,4 h 14 l 5,-6 2,-8 11,-6 12,1 15,4 3,3 6,-1 5,-6 -1,-6 2,-4 v -10 l 7,-7 10,-1 7,5 9,-1 13,-7 3,-5 10,1 14,7 7,11 v 6 l -5,8 -16,6 -2,5 v 10 l 5,7 12,6 17,-2 8,-2 5,3" />
    <path id="path247" d="m 3186,3586 1,-5 8,-5 1,-8 -5,-7 1,-4 7,-4 h 8 l 6,-6 v -8 l -8,-9 h -16 l -17,-2 -6,3 -11,-1 -8,-9 v -12 l 8,-12 m 33,123 6,-5 h 8 l 4,4 h 10 l 6,7 3,7 12,5 h 10 l 8,-9 m -148,107 2,-6 9,-5 11,-1 7,-6 -4,-11 1,-11 8,-6 12,-3 4,-7" />
    <path id="path256" d="m 3040,2717 1,9 -5,14 m -98,-127 5,6 h 5 l 6,8 13,5 12,-2 14,6 25,30 v 11 l 13,12 3,19 5,3 1,6 6,5 11,3 8,8 1,6 13,10 4,11 m -136,-83 5,6 11,2 8,11 1,7 m -68,-151 7,6 -2,14 4,10 14,7 4,14 7,10 1,6 -5,8 1,10 4,5 -2,17 3,12 7,6 1,13 4,13 7,5 5,12" />
    <path id="path314" d="m 6309,2759 7,11 18,8 25,-3 14,-8 19,3 31,28 m -149,133 -4,7 -16,-1 -6,-9 -15,3 -10,13 1,7 -7,3 5,19 -5,10 -18,4 -6,12 2,13 m 209,192 5,14 10,8 7,20 13,6 20,-1 12,-8 19,3 m -114,-75 6,14 11,7 11,12 1,18 -5,17 1,14 11,13 1,16 -9,21 -13,17 -11,23 -2,22 8,14 m -183,-773 6,9 h 11 l 11,11 1,12 -8,7 4,20 13,4 12,17 -4,15 -18,13 -3,17 19,16 12,1 9,-6 h 20 l 16,8 5,9 2,16 -7,20 -24,25 -8,13 v 12 l 4,7 v 11 l -11,14 v 12 l 11,17 -2,25 4,26 12,26 21,11 31,4 26,13 13,20 -2,15 -2,11" />
    <path id="path321" d="m 8369,3062 -15,-1 -16,-3 h -16 l -14,7 -36,34 -10,17 -30,30 -21,8 -18,15 -15,6 m 236,-150 -8,7 -11,20 -9,6 -17,4 -17,12 -6,13 1,17 10,16 -4,36 -18,21 -4,13 -29,27 -31,13 -13,19 -24,17 -25,29 -18,37" />
    <path id="path330" d="m 8735,3437 9,18 3,11 10,13 9,7 3,7 -13,32 -6,9 v 22 l 13,30 7,3 m -79,-119 -29,7 -19,-6 h -32 l -10,-6 -9,-11 -7,-17 -17,-8 -20,-1 m 218,-100 v 11 l -14,16 1,13 5,10 -8,17 -18,9 -5,11 2,16 6,6 -1,13 -6,9 -24,3 -13,8 -11,10 -2,13 4,14 -8,14 2,30 -4,19 -18,16 -19,8 -18,20" />
  </g>
  <g id="guides">
    <rect width="10000" height="6667" style="fill:url(#minor-grid);"/>
    <rect width="10000" height="6667" style="fill:url(#major-grid);"/>
    <rect width="10000" height="6667" style="fill:url(#decimal-grid);"/>
    <path id="degree-zero" style="fill:none;stroke:#000000;stroke-width:12;" d="M 2640,0 v 6667 M 0,6500 h 10000" />
    <g id="coordinates" style="fill:grey;font-size:5em;" transform="translate(15,-20)">
      <g id="equator">
        <text x="0" y="6500">30W</text>
        <text x="880" y="6500">20W</text>
        <text x="1760" y="6500">10W</text>
        <text x="2640" y="6500">0</text>
        <text x="3520" y="6500">10E</text>
        <text x="4400" y="6500">20E</text>
        <text x="5280" y="6500">30E</text>
        <text x="6160" y="6500">40E</text>
        <text x="7040" y="6500">50E</text>
        <text x="7920" y="6500">60E</text>
        <text x="8800" y="6500">70E</text>
        <text x="9680" y="6500">80E</text>
      </g>
      <g id="parallel-30n" transform="translate(0,90)">
        <text x="0" y="3860">30W</text>
        <text x="880" y="3860">20W</text>
        <text x="1760" y="3860">10W</text>
        <text x="3520" y="3860">10E</text>
        <text x="4400" y="3860">20E</text>
        <text x="5280" y="3860">30E</text>
        <text x="6160" y="3860">40E</text>
        <text x="7040" y="3860">50E</text>
        <text x="7920" y="3860">60E</text>
        <text x="8800" y="3860">70E</text>
        <text x="9680" y="3860">80E</text>
      </g>
      <g id="parallel-60n" transform="translate(0,90)">
        <text x="0" y="1220">30W</text>
        <text x="880" y="1220">20W</text>
        <text x="1760" y="1220">10W</text>
        <text x="3520" y="1220">10E</text>
        <text x="4400" y="1220">20E</text>
        <text x="5280" y="1220">30E</text>
        <text x="6160" y="1220">40E</text>
        <text x="7040" y="1220">50E</text>
        <text x="7920" y="1220">60E</text>
        <text x="8800" y="1220">70E</text>
        <text x="9680" y="1220">80E</text>
      </g>
      <g id="prime-meridian">
        <text x="2640" y="5620">10N</text>
        <text x="2640" y="4740">20N</text>
        <text x="2640" y="3860">30N</text>
        <text x="2640" y="2980">40N</text>
        <text x="2640" y="2100">50N</text>
        <text x="2640" y="1220">60N</text>
        <text x="2640" y="340">70N</text>
      </g>
      <g id="meridian-30e">
        <text x="5280" y="5620">10N</text>
        <text x="5280" y="4740">20N</text>
        <text x="5280" y="3860">30N</text>
        <text x="5280" y="2980">40N</text>
        <text x="5280" y="2100">50N</text>
        <text x="5280" y="1220">60N</text>
        <text x="5280" y="340">70N</text>
      </g>
      <g id="meridian-60e">
        <text x="7920" y="5620">10N</text>
        <text x="7920" y="4740">20N</text>
        <text x="7920" y="3860">30N</text>
        <text x="7920" y="2980">40N</text>
        <text x="7920" y="2100">50N</text>
        <text x="7920" y="1220">60N</text>
        <text x="7920" y="340">70N</text>
      </g>
    </g>
  </g>
</svg>
