<?xml version="1.0" encoding="UTF-8" standalone="no"?>
<svg
   xmlns:dc="http://purl.org/dc/elements/1.1/"
   xmlns:cc="http://creativecommons.org/ns#"
   xmlns:rdf="http://www.w3.org/1999/02/22-rdf-syntax-ns#"
   xmlns:svg="http://www.w3.org/2000/svg"
   xmlns:xlink="http://www.w3.org/1999/xlink"
   xmlns="http://www.w3.org/2000/svg"
   version="1.1"
   width="924"
   height="314.1"
   viewBox="3872 5620 3080 1047">
  <title>Map of Sothoryos - Made by Abjiklam</title>
  <desc>
    A map of Sothoryos from "A Song of Ice and Fire".
    This map covers the following coordinates (parentheses indicate repeating digits):
     - from 10°N to  1.897(72)°S
     - from 14°E to 49.0      °E
  </desc>
  <metadata>
    <rdf:RDF>
      <cc:Work rdf:about="">
        <dc:format>image/svg+xml</dc:format>
        <dc:type rdf:resource="http://purl.org/dc/dcmitype/StillImage" />
        <dc:title>Map of the Known World</dc:title>
        <dc:date>07 July 2021</dc:date>
        <dc:creator>
          <cc:Agent>
            <dc:title>Abjiklam &lt;abjiklam@gmail.com&gt;</dc:title>
          </cc:Agent>
        </dc:creator>
        <dc:description>
          A map of the Known World from "A Song of Ice and Fire".
          This map covers the following coordinates (parentheses indicate repeating digits):
           - from 73.8(63)°N to  1.897(72)°S
           - from 30.0    °W to 83.(63)   °E
        </dc:description>
        <cc:license rdf:resource="http://creativecommons.org/licenses/by-nc-sa/4.0/" />
      </cc:Work>
      <cc:License rdf:about="http://creativecommons.org/licenses/by-nc-sa/4.0/">
        <cc:permits rdf:resource="http://creativecommons.org/ns#Reproduction" />
        <cc:permits rdf:resource="http://creativecommons.org/ns#Distribution" />
        <cc:requires rdf:resource="http://creativecommons.org/ns#Notice" />
        <cc:requires rdf:resource="http://creativecommons.org/ns#Attribution" />
        <cc:prohibits rdf:resource="http://creativecommons.org/ns#CommercialUse" />
        <cc:permits rdf:resource="http://creativecommons.org/ns#DerivativeWorks" />
        <cc:requires rdf:resource="http://creativecommons.org/ns#ShareAlike" />
      </cc:License>
    </rdf:RDF>
  </metadata>
  <style>
* {
  stroke-linejoin: round;
  stroke-linecap: round;
}

#guides {
  display: none;
}

.ocean,
.lake {
  fill: #c6ecff;
}

#bleeding-sea,
#sea-of-sighs {
  fill: #ffc6d3;
}
#poison-sea {
  fill: #b6c4d2;
}

.land,
.river,
.lake {
  stroke: #0978ab;
  stroke-width: 4;
}

.river {
   fill: none;
}

.land {
  fill: #e0e0e0;
}

.major-border,
.minor-border {
  fill: none;
  stroke: #646464;
}
.major-border {
  stroke-width: 12;
}
.minor-border {
  stroke-width: 6;
}

/* Colors
  Dark grey: #e0e0e0
  Light grey: #f5f5f5
  Yellow: #feffe9
  Red: #c12838
*/

#sothoryos {
  fill: #feffe9;
}
  </style>
  <defs>
    <pattern id="major-grid" x="2640" y="6500" width="880" height="880" patternUnits="userSpaceOnUse">
      <rect x="0" y="0" width="880" height="880" style="fill:none;stroke:#888888;stroke-width:6;"/>
      <circle cx="440" cy="440" r="6" style="fill:#888888;stroke:none;"/>
    </pattern>
    <pattern id="minor-grid" x="2640" y="6500" width="88" height="88" patternUnits="userSpaceOnUse">
      <rect x="0" y="0" width="88" height="88" style="fill:none;stroke:#888888;stroke-width:2;"/>
      <circle cx="44" cy="44" r="3" style="fill:#888888;stroke:none;"/>
    </pattern>
    <pattern id="decimal-grid" x="2640" y="6500" width="8.8" height="8.8" patternUnits="userSpaceOnUse">
      <rect x="0" y="0" width="8.8" height="8.8" style="fill:none;stroke:#888888;stroke-width:1;"/>
    </pattern>
  </defs>
  <g id="ocean" class="ocean">
    <rect width="10000" height="6667" />
  </g>
  <g id="land" class="land">
    <g id="essos">
      <path id="great-moraq" d="m 7256,5602 h 1 3 l 4,5 -7,8 -1,-4 2,-3 -3,-3 z m 10,-46 5,1 v 6 l -3,3 1,8 6,5 -7,6 1,5 -4,4 -5,-2 v -9 l 4,-5 -6,-14 6,-3 z m 21,-19 9,3 -1,4 -4,2 v 7 l -11,3 -1,-5 6,-4 -2,-7 z m -89,-361 2,9 -4,2 -2,-4 -7,2 -4,-4 7,-6 z m -60,284 9,-1 7,2 9,-1 2,-3 -4,-6 6,-6 3,1 5,-6 v -8 l -4,-11 h -4 l -3,-11 4,-3 8,5 8,-3 -2,-5 -7,-5 v -7 l 3,-3 v -3 l -4,-2 1,-8 -5,-4 h -7 l -1,-6 -6,-3 3,-4 8,3 5,-3 v -4 l 8,-5 -2,-4 -5,-1 -1,-9 4,-4 -1,-4 2,-5 -7,-3 -1,-15 h 8 l 2,-7 8,-3 -3,-6 v -7 l 5,-11 -4,-2 -6,3 -3,-3 1,-7 7,-2 -2,-6 3,-2 1,-10 6,-3 -1,-6 -3,-4 h -5 l -11,-13 -9,1 -1,-4 5,-5 -3,-4 2,-5 2,4 h 9 v -9 l 5,-2 -1,-4 -4,-2 -2,-7 -5,1 -8,-3 3,-5 -10,-5 -9,-16 3,-3 5,3 1,-14 7,-6 -6,-2 -9,-6 v -7 l -7,3 -6,-1 -1,-5 5,-3 v -3 l 4,-1 -2,-4 -8,-1 -5,-6 -6,2 -7,-3 -1,-5 -8,-1 -3,-3 3,-3 -1,-7 h -7 l -9,6 -8,-2 -5,4 -5,-1 -10,4 1,3 h -8 l -3,4 1,3 -8,3 1,-6 -1,-5 -13,-4 -2,-4 5,-3 -7,-4 -2,-4 -10,1 -4,-3 1,-4 -4,-4 h -6 l -5,-5 v -7 l -3,-3 -11,4 -1,-2 -4,4 h -6 v -3 l -9,-4 -2,-6 -7,5 -7,-1 -1,4 -24,-1 -2,-6 -5,3 v 3 l -8,1 -11,-2 v 6 l 3,2 -3,6 -3,-7 -7,-1 1,7 -10,2 v 8 l -7,4 -1,9 -7,3 v 2 l 6,1 2,4 h -10 l 2,7 -4,13 h -9 l -6,4 1,6 -8,5 -3,5 h -9 l -7,6 2,6 -7,2 -3,4 -5,-6 -6,-1 -7,6 -27,2 -4,9 4,6 -2,5 -11,-1 -6,4 -3,7 1,10 -14,16 -12,6 -5,-1 -3,9 -8,3 1,4 h 7 l 5,4 -1,4 2,8 -10,2 -2,4 3,6 12,4 -4,14 1,12 -19,9 v 6 l 5,5 7,-1 9,10 h 12 l 18,8 3,10 -5,9 6,6 14,1 3,5 -3,3 8,5 16,-2 -2,7 -9,6 -15,11 5,6 2,6 6,-6 8,1 -1,7 8,1 10,14 12,4 v 13 l -3,5 2,19 -21,12 6,4 2,10 13,1 1,9 11,-1 9,7 -1,7 -9,6 3,5 -5,12 9,5 1,6 11,-3 3,5 -2,5 6,5 -2,11 9,15 1,9 -4,5 4,13 8,-7 4,-9 -3,-5 10,-1 3,-12 6,4 v 11 l 4,5 -3,5 -3,1 1,9 -3,1 4,11 10,2 4,10 h 8 l 6,12 -2,6 5,4 8,1 1,4 12,3 v 4 l -11,-1 -6,-2 v 8 h -9 l -3,9 h -9 l -1,8 8,10 -1,9 -8,5 1,4 7,7 7,2 -2,12 h 7 l 3,6 10,-3 5,6 -1,4 6,8 10,1 3,-2 6,1 8,-3 v 5 l -4,2 -2,8 -6,-2 -4,10 2,14 -4,2 h -5 l 1,6 10,18 -3,24 -4,5 4,8 9,-2 2,5 v 9 l 4,2 v -10 l 6,-5 4,2 1,7 18,9 -2,18 -4,4 12,4 2,5 -4,3 7,4 7,-6 h 8 l 12,9 6,-3 4,6 9,5 -1,5 -6,3 1,8 19,7 v 5 l 11,3 5,-6 16,6 24,6 7,8 7,1 7,-6 21,6 h 5 l 4,5 -4,8 8,5 h 7 l 2,10 6,-1 3,-8 8,-2 -1,-8 8,-13 14,-9 5,-9 -2,-7 5,-5 -1,-7 -7,-1 -3,-5 5,-1 4,-10 5,-1 3,-8 -4,-4 v -7 l 4,-3 -2,-4 h -6 l -1,-4 9,-11 4,1 4,-6 1,-5 -4,-7 -1,-11 4,-5 v -5 l -6,-2 -3,4 -5,-4 2,-7 -4,-6 -12,-3 -4,-7 14,3 4,-4 3,-8 11,-3 h 8 l 1,-10 5,-1 6,-6 -7,-15 6,-5 -1,-10 6,-8 -1,-6 -5,-2 -4,3 -4,-7 7,-3 -5,-4 1,-10 4,-6 v -6 l 7,-4 -1,-5 -6,-3 -1,-8 5,-10 -2,-6 h -7 l -2,3 -14,-6 -1,-5 -10,-2 v -5 h -15 l -2,-8 12,-3 -1,-6 4,-5 -1,-10 -9,-8 v -14 l 6,-4 -3,-8 6,-4 4,-1 -1,-6 -9,1 -6,-4 1,-8 -3,-3 -1,-9 -11,-3 2,8 -25,-1 -1,-5 8,-4 1,-6 6,-6 -5,-5 3,-4 -4,-12 -16,-12 1,-5 -9,-5 -8,1 -6,-11 -10,-3 z" />
      <path id="vahar" d="m 6759,5564 2,6 11,-6 h 4 l 5,-5 -3,-2 -8,2 h -5 l -3,4 z m -2,18 v 4 h 2 l 1,-6 -3,1 z m -44,98 5,2 4,-7 -6,-2 -3,3 z m 10,-15 1,-5 3,-3 -2,-4 -3,-2 v -4 l -4,-6 v -4 l -2,-2 -7,1 -6,-4 -1,-4 4,-3 -6,-13 -12,-6 1,-12 h 7 l 5,-2 3,-1 4,-4 -3,-2 1,-4 h 7 l 2,-5 -3,-7 v -8 l 10,4 7,-3 h 5 l 2,2 h 16 v 3 l -2,5 1,10 3,2 -1,6 -8,5 1,6 -10,5 1,6 9,6 -3,6 4,5 5,1 v 6 l -5,4 3,11 -10,9 -3,8 h -9 z" />
      <path id="lesser-moraq" d="m 6616,5932 4,-2 -1,-7 h 3 l 5,10 -3,2 1,5 -2,2 -1,-1 v -3 l -3,-4 h -3 z m 79,-213 9,-3 5,-7 3,4 7,-1 -1,3 -8,5 -3,-1 -6,5 -1,3 h -7 v -3 h 4 v -4 l -2,1 z m 31,-16 h 1 l 2,3 -3,3 -3,-1 v -3 z m -82,-48 4,3 -1,5 h -6 l 1,-6 z m -148,44 v -4 l 21,-6 11,-17 -1,-6 4,-4 4,3 5,1 10,-5 1,-4 6,-5 1,-4 7,-4 4,1 9,-4 -4,-5 1,-3 -9,-3 7,-6 3,1 5,-4 v -5 h 8 l 6,-3 5,9 h 9 l 4,-4 4,7 -4,7 1,5 -1,7 11,7 4,5 11,1 v 10 l 5,3 v 6 l 4,4 -5,4 4,6 12,4 7,1 -3,4 5,5 h 17 l -4,6 4,4 -5,4 4,4 h 5 l -1,8 -9,2 -6,6 -5,-1 -4,4 v 6 l -4,3 v 9 l 2,11 -8,2 -2,7 -6,1 -6,4 1,3 5,2 v 9 l 3,2 3,-3 3,2 -2,13 3,5 -1,5 1,4 -14,12 -3,6 4,4 -5,6 h -5 l -3,8 2,2 h 6 l -2,5 1,14 5,5 -11,7 -1,3 -6,5 v 6 l -8,3 -4,4 1,7 -6,1 -3,-3 -3,2 -1,-7 -4,-9 -6,-7 3,-6 3,-3 -2,-16 -4,-10 v -9 l -6,-3 -4,-6 7,-5 v -8 l -3,-2 -5,2 -7,-7 -4,-10 -14,-1 -4,-5 h -6 v -7 h -6 l -3,-5 -10,-2 v -5 h 5 l 7,-8 v -13 l -3,-5 1,-8 5,-3 v -19 l 4,2 1,-2 5,1 1,-4 -4,-4 1,-4 4,-4 -4,-3 -10,4 -12,-7 -1,-3 -8,1 1,4 -7,-1 -6,-7 -1,-8 z" />
      <path id="cinnamon-straits" d="m 7000,6163 -7,-5 3,-10 -14,-4 -2,-9 -9,-2 -9,1 -3,-5 5,-1 1,-6 -7,-3 -6,-9 -7,3 -6,-1 -6,-4 -8,4 h -8 l -2,4 13,4 6,4 -2,8 -5,1 1,6 -7,3 2,2 7,1 7,4 8,-1 4,6 -1,8 -3,3 h 7 l 2,2 h 8 l 4,-3 8,5 h 10 l 4,-4 8,-2 z m -143,-224 7,2 -2,6 5,6 h 8 l 3,5 14,1 3,-3 4,3 1,7 h 5 l 4,3 -3,5 -1,10 2,3 h -7 l -7,5 -3,9 -2,2 v 5 l -3,3 h -5 l -1,-6 v -7 l -3,-1 -7,-11 3,-4 v -7 l -5,-9 -13,-6 v -4 l -6,-4 1,-5 5,-1 z m 184,41 -5,-4 h -9 l -6,-7 -6,-1 -5,3 4,8 6,1 v 4 l 6,3 h 5 l 4,-6 5,1 z m -79,-41 4,3 h 9 l 3,4 -15,1 -3,-6 z m -15,-17 3,4 1,-3 -1,-3 z m -6,-5 5,4 -4,3 -5,-4 z m -20,-22 11,6 -1,6 3,1 -4,7 -6,-8 v -3 l -6,-5 z" />
    </g>
    <g id="sothoryos">
      <path id="sothoryos-mainland" d="m 6329,6686 v -19 l 3,-7 -4,-8 -7,1 -2,-4 -6,-1 v -4 l 4,-6 -7,-12 10,-6 1,-5 9,-2 14,3 2,6 8,-1 v -13 l 4,-1 3,3 13,1 v -6 l -7,-3 -1,-4 4,1 2,-2 6,-2 -1,-9 -8,-1 -3,-3 v -4 l -2,-4 4,-4 -7,-3 1,6 -4,1 1,5 -8,-2 -17,-21 v -11 l -5,-7 3,-9 1,-16 -10,-5 -1,-9 -4,-1 -1,-4 -7,-3 -2,4 h -7 l -8,-4 -6,5 -20,1 -16,8 v -6 l 14,-4 16,-8 3,-7 20,-1 v -8 l 2,-2 v -5 l -11,1 -12,-2 1,-9 -3,-4 v -6 l -10,11 -3,-2 -5,1 1,4 -9,6 -8,-10 3,-7 5,1 v -6 l 3,-4 -3,-7 3,-3 1,4 h 5 l 4,-4 -1,-6 3,-2 1,-8 -3,-7 -8,-2 h -10 l -14,-8 v -13 l 8,-5 1,-6 -10,-11 -1,-12 -4,5 1,5 -2,3 -5,1 -7,-7 -1,-14 3,-3 2,2 6,-1 -2,-16 -3,-1 v -5 l -3,-5 16,-6 8,-11 9,-1 3,-7 -4,-5 5,-6 4,2 h 6 v 4 l 3,3 8,-1 -1,-5 1,-19 6,-5 1,-5 5,-3 -3,-5 -5,2 -4,-3 v -5 l 6,-9 h 6 l 4,4 h 13 l 3,-7 h 4 v 4 l 10,-5 -2,-4 8,-2 -1,5 7,-1 5,2 2,-13 4,-9 4,-2 2,-5 10,-3 v -4 l 6,-4 -2,-4 2,-9 3,2 5,-4 -5,-10 11,-1 3,-7 13,-2 2,-6 h -3 v -4 l 4,-2 1,-7 -3,-2 v -13 l 4,-5 10,-3 v -6 l -4,-2 -2,-9 1,-31 3,-2 v -11 l -4,-2 -2,5 -9,-2 v -12 l 11,-1 -2,-6 3,-3 -1,-7 -3,-7 4,-7 h 7 l 3,-22 -6,-2 -2,8 -9,-3 4,-5 -2,-14 4,-4 h 3 l 8,-11 -2,-9 3,-4 7,-2 5,-6 -1,-10 2,-8 8,1 h 6 l 3,-7 4,-3 1,-7 2,2 10,-2 -3,-8 1,-4 -10,-1 -2,-3 3,-3 3,1 1,-5 4,-2 1,-6 19,1 1,-4 -11,-3 -3,-6 -9,1 -10,-3 -4,-3 v -5 l 3,-5 -3,-7 -7,-2 -40,2 -7,-4 -4,-4 -4,2 -1,4 -4,4 -13,-2 -11,6 h -13 l -6,2 -13,-2 2,-5 -4,-2 -3,6 h -14 l -2,4 h -3 l -5,3 -6,1 -3,-6 -12,-2 -3,3 -9,-4 -2,-6 h -21 l 1,3 -7,4 h -8 l -5,-4 -10,13 -5,1 -7,8 -4,-1 -3,3 -7,1 2,7 4,2 1,5 -7,7 -5,-1 -6,4 2,6 -1,1 2,6 h 6 l 1,3 -5,1 -4,4 h -5 l -2,2 2,5 -4,10 9,7 h 7 l 2,7 -5,5 -5,1 3,3 v 4 l -6,1 -2,4 3,3 6,-2 5,7 -9,9 -2,5 -7,4 -3,4 h -11 l 3,4 -4,5 -4,8 -7,1 -4,4 1,4 -4,2 v 4 l -5,3 v 5 l -2,3 h -9 l -6,3 -8,7 8,6 -7,5 -9,2 -7,7 -10,1 -4,10 -12,-1 -7,-5 -15,2 -5,5 -8,-1 -8,6 -10,-3 1,-5 -4,-3 -1,3 -13,1 -3,5 -11,5 1,-7 8,-4 5,-9 5,-17 -9,-8 v -5 l 7,-5 2,-8 6,-1 4,-6 v -5 l -14,-8 1,-10 -5,1 2,5 -14,-3 3,-5 -3,-6 3,-6 -4,-1 -8,9 -11,1 -3,2 h -5 l 1,5 -10,5 h -11 l -2,3 2,5 -5,4 -6,-1 -4,-4 -1,4 -18,15 -8,-1 -3,4 1,3 -3,2 2,5 v 6 l -4,-1 -16,9 h -7 l -6,7 4,4 v 3 l -7,-1 -3,7 h -9 l -4,5 -12,-2 -8,-2 -1,-6 h -10 l -7,4 -23,-1 -6,5 -4,1 -3,-4 4,-2 v -4 l -3,-2 v -4 l -11,1 -6,-2 -4,6 -13,3 -4,5 -15,2 -2,-2 -9,-1 -4,1 h -9 l -2,7 -3,1 -27,-3 -8,-4 -5,-4 1,-2 h -3 l -5,4 -4,-1 -6,5 v 11 l 6,4 -1,3 -13,1 -3,6 -4,-3 -5,-1 -5,3 -5,-3 2,-6 -3,-1 -4,3 -7,-1 -2,-5 h -12 l -5,7 -13,8 -7,1 v 4 l 3,2 -8,6 h -9 l -2,-4 h -15 l -5,-3 v -3 l 3,-4 -6,-5 -17,-1 -3,-5 -5,-1 -1,-7 -8,1 h -7 l -4,-2 -4,1 -3,-8 -9,-10 -10,1 -6,-3 -4,-6 -10,-1 -2,3 -6,1 -2,6 -23,-3 -3,2 -10,-3 4,-2 1,-3 5,-3 6,-14 -8,-7 -4,3 h -7 l -3,4 h -4 l -3,-2 -1,3 h -3 l -1,-3 2,-1 v -6 l -5,-3 -4,3 -7,-2 -3,-3 -11,-7 1,-3 -8,-5 -1,4 -4,-1 1,6 h -6 l 3,-6 -2,-7 -6,-6 v -4 l -6,-4 h -9 l -5,-6 1,-7 -8,1 -3,2 -4,-4 h -6 v 6 l -8,3 v 6 l 5,4 -1,4 1,10 -8,6 -2,8 -7,4 v -5 l 4,-3 1,-3 4,-6 1,-13 -6,-4 -5,-9 4,-3 2,-6 -3,-3 -12,3 -14,-1 -8,-8 -1,-4 -15,1 -3,4 1,5 -4,4 -3,-4 2,-7 -2,-2 -7,2 -2,-6 -7,1 -1,6 -7,5 v 7 l 7,3 -1,6 3,7 -5,9 -9,-4 -10,-7 v -9 l -6,-4 v -5 l -8,-1 -10,12 -3,8 -5,4 8,8 4,-1 3,3 -2,7 -10,-4 -1,-4 -2,-1 -6,4 -2,12 -7,5 2,4 -7,10 v 5 l 4,5 4,1 6,5 1,8 4,4 h 4 l 1,6 -4,3 -7,-5 -1,-5 -9,-4 v 3 l -6,-1 -3,3 -5,-1 -6,17 -6,3 -4,7 1,21 -9,1 -1,6 -4,6 h -8 v 8 l 4,1 v 4 l -3,4 2,4 -1,14 -3,3 h -6 v 9 l 9,10 v 6 l -9,8 -7,9 -7,2 v 9 l 7,3 -2,7 -11,5 -3,7 h -8 l -4,-4 -6,1 -1,6 -2,4 h -6 l -12,7 h -6 l -4,1 1,3 10,-1 -1,2 2,5 v 10 l 6,1 1,4 5,4 3,1 v 3 l -3,1 -3,-3 -10,-2 -3,1 -4,1 -1,-3 h -10 l -2,-5 h -6 l 3,6 -7,3 -6,-2 -16,12 -13,2 -3,3 -11,-1 v -3 l -6,-4 -7,5 h -8 l -10,-3 -7,-1 -3,3 1,2 -4,1 2,3 -6,1 -5,-2 -3,-6 -7,4 h -12 l -12,-3 -13,-8 -8,-11 v -12 l -9,-6 -4,-8 -3,1 v -4 l 7,-4 -4,-10 -14,-5 7,-8 2,-15 3,3 9,-3 -5,-9 3,-21 5,-6 -4,-20 -5,1 -4,-3 -1,-6 9,-5 -2,-8 10,-3 -4,-14 3,-10 -4,-1 -5,6 -7,-1 -4,3 -16,5 -1,6 -5,4 h -13 l -1,-4 -6,4 1,7 -12,4 -5,6 -1,9 3,1 5,14 -7,3 h -4 l -5,4 2,9 5,1 v 6 l -11,9 -1,6 -4,1 -4,8 -8,1 -1,-3 -5,6 v 16 l -11,13 h -10 l -4,2 1,7 -7,13 -16,8 h -8 l -4,4 1,5 -6,5 -7,2 -3,6 14,4 8,13 -10,6 -3,7 4,1 v 4 h 7 l 5,17 -6,11 5,10 21,5 9,11 -1,17 -7,7 -3,-1 -2,1 4,3 -1,8 h 6 v 5 l 8,3 4,-3 10,-2 h 8 l 3,3 2,-1 9,10 8,6 v 8 l -5,7 -2,7 3,2 -2,6 2,8 -12,1 -1,3 11,3 4,-3 h 5 l 3,3 5,1 5,-4 -1,-7 11,1 3,7 1,10 12,12 2,12 -4,5 3,4 h 8 l 4,-2 8,6 6,1 14,4 14,9 7,7 1,5 3,-1 -3,6 -4,1 2,4 6,1 1,3 -2,3 5,5 v 13 l -7,2 -2,-2 h -6 l -5,6 -8,-3 -1,-10 4,-6 -9,-15 h -9 l -6,-4 -7,-2 -4,-7 -3,-2 -3,4 -7,-4 -2,3 4,5 2,4 10,6 h 3 l 11,5 6,8 1,9 -6,3 3,7 6,3 1,4 5,1 2,5 10,-4 9,4 5,7 -1,9 -4,5 3,5 -3,4 3,5 h 10 1 v 5 l 5,8 -1,11 2,3 v 19" />
      <path id="naath" d="m 4196,6105 -2,-3 h -4 l -1,-5 5,-3 7,5 4,-1 1,5 5,2 -2,7 -1,3 v 6 l -11,1 -1,-4 8,-4 v -5 l -4,-3 z m -123,142 8,-4 -2,-17 6,-6 15,-2 2,-4 h 11 l 8,-5 v -4 l 4,-2 v -10 l 8,-4 h 6 l 10,-6 6,-11 15,-3 7,3 6,-5 -1,-7 3,-4 h 3 l 9,-9 -2,-4 -4,1 -5,-5 3,-3 -5,-9 1,-5 h 3 l 3,-3 -3,-7 -7,-2 1,-6 -4,-3 -6,-1 -4,-6 -5,-1 -1,-5 4,-2 3,-1 1,-10 7,-7 6,1 -1,7 12,2 3,-4 18,4 10,9 3,3 5,1 1,4 4,3 -1,4 -8,1 1,4 3,1 v 9 l -2,4 -8,3 8,5 7,-5 2,-7 13,-5 -1,-4 -4,-3 -1,-9 6,-5 -4,-3 -1,-6 -8,-2 -3,-5 1,-11 -4,-2 h -10 l -5,-4 v -6 l -3,-4 -21,-1 -7,-2 -3,-3 -6,1 -4,4 h -7 l -3,-3 -7,5 -13,7 -8,-1 -6,1 3,5 v 9 l -8,1 6,4 1,4 3,4 -1,8 -3,7 v 4 l 3,3 h 6 l 7,-3 4,8 5,7 -1,7 -1,4 4,7 v 7 l -3,3 -7,-1 v 7 l 1,6 -4,4 -8,3 -11,5 h -2 l -1,-2 -8,5 1,3 -7,1 -6,-4 1,-3 -4,-4 -6,2 -2,4 2,4 -10,4 -4,7 5,3 -6,5 -3,-3 -2,4 -3,1 3,13 -5,5 -2,8 -5,5 1,6 8,3 z" />
      <path id="basilisk-isles" d="m 4359,6314 1,5 5,-1 3,4 -3,2 -1,12 -4,6 h -6 l -2,-8 3,-1 v -9 l -7,-1 1,-8 5,-1 z m 40,-49 -2,3 3,2 -1,4 h -4 l -6,7 v 5 l 3,3 4,1 -1,10 -6,4 v 6 l -4,6 1,5 -2,2 h -7 l -2,-6 7,-4 -2,-19 -5,-6 v -9 l 8,-2 -3,-8 7,-5 3,3 z m -7,-8 12,1 4,-7 8,-1 3,-7 -12,1 -2,-2 h -8 l -2,7 -2,2 z m 169,84 6,2 4,6 4,-2 h 7 l 5,4 1,6 4,3 v 9 h -4 l -5,-9 -4,2 -7,-1 -4,-6 -1,-7 -5,-2 z m 43,-95 7,1 5,-1 2,-3 h 2 l 3,-5 11,-3 -1,-3 h -11 l -5,7 -6,2 -3,4 z m 80,-128 v 0 l 5,-4 2,1 v 3 l -4,3 -1,4 2,1 -4,7 -4,2 -2,4 1,7 -1,3 -6,-2 1,-6 3,-7 7,-5 -1,-4 2,-2 z m -129,-115 4,-2 9,1 10,-2 v 3 l 7,2 4,-1 4,-5 h 9 l 2,-3 3,2 h 11 l 9,-3 3,-3 5,1 -3,4 3,4 -2,5 -7,1 -5,-2 -10,6 -13,5 1,4 -10,3 -6,-2 -8,3 h -8 l -2,2 -1,5 -5,1 v -5 h -8 l -4,1 -1,-4 7,-7 v -3 l 5,-2 -1,-4 -3,-1 z m 52,78 9,1 -3,5 -5,2 -3,4 v 4 l -14,7 -7,-4 -6,-2 5,-3 v -4 l 5,2 3,-3 h 6 l 5,-6 z m 150,-120 h -1 -5 l -5,5 -5,-4 1,-15 -5,-6 v -4 l 4,-3 3,-14 5,1 9,-5 -3,-7 h -5 l 1,-3 -8,-5 -1,2 h -6 l -5,-5 v -5 l -10,-7 v -3 l -6,-3 -7,4 h -9 l -2,-4 -10,-2 1,-5 h -7 l -4,-5 14,-6 4,1 4,-4 7,3 h 5 l 2,2 18,-1 4,8 8,1 5,-2 2,4 6,5 -4,7 6,3 1,6 4,-1 2,4 5,1 1,7 4,5 8,-1 -2,3 3,3 -12,3 -5,5 1,6 -9,-2 -8,7 2,5 5,2 1,4 -5,5 v 5 z m -53,-51 h 6 l 3,-3 3,1 3,3 4,-2 3,1 -1,10 4,2 -2,5 -5,2 1,8 -5,4 v -7 l -4,-2 v -6 l 3,-2 v -4 l -5,-4 -5,-1 z m -23,98 v 8 l 8,4 v 7 l 4,5 11,-1 3,4 -2,8 -7,3 5,7 v 10 l -5,5 1,3 12,1 3,-4 h 5 l 5,-4 -2,-5 7,-3 17,1 1,-4 7,1 4,-4 17,-2 2,-5 -4,-1 1,-6 5,-2 -2,-2 4,-7 v -5 h 9 l 7,-5 -7,-3 -1,-4 4,-2 -4,-4 -3,2 -7,-2 1,-8 h -9 l -11,6 -11,-3 h -9 l -3,3 1,2 h 5 l 2,4 -1,6 -7,2 -4,6 -12,-5 -1,5 -7,5 -9,1 -2,-5 4,-3 -12,-9 h -8 z m 200,-138 v 0 l 6,2 8,12 3,1 -4,13 1,20 -5,1 -3,12 3,1 v 14 l -6,1 -2,11 5,2 v 6 l -3,2 1,5 h 5 l 3,-7 -1,-6 3,-8 v -15 h 4 l 4,-3 1,-6 5,1 -2,6 -1,9 1,9 -5,2 1,3 -4,2 v 16 l -7,5 -3,5 6,3 -6,6 1,4 -8,4 -4,-2 -7,11 2,4 4,2 -2,6 -1,4 -4,3 v -9 l -6,-3 -5,-7 2,-1 2,-13 -6,-6 -4,1 -4,-6 h -11 l -1,-6 -3,2 -7,-1 -6,-5 1,-5 -5,-12 18,1 5,7 9,1 3,-6 7,6 6,-5 v -6 l -5,-2 -6,-12 -9,-5 v -11 l 7,1 9,-2 -1,5 4,3 h 5 l -1,10 3,5 4,-5 -3,-8 2,-12 6,-1 v -24 l 5,-3 v -7 l -5,-3 -2,-6 3,-6 z m -9,-19 -9,8 -5,-1 -2,4 4,5 -1,9 4,5 -1,9 -2,3 5,7 -4,7 5,1 v -4 l 6,-3 -3,-13 2,-12 -6,-4 1,-6 6,-1 -2,-8 z m -77,306 -1,6 5,6 5,1 -1,3 -6,2 v 7 l -5,6 v -4 l -4,-1 v -4 l -4,-1 v -4 h 6 l -2,-10 -3,-5 4,-3 z m 27,-60 -3,-4 11,-8 v -3 l -5,2 h -6 l -4,-2 -1,7 -13,5 -5,4 -2,8 3,3 13,-9 8,1 z m 14,32 -1,-6 8,-11 4,2 2,6 -6,2 v 5 l -4,2 -1,4 -7,2 v -3 z m 9,27 -5,4 -4,5 -6,-1 -1,-3 6,-4 h 4 l 3,-3 z m 48,-114 -4,-3 -4,4 -2,4 -8,8 1,4 10,-3 1,-4 h 5 l 1,-6 h 7 l 4,-5 -1,-4 z m 181,-9 1,1 4,3 2,6 h 5 l 1,3 -14,2 3,-7 -3,-4 z m 70,-76 -7,4 3,5 2,12 9,6 v -9 l -6,-6 2,-7 z m 98,5 6,-2 1,3 -3,4 h -5 v -3 z m -228,-85 1,5 -5,3 -4,2 -1,8 4,2 v 4 l -11,1 -4,5 -4,2 -3,6 -6,-3 4,-2 1,-4 5,-3 v -9 l 8,-1 2,-11 7,-5 4,-8 6,2 z m 72,57 v 7 l 4,4 -3,5 5,2 3,-3 4,1 1,-7 h -4 l -2,-7 5,-4 h -9 z m 117,-58 10,-2 5,9 -10,4 -1,8 -8,3 4,8 -2,10 -11,1 v -5 l 5,-3 -1,-7 -4,-7 h 6 l 5,-4 -2,-6 5,-3 z m 82,-9 8,6 -4,4 v 8 l -4,-1 -3,-6 1,-4 -5,1 -3,-6 z" />
      <path id="isle-of-tears" d="m 4879,6177 h 9 l 3,-3 8,-1 2,3 18,1 -1,-8 9,-2 4,-6 -12,-1 v -10 l -8,-2 8,-1 2,-6 16,-1 -1,-3 11,-3 2,-4 h 14 l 2,-7 -4,-2 1,-6 3,-6 -4,-5 1,-7 -4,-3 -4,2 2,3 -2,2 h -7 l -1,-4 -8,-1 -3,-7 -11,-2 -5,-4 -1,-2 -4,-1 -2,4 -7,4 -7,-2 -7,4 h -9 l -8,5 4,5 -7,14 -7,3 -7,8 -2,5 -6,4 3,5 13,-1 v 4 l 4,1 4,-2 1,8 -8,1 1,5 -4,1 -1,5 -4,2 1,4 -3,3 h 10 l 5,2 5,-1 z" />
      <path id="isle-of-toads" d="m 5018,6026 9,-1 4,7 -2,7 6,4 5,-4 2,5 h 5 l 1,4 h -7 l -8,8 -5,4 -8,-1 v -6 l -5,1 -7,-4 10,-9 2,-9 z" />
      <path id="skull-island" d="m 5142,5776 6,-5 v -6 h 5 l 6,-10 5,5 10,-4 v -8 l 10,-5 11,-1 6,3 -3,7 h -12 l -3,2 -4,9 -7,3 2,8 -6,5 -9,-3 -9,4 z" />
      <path id="ax-isle" d="m 5353,5909 10,1 14,-4 4,-10 15,-1 -2,-10 11,-2 5,-8 16,-6 5,3 -1,5 5,2 -2,7 8,-1 2,-4 v -5 h 5 l 1,-5 -4,-1 -1,-8 10,-9 -6,-6 v -5 l -4,-10 4,-4 -3,-3 -4,3 -14,-4 -1,-7 -6,5 1,9 -9,2 -7,-7 -4,3 h -7 l -3,-5 -8,-1 -3,4 h -4 l 2,2 8,5 -2,10 -5,2 -1,6 8,2 1,6 8,3 2,-5 h 14 l -4,3 1,6 -9,-1 -1,6 -7,9 -9,-1 -4,4 -1,8 -15,14 z" />
      <path id="path271" d="m 6703,6106 2,3 3,-1 -1,-3 z m 8,-17 5,3 v 8 l -7,1 -7,2 -1,-6 4,1 2,-5 z m -99,90 4,4 12,-2 2,3 h 14 l -1,-6 21,-11 16,-2 6,-6 14,2 -3,-7 4,-10 -14,2 v -10 l -6,-1 -2,-4 7,-4 2,-6 8,-4 v -7 l -5,-9 4,-8 h -9 l -1,4 -6,3 1,4 -7,5 -5,-4 -14,11 -1,4 h -14 l -5,-2 -4,5 3,5 -2,3 v 6 l -11,3 v 4 h 10 l 3,5 h 9 l -7,8 -1,9 h -8 l -6,4 v 4 z m 53,-138 1,7 -5,1 -3,-7 z m -249,222 -1,1 -3,1 -1,5 -7,-6 6,-3 h 6 z m 230,-248 h 1 l 4,3 8,-2 -3,12 -5,9 v 10 l 4,3 -4,3 -9,1 -8,3 -3,4 3,2 -1,4 h -9 l -6,6 -8,18 -12,9 v 9 l -5,4 -9,-1 -3,3 3,4 7,1 v 3 l 2,3 h 7 l -2,6 3,5 -7,5 -7,8 1,6 2,3 -5,2 -5,7 -3,-1 -2,3 4,7 -1,5 3,5 -5,3 -10,1 -4,2 3,6 5,2 1,7 4,3 -8,9 1,5 h 4 l 5,-6 8,1 2,-4 5,1 3,2 12,-3 3,-5 6,2 v 4 l -6,6 7,5 h 13 l 4,-3 -1,-5 8,-3 7,3 13,-3 6,-7 -1,-7 5,4 7,-2 -3,10 -1,14 -6,4 v 4 l 3,3 -5,5 -11,2 v 6 l -8,2 -3,-1 -4,4 3,6 -7,1 -2,-2 -8,1 -6,7 -7,1 -4,4 2,7 -8,4 v 9 l -2,1 2,2 -5,4 3,4 -11,1 -8,-1 -16,12 -2,6 h -8 l -5,3 h -5 l -10,-9 -4,-11 h -8 l -14,-7 -1,-3 -5,-4 h -6 l -1,3 h -10 v -4 l -8,-10 h -27 l 2,-5 v -4 l 5,1 2,-6 -12,-4 -5,-7 -7,1 -1,-6 8,-4 -7,-7 -1,-8 5,-3 13,2 15,-11 h 6 l 5,-3 2,2 h 8 l 5,-12 2,5 8,-1 -3,-15 3,2 4,-13 -7,-5 -2,-14 7,-3 v -9 l 5,-4 -10,-7 -3,-7 -4,-3 6,-1 5,-11 v -4 l 5,-3 2,2 3,-1 2,-8 -5,-2 2,-7 3,-1 4,-9 -3,-30 3,-5 -4,-2 2,-6 10,-11 -3,-6 v -14 l 8,-3 1,-5 7,-4 1,8 -5,7 v 11 l 7,5 -7,4 3,16 7,4 v 7 l 6,3 h 8 l 6,5 v 5 h 2 v -8 l 3,-2 -2,-8 7,-1 11,-3 2,6 7,1 2,-7 11,-2 10,-10 v -7 l 4,-5 3,4 h 10 l 5,-4 -2,-8 4,-2 z" />
    </g>
  </g>
  <g id="rivers" class="river">
    <path id="zamoyos" d="m 5184,6029 -6,-6 -2,-10 12,-5 2,-13 5,-5 -3,-8 -13,-3 -3,-5 3,-8 m -14,49 1,-7 -9,-8 -1,-7 m -14,29 -7,1 -8,-4 -1,-9 -7,-3 -1,-3 m 89,42 -7,-13 -16,-4 -14,-5 -5,-9 h -11 l -12,7 -6,5 -8,-1 -3,9 6,2 9,-1 5,5 -2,7 4,4 -2,8 -6,2 -5,-6 h -7 l -3,10 h -7 l -4,-3 -4,1 m 101,210 h -12 l -14,-7 -9,-13 m 106,-2 -5,12 -16,11 -21,6 -15,-1 -14,-6 -17,5 -15,13 -7,19 2,20 9,18 4,11 -2,15 m 187,-70 5,-2 6,1 7,-5 h 21 l 13,-12 9,-15 24,-14 19,-2 29,8 20,-6 m -240,353 -15,9 -8,16 -1,16 3,13 -5,17 m 139,-174 -8,3 -13,9 -25,3 -21,-9 -10,-3 -12,2 -9,8 -1,17 4,10 9,15 1,23 -7,15 -9,7 -12,3 -13,-1 -9,-9 -1,-12 -7,-10 -8,-4 -19,-2 -7,-10 3,-15 11,-10 1,-12 -9,-8 -30,-3 -13,-6 -17,-1 -17,8 -6,30 1,22 -15,19 -4,14 m 545,-154 9,-6 19,-6 h 22 l 12,10 m -117,82 12,-18 19,-12 15,-19 8,-21 1,-10 v -10 l 5,-8 1,-9 12,-10 19,-9 m -180,169 18,-1 15,-5 21,-19 11,-7 23,-11 23,-9 21,1 13,9 4,19 12,7 11,8 5,15 -2,24 m -469,-584 -3,2 1,6 -16,1 -8,4 v 16 l -7,14 -12,10 2,15 10,12 13,4 6,11 1,14 22,14 7,8 8,15 13,9 12,1 16,10 5,13 -5,21 -15,22 -2,13 9,11 12,7 10,-1 13,10 7,15 11,9 28,2 7,2 8,12 -1,13 -5,12 4,14 16,19 16,24 15,9 16,12 7,17 -3,24 -15,23 -31,13 -8,9 -6,8 -1,14 5,11 36,14 17,2 6,8 24,10 h 38 l 11,-5 14,7 3,9 -20,9 h -27 l -9,4 -8,9 -16,8 -5,12 -12,7 -2,15 -6,5 -21,2 -4,8 6,11" />
  </g>
  <g id="guides">
    <rect width="10000" height="6667" style="fill:url(#minor-grid);"/>
    <rect width="10000" height="6667" style="fill:url(#major-grid);"/>
    <rect width="10000" height="6667" style="fill:url(#decimal-grid);"/>
    <path id="degree-zero" style="fill:none;stroke:#000000;stroke-width:12;" d="M 2640,0 v 6667 M 0,6500 h 10000" />
    <g id="coordinates" style="fill:grey;font-size:5em;" transform="translate(15,-20)">
      <g id="equator">
        <text x="0" y="6500">30W</text>
        <text x="880" y="6500">20W</text>
        <text x="1760" y="6500">10W</text>
        <text x="2640" y="6500">0</text>
        <text x="3520" y="6500">10E</text>
        <text x="4400" y="6500">20E</text>
        <text x="5280" y="6500">30E</text>
        <text x="6160" y="6500">40E</text>
        <text x="7040" y="6500">50E</text>
        <text x="7920" y="6500">60E</text>
        <text x="8800" y="6500">70E</text>
        <text x="9680" y="6500">80E</text>
      </g>
      <g id="parallel-30n" transform="translate(0,90)">
        <text x="0" y="3860">30W</text>
        <text x="880" y="3860">20W</text>
        <text x="1760" y="3860">10W</text>
        <text x="3520" y="3860">10E</text>
        <text x="4400" y="3860">20E</text>
        <text x="5280" y="3860">30E</text>
        <text x="6160" y="3860">40E</text>
        <text x="7040" y="3860">50E</text>
        <text x="7920" y="3860">60E</text>
        <text x="8800" y="3860">70E</text>
        <text x="9680" y="3860">80E</text>
      </g>
      <g id="parallel-60n" transform="translate(0,90)">
        <text x="0" y="1220">30W</text>
        <text x="880" y="1220">20W</text>
        <text x="1760" y="1220">10W</text>
        <text x="3520" y="1220">10E</text>
        <text x="4400" y="1220">20E</text>
        <text x="5280" y="1220">30E</text>
        <text x="6160" y="1220">40E</text>
        <text x="7040" y="1220">50E</text>
        <text x="7920" y="1220">60E</text>
        <text x="8800" y="1220">70E</text>
        <text x="9680" y="1220">80E</text>
      </g>
      <g id="prime-meridian">
        <text x="2640" y="5620">10N</text>
        <text x="2640" y="4740">20N</text>
        <text x="2640" y="3860">30N</text>
        <text x="2640" y="2980">40N</text>
        <text x="2640" y="2100">50N</text>
        <text x="2640" y="1220">60N</text>
        <text x="2640" y="340">70N</text>
      </g>
      <g id="meridian-30e">
        <text x="5280" y="5620">10N</text>
        <text x="5280" y="4740">20N</text>
        <text x="5280" y="3860">30N</text>
        <text x="5280" y="2980">40N</text>
        <text x="5280" y="2100">50N</text>
        <text x="5280" y="1220">60N</text>
        <text x="5280" y="340">70N</text>
      </g>
      <g id="meridian-60e">
        <text x="7920" y="5620">10N</text>
        <text x="7920" y="4740">20N</text>
        <text x="7920" y="3860">30N</text>
        <text x="7920" y="2980">40N</text>
        <text x="7920" y="2100">50N</text>
        <text x="7920" y="1220">60N</text>
        <text x="7920" y="340">70N</text>
      </g>
    </g>
  </g>
</svg>
