<?xml version="1.0" encoding="UTF-8" standalone="no"?>
<!--made by niko3818-->

<svg
   width="507.655"
   height="576.125"
   viewBox="0 0 134.317 152.433"
   version="1.1"
   id="svg258"
   sodipodi:docname="Lord_paramount_helmet.svg"
   inkscape:version="1.2.1 (9c6d41e410, 2022-07-14)"
   xmlns:inkscape="http://www.inkscape.org/namespaces/inkscape"
   xmlns:sodipodi="http://sodipodi.sourceforge.net/DTD/sodipodi-0.dtd"
   xmlns:xlink="http://www.w3.org/1999/xlink"
   xmlns="http://www.w3.org/2000/svg"
   xmlns:svg="http://www.w3.org/2000/svg">
  <sodipodi:namedview
     id="namedview260"
     pagecolor="#ffffff"
     bordercolor="#000000"
     borderopacity="0.25"
     inkscape:showpageshadow="2"
     inkscape:pageopacity="0.0"
     inkscape:pagecheckerboard="0"
     inkscape:deskcolor="#d1d1d1"
     showgrid="false"
     inkscape:zoom="0.36320243"
     inkscape:cx="232.65263"
     inkscape:cy="297.35484"
     inkscape:window-width="1920"
     inkscape:window-height="1017"
     inkscape:window-x="-8"
     inkscape:window-y="-8"
     inkscape:window-maximized="1"
     inkscape:current-layer="svg258" />
  <style
     id="style2"><![CDATA[.B{fill:#f6e078}.C{fill:#f8eca8}.D{stroke:none}.E{fill:#d1b948}.F{fill:#baa440}.G{fill-rule:evenodd}.H{fill:#e7cd54}.I{stroke-width:1.231}.J{fill:#a39038}.K{fill:#e6e6e6}.L{fill:#858585}.M{stroke-width:.573}]]></style>
  <g
     transform="matrix(0.72408068,0,0,0.90775026,-903.84911,-426.86487)"
     stroke="#806600"
     id="g238">
    <path
       d="m 1357.518,634.398 c 2.644,2.55 6.538,2.812 9.8,4.177 9.05,11.847 74.3824,13.87554 65.3064,-5.66146 -1.228,-5.045 -2.5104,-16.91054 -6.6504,-20.63054 -3.547,-2.692 -8.207,-1.298 -12.29,-1.695 1.807,2.145 4.785,4.235 5.37,7.425 1.067,3.896 -1.635,8.317 -5.647,9.036 -10.825,2.313 -21.958,1.136 -32.92,0.882 -2.505,-0.2 -5.114,-0.017 -7.555,-0.457 -3.683,-1.832 -8.27,-0.26 -10.622,2.968 -1.44,1.5 -2.876,3.1 -4.803,3.956 z"
       fill="#4d4d4d"
       stroke="#3e3e3e"
       class="M"
       id="path4"
       sodipodi:nodetypes="cccccccccccc" />
    <path
       d="m 1286.748,470.638 c -4.367,5.055 -8.213,11.812 -11.562,16.383 -25.35,26.658 -22.005,78.23 13.313,77.46 9.623,9.804 17.726,19.692 19.6,37.243 -24.145,5.988 -30.802,53.76 -8.726,76.257 32.54,0.715 53.01,-21.244 66.062,-38.344 19.625,-28.862 33.043,-28.22 61.188,-26.78 -10.492,-14.52 -27.572,-23.953 -31.47,-51.875 -17.378,-20.248 -19,-49.985 -17.992,-77.894 -11.258,0.09 -19.28,-0.91 -27.477,-7.793 -15.003,5.1 -26.922,6.133 -32.625,-1.156 -12.468,5.145 -22.506,3.787 -30.312,-3.5 z"
       fill="#cccccc"
       stroke="#4d4d4d"
       stroke-width="0.75"
       class="G"
       id="path6" />
    <g
       class="D"
       id="g22">
      <path
         d="m 1272.67,491.58 c 0,0 -1.946,1.643 -1.517,2.14 0.456,0.53 2.39,1.608 2.39,1.608 0,0 0.838,0.13 1.914,-0.313 0.89,-0.367 0.258,-2.222 0.258,-2.222 0,0 2.06,-2.813 3.55,-3.53 1.602,-0.772 3.6,-1.156 5.267,-0.58 1.696,0.584 3.052,2.16 3.897,3.778 0.473,0.906 0.498,2.014 0.512,3.045 l -0.06,1.654 c 0.653,-0.624 4.34,0.423 5.44,-1.032 0,0 3.588,0.907 0.095,-2.175 -2.487,-2.195 0.213,-1.083 0.8,0.244 0.964,2.186 1.275,-1.368 3.568,-4.155 0.992,-1.205 0.725,3.28 2.057,4.108 1.314,0.815 2.16,0.26 2.834,1.676 0.346,0.728 -1.477,12.368 2.433,2.4 0.89,-2.27 0.398,-1.863 0.398,-1.863 l 1.06,0.935 c 0,0 0.025,1.144 0.777,1.596 0.923,0.554 2.96,-1.03 2.96,-1.03 0,0 3.332,3.9 3.767,2.885 0.5,-1.152 -0.175,-6.85 0.272,-5.693 1.22,3.158 3.138,3.166 3.34,-1.682 0.212,-5.096 1.504,0.313 1.1,0.255 -0.404,-0.058 1.162,-2.476 2.015,-2.018 0.958,0.514 -4.404,4 -2.357,3.84 1.237,-0.098 4.79,-0.24 4.957,1.006 0.145,1.086 1.163,0.854 1.163,0.854 l 1.876,0.9 c 0.763,0.434 1.668,2.07 1.668,2.07 l 1.842,-0.53 c 0,0 -0.097,-0.65 -0.036,-0.967 0.154,-0.798 0.458,-1.618 0.99,-2.224 1.035,-1.18 1.94,-2.072 3.426,-2.498 1.507,-0.432 3.182,-0.478 4.684,-0.05 1.536,0.438 3.06,1.308 4.064,2.576 0.9,1.137 1.36,2.673 1.466,4.14 0.073,1.01 -0.596,2.454 -0.596,2.454 1.377,0.456 1.722,1.274 2.18,2.052 l 0.393,-1.607 c 0.295,-0.988 0.62,-2.048 1.323,-2.8 1.254,-1.327 2.988,-2.472 4.78,-2.573 1.763,-0.1 3.58,0.815 4.9,1.994 1.238,1.097 2.455,4.365 2.455,4.365 0,0 1.843,0.3 2.598,0.886 0.915,0.72 1.5,2.744 1.5,2.744 0,0 1.105,-2.58 1.688,-2.966 0.547,-0.362 2.122,-0.576 2.122,-0.576 l 2.992,0.753 c 0,0 -5.335,-5.767 -8.563,-10.745 -4.128,-6.367 -6.846,-18.506 -14.695,-17.093 -24.526,4.415 -24.42,2.234 -32.194,-0.78 -4.836,-1.876 -11.174,2.967 -16.838,0.998 -4.636,-1.61 -18.517,-7.198 -12.992,-4.814 5.216,2.25 -1.204,-3.484 -8.533,11.12 -2.38,4.74 -5.5,7.303 -5.5,7.303 z"
         fill="#9d9d9d"
         id="path8" />
      <g
         fill="#aaaaaa"
         id="g14">
        <path
           d="m 1370.478,629.946 10.413,-5.68 17.633,-9.7 c 5.992,-0.072 14.27,-3.253 27.093,-2.18 -7.13,-8.96 -19.292,-19.253 -23.19,-27.43 -3.944,-8.27 -5.52,-10.16 -8.88,-23.077 -0.928,-3.567 -2.72,-5.65 -4.36,-7.837 -2.084,-2.78 -3.465,-5.724 -4.888,-8.95 -3.32,-7.528 -6.582,-19.147 -9.128,-34.94 l -17.538,37.116 z"
           id="path10" />
        <path
           d="m 1282.357,560.453 c 0.275,-2.26 -5.703,-0.65 -5.56,-0.242 3.114,8.992 -1.755,-16.48 -2.787,-28.576 l 82.395,-40.7 c 9,7.938 21.89,18.508 12.486,19.754 -9.852,1.306 -17.78,2.74 -3.98,3.18 -12.71,0.89 9.94,-3.385 5.676,3.337 -7.31,11.522 -10.16,38.68 -31.48,49.114 -11.88,5.814 -27.22,7.094 -41.784,6.83 -7.944,-0.144 -7.227,-10.226 -14.964,-12.695 z"
           id="path12" />
      </g>
      <g
         fill="#9d9d9d"
         id="g20">
        <path
           d="m 1274.48,558.936 c 1.485,-9.4 -2.812,-17.805 -2.666,-29.943 l 85.955,-32.515 c 8.187,8.773 4.47,16.12 11.844,22.087 -1.638,7.83 4.605,10.634 0.015,16.296 -10.924,13.477 -23.566,26.33 -37.867,31.23 -17.752,6.08 -35.62,2.175 -45,-1.28 -7.815,-2.875 -13.843,-9.038 -17.143,-7.963 l 4.872,2.088 z"
           id="path16" />
        <path
           d="m 1369.197,523.62 18.206,76.923 5.608,16.633 26.1,-6.055 c 0,0 -18.565,-18.803 -22.854,-27 -8.76,-16.744 -21.077,-73.967 -21.077,-73.967 l -5.974,14.943 z"
           id="path18" />
      </g>
    </g>
    <path
       d="m 1281.224,497.557 c 15.863,13.927 42.96,0.99 69.212,-2.013 14.68,-0.746 22.34,5.594 18.594,19.344 -7.95,34.01 -36.816,53.294 -85.812,47.03 -10.057,-8.405 -29.4,-44.14 -1.993,-64.362 z"
       stroke-width="3.189"
       fill="#806600"
       class="G"
       id="path24" />
    <g
       transform="matrix(0.423412,-0.025341,0.028915,0.587012,1159.2415,182.2597)"
       stroke-width="1.394"
       id="g30">
      <path
         d="m 458.493,600.5 c 0,19.598 -13.72,41.34 -39.134,54.185 -25.414,12.845 -62.524,10.787 -101.305,10.787 -38.781,0 -36.135,-2.078 -61.55,-14.92 -25.415,-12.842 -50.61,-28.255 -50.61,-47.853 0,-19.598 5.626,-47.137 35.134,-54.185 35.278,-8.425 38.276,-12.97 77.025,-12.985 38.78,-0.014 79.89,-2.056 105.305,10.787 25.415,12.843 35.134,34.586 35.134,54.185 z"
         fill="#999999"
         stroke="#4d4d4d"
         id="path26" />
      <path
         d="m 453.007,596.248 c -12.462,13.762 -12.22,32.243 -37.64,44.362 -25.42,12.119 -58.527,20.448 -97.315,20.448 -38.788,0 -45.01,-0.955 -70.43,-13.073 -25.42,-12.118 -41.686,-27.59 -41.686,-46.084 0,-18.494 9.72,-38.38 35.14,-50.5 25.42,-12.12 38.188,-11.586 76.976,-11.586 38.788,0 75.956,4.704 105.323,10.363 38.062,7.334 48.535,20.424 29.63,46.07 z"
         fill="#4d4d4d"
         id="path28" />
    </g>
    <g
       class="D"
       id="g46">
      <path
         d="m 1310.34,616.49 -2.86,48.638 -7.673,-12.875 1.17,-21.848 z"
         fill="#cccccc"
         class="G"
         id="path32" />
      <path
         d="m 1302.903,604.502 c -12.097,14.028 -15.203,49.443 -3.365,72.23 11.34,-36.212 7.707,-62.935 3.365,-72.23 z"
         fill="#b8b8b8"
         id="path34" />
      <path
         d="m 1337.495,666.623 c -8.215,-39.274 -10.058,-55.188 -21.062,-94.726 l -12.097,1.866 c 12.057,32.482 16.466,68.155 17.842,100.4 z"
         class="K"
         id="path36" />
      <path
         d="m 1327.84,570.55 21.53,86.505 -4.84,5.13 -23.018,-91.26 z"
         fill="#b8b8b8"
         id="path38" />
      <path
         d="m 1363.593,639.21 c 1.98,-29.618 -6.924,-52.552 -14.502,-77.327 l 9.97,-7.423 11.64,48.854 9.51,20.443 z"
         fill="#c1c1c1"
         id="path40" />
      <path
         d="m 1372.564,593.124 -1.318,0.716 14.566,27.937 1.318,-0.716 z"
         class="L"
         id="path42" />
      <path
         d="m 1282.86,561.47 c 65.704,-1.262 83.97,-38.956 84.868,-61.667 13.315,58.1 -58.35,65.505 -84.868,61.667 z"
         fill="#3c3b3b"
         id="path44" />
    </g>
    <path
       d="m 1362.413,550.93 c -5.5,26.102 5.067,35.28 15.482,53.42"
       fill="#aaaaaa"
       stroke="#858585"
       stroke-width="1.805"
       class="G"
       id="path48" />
    <g
       class="D"
       id="g54">
      <path
         d="m 1358.302,489.107 0.747,4.086 c 0,0 -2.572,0.194 -3.665,0.82 -1.54,0.884 0.495,-0.26 0.495,-0.26 l -8.613,0.416 c -2.447,0.176 -2.172,-3.967 -4.59,-4.124 -2.267,-0.147 -4.066,0.81 -5.88,2.227 -3.125,4.5 -3.497,3.106 -8.692,4.573 -9.08,0.49 -3.205,-1.8 -4.69,-1.422 -1.965,0.487 -5.427,-1.295 -6.625,0.383 -0.85,1.192 0.172,1.02 0.172,1.02 l -1.473,0.12 c 0,0 -6.872,0.083 -9.636,-1.543 -5.928,-3.488 -2.096,0.606 -3.904,-0.167 -1.848,-0.8 -0.494,-0.857 -2.447,-0.37 -1.54,0.384 -12.185,21.934 -3.083,0.705 0.588,-1.37 -3.238,-0.55 -4.617,0.346 0,0 -2.696,-0.058 -3.667,-1.033 -1.003,-1.007 -1.95,-0.97 -3.334,-1.22 -1.646,-0.3 0.935,-4.374 -0.54,-3.557 -1.32,0.73 -4.764,1.908 -4.764,1.908 l -3.85,0.827 c 0.9,-5.06 14.485,-19.068 9.395,-17.7 11.376,4.8 23.57,3.833 30.83,3.864 4.01,0.017 9.904,3.024 18.423,2.216 6.36,-0.603 11.874,-0.22 15.942,-0.474 3.353,-0.208 7.15,1.127 7.636,2.798 0.633,2.172 -2.408,4.91 0.432,5.557 z"
         fill="#cccccc"
         id="path50" />
      <path
         d="m 1335.444,484.72 c 4.665,0.638 6.9,2.858 9.157,5.06 0,0 3.12,-3.44 5.26,-4.74 1.237,-0.75 3.162,1.73 3.162,1.73 0,0 0.557,-1.782 1.154,-2.548 0.564,-0.723 2.123,-1.74 2.123,-1.74 l -17.595,-0.74 c -1.862,1.637 -2.76,0.95 -3.262,2.975 z"
         class="K"
         id="path52" />
    </g>
    <g
       class="G"
       id="g60">
      <path
         stroke-width="0.666"
         fill="#e4c900"
         d="m 1273.582,496.15 c 12.79,-2.06 102.41,-15.755 100.928,13.623 -6.215,47.54 -61.693,62.934 -96.463,56.284 l 4.784,-4.4 c 37.407,5.5 79.1,-4.78 86.893,-51.884 5.83,-24.72 -82.212,-13.027 -94.883,-11.357 z"
         id="path56" />
      <path
         fill="#fee46e"
         d="m 1273.58,497.248 c 13.587,-2.48 98.92,-16.1 100.362,12.147 -8.03,47.43 -53.2,58.285 -84.924,57.27 -13.843,-1.673 -6.247,-1.927 -5.656,-3.848 39.593,5.217 80.02,-6.354 88.43,-53.42 -0.24,-4.522 -4.237,-9.82 -10.86,-11.738 -23.47,-6.794 -72.554,-4.56 -86.094,0.76 z"
         class="D"
         id="path58" />
    </g>
    <g
       class="D K"
       id="g66">
      <path
         d="m 1341.593,621.15 c 0,0 3.798,-1.168 6.92,-4.433 1.985,-2.076 3.665,-6.164 4.03,-7.59 0.68,-2.663 -1.13,-8.63 -3.034,-11.642 -1.224,-1.935 -2.78,-1.7 -2.78,-1.7 -0.574,6.97 -0.9,16.815 -5.136,25.376 z"
         id="path62" />
      <path
         d="m 1351.167,596.424 c -11.212,1.07 -19.88,-20.96 -6.896,-25.154 -1.203,9.638 0.523,17.945 6.896,25.154 z M 1285.084,484.7 c 3.685,2.086 4.77,5.298 5.88,8.498 0,0 3.838,-3.077 6.093,-3.96 1.303,-0.5 4.137,-0.7 4.137,-0.7 0,0 1.1,-1.9 1.872,-2.613 0.73,-0.673 2.398,-1.4 2.398,-1.4 l -15.682,-5.334 c -2.142,1.356 -3.557,3.322 -4.698,5.52 z"
         id="path64" />
    </g>
    <g
       stroke="#858585"
       fill="none"
       id="g72">
      <path
         d="m 1308.133,634.585 -8.76,43.397 c 22.096,2.312 49.243,-13.35 64.532,-36.693 6.643,-10.142 15.09,-15.617 21.907,-19.513 10.096,-5.966 26.832,-10.792 39.835,-9.404 l -19.205,-20.78 c -12.22,-2.75 -24.103,-1.818 -35.473,4.71 -23.8,19.564 -51.71,48.927 -62.838,38.284 z"
         stroke-width="1.574"
         id="path68" />
      <path
         d="m 1308.44,634.846 -4.792,-31.436"
         stroke-width="1.733"
         id="path70" />
    </g>
    <path
       d="m 1378.676,603.902 8.75,16.32 -1.3,0.502 -9.064,-16.373 c 0.125,0.036 1.603,-0.448 1.603,-0.448 z"
       class="D L"
       id="path74" />
    <g
       transform="matrix(0.669685,0,0,0.571007,1122.9351,188.91577)"
       id="g228">
      <g
         transform="matrix(1.133278,-0.098576,0.065073,0.828345,-69.540851,128.14364)"
         id="g114">
        <g
           class="H I"
           id="g80">
          <use
             xlink:href="#B"
             id="use76" />
          <use
             xlink:href="#B"
             x="-1.727"
             id="use78" />
        </g>
        <g
           class="D"
           id="g112">
          <use
             xlink:href="#C"
             class="B"
             id="use82" />
          <g
             class="C"
             id="g88">
            <use
               xlink:href="#D"
               id="use84" />
            <use
               xlink:href="#E"
               id="use86" />
          </g>
          <use
             xlink:href="#F"
             class="B"
             id="use90" />
          <g
             class="C"
             id="g96">
            <use
               xlink:href="#G"
               id="use92" />
            <use
               xlink:href="#H"
               id="use94" />
          </g>
          <use
             xlink:href="#I"
             class="E"
             id="use98" />
          <use
             xlink:href="#J"
             class="F"
             id="use100" />
          <use
             xlink:href="#K"
             class="B"
             id="use102" />
          <ellipse
             transform="matrix(1.24,0,0,1.23913,-119.02531,-134.12703)"
             cx="320.02701"
             cy="581.67902"
             rx="7.401"
             ry="6.809"
             class="C"
             id="ellipse104" />
          <use
             xlink:href="#L"
             class="E"
             id="use106" />
          <use
             xlink:href="#M"
             class="F"
             id="use108" />
          <use
             xlink:href="#N"
             class="J"
             id="use110" />
        </g>
      </g>
      <g
         transform="matrix(1.156764,-0.100619,0.066421,0.845511,-79.269198,119.30693)"
         id="g150">
        <g
           class="H I"
           id="g120">
          <use
             xlink:href="#O"
             id="use116" />
          <use
             xlink:href="#O"
             x="-1.933"
             id="use118" />
        </g>
        <g
           class="D"
           id="g148">
          <path
             d="m 255.54,535.47 c -1.97,-0.614 -2.76,-0.687 -4.844,-0.637 -1.28,0.03 -2.476,0.277 -3.74,0.09 -0.963,-0.143 -1.93,-0.522 -2.652,-1.113 -0.785,-0.644 -1.312,-1.558 -1.605,-2.476 -0.337,-1.053 -0.067,-3.064 0.38,-4.084 0.446,-1.014 1.442,-2.615 2.558,-3.044 1.067,-0.4 2.473,-0.434 3.618,-0.267 1.03,0.15 1.72,0.383 2.65,0.8 l 0.935,0.41 c 0,0 -0.824,-0.117 -1.013,-2.132 -0.1,-1.055 -0.145,-2.318 0.223,-3.323 0.306,-0.837 1.384,-2.456 2.1,-3.058 0.87,-0.732 1.74,-0.935 2.917,-1.103 1.038,-0.15 2.174,-0.13 3.144,0.236 1.217,0.46 2.024,1.212 2.673,2.245 0.54,0.862 1.005,1.954 0.966,2.943 -0.028,0.712 -0.33,2.618 -0.72,3.238 -0.36,0.576 -0.418,1.07 -0.92,1.552 l -1.38,1.286 c 0,0 1.538,-0.772 3.647,-0.247 1.21,0.3 2.53,0.778 3.252,1.7 0.5,0.638 1.186,2.667 1.274,3.443 0.086,0.758 -0.39,1.965 -0.67,2.685 -0.31,0.8 -1,1.508 -1.8,1.956 -1.017,0.57 -2.3,0.718 -3.496,0.75 -0.876,0.022 -1.78,-0.114 -2.588,-0.417 -1.728,-0.667 -3.15,-0.874 -4.914,-1.44 z"
             class="B"
             id="path122" />
          <g
             class="C"
             id="g128">
            <use
               xlink:href="#P"
               id="use124" />
            <path
               d="m 249.858,524.375 c 0,0 -2.9,-0.79 -4.37,-0.05 -1.145,0.58 -2.237,2.107 -2.553,3.35 a 6.42,6.42 0 0 0 0.211,3.721 c 0.383,1.035 1.084,2.027 2.007,2.63 0.884,0.578 2.022,0.738 3.078,0.753 2.568,0.035 5.423,-0.916 5.423,-0.916 -4.032,-0.92 -6.61,-5.36 -3.795,-9.49 z"
               id="path126" />
          </g>
          <path
             d="m 255.135,650.082 c -1.97,0.614 -2.76,0.687 -4.844,0.637 -1.28,-0.03 -2.476,-0.277 -3.74,-0.09 -0.963,0.143 -1.93,0.522 -2.652,1.113 -0.785,0.644 -1.312,1.558 -1.605,2.476 -0.337,1.053 -0.067,3.064 0.38,4.084 0.446,1.014 1.442,2.615 2.558,3.044 1.067,0.4 2.473,0.434 3.618,0.267 1.03,-0.15 1.72,-0.383 2.65,-0.8 l 0.935,-0.41 c 0,0 -0.824,0.117 -1.013,2.132 -0.1,1.055 -0.145,2.318 0.223,3.323 0.306,0.837 1.384,2.456 2.1,3.058 0.87,0.732 1.74,0.935 2.917,1.103 1.038,0.15 2.174,0.13 3.144,-0.236 1.217,-0.46 2.024,-1.212 2.673,-2.245 0.54,-0.862 1.005,-1.954 0.966,-2.943 -0.028,-0.712 -0.33,-2.618 -0.72,-3.238 -0.36,-0.576 -0.418,-1.07 -0.92,-1.552 l -1.38,-1.286 c 0,0 1.538,0.772 3.647,0.247 1.21,-0.3 2.53,-0.778 3.252,-1.7 0.5,-0.638 1.186,-2.667 1.274,-3.443 0.086,-0.758 -0.39,-1.965 -0.67,-2.685 -0.31,-0.8 -1,-1.508 -1.8,-1.956 -1.017,-0.57 -2.3,-0.718 -3.496,-0.75 -0.876,-0.022 -1.78,0.114 -2.588,0.417 -1.728,0.667 -3.15,0.874 -4.914,1.44 z"
             class="B"
             id="path130" />
          <path
             d="m 256.063,664.3 c 0.734,0.95 2.122,1.63 3.307,1.434 1.297,-0.215 3.328,-2.65 3.328,-2.65 0,0 0.8,2.9 0.05,4.37 -0.58,1.145 -2.107,2.237 -3.35,2.553 a 6.42,6.42 0 0 1 -3.721,-0.211 c -1.035,-0.383 -2.5,-1.234 -3.114,-2.157 -0.578,-0.884 -1.006,-3.117 -1.02,-4.173 2.317,-7 2.45,-0.75 4.523,0.832 z m -6.613,-3.13 c 0,0 -2.9,0.8 -4.37,0.05 -1.145,-0.58 -2.237,-2.107 -2.553,-3.35 a 6.42,6.42 0 0 1 0.211,-3.721 c 0.383,-1.035 1.084,-2.027 2.007,-2.63 0.884,-0.578 2.022,-0.738 3.078,-0.753 2.568,-0.035 5.423,0.916 5.423,0.916 -4.032,0.92 -6.6,5.36 -3.795,9.5 z"
             class="C"
             id="path132" />
          <path
             d="m 247.9,536.837 c 0,0 1.173,-1.055 2.655,-1.3 1.482,-0.245 3.274,0.318 4.047,0.574 0.792,0.262 2.725,1.123 3.85,2.244 1.125,1.121 1.44,2.504 1.44,2.504 l -1.856,7.612 c -0.643,7.5 -10.477,10.073 -19.94,7.14 1.65,-6.798 6.43,-12.55 9.803,-18.773 z"
             class="E"
             id="path134" />
          <path
             d="m 256.04,549.64 c 1.846,-2.668 3.79,-6.39 2.265,-9.313 -0.257,-0.492 -0.604,-0.93 -1.02,-1.315 -2.152,-2 -6.134,-2.534 -8.803,-1.522 l -4.62,6.672 c 0,0 3.4,1.24 5,2.64 0.94,0.82 1.583,1.962 1.9,3.104 0.317,1.142 1.9,2.574 1.9,2.574 0,0 2.234,-1.154 3.4,-2.84 z"
             class="F"
             id="path136" />
          <path
             d="m 231.822,593.05 c 3.93,8.147 12.082,8.823 18.106,1.28 0.615,-12.226 -0.777,-14.2 1.742,-28.146 -3.773,-2 -7.997,4.24 -14.63,-4.84 0,0 -3.33,11.628 -3.844,14.375 -1.024,5.477 -1.375,17.33 -1.375,17.33 z"
             class="B"
             id="path138" />
          <ellipse
             transform="matrix(1.234495,0.116715,-0.116633,1.233629,-86.595894,-165.75614)"
             cx="320.02701"
             cy="581.67902"
             rx="7.401"
             ry="6.809"
             class="C"
             id="ellipse140" />
          <path
             d="m 251.733,648.716 c 0,0 2.323,0.223 3.45,0 1.976,-0.39 5.587,-2.3 5.587,-2.3 0,0 -7.144,-20.127 -9.203,-30.567 -1.204,-6.102 -1.808,-18.57 -1.808,-18.57 -6.926,4.72 -12.158,5.404 -17.584,-1.315 0,0 2.466,13.1 4.6,19.392 3.917,11.54 14.955,33.36 14.955,33.36 z"
             class="E"
             id="path142" />
          <path
             d="m 248.96,598.335 c -0.206,9.542 2.967,18.92 3.32,28.376 -0.93,4.483 -1.04,9.05 -1.17,7.945 0.138,1.162 -7.382,-4.567 -9.272,-10.073 -0.83,-2.42 -5.258,-11.53 -5.85,-13.876 -0.592,-2.346 -2.732,-12.152 -2.732,-12.152 5.21,4.375 10.734,4.463 15.705,-0.22 z"
             class="F"
             id="path144" />
          <path
             d="m 248.983,598.925 c 0,0 -0.068,4.783 -0.758,7.262 -0.69,2.479 -0.443,2.414 -1.647,3.985 -1.204,1.571 -1.65,5.277 -1.65,5.277 0,0 -5.25,-2.868 -6.476,-4.61 -1.226,-1.742 -2.667,-2.91 -3.076,-4.835 l -1.53,-6.115 c 5.686,3.637 10.63,4.02 15.138,-0.964 z"
             class="J"
             id="path146" />
        </g>
      </g>
      <g
         transform="matrix(1.204421,-0.104764,0.069158,0.880345,-91.859421,101.44519)"
         id="g186">
        <g
           class="H I"
           id="g156">
          <use
             xlink:href="#Q"
             id="use152" />
          <use
             xlink:href="#Q"
             x="-2.1960001"
             id="use154" />
        </g>
        <g
           class="D"
           id="g184">
          <path
             d="m 220.426,530.69 c -0.097,-0.948 -0.142,-2.084 0.218,-2.988 0.3,-0.753 1.353,-2.208 2.053,-2.75 0.85,-0.658 1.702,-0.84 2.853,-0.992 1.015,-0.134 2.126,-0.117 3.074,0.212 1.2,0.413 1.98,1.1 2.613,2.02 0.53,0.775 0.983,1.757 0.945,2.646 -0.028,0.64 -0.323,2.354 -0.703,2.912 -0.353,0.518 -0.41,0.96 -0.9,1.395 l -1.348,1.156 c 0,0 1.504,-0.694 3.566,-0.222 1.182,0.27 2.474,0.7 3.18,1.53 0.488,0.574 1.16,2.398 1.246,3.096 0.084,0.682 -0.382,1.767 -0.655,2.414 -0.303,0.718 -0.978,1.356 -1.76,1.758 -0.994,0.512 -2.248,0.646 -3.418,0.673 a 7.35,7.35 0 0 1 -2.53,-0.375 c -1.69,-0.6 -3.093,0.623 -4.805,0.074 -1.552,-0.497 -3.128,-1.958 -4.736,-1.942 l 0.168,0.13 c 0.083,-4.227 2.006,-6.65 0.94,-10.747 z"
             class="B"
             id="path158" />
          <g
             class="C"
             id="g164">
            <path
               d="m 229.915,533.574 c 0,0 2.9,-0.79 4.37,-0.05 1.145,0.58 2.237,2.107 2.553,3.35 a 6.42,6.42 0 0 1 -0.211,3.721 c -0.383,1.035 -1.084,2.027 -2.007,2.63 -0.884,0.578 -2.022,0.738 -3.078,0.753 -2.568,0.035 -5.423,-0.916 -5.423,-0.916 4.032,-0.92 6.61,-5.36 3.795,-9.49 z"
               id="path160" />
            <use
               xlink:href="#P"
               x="-31.540001"
               y="8.6999998"
               id="use162" />
          </g>
          <path
             d="m 216.803,542.863 c 0,0 0.95,-0.8 2.018,-0.868 1.068,-0.068 1.49,0.602 2,0.9 0.522,0.307 1.768,1.247 2.417,2.334 0.649,1.087 0.7,2.322 0.7,2.322 l -2.237,5.525 c -1.376,6.47 -7.508,8.94 -13.766,5.45 1.992,-5.75 5.743,-10.585 8.87,-15.664 z"
             class="E"
             id="path166" />
          <path
             d="m 222.886,546.93 a 4.28,4.28 0 0 0 -0.552,-1.245 c -1.26,-1.944 -3.37,-2.813 -5.363,-2.197 l -3.446,6.26 c 0,0 1.002,0.5 1.955,1.88 0.557,0.806 0.865,1.864 0.94,2.887 0.075,1.023 1.614,2.426 1.614,2.426 2.41,-2.223 4.32,-6.064 4.853,-10 z"
             class="F"
             id="path168" />
          <path
             d="m 199.612,593.58 c 5.114,5.975 11.252,3.543 15.36,-0.486 0.615,-12.226 -1.562,-12.444 0.957,-26.38 -3.773,-2 -3.287,4.633 -9.92,-4.447 0,0 -4.508,11.236 -5.02,13.983 -1.024,5.477 -1.375,17.33 -1.375,17.33 z"
             class="B"
             id="path170" />
          <ellipse
             transform="matrix(1.038827,0.113845,-0.098147,1.203292,-68.52554,-148.3594)"
             cx="320.02701"
             cy="581.67902"
             rx="7.401"
             ry="6.809"
             class="C"
             id="ellipse172" />
          <path
             d="m 219.705,642 3.312,-0.635 c 1.885,-0.447 5.938,-0.313 5.938,-0.313 -0.45,0.674 -9.922,-16.15 -10.994,-28.347 -0.544,-6.186 -2.285,-18.51 -2.285,-18.51 -3.23,2.44 -5.45,3.422 -7.97,3.648 -2.557,0.23 -5.405,-0.342 -8.128,-3.647 -1.14,10.877 9.575,33.243 20.127,47.804 z"
             class="E"
             id="path174" />
          <path
             d="m 214.938,595.284 c 0.085,9.544 3.408,18.83 4.025,28.27 -0.76,4.507 -0.73,9.077 -0.888,7.975 0.166,1.158 -7.22,-4.355 -9.196,-9.805 -0.87,-2.397 -5.387,-11.375 -6.024,-13.704 -0.637,-2.329 -2.982,-12.07 -2.982,-12.07 5.13,4.225 10.433,4.156 15.065,-0.666 z"
             class="F"
             id="path176" />
          <path
             d="m 214.47,596.596 c 0,0 0.076,4.783 -0.512,7.28 -0.588,2.497 -0.643,2.136 -1.752,3.74 -1.109,1.604 -0.63,4.888 -0.63,4.888 0,0 -5.123,-2.717 -6.35,-4.425 -1.227,-1.708 -2.117,-2.306 -2.567,-4.217 l -1.65,-6.068 c 5.564,3.474 9.284,3.912 13.464,-1.198 z"
             class="J"
             id="path178" />
          <path
             d="m 222.858,654.488 c -0.097,0.948 -0.142,2.084 0.218,2.988 0.3,0.753 1.353,2.208 2.053,2.75 0.85,0.658 1.702,0.84 2.853,0.992 1.015,0.134 2.126,0.117 3.074,-0.212 1.2,-0.413 1.98,-1.1 2.613,-2.02 0.53,-0.775 0.983,-1.757 0.945,-2.646 -0.028,-0.64 -0.323,-2.354 -0.703,-2.912 -0.353,-0.518 -0.41,-0.96 -0.9,-1.395 l -1.348,-1.156 c 0,0 1.504,0.694 3.566,0.222 1.182,-0.27 2.474,-0.7 3.18,-1.53 0.488,-0.574 1.16,-2.398 1.246,-3.096 0.084,-0.682 -0.382,-1.767 -0.655,-2.414 -0.303,-0.718 -0.978,-1.356 -1.76,-1.758 -0.994,-0.512 -2.248,-0.646 -3.418,-0.673 a 7.35,7.35 0 0 0 -2.53,0.375 c -1.69,0.6 -5.24,-0.408 -6.95,0.14 -1.552,0.497 -1.733,1.1 -3.342,1.084 0.7,2.87 2.346,7.778 1.86,11.26 z"
             class="B"
             id="path180" />
          <path
             d="m 232.347,651.605 c 0,0 2.9,0.8 4.37,0.05 1.145,-0.58 2.237,-2.107 2.553,-3.35 a 6.42,6.42 0 0 0 -0.211,-3.721 c -0.383,-1.035 -1.084,-2.027 -2.007,-2.63 -0.884,-0.578 -2.022,-0.738 -3.078,-0.753 -2.568,-0.035 -5.423,0.916 -5.423,0.916 4.032,0.92 6.6,5.36 3.795,9.5 z m -4.984,3.63 c 0.734,0.95 2.122,1.63 3.307,1.434 1.297,-0.215 3.328,-2.65 3.328,-2.65 0,0 0.8,2.9 0.05,4.37 -0.58,1.145 -2.107,2.237 -3.35,2.553 a 6.42,6.42 0 0 1 -3.721,-0.211 c -1.035,-0.383 -2.5,-1.234 -3.114,-2.157 -0.578,-0.884 -1.006,-3.117 -1.02,-4.173 2.318,-7 2.45,-0.75 4.523,0.832 z"
             class="C"
             id="path182" />
        </g>
      </g>
      <g
         transform="matrix(1.018518,-0.124708,0.0777,0.744061,-9.401634,178.99438)"
         id="g226">
        <g
           class="H I"
           id="g192">
          <use
             xlink:href="#B"
             id="use188" />
          <use
             xlink:href="#B"
             x="-1.727"
             id="use190" />
        </g>
        <g
           class="D"
           id="g224">
          <use
             xlink:href="#C"
             class="B"
             id="use194" />
          <g
             class="C"
             id="g200">
            <use
               xlink:href="#D"
               id="use196" />
            <use
               xlink:href="#E"
               id="use198" />
          </g>
          <use
             xlink:href="#F"
             class="B"
             id="use202" />
          <g
             class="C"
             id="g208">
            <use
               xlink:href="#G"
               id="use204" />
            <use
               xlink:href="#H"
               id="use206" />
          </g>
          <use
             xlink:href="#I"
             class="E"
             id="use210" />
          <use
             xlink:href="#J"
             class="F"
             id="use212" />
          <use
             xlink:href="#K"
             class="B"
             id="use214" />
          <ellipse
             ry="6.809"
             rx="7.401"
             cy="581.67902"
             cx="320.02701"
             transform="matrix(1.24,0,0,1.23913,-119.02531,-134.12703)"
             class="C"
             id="ellipse216" />
          <use
             xlink:href="#L"
             class="E"
             id="use218" />
          <use
             xlink:href="#M"
             class="F"
             id="use220" />
          <use
             xlink:href="#N"
             class="J"
             id="use222" />
        </g>
      </g>
    </g>
    <g
       class="M"
       id="g234">
      <path
         d="m 1373.06,632.24 c 10.49,6.48 23.937,10.273 40.914,5.876 11.424,-5.402 13.22,-17.895 4.73,-25.294 -16.183,2.15 -31.92,6.292 -45.643,19.418 z"
         fill="#333333"
         stroke="#3c3c3c"
         id="path230" />
      <path
         d="m 1371.87,533.43 c 6.393,31.347 16.59,58.69 33.237,79.243 l -11.755,3.648 c -31.007,-54.51 -21.96,-71.803 -21.483,-82.89 z"
         fill="#cccccc"
         stroke="#c1c1c1"
         id="path232" />
    </g>
    <path
       d="m 1363.405,548.397 -1.88,2.356 1.774,0.365 c 0.37,-1.376 0.175,-1.8 0.108,-2.72 z"
       class="D L"
       id="path236" />
  </g>
  <defs
     id="defs256">
    <path
       id="B"
       d="M287.422 508.65c4.628 0 8.375 3.747 8.375 8.375 0 1.472-.396 2.86-1.062 4.063.38-.06.76-.094 1.156-.094 4.114 0 7.47 3.324 7.47 7.438 0 3.985-3.157 7.268-7.094 7.47-2.604 17.872-5.626 35.252-5.844 52.72-.243 19.556 2.54 39.254 4.906 59.97.19-.014.37-.03.563-.03 4.114 0 7.47 3.355 7.47 7.47s-3.355 7.438-7.47 7.438c-.396 0-.777-.034-1.156-.094.666 1.202 1.063 2.59 1.063 4.063 0 4.628-3.747 8.375-8.375 8.375s-8.406-3.747-8.406-8.375a8.4 8.4 0 0 1 2.344-5.812c-.62.18-1.26.28-1.937.28a6.96 6.96 0 0 1-6.969-6.969c0-3.857 3.112-7 6.97-7 .417 0 .823.055 1.22.125-7.86-21.558-12.27-40.86-12.164-60.307.09-16.485 3.43-33.072 10.664-51.225-3.726-.148-6.687-3.237-6.687-7a6.96 6.96 0 0 1 6.969-6.969c.678 0 1.318.1 1.938.28a8.4 8.4 0 0 1-2.344-5.812c0-4.628 3.778-8.375 8.406-8.375z" />
    <path
       id="C"
       d="M292.6 534.048l-5.973-.806c-2.224-.2-2.614.293-4.77.882-1.322.36-2.498.95-3.865 1.054-1.042.08-2.158-.113-3.075-.615-1-.547-1.806-1.47-2.372-2.46-.65-1.135-.617-2.22-.44-3.514.176-1.29.63-2.47 1.67-3.25.994-.747 2.45-1.132 3.7-1.23 1.115-.088 1.898.006 2.987.264 1.704.402 2.66.45 2.66.45s-2.653-2.38-3.42-4.666c-.402-1.197-.976-2.607-.878-3.865.08-1.048.913-3.238 1.488-4.118.698-1.07 1.546-1.526 2.723-2.02 1.04-.436 2.226-.704 3.338-.527 1.397.223 2.8.9 3.777 1.933.807.86 1.6 2.008 1.84 3.164.172.832.398 3.117.17 3.935-.213.76-.492 1.333-.878 2.02-.97 1.724-3.677 3.97-3.677 3.97s4.51-1.652 6.852-1.58c1.343.04 2.854.258 3.865 1.142.7.612 1.27 1.67 1.58 2.548.304.857.35 1.73.264 2.635-.096 1.004-.613 2.002-1.318 2.723-.897.918-2.188 1.417-3.426 1.757-.905.25-1.884.32-2.81.176z" />
    <path
       id="D"
       d="M283.21 521.433c.353-1.855-.17-3.224.594-4.95.487-1.098 1.674-2.087 2.872-2.178 1.31-.1 3.862 1.782 3.862 1.782s.077-3.015-1-4.258c-.836-.974-2.578-1.672-3.862-1.683a6.42 6.42 0 0 0-3.565 1.089c-.914.617-2.145 1.794-2.513 2.835-.352.996-.237 3.266 0 4.296.576 2.503 3.8 5.544 3.8 5.544s-.322-1.823-.198-2.475z" />
    <path
       id="E"
       d="M278.286 524.475s-3.015-.077-4.258 1c-.974.836-1.672 2.578-1.683 3.862a6.42 6.42 0 0 0 1.089 3.565c.617.914 1.534 1.712 2.575 2.08.996.352 2.14.237 3.17 0 2.503-.576 5.05-2.178 5.05-2.178-4.135.065-7.693-3.638-5.94-8.318z" />
    <path
       id="F"
       d="M292.853 650.47l-5.973.806c-2.224.2-2.614-.293-4.77-.882-1.322-.36-2.498-.95-3.865-1.054-1.042-.08-2.158.113-3.075.615-1 .547-1.806 1.47-2.372 2.46-.65 1.135-.617 2.22-.44 3.514.176 1.29.63 2.47 1.67 3.25.994.747 2.45 1.132 3.7 1.23 1.115.088 1.898-.006 2.987-.264 1.704-.402 2.66-.45 2.66-.45s-2.653 2.38-3.42 4.666c-.402 1.197-.976 2.607-.878 3.865.08 1.048.913 3.238 1.488 4.118.698 1.07 1.546 1.526 2.723 2.02 1.04.436 2.226.704 3.338.527 1.397-.223 2.8-.9 3.777-1.933.807-.86 1.6-2.008 1.84-3.164.172-.832.398-3.117.17-3.935-.213-.76-.492-1.333-.878-2.02-.97-1.724-3.677-3.97-3.677-3.97s4.51 1.652 6.852 1.58c1.343-.04 2.854-.258 3.865-1.142.7-.612 1.27-1.67 1.58-2.548.304-.857.35-1.73.264-2.635-.096-1.004-.613-2.002-1.318-2.723-.897-.918-2.188-1.417-3.426-1.757-.905-.25-1.884-.32-2.81-.176z" />
    <path
       id="G"
       d="M283.464 663.086c.353 1.855-.17 3.224.594 4.95.487 1.098 1.674 2.087 2.872 2.178 1.31.1 3.862-1.782 3.862-1.782s.077 3.015-1 4.258c-.836.974-2.578 1.672-3.862 1.683a6.42 6.42 0 0 1-3.565-1.089c-.914-.617-2.145-1.794-2.513-2.835-.352-.996-.237-3.266 0-4.296.576-2.503 3.8-5.544 3.8-5.544s-.322 1.823-.198 2.475z" />
    <path
       id="H"
       d="M278.54 660.044s-3.015.077-4.258-1c-.974-.836-1.672-2.578-1.683-3.862a6.42 6.42 0 0 1 1.089-3.565c.617-.914 1.534-1.712 2.575-2.08.996-.352 2.14-.237 3.17 0 2.503.576 5.05 2.178 5.05 2.178-4.135-.065-7.693 3.638-5.94 8.318z" />
    <path
       id="I"
       d="M279.648 536.55s.975-1.24 2.394-1.735 3.28-.247 4.085-.127c.825.123 2.877.64 4.177 1.553s1.848 2.22 1.848 2.22l-.526 7.818c.65 7.51-8.598 11.717-18.423 10.446.46-6.98 4.187-13.466 6.445-20.174z" />
    <path
       id="J"
       d="M289.85 547.77c1.362-2.945 2.642-6.943.638-9.563-.337-.44-.755-.813-1.23-1.12-2.46-1.592-6.477-1.447-8.933.007l-3.41 7.364s3.552.64 5.377 1.746c1.067.646 1.895 1.662 2.393 2.735s2.302 2.212 2.302 2.212 2.003-1.52 2.863-3.38z" />
    <path
       id="K"
       d="M268.034 590.207c4.788 8.9 14.378 10.38 19.514.7-.546-12.247-1.092-24.414 2.533-32.817 0 0-7.6 3.16-10.113 4.657-3.1 1.85-8.98 2.16-8.98 2.16s-1.513 6.047-1.766 8.83c-.504 5.55-1.19 16.47-1.19 16.47z" />
    <path
       id="L"
       d="M268.146 593.134c6.947 7.84 13.016 7.946 19.77.156-1.465 15.983 1.386 31.71 2.798 47.57.15 3.202.904 6.274-.298 7.275-3.84 3.195-8.285 1.13-7.7 1.35 0 0-6.73-17.025-8.195-21.777-1.565-5.074-4.44-15.233-5.1-20.5-.81-6.458-1.275-14.072-1.275-14.072z" />
    <path
       id="M"
       d="M274.884 600.053s4.073.514 6.01 0c2.365-.628 6.06-3.798 6.06-3.798-1.326 9.452.07 19.062-.69 28.492-1.45 4.343-3.105 10.402-3.105 9.288 0 1.17-6.852-4.913-8.082-10.603-.54-2.502-3.98-13.9-4.292-16.302s-1.766-11.122-1.766-11.122z" />
    <path
       id="N"
       d="M285.883 598.74s-.384 4.768-1.237 7.196-.602 2.38-1.907 3.867-1.996 5.156-1.996 5.156-5.048-3.21-6.157-5.03-2.468-3.08-2.75-5.028l-1.123-6.202c5.433 4.005 10.34 4.714 15.17.04z" />
    <path
       id="O"
       d="M259.853 513.89c-3.397.144-6.5 3.008-7.28 7-.102.526-.172 1.048-.187 1.563a5.88 5.88 0 0 0-.812-.219c-3.71-.717-7.375 1.985-8.156 6.03-.696 3.604 1.127 7.063 4.156 8.28-5.202 8.84-14.205 28.754-14.875 49.188-.934 28.488 13.938 51.556 18.25 63.063a6.32 6.32 0 0 0-2.219.031c-3.71.717-6.094 4.58-5.312 8.625s4.445 6.748 8.156 6.03a5.88 5.88 0 0 0 .813-.219c.015.514.086 1.037.188 1.563.88 4.562 4.816 7.635 8.75 6.875s6.412-5.063 5.53-9.625c-.068-.35-.18-.7-.28-1.03 3.52-.876 5.727-4.637 4.97-8.562-.68-3.517-3.516-6.004-6.687-6.125-1.934-8.315-5.646-16.565-8.418-27.795-2.037-8.254-3.567-18.117-3.51-30.8.116-26.1 8.105-37.44 11.898-48.406 3.184-.105 6.037-2.596 6.72-6.125.758-3.925-1.448-7.687-4.97-8.562.102-.332.213-.68.28-1.03.88-4.562-1.597-8.865-5.53-9.625-.492-.095-.983-.146-1.47-.125z" />
    <path
       id="P"
       d="M256.47 521.244c.734-.95 2.122-1.63 3.307-1.434 1.297.215 3.328 2.65 3.328 2.65s.79-2.9.05-4.37c-.58-1.145-2.107-2.237-3.35-2.553a6.42 6.42 0 0 0-3.721.211c-1.035.383-2.5 1.234-3.114 2.157-.578.884-1.006 3.117-1.02 4.173 2.318 7.01 2.45.75 4.523-.832z" />
    <path
       id="Q"
       d="M228.834 522.6c-4.114 0-7.47 3.324-7.47 7.438 0 1.233.062 5.973-.656 8.47a16.76 16.76 0 0 1-.844 2.25c-1.73-.384-17.848 22.71-18.937 43.5-1.605 30.627 12.17 48.7 20.313 59.156.555 1.098 1.1 2.28 1.47 3.563.718 2.496.656 7.236.656 8.47 0 4.114 3.355 7.438 7.47 7.438a7.43 7.43 0 0 0 7.438-7.437 7.47 7.47 0 0 0-.156-1.437c2.784-1.08 4.78-3.772 4.78-6.937a7.43 7.43 0 0 0-7.437-7.437c-1.17 0-2.263.302-3.25.78-9.248-16.616-11.246-27.76-13.28-42.406-2.426-17.456-1.635-32.624 10.563-53.28 1.152.722 2.51 1.125 3.97 1.125a7.43 7.43 0 0 0 7.438-7.437c0-3.165-1.997-5.86-4.78-6.937.09-.466.156-.945.156-1.437a7.43 7.43 0 0 0-7.437-7.437z" />
  </defs>
</svg>
