<svg xmlns="http://www.w3.org/2000/svg" width="600" height="600" xmlns:xlink="http://www.w3.org/1999/xlink">
<defs>
  <radialGradient id="rg" gradientUnits="userSpaceOnUse" cx="220" cy="220" r="405">
    <stop style="stop-color:#fff;stop-opacity:.3" offset="0" />
    <stop style="stop-color:#fff;stop-opacity:.2" offset="0.2" />
    <stop style="stop-color:#666;stop-opacity:.1" offset="0.6" />
    <stop style="stop-color:#000;stop-opacity:.13" offset="1" />
  </radialGradient>
  <path id="shield" d="m 1.5,1.5 h 597 v 597 h -597 z" />
</defs>
<use id="background" xlink:href="#shield" style="fill:#ffffff;"/>
<g id="maiden" style="stroke:#000000;stroke-width:1;stroke-linecap:round;">
	<path style="fill:#ffe466;stroke:#99883d;" d="m 229.7,62.87 c -18.2,-14.09 -23.9,-23.59 -57.7,-28.43 -29.1,-1.12 -59.4,3.77 -83.96,12.82 13.46,3.7 23.16,29.83 20.06,36.99 13.9,-11.51 45.1,-31.72 71.4,-34.31 17.1,-1.68 23.8,-0.85 50.2,12.93 z"/>
	<path style="fill:#ffe466;stroke:#99883d;" d="m 387.5,325.7 c 0,0 17.5,-10.7 52.4,3.3 34.8,13.8 43,89.5 43.4,99.3 -9.7,-1.9 -35.3,18.5 -40.2,24.7 3.5,-17.8 12.1,-74.2 -7,-102.8 -10,-15.2 -17.7,-20.9 -48.6,-24.5 z"/>
	<path style="fill:#ffe466;stroke:#99883d;" d="m 186.4,359.5 c -13.4,-10.6 -21,-21 -20.4,-34.3 0.7,-16.4 15.6,-30.1 28.8,-39.9 12.8,-9.6 29.6,-12.9 45.4,-16 63.5,-12.8 137.2,20.3 193.9,-10.9 16.4,-9 28.9,-29.4 32.7,-45.7 16.2,-70.8 -7.3,-88.8 -18.3,-105.8 9.4,21.8 11.1,38.6 3.5,55.5 -9.6,21.6 -33.2,36.5 -55.7,44.1 -53.9,18.4 -114.4,-11.1 -170.5,-2.3 -21.1,3.3 -43.3,8.1 -60.7,20.5 -20.1,14.3 -37,35.4 -45.1,58.7 -4.3,12.3 -3.2,29.1 -0.5,39 8.6,29.6 30.7,42.5 66.9,37.1 z"/>
	<path style="fill:#ffe466;stroke:#99883d;" d="m 328,51.93 c 31.6,3.27 63.5,14.73 89.5,33.1 20,14.23 38.5,33.77 47.1,56.67 8.3,22.2 6.5,52.8 2.2,71 15.1,-34.5 25.3,-79 16.2,-117.36 -5.3,-22.07 -20.7,-42.33 -38.8,-55.94 -19.1,-14.32 -44.3,-19.71 -67.9,-22.63 -21.5,-2.65 -44,-1.16 -64.7,4.92 -26,7.61 -44.5,36.74 -71.5,38.53 -24.2,1.6 -21.1,-19.24 -68.1,-25.78 29.1,8.73 29.9,18.28 42,22.61 12.1,4.33 18.5,7.12 28.2,7.7 28.8,1.72 57.1,-15.8 85.8,-12.82 z"/>
	<path style="fill:#f0f0c0;stroke:#764c3d;" d="m 379.8,92.29 c -0.9,-3.23 -10,-4.71 -12.9,-3.14 -5.6,2.85 -5.6,14.45 -11.9,14.75 -6.1,0.3 -4.5,-8.86 -12.1,-11.21 -5.8,-1.77 -10.4,4.31 -13.6,4.41 -3.7,0.1 -11.1,-14.31 -19.6,-13.83 -8,-2.64 -17,1.17 -20.8,6.18 -7.3,0 -11.9,3.04 -14.9,9.81 -2.9,6.34 2.5,17.74 -2,23.14 -12.6,15 -3.7,31.7 -15.2,42.1 -8.8,8 -27.8,13.5 -15,41.2 17.5,38 22.9,83.6 16.8,81.7 25.4,-12.4 25.1,-23.1 28,-36.1 0.4,18.9 6.2,34.7 18.5,46.7 -1.7,-14.7 3.3,-26.3 13.5,-32.5 11.6,7.9 14,25.5 20.4,35.8 3.8,6.2 17.7,11.5 24.2,7.7 -16.9,-13.2 -16.6,-33.8 -17,-45.2 13.6,4.8 17,14.4 24.8,27.8 3,-20.1 -9.9,-35.3 -21.7,-45.9 21.1,-0.7 30.6,17.8 40.3,27.2 2.7,-16.5 -7.5,-40.9 -19.6,-57.1 6.7,9 13.2,16.8 23.7,14.7 12.5,-2.4 16.9,3.2 25.6,22 -1.6,-12.2 -3.5,-25.7 -17.3,-33.1 10.3,5.8 32.3,-1.7 42.9,-16.3 -4.9,5 -37,15 -50.8,4.1 -14.9,-11.7 -8.6,-34.3 -18.3,-50.4 -5.2,-8.8 -23.6,-5.7 -26.2,-15.5 8.8,6.5 15.5,3.9 20.9,0.2 3.5,-2.5 7.6,-2.8 11.8,-2.5 13.3,1 23.8,15.6 34.3,-1.8 -6.8,3.3 -19,1.9 -23.8,-3.2 -5.9,-6.3 -6.1,-11.4 -14.3,-13.8 -10.4,-3.2 -10.3,1.7 -21.1,0.8 -8.5,-0.6 -11.1,-1.3 -14.7,-9 8.5,2.4 13.8,2.8 19.6,-1.4 3.2,-2.3 4.8,-8.7 6.9,-12.03 1.6,-2.45 3.1,-6.57 10.6,-6.28 z"/>
	<path style="fill:#f0ddd7;stroke:#764c3d;" d="m 371.5,492.9 c -2.5,-7.4 1.1,-16.9 -3.4,-23.2 -2.9,-4.1 -10.7,0.5 -14.6,-2.5 -5.6,-4.3 -8.6,-11.2 -11.4,-17.7 -8,-19.3 -24.2,-30.5 -27.1,-32.5 -2.4,-3.3 1.4,-14.1 2.6,-19.5 6.3,-29.8 13.6,-56.1 12.7,-86.2 -0.4,-14.2 -7.5,-27.5 -10.1,-41.5 -0.9,-4.8 -2.1,-8.4 -0.4,-13.1 4.3,-11.6 10.6,-18.7 17.7,-34.8 1.5,13 10.3,22.2 16.1,33.7 7.7,15.1 7.7,12.6 13.5,28.5 2.6,7.2 11.7,17.3 11.6,19.7 -0.1,2.2 -0.8,24.2 6.3,25.6 l 25,-10.3 c 1.9,-0.7 0.1,-4.6 -1.3,-5.9 -5.3,-5 -12.6,-12.8 -18.6,-18.3 -1.9,-9.7 -7.3,-29.7 -12.8,-44 -2.5,-6.4 -8.4,-11.2 -10.7,-17.7 -6.3,-17.1 -8.1,-36.3 -16.1,-52.6 -2.9,-5.8 -10.7,-10.1 -15.2,-14.7 -4,-4.1 -11.1,-7.5 -12.7,-13 -2.3,-8.4 3.3,-15.3 1.7,-23.9 -3.5,-6.2 -4.4,-9.5 -5.1,-12.4 -9.1,-6 -7.7,-10.1 -9.7,-14.3 -7.3,1.1 -13.3,0.8 -18.6,-1.6 -0.9,3.8 -3.8,7.1 -8.6,12.1 -0.4,8.4 1.4,7.9 3.8,13.1 1,4.9 0.7,8.8 9.8,17.2 0.3,2.9 -0.3,4.6 -0.4,7.6 -9.1,-12.2 -19.8,-18 -39.8,-15.7 -9.9,-5.5 -23.7,-5.7 -31.9,-5.7 3.1,-10.8 2.4,-22.8 3.1,-34.16 0.3,-4.02 2.7,-9.42 4.6,-13.24 8.8,-5.69 11.1,-16.42 10.4,-20.83 -0.6,-4.07 1.4,-7.05 -1.3,-6.79 -2.5,0.24 -2.7,2.41 -3.3,5.57 -7.7,-0.71 -11.6,-3.51 -19.3,-4.22 -1.4,3.87 -3.7,8.58 -3.5,13.65 0.1,3.61 -0.3,5.75 0.6,10.17 -6.5,19.52 -12.3,41.15 -10.8,58.75 -1.3,2.5 1.9,5.2 3.3,4.9 16.7,10 34.5,15 50.3,17.6 2.8,2.5 3.4,3.7 9,5.7 -2.6,22.5 -8.4,24.1 -11.7,29 -2.8,-0.3 -4.5,3.5 -2,5.8 -2.3,11.2 4.7,15.3 8.2,16.7 -0.9,7.1 -0.4,16.3 -2.3,23 -2.6,10 -9.4,15.1 -10.8,25.2 -3.4,23.9 -10.3,29.1 -2.5,75 4,24 5.4,30.3 13.1,53.4 3.4,9.8 10.3,15.7 13.9,25.4 6.5,17.8 1.1,5.9 7.9,23.6 4,10.3 8.1,17.3 10.7,28.1 3.9,15.7 21.7,45.5 20.1,55.8 -0.7,4.7 0.3,14.2 0.8,30.1 0.1,2.3 -2,4.9 -5.5,7.3 0,0 -1.3,0.5 -2.2,1.1 -0.4,0.3 -1.5,1 -0.3,1.8 0.5,0.7 2.6,-0.6 5.2,-0.6 -1.2,0 -3.6,0.2 -4.7,1.4 -0.6,0.5 0,2 1,2.1 1.9,0.1 3.6,-1.1 5.4,-1.5 -1.8,0.8 -3.7,1.1 -5.3,2.2 -0.8,0.7 -0.2,2.7 1.9,2.6 2.2,-0.2 3.8,-0.6 5.7,-1.8 -1.7,1.6 -5.5,1.5 -6.7,2.4 -1.4,1.1 0.2,3.5 1.4,3.7 1.4,0.2 5,-1.1 7.1,-2 -1.2,1.1 -5.7,1.7 -7.5,2.6 -1.6,0.9 0,4.9 1.7,5.4 3,0.9 7.3,-0.3 8.7,-1.4 3.3,-2.8 8.2,-3.6 9.5,-7.8 2.6,-7.6 -1.5,-16.3 0.7,-24.1 1.6,-5.4 8.5,-8 10.3,-13.3 1,-3.2 -1.2,-6.9 -3,-9.6 -2.2,-3 -8.5,-3.2 -9,-6.9 -2.6,-20.3 -6.1,-40.3 -6.4,-60.1 6.8,6.4 17.3,13.3 24.5,21.7 3.8,4.5 4.9,11 8,16 2.5,3.9 6.4,6.8 8.4,10.9 2,4.4 1.3,9.7 3.2,14.1 0.5,1.4 -0.2,2 1.2,2.7 1.8,0.8 3.6,0.3 4.5,-1.5 1.2,-2.2 -0.7,-5.2 -1.9,-7.7 1,1 1.5,3.2 2.8,4.5 2.1,1.7 2.2,-4.6 0.4,-7.2 0.8,1.3 1.5,4.4 2.8,4.7 2.1,0.5 1.3,-5.2 0,-7.6 0.8,0.8 1.1,4.2 2.7,4.3 1.7,0.2 1.3,-4.1 0,-6.5 0.6,1.3 1.1,5.1 2.1,4.3 1.7,-1.2 1.4,-3.7 1.4,-5.8 1.3,-5.7 -7.1,-9.5 -8.9,-15 z"/>
	<path style="fill:none;stroke:#764c3d;" d="m 320.3,461 c -3.3,-3.5 -19.2,-14.5 -26.9,-22.6 -1.9,-2 -6.2,-5.5 -8,-14 -1.4,-6.6 -0.3,-13.5 -2.4,-22.3 -7,-29 -4.3,-37.6 -4.3,-71.8 -7.4,-4.9 -14.3,-6.9 -23.3,-21.3"/>
	<path style="fill:none;stroke:#764c3d;" d="m 286.5,319.7 c 4.2,-1.5 6.7,-3.7 8.6,-6.1"/>
	<path style="fill:#ffe466;stroke:#99883d;" d="m 119.5,322.4 c 8.6,21.4 24.9,28.7 42.3,31.3 32.4,4.8 60.5,-26.4 92.7,-32.8 17.6,-3.4 35.8,-4.2 53.7,-2.7 22.8,1.8 44.4,18.5 66.9,14.5 5.9,-1.1 9.6,-7.8 15.3,-9.7 6.3,-2.2 13.3,-2.5 19.8,-1.9 10.2,0.8 22,4.3 29.7,7.9 -10.2,-2.3 -30.9,-6.4 -47,1 -5.4,2.5 -9,8.4 -14.5,10.1 -27,8.3 -57,-6.1 -84.6,-0.6 -40.3,8 -72.2,45.4 -113.2,48 -12.2,0.8 -26.1,-2 -35.4,-10 -15.5,-13.1 -25.7,-55.1 -25.7,-55.1 z"/>
	<path style="fill:none;stroke:#764c3d;" d="m 270.6,219.3 c -3.1,0.1 -6.8,-0.4 -9.2,-1.4"/>
	<path style="fill:none;stroke:#764c3d;" d="m 288.4,219.5 c 5.1,7.1 11.9,10.2 19.1,10.7 5.1,0.3 10.9,-1.7 14.2,-5.5 6.8,-7.6 2.9,-13.1 5.3,-18.1 1.4,-1.4 4.6,-2.4 6.9,-1.8 3.9,0.9 7,3.8 9.1,8"/>
	<path style="fill:#dbae9f;stroke:#764c3d;" d="m 309.4,211.7 c -0.4,0.9 -1.9,1 -2.8,0.7 -1,-0.4 -2,-1.5 -1.7,-2.5 0.3,-0.8 1.6,-1.3 2.5,-1 1.1,0.3 2.4,1.7 2,2.8 z"/>
	<path style="fill:none;stroke:#764c3d;" d="m 271.9,266.2 c 1,0.9 2.3,0.7 3.4,0.2 -1.3,0.4 -1.6,1.2 -1.5,3.1"/>
	<path style="fill:none;stroke:#764c3d;" d="m 225.2,74.35 c 0,0 1.6,-5.58 4.6,-7.38 2.2,-1.27 5.7,-1.33 6,-1.29 1.4,-2.62 0.9,-4.24 1.5,-5.83"/>
	<path style="fill:#f0ddd7;stroke:#764c3d;" d="m 218.5,53.93 c 0.7,-1.69 2.4,-3.75 3.9,-3.82 2.1,-0.1 1.3,4.59 0.5,6.66 -0.7,1.86 -2.4,4.86 -4.3,4.09 -2.1,-0.9 -1,-4.79 -0.1,-6.93 z"/>
	<path style="fill:#f0ddd7;stroke:#764c3d;" d="m 227.2,49.65 c 2.5,0.65 1.8,5.47 1,8.05 -0.9,2.68 -3.1,7.17 -5.8,6.18 -1.9,-0.76 -0.7,-4.37 -0.2,-6.44 0.8,-2.96 0.8,-8.72 5,-7.79 z"/>
	<path style="fill:#f0ddd7;stroke:#764c3d;" d="m 236.5,52.97 c 1.8,1.11 1.3,4.35 0.9,6.45 -0.7,2.72 -2.4,7.6 -5,6.76 -2.2,-0.66 -0.8,-4.5 -0.2,-6.63 0.6,-2.52 1.5,-8.33 4.3,-6.58 z"/>
	<path style="fill:#f0ddd7;stroke:#764c3d;" d="m 231.8,50.56 c 4.4,1.32 1.2,5.83 0.5,8.6 -0.7,2.5 -1.9,7.25 -4.4,6.46 -3.1,-0.97 -0.7,-6.6 0.2,-9.67 0.7,-2.06 0.5,-6.36 3.7,-5.39 z"/>
	<path style="fill:none;stroke:#764c3d;" d="m 254.9,148.7 c 3.3,5.2 12.4,7.5 12,17.7"/>
	<path style="fill:none;stroke:#764c3d;" d="m 295.9,143.1 c 0,0 3.3,1.9 6,3.3 3.8,1.9 6.5,2.6 9.9,1 3.8,-1.6 4.4,-4.2 7.3,-11.2"/>
	<path style="fill:none;stroke:#764c3d;" d="m 293.4,157.2 c 1.7,5.4 6.9,3.3 9.9,10.9"/>
	<path style="fill:none;stroke:#764c3d;" d="m 310,165.6 c 6.2,-0.4 10.7,1.8 14.7,4.6"/>
	<path style="fill:#f0ddd7;stroke:#764c3d;" d="m 385.8,317 c 0.7,3 0.7,4.2 3.3,6.4 2.2,1.8 3,4.9 2.9,8.1 -0.1,1.7 1.6,2.5 3.6,2.1 2.7,-0.5 1.9,-8.3 1,-11.2 0.8,2.6 1.8,6.4 0.7,10 -0.5,1.6 4.2,1 4.9,-0.6 1.4,-3.1 -0.4,-10.4 -0.4,-10.4 0,0 1.1,5.4 0.7,9.3 -0.1,1.3 3.2,1 3.8,-0.3 0.9,-2.1 -0.1,-9.7 -0.1,-9.7 0,0 1,5.8 0.5,8.8 -0.1,1 2.2,0.7 2.6,-0.1 2.6,-5.2 1.4,-11.1 1.4,-12.5"/>
	<path style="fill:none;stroke:#764c3d;" d="m 299.5,129.8 c 0.7,1.2 0.5,2.8 1.8,2.8 2.2,0 2.5,-2.3 4,-1.6"/>
	<path style="fill:none;stroke:#764c3d;" d="m 308,111.4 c -4.1,0.8 -8.2,2.5 -8.3,4.8"/>
	<path style="fill:none;stroke:#764c3d;" d="m 293.1,119.3 c -3.8,-0.7 -6.3,0.4 -7.7,2.7"/>
	<path style="fill:#ffffff;stroke:#764c3d;" d="m 288.3,125.4 c 2.9,0.4 5.6,-1.9 6.5,-3.1 -2.9,-1.5 -6.9,-0.1 -6.5,3.1 z"/>
	<path style="fill:#dbae9f;stroke:#dbae9f;" d="m 301.8,140.3 c 5,2.1 8.5,0.5 9.9,-5 0,0 -2.6,0 -4,0.5 -0.6,0.2 -0.7,0.9 -1.4,1.3 -0.5,0.2 -1,0.1 -1.6,0.3 -1.1,0.5 -2.9,2.9 -2.9,2.9 z"/>
	<path style="fill:none;stroke:#764c3d;" d="m 319.2,116.6 c 7.8,6.7 17.2,5.4 21.7,10.9"/>
	<path style="fill:none;stroke:#764c3d;" d="m 370,215.8 c -10,-13.9 -6.6,-19.3 -14.2,-27.5"/>
	<path style="fill:none;stroke:#764c3d;" d="m 337.5,221.9 c -0.7,-5 -0.6,-6.8 -0.4,-9"/>
	<path style="fill:#ffffff;stroke:#764c3d;" d="m 302.8,119 c 3.1,0.5 5.6,-1.3 6.8,-3.4 -2.7,-1.5 -6.4,-0.3 -6.8,3.4 z"/>
	<circle style="fill:#ffffff;stroke:#4010a0;" r="1" cx="291.6" cy="123.1"/>
	<circle style="fill:#ffffff;stroke:#4010a0;" r="1" cx="306.1" cy="116.7"/>
	<path style="fill:none;stroke:#764c3d;" d="m 301.8,140.3 c 5,-0.6 7.4,-2.9 9.9,-5"/>
</g>
<use style="fill:url(#rg);stroke:#000000;stroke-width:3" xlink:href="#shield" />
</svg>
