<?xml version="1.0" encoding="UTF-8" standalone="no"?>
<!-- Created with Inkscape (http://www.inkscape.org/) -->

<svg
   version="1.0"
   width="729.20862"
   height="646.2442"
   id="svg2448"
   sodipodi:docname="Knight helmet.svg"
   inkscape:version="1.2.1 (9c6d41e410, 2022-07-14)"
   xmlns:inkscape="http://www.inkscape.org/namespaces/inkscape"
   xmlns:sodipodi="http://sodipodi.sourceforge.net/DTD/sodipodi-0.dtd"
   xmlns:xlink="http://www.w3.org/1999/xlink"
   xmlns="http://www.w3.org/2000/svg"
   xmlns:svg="http://www.w3.org/2000/svg">
  <sodipodi:namedview
     id="namedview35"
     pagecolor="#ffffff"
     bordercolor="#000000"
     borderopacity="0.25"
     inkscape:showpageshadow="2"
     inkscape:pageopacity="0.0"
     inkscape:pagecheckerboard="0"
     inkscape:deskcolor="#d1d1d1"
     showgrid="false"
     inkscape:zoom="0.32379401"
     inkscape:cx="563.62995"
     inkscape:cy="704.15139"
     inkscape:window-width="1920"
     inkscape:window-height="1017"
     inkscape:window-x="-8"
     inkscape:window-y="-8"
     inkscape:window-maximized="1"
     inkscape:current-layer="svg2448" />
  <defs
     id="defs2450">
    <linearGradient
       id="linearGradient2885">
      <stop
         id="stop2887"
         style="stop-color:#ffffff;stop-opacity:1"
         offset="0" />
      <stop
         id="stop2891"
         style="stop-color:#ffffff;stop-opacity:1"
         offset="0.22857143" />
      <stop
         id="stop2889"
         style="stop-color:#000000;stop-opacity:1"
         offset="1" />
    </linearGradient>
    <linearGradient
       x1="63.868282"
       y1="-71.823761"
       x2="534.55084"
       y2="-71.823761"
       id="linearGradient3488"
       xlink:href="#linearGradient2885"
       gradientUnits="userSpaceOnUse"
       gradientTransform="matrix(1.41743,0,0,1.41743,-49.34891,785.83741)" />
    <linearGradient
       x1="183.53125"
       y1="-232.44067"
       x2="426"
       y2="-232.44067"
       id="linearGradient3491"
       xlink:href="#linearGradient2885"
       gradientUnits="userSpaceOnUse"
       gradientTransform="matrix(1.41743,0,0,1.41743,-49.3293,785.85)" />
    <linearGradient
       x1="285.03387"
       y1="-378.80991"
       x2="326.14249"
       y2="-378.80991"
       id="linearGradient3494"
       xlink:href="#linearGradient2885"
       gradientUnits="userSpaceOnUse"
       gradientTransform="matrix(1.3553,0,0,1.38268,-30.9817,771.727)"
       spreadMethod="pad" />
    <linearGradient
       x1="131.44279"
       y1="-123.11002"
       x2="400.42053"
       y2="-123.11002"
       id="linearGradient3497"
       xlink:href="#linearGradient2885"
       gradientUnits="userSpaceOnUse"
       gradientTransform="matrix(1.41743,0,0,1.41743,6.86005,469.146)" />
    <clipPath
       clipPathUnits="userSpaceOnUse"
       id="clipPath6257">
      <g
         inkscape:label="Clip"
         id="use6259">
        <rect
           style="fill:#adadad;fill-opacity:1;fill-rule:evenodd;stroke:#000000;stroke-width:0.597165;paint-order:markers fill stroke"
           id="rect6261"
           width="729.20862"
           height="646.2442"
           x="8.6686354"
           y="141.24718"
           transform="translate(-8.6686358,-141.24718)"
           inkscape:label="rect6248" />
      </g>
    </clipPath>
  </defs>
  <g
     transform="matrix(1,0,0,1.0656739,-8.6686576,-194.20455)"
     id="layer1">
    <path
       d="m 270.71384,541.70919 c -23.12522,84.27672 -103.84627,109.56823 -118.91224,115.15899 -19.58395,7.26727 -108.475836,-5.59076 -108.475836,-5.59076 0,0 50.553384,12.73446 59.589976,21.12344 21.52767,19.98503 51.89905,107.46429 69.97833,118.64583 18.07947,11.18155 36.15864,0 45.19832,5.59078 9.03948,5.59076 86.71194,30.38551 162.61615,29.72912 87.43139,-0.75608 138.7055,-21.34296 150.75838,-26.93374 12.05308,-5.59077 30.13226,8.38615 45.19833,-2.79538 15.06619,-11.18155 60.26431,-106.22465 78.3437,-122.99695 18.07916,-16.77234 51.22461,-19.56771 51.22461,-19.56771 0,0 -84.37007,16.77232 -102.44924,8.38616 -18.07937,-8.38616 -87.10863,-34.6148 -108.76322,-114.65694"
       id="path2072"
       style="display:inline;fill:#b3b3b3;fill-rule:evenodd;stroke:#000000;stroke-width:3;stroke-linecap:butt;stroke-linejoin:miter;stroke-miterlimit:4;stroke-dasharray:none;stroke-opacity:1" />
    <path
       d="m 43.246985,651.15581 c -24.105869,19.56772 -33.078371,36.49733 -33.078371,61.65581 0,25.15849 25.866248,55.67057 37.91913,75.23826 40.612962,1.50531 70.632596,2.52078 119.767636,0.60487 C 153.65474,755.45091 117.77643,689.60258 103.63791,671.98928 89.824948,654.78168 43.246985,651.15581 43.246985,651.15581 Z"
       id="path2074"
       style="display:inline;fill:#666666;fill-rule:evenodd;stroke:#000000;stroke-width:3;stroke-linecap:butt;stroke-linejoin:miter;stroke-miterlimit:4;stroke-dasharray:none;stroke-opacity:1" />
    <path
       d="m 709.36829,653.97114 c -40.73936,2.06833 -91.86336,15.04348 -16.69106,2.5338 -11.27397,2.43034 -26.84172,7.1645 -37.63061,17.17354 -13.48945,12.51424 -49.22862,81.11445 -69.13205,113.4309 29.17644,1.02166 75.08236,2.41474 103.36509,1.57857 18.07918,-13.97693 47.09775,-59.14393 47.09755,-81.50699 0,-22.36308 0.11004,-36.4375 -27.00892,-53.20982 z"
       id="path2076"
       style="display:inline;fill:#4d4d4d;fill-rule:evenodd;stroke:#000000;stroke-width:3;stroke-linecap:butt;stroke-linejoin:miter;stroke-miterlimit:4;stroke-dasharray:none;stroke-opacity:1" />
    <path
       d="m 203.11246,632.87896 c 17.21516,6.13637 47.20787,30.09705 49.87355,32.90508 18.85974,19.86694 51.77861,25.9636 73.58212,38.60571 24.10577,13.97692 54.23802,45.14349 54.23802,45.14349 0,0 29.0463,-37.93311 53.15216,-47.59629 22.05166,-8.83973 61.12832,-14.58969 83.1,-35.81615 2.35226,-2.27246 26.48048,-24.77845 42.02506,-29.17087"
       id="path2085"
       style="display:inline;fill:none;fill-rule:evenodd;stroke:#000000;stroke-width:3;stroke-linecap:butt;stroke-linejoin:miter;stroke-miterlimit:4;stroke-dasharray:none;stroke-opacity:1" />
    <path
       d="m 247.42206,353.47348 c 0,0 10.32551,85.9867 33.26584,123.27371 12.84854,20.88373 44.96966,54.12415 64.24232,51.14077 19.27277,-2.9834 38.08995,-28.55378 38.08995,-28.55378 0,0 17.89437,20.88373 37.16715,26.85051 19.27265,5.96679 51.37948,-26.26277 59.88551,-42.61373 22.87749,-43.97678 36.71156,-121.47271 36.71156,-121.47271 0,0 9.63638,-29.83389 -22.48483,-38.78405 -32.12121,-8.95017 -42.21257,-19.05077 -59.19637,-11.71665 -26.1525,11.29351 -50.0156,44.53393 -50.0156,44.53393 0,0 -25.69699,-31.53716 -47.49268,-41.55054 -17.51321,-8.04594 -54.83949,-20.02673 -74.11225,-8.09317 -19.27267,11.93355 -16.0606,46.98571 -16.0606,46.98571 z"
       id="path2141"
       style="display:inline;fill:#000000;fill-rule:evenodd;stroke:#000000;stroke-width:3;stroke-linecap:butt;stroke-linejoin:miter;stroke-miterlimit:4;stroke-dasharray:none;stroke-opacity:1" />
    <path
       d="m 362.98465,261.02563 c -81.7899,1.11365 -151.39991,62.43435 -151.39991,83.5301 -1e-4,37.49905 8.37249,110.57318 23.9393,142.12137 30.50224,57.65782 72.37651,118.44476 150.10589,118.08392 73.55748,-0.34144 119.24827,-48.98498 141.69479,-121.38907 11.60827,-28.12573 27.82115,-101.76416 27.82135,-133.4078 4.54263,4.21916 -34.70458,-91.0481 -192.16142,-88.93852 z m -82.17005,40.56318 c 19.4496,-1.28771 43.80174,6.88568 56.93673,12.92012 21.79568,10.01337 47.2317,41.76504 47.2316,41.76506 0,0 23.99054,-33.47625 50.14314,-44.76973 16.9838,-7.33414 27.08013,2.76807 59.20124,11.71824 32.12121,8.95017 22.32189,38.76038 22.32177,38.76038 0,0 -13.67857,77.71275 -36.55595,121.68954 -8.50603,16.35096 -29.87159,45.01881 -49.14415,39.05202 -19.27278,-5.96677 -47.90697,-53.25339 -47.90708,-53.25338 0,0 -29.60492,47.10183 -48.87759,50.08525 -19.27267,2.98338 -40.50115,-21.91094 -53.34971,-42.79466 -22.94031,-37.28701 -33.32081,-123.19188 -33.32091,-123.19188 0,0 -3.42118,-35.23991 15.8517,-47.17348 4.81819,-2.98338 10.98598,-4.37824 17.46921,-4.80748 z"
       id="path2143"
       style="display:inline;fill:#b3b3b3;fill-rule:evenodd;stroke:#000000;stroke-width:3;stroke-linecap:butt;stroke-linejoin:miter;stroke-miterlimit:4;stroke-dasharray:none;stroke-opacity:1" />
    <path
       d="m 384.14678,183.71326 c 20.36255,0.43307 78.82217,32.42326 120.60326,64.03481 39.79256,30.10711 66.22942,69.15449 69.21869,80.26 2.98928,11.10553 -9.70853,77.5606 -9.70853,77.5606 0,0 -2.98928,-13.88191 -11.95693,-24.98744 -7.84949,-9.72069 -88.65264,-53.96477 -144.76584,-66.70973 0.30673,0.0998 -21.87198,-6.18464 -22.19632,-5.89233 -0.53127,0.9531 -20.43998,4.66193 -21.13843,3.93322 -58.46211,8.98537 -150.38074,56.40663 -155.66178,68.66884 -5.97834,13.88191 -8.96764,19.43466 -8.96764,19.43466 0,0 -8.77591,-66.6331 -5.78673,-77.73863 2.98918,-11.10552 36.80338,-49.5418 70.15121,-74.5292 34.89797,-26.14888 99.74827,-64.46994 120.20904,-64.0348 z"
       id="path2197"
       style="display:inline;fill:#999999;fill-rule:evenodd;stroke:#000000;stroke-width:3;stroke-linecap:butt;stroke-linejoin:miter;stroke-miterlimit:4;stroke-dasharray:none;stroke-opacity:1" />
    <path
       d="m 310.46073,239.07835 27.51814,-17.04309 c 0,0 4.03257,14.69362 6.8617,34.24957 3.12976,21.63337 1.80572,40.8082 1.2053,40.99439 -9.90822,3.07239 -16.86258,4.47548 -23.91383,8.0342 -0.11306,0.0437 -0.73191,-20.24991 -4.29127,-41.25168 -3.35172,-19.77725 -7.84629,-24.98339 -7.38004,-24.98339 z"
       id="path2200"
       style="display:inline;fill:#000000;fill-rule:evenodd;stroke:#000000;stroke-width:3;stroke-linecap:butt;stroke-linejoin:miter;stroke-miterlimit:4;stroke-dasharray:none;stroke-opacity:1" />
    <path
       d="m 265.45775,269.08496 23.59632,-16.90094 c 0,0 2.00687,4.74946 6.59338,26.39513 4.7656,22.49052 3.02986,33.80186 3.02986,33.80186 l -18.61105,8.81447 c 0,0 -3.73661,-22.59003 -6.75809,-32.39559 -4.55607,-14.78627 -7.85042,-19.71493 -7.85042,-19.71493 z"
       id="path2202"
       style="display:inline;fill:#000000;fill-rule:evenodd;stroke:#000000;stroke-width:3;stroke-linecap:butt;stroke-linejoin:miter;stroke-miterlimit:4;stroke-dasharray:none;stroke-opacity:1" />
    <path
       d="m 247.89172,283.20549 c 0,0 4.04468,8.91979 6.91098,21.04741 3.45545,14.62051 4.44427,25.12957 4.44427,25.12957 l -15.93502,9.05311 c 0,0 -0.98036,-8.47739 -3.39913,-20.25654 -2.33141,-11.35327 -7.53749,-21.00178 -7.53749,-21.00178 z"
       id="path2204"
       style="display:inline;fill:#000000;fill-rule:evenodd;stroke:#000000;stroke-width:3;stroke-linecap:butt;stroke-linejoin:miter;stroke-miterlimit:4;stroke-dasharray:none;stroke-opacity:1" />
    <path
       d="m 382.0714,183.80535 c -5.44586,-0.11582 -17.28341,4.98128 -27.38481,9.39623 1.66307,2.42 14.06772,29.0551 14.06772,65.7558 0,28.11992 -3.82864,52.54688 -3.82864,52.54688 l 0.32351,1.20187 c 8.30416,-1.31899 21.11462,-3.12194 20.09121,-3.41788 0.63013,0.26313 14.55136,3.60536 20.39079,4.73352 l 0.97052,-2.10328 c -1e-4,0 -7.51276,-23.93096 -7.51264,-52.05087 1e-4,-37.7649 11.29551,-63.11211 13.76614,-66.81186 -8.2527,-4.71867 -26.19046,-9.1506 -30.8838,-9.25041 z"
       id="path2231"
       style="display:inline;fill:#adadad;fill-opacity:1;fill-rule:evenodd;stroke:#000000;stroke-width:3;stroke-linecap:butt;stroke-linejoin:miter;stroke-miterlimit:4;stroke-dasharray:none;stroke-opacity:1" />
    <path
       d="m 463.21667,241.6013 -26.78966,-18.01652 c 0,0 -4.64003,14.53815 -8.27943,33.97816 -4.02604,21.50511 -3.49953,40.7131 -2.90729,40.92067 9.77313,3.42518 16.66403,5.07643 23.56228,8.8852 0.11107,0.0478 1.57249,-20.2086 6.00165,-41.06719 4.17077,-19.64241 8.87829,-24.68361 8.41245,-24.70032 z"
       id="path2238"
       style="display:inline;fill:#000000;fill-rule:evenodd;stroke:#000000;stroke-width:3;stroke-linecap:butt;stroke-linejoin:miter;stroke-miterlimit:4;stroke-dasharray:none;stroke-opacity:1" />
    <path
       d="m 506.93963,273.19827 -22.87667,-17.73395 c 0,0 -2.20272,4.67402 -7.685,26.13922 -5.69638,22.30299 -4.43176,33.66811 -4.43176,33.66811 l 18.23104,9.47485 c 0,0 4.67222,-22.43931 8.09878,-32.12928 5.16696,-14.61202 8.66361,-19.41895 8.66361,-19.41895 z"
       id="path2240"
       style="display:inline;fill:#000000;fill-rule:evenodd;stroke:#000000;stroke-width:3;stroke-linecap:butt;stroke-linejoin:miter;stroke-miterlimit:4;stroke-dasharray:none;stroke-opacity:1" />
    <path
       d="m 523.90593,287.9378 c 0,0 -4.41217,8.7682 -7.78015,20.78406 -4.0602,14.4858 -5.48486,24.9516 -5.48486,24.9516 l 15.54704,9.6174 c 0,0 1.3318,-8.43594 4.23806,-20.11964 2.80138,-11.26125 8.40437,-20.71602 8.40437,-20.71602 z"
       id="path2242"
       style="display:inline;fill:#000000;fill-rule:evenodd;stroke:#000000;stroke-width:3;stroke-linecap:butt;stroke-linejoin:miter;stroke-miterlimit:4;stroke-dasharray:none;stroke-opacity:1" />
    <path
       d="m 383.0419,469.55042 c 0,-10e-6 -6.9115,10.88284 -16.1752,22.5351 l 0.647,4.20655 c 10.09198,18.74662 14.8812,55.88705 14.8812,55.88705 10e-5,0 7.63582,-35.86933 15.20468,-55.58658 0.12838,-0.0641 -0.0394,-4.07817 0,-5.70889 -8.26411,-11.21867 -14.55768,-21.33324 -14.55768,-21.33323 z"
       id="path2312"
       style="display:inline;fill:#b0b0b0;fill-opacity:1;fill-rule:evenodd;stroke:#000000;stroke-width:3;stroke-linecap:butt;stroke-linejoin:miter;stroke-miterlimit:4;stroke-dasharray:none;stroke-opacity:1" />
    <path
       d="m 382.25514,550.99533 0.89204,43.08155"
       id="path2317"
       style="display:inline;fill:none;fill-rule:evenodd;stroke:#000000;stroke-width:3;stroke-linecap:butt;stroke-linejoin:miter;stroke-miterlimit:4;stroke-dasharray:none;stroke-opacity:1" />
    <path
       d="m 382.3031,182.64779 3.61199,128.22551"
       id="path4305"
       style="display:inline;fill:none;fill-rule:evenodd;stroke:#000000;stroke-width:2;stroke-linecap:butt;stroke-linejoin:miter;stroke-miterlimit:4;stroke-dasharray:none;stroke-opacity:1" />
    <path
       d="m 382.9454,473.05712 -0.63853,68.95963"
       id="path4310"
       style="display:inline;fill:none;fill-rule:evenodd;stroke:#000000;stroke-width:2;stroke-linecap:butt;stroke-linejoin:miter;stroke-miterlimit:4;stroke-dasharray:none;stroke-opacity:1" />
    <path
       d="m 384.12547,183.73343 c -0.63941,-0.0136 -1.31381,0.0281 -2.03756,0.0886 4.69334,0.0998 22.62072,4.49461 30.87342,9.2133 -2.47064,3.69975 -13.77555,29.07583 -13.77566,66.84073 -1.1e-4,28.11992 7.53003,52.04629 7.5301,52.04629 l -0.70871,1.50603 c 0.1911,0.0531 1.57218,0.45006 1.55031,0.44294 56.1132,12.74496 136.90567,56.98716 144.75514,66.70785 8.96765,11.10553 11.95953,24.98222 11.95958,24.98222 0,0 12.68982,-66.45452 9.70054,-77.56005 C 570.98335,316.89581 544.53256,277.84641 504.73999,247.7393 462.9589,216.12775 404.48804,184.16648 384.12547,183.73343 Z m 21.88159,129.69494 c -2.48871,-0.69151 -20.38443,-5.71971 -20.68564,-5.44826 -0.47467,0.8515 -16.35269,3.908 -20.24268,4.03082 l 0.17718,0.70872 c 8.04467,-1.27776 20.32528,-3.03463 20.15409,-3.41069 0.83076,0.30867 14.53764,3.57592 20.33128,4.69524 z m -40.92832,-1.41744 -0.13289,-0.48724 c 0,0 3.80932,-24.4579 3.80935,-52.57783 0,-36.7007 -12.42268,-63.31338 -14.08572,-65.73336 6.31338,-2.75936 13.31703,-5.80994 19.00243,-7.66299 -26.85856,7.82157 -79.49734,39.54557 -109.71802,62.18979 -33.34782,24.98741 -67.17365,63.44251 -70.16282,74.54801 -2.98918,11.10553 5.80261,77.73723 5.80261,77.73723 0,0 2.96917,-5.56347 8.94752,-19.44538 5.28104,-12.26221 97.1895,-59.67145 155.65164,-68.65682 0.0745,0.0777 0.42166,0.10325 0.8859,0.0886 z m 17.00917,-128.18891 c -1.69628,-0.0361 -4.08619,0.44296 -6.77709,1.24025 2.51726,-0.66502 4.81694,-1.07643 6.77709,-1.24025 z m -44.11754,38.22634 c 3e-5,1e-5 4.03655,14.68386 6.86568,34.23982 3.12979,21.63335 1.79638,40.78642 1.19596,40.97261 -9.90821,3.0724 -16.8679,4.50293 -23.91915,8.06164 -0.11308,0.0437 -0.69293,-20.2809 -4.25229,-41.28268 -3.3517,-19.77723 -7.86347,-24.98222 -7.39722,-24.98222 z m 98.46716,1.55031 26.7983,17.98366 c 0.46584,0.0167 -4.24517,5.07403 -8.41599,24.71645 -4.42916,20.85859 -5.91303,41.10895 -6.02408,41.06121 -6.89826,-3.80877 -13.79168,-5.43377 -23.56479,-8.85894 -0.59225,-0.20757 -1.1026,-19.42322 2.92345,-40.92833 3.63939,-19.44001 8.28315,-33.97405 8.28311,-33.97405 z M 289.069,252.16877 c 4e-5,-2e-5 2.0134,4.75398 6.59991,26.39965 4.7656,22.49052 3.01204,33.79687 3.01204,33.79687 l -18.60378,8.81465 c -1e-5,0 -3.75561,-22.57388 -6.77709,-32.37944 -4.55612,-14.78627 -7.84017,-19.71115 -7.84017,-19.71115 z m 194.98535,3.27781 22.90037,17.76218 c 0,0 -3.51477,4.78909 -8.68176,19.40109 -3.42656,9.68997 -8.10592,32.15798 -8.10594,32.15796 l -18.20513,-9.47907 c 0,0 -1.2669,-11.36098 4.42948,-33.66398 5.48228,-21.4652 7.66302,-26.17817 7.66298,-26.17818 z m -236.17944,27.77279 c 3e-5,10e-6 4.04368,8.91238 6.90998,21.03999 3.45544,14.6205 4.47376,25.1151 4.47376,25.1151 l -15.94609,9.08042 c 0,2e-5 -0.99192,-8.50783 -3.4107,-20.28698 -2.33139,-11.35327 -7.5301,-20.9957 -7.5301,-20.9957 z m 276.04469,4.73953 14.92732,14.48438 c 0,0 -5.61459,9.46868 -8.416,20.72992 -2.90626,11.6837 -4.2523,20.10981 -4.25229,20.10981 l -15.54745,-9.61196 c 0,0 1.43232,-10.45213 5.49255,-24.93792 3.36797,-12.01587 7.79587,-20.77423 7.79587,-20.77423 z"
       id="path6106"
       style="display:inline;opacity:0.338583;fill:url(#linearGradient3497);fill-opacity:1;fill-rule:evenodd;stroke:#000000;stroke-width:3;stroke-linecap:butt;stroke-linejoin:miter;stroke-miterlimit:4;stroke-dasharray:none;stroke-opacity:1" />
    <path
       d="m 381.50955,184.44382 c -5.20714,-0.11299 -16.52582,4.85915 -26.18445,9.16586 1.59017,2.36066 13.45109,28.34275 13.45109,64.14365 0,27.43051 -3.66081,51.25859 -3.66081,51.25859 l 0.30932,1.1724 c 7.94018,-1.28666 20.18913,-3.04539 19.21056,-3.33408 0.60252,0.25668 13.91354,3.51697 19.49702,4.61746 l 0.92798,-2.05171 c -1e-4,0 -7.18346,-23.34424 -7.18335,-50.77474 10e-5,-36.83901 10.8004,-61.56478 13.16275,-65.17383 -7.89098,-4.60298 -25.04248,-8.92624 -29.53011,-9.0236 z"
       id="path7933"
       style="display:inline;opacity:0.326772;fill:url(#linearGradient3494);fill-opacity:1;fill-rule:evenodd;stroke:#000000;stroke-width:3;stroke-linecap:butt;stroke-linejoin:miter;stroke-miterlimit:4;stroke-dasharray:none;stroke-opacity:1" />
    <path
       d="m 364.95923,311.54167 0.13289,0.48724 c 3.89,-0.12282 19.768,-3.17936 20.24268,-4.03082 0.30121,-0.27145 18.19691,4.75671 20.68564,5.44825 l 0.70871,-1.50602 c -22.56098,-2.28456 -27.08527,-3.51675 -41.76992,-0.39865 z m 41.06121,1.90467 -0.26577,0.57583 c -5.79364,-1.11932 -19.50053,-4.38659 -20.33128,-4.69524 0.17119,0.37606 -12.10944,2.13291 -20.15409,3.41069 l -0.17718,-0.70871 c -0.46424,0.0147 -0.81144,-0.0109 -0.8859,-0.0886 -6.99853,1.07564 -14.48478,2.68882 -22.23595,4.73953 20.72968,11.76695 43.01028,39.59947 43.01018,39.59948 10e-6,2e-5 17.20501,-24.01424 38.35922,-38.22634 -5.41059,-1.62058 -10.69028,-3.0102 -15.76892,-4.1637 0.0219,0.007 -1.35923,-0.38988 -1.55031,-0.44295 z m -158.44221,40.88402 c -15.8064,8.22758 -28.28883,15.93207 -34.63847,21.35006 2.94562,38.26081 10.65452,86.81311 22.59031,111.00256 30.50225,57.65782 72.38542,118.45056 150.1148,118.08972 73.55747,-0.34144 119.25228,-49.00773 141.6988,-121.41182 8.67108,-21.00921 19.89339,-67.39298 25.02652,-102.71945 -0.0132,-0.0165 -0.031,-0.0279 -0.0443,-0.0443 -2.96423,-3.67086 -16.34857,-12.27437 -34.85994,-22.23595 -0.38866,2.20513 -0.79728,3.63217 -0.7973,3.63217 -2e-5,0 -13.71006,77.7008 -36.58744,121.67759 -8.50605,16.35096 -29.85029,45.03473 -49.12285,39.06794 -19.27278,-5.96677 -47.92677,-53.28656 -47.92688,-53.28654 0,0 -29.58441,47.1139 -48.85708,50.09732 -19.27268,2.9834 -40.52657,-21.90497 -53.37513,-42.78869 -22.36766,-36.35623 -32.71431,-118.33059 -33.22104,-122.43061 z"
       id="path12392"
       style="display:inline;opacity:0.338583;fill:url(#linearGradient3491);fill-opacity:1;fill-rule:evenodd;stroke:#000000;stroke-width:3;stroke-linecap:butt;stroke-linejoin:miter;stroke-miterlimit:4;stroke-dasharray:none;stroke-opacity:1" />
    <path
       d="M 270.41469,542.57033 C 246.96421,626.12784 166.8057,651.27987 151.79344,656.8507 c -19.58393,7.26727 -108.477762,-5.58113 -108.477762,-5.58113 3e-6,0 50.539806,12.7396 59.576392,21.12858 21.52768,19.98502 51.90638,107.43971 69.98566,118.62126 18.07946,11.18154 36.14093,0.0346 45.18061,5.62543 9.03948,5.59075 86.74599,30.37815 162.6502,29.72175 87.43141,-0.75607 138.68205,-21.34041 150.73493,-26.93119 12.05307,-5.59077 30.11454,8.39097 45.18061,-2.79056 15.0662,-11.18155 60.27797,-106.23413 78.35736,-123.00644 9.41519,-8.73463 22.88596,-13.65646 33.66399,-16.38904 -25.66391,4.40123 -71.96446,11.1682 -84.86868,5.18248 -17.98211,-8.34103 -86.39119,-34.31361 -108.43347,-113.35019 -25.55651,34.59499 -61.68046,55.45547 -109.71802,55.67846 -52.02036,0.24149 -87.96733,-26.92122 -115.21057,-62.18978 z m 418.23074,114.67903 c 10.29191,-1.76502 17.58502,-3.18922 17.585,-3.18922 0,0 -7.66695,0.67466 -17.585,3.18922 z"
       id="path13290"
       style="display:inline;opacity:0.326772;fill:url(#linearGradient3488);fill-opacity:1;fill-rule:evenodd;stroke:#000000;stroke-width:3;stroke-linecap:butt;stroke-linejoin:miter;stroke-miterlimit:4;stroke-dasharray:none;stroke-opacity:1" />
  </g>
</svg>
